<svg xmlns="http://www.w3.org/2000/svg" xmlns:xlink="http://www.w3.org/1999/xlink" xmlns:inkscape="http://www.inkscape.org/namespaces/inkscape" version="1.1" width="542.123" height="616.227" viewBox="0 0 542.123 616.227">
<defs>
<clipPath id="clip_1">
<path transform="matrix(1,0,0,-1,0,616.227)" d="M0 616.227H542.123V0H0Z"/>
</clipPath>
<clipPath id="clip_2">
<path transform="matrix(1,0,0,-1,0,616.227)" d="M264.438 546.59V285.684C289.658 293.164 410.108 276.559 464.218 370.509V546.59Z"/>
</clipPath>
<clipPath id="clip_3">
<path transform="matrix(1,0,0,-1,0,616.227)" d="M0 616.227H542.123V0H0Z"/>
</clipPath>
<clipPath id="clip_4">
<path transform="matrix(1,0,0,-1,0,616.227)" d="M64.628 546.59V364.461C118.738 270.511 239.188 293.164 264.408 285.684V546.59Z"/>
</clipPath>
<clipPath id="clip_5">
<path transform="matrix(1,0,0,-1,0,616.227)" d="M0 616.227H542.123V0H0Z"/>
</clipPath>
</defs>
<g inkscape:groupmode="layer" inkscape:label="Camada 2">
</g>
<g inkscape:groupmode="layer" inkscape:label="Camada 1">
<g clip-path="url(#clip_1)">
<path transform="matrix(1,0,0,-1,488.8239,41.299867)" d="M0 0V-386.759C-65.251-508.063-224.403-547.203-224.403-547.203-224.403-547.203-383.554-508.063-448.804-386.759V0Z" fill="#c00808"/>
<path transform="matrix(1,0,0,-1,264.4279,575.76528)" d="M0 0C-21.451 5.992-154.231 46.749-212.104 150.852V522.096H212.092V150.852C154.118 46.56 21.461 5.972 0 0M2.932-.79 2.939-.791C2.937-.791 2.934-.791 2.932-.79" fill="#ffffff"/>
<path transform="matrix(1,0,0,-1,264.4339,562.9601)" d="M0 0C-25.235 7.498-145.783 47.499-199.806 141.286V493.323H199.782V141.286C145.672 47.338 25.226 7.47 0 0" fill="#c00808"/>
<path transform="matrix(1,0,0,-1,464.218,69.63739)" d="M0 0V-176.08C-54.11-270.03-174.56-253.425-199.78-260.905V0Z" fill="#ffffff"/>
</g>
<g clip-path="url(#clip_2)">
<path transform="matrix(1,0,0,-1,0,616.227)" d="M314.981 554.267H264.438V604.81008H314.981Z" fill="#c00808"/>
<path transform="matrix(1,0,0,-1,0,616.227)" d="M365.524 503.724H314.981V554.26699H365.524Z" fill="#c00808"/>
<path transform="matrix(1,0,0,-1,0,616.227)" d="M416.067 554.267H365.524V604.81008H416.067Z" fill="#c00808"/>
<path transform="matrix(1,0,0,-1,0,616.227)" d="M466.61 503.724H416.067V554.26699H466.61Z" fill="#c00808"/>
<path transform="matrix(1,0,0,-1,0,616.227)" d="M517.153 554.267H466.61003V604.81008H517.153Z" fill="#c00808"/>
<path transform="matrix(1,0,0,-1,0,616.227)" d="M314.981 453.181H264.438V503.724H314.981Z" fill="#c00808"/>
<path transform="matrix(1,0,0,-1,0,616.227)" d="M365.524 402.638H314.981V453.181H365.524Z" fill="#c00808"/>
<path transform="matrix(1,0,0,-1,0,616.227)" d="M416.067 453.181H365.524V503.724H416.067Z" fill="#c00808"/>
<path transform="matrix(1,0,0,-1,0,616.227)" d="M466.61 402.638H416.067V453.181H466.61Z" fill="#c00808"/>
<path transform="matrix(1,0,0,-1,0,616.227)" d="M517.153 453.181H466.61003V503.724H517.153Z" fill="#c00808"/>
<path transform="matrix(1,0,0,-1,0,616.227)" d="M314.981 352.095H264.438V402.638H314.981Z" fill="#c00808"/>
<path transform="matrix(1,0,0,-1,0,616.227)" d="M365.524 301.552H314.981V352.095H365.524Z" fill="#c00808"/>
<path transform="matrix(1,0,0,-1,0,616.227)" d="M416.067 352.095H365.524V402.638H416.067Z" fill="#c00808"/>
<path transform="matrix(1,0,0,-1,0,616.227)" d="M466.61 301.552H416.067V352.095H466.61Z" fill="#c00808"/>
<path transform="matrix(1,0,0,-1,0,616.227)" d="M517.153 352.095H466.61003V402.638H517.153Z" fill="#c00808"/>
<path transform="matrix(1,0,0,-1,0,616.227)" d="M314.981 251.009H264.438V301.552H314.981Z" fill="#c00808"/>
<path transform="matrix(1,0,0,-1,0,616.227)" d="M365.524 200.466H314.981V251.009H365.524Z" fill="#c00808"/>
<path transform="matrix(1,0,0,-1,0,616.227)" d="M416.067 251.009H365.524V301.552H416.067Z" fill="#c00808"/>
<path transform="matrix(1,0,0,-1,0,616.227)" d="M466.61 200.466H416.067V251.009H466.61Z" fill="#c00808"/>
<path transform="matrix(1,0,0,-1,0,616.227)" d="M517.153 251.009H466.61003V301.552H517.153Z" fill="#c00808"/>
</g>
<g clip-path="url(#clip_3)">
<path transform="matrix(1,0,0,-1,64.6281,69.63739)" d="M0 0V-182.128C54.11-276.078 174.56-253.425 199.78-260.905V0Z" fill="#ffffff"/>
</g>
<g clip-path="url(#clip_4)">
<path transform="matrix(1,0,0,-1,0,616.227)" d="M266.8 554.267H317.343V604.81008H266.8Z" fill="#c00808"/>
<path transform="matrix(1,0,0,-1,0,616.227)" d="M216.257 503.724H266.8V554.26699H216.257Z" fill="#c00808"/>
<path transform="matrix(1,0,0,-1,0,616.227)" d="M165.714 554.267H216.257V604.81008H165.714Z" fill="#c00808"/>
<path transform="matrix(1,0,0,-1,0,616.227)" d="M115.171 503.724H165.71399V554.26699H115.171Z" fill="#c00808"/>
<path transform="matrix(1,0,0,-1,0,616.227)" d="M64.628 554.267H115.171V604.81008H64.628Z" fill="#c00808"/>
<path transform="matrix(1,0,0,-1,0,616.227)" d="M266.8 453.181H317.343V503.724H266.8Z" fill="#c00808"/>
<path transform="matrix(1,0,0,-1,0,616.227)" d="M216.257 402.638H266.8V453.181H216.257Z" fill="#c00808"/>
<path transform="matrix(1,0,0,-1,0,616.227)" d="M165.714 453.181H216.257V503.724H165.714Z" fill="#c00808"/>
<path transform="matrix(1,0,0,-1,0,616.227)" d="M115.171 402.638H165.71399V453.181H115.171Z" fill="#c00808"/>
<path transform="matrix(1,0,0,-1,0,616.227)" d="M64.628 453.181H115.171V503.724H64.628Z" fill="#c00808"/>
<path transform="matrix(1,0,0,-1,0,616.227)" d="M266.8 352.095H317.343V402.638H266.8Z" fill="#c00808"/>
<path transform="matrix(1,0,0,-1,0,616.227)" d="M216.257 301.552H266.8V352.095H216.257Z" fill="#c00808"/>
<path transform="matrix(1,0,0,-1,0,616.227)" d="M165.714 352.095H216.257V402.638H165.714Z" fill="#c00808"/>
<path transform="matrix(1,0,0,-1,0,616.227)" d="M115.171 301.552H165.71399V352.095H115.171Z" fill="#c00808"/>
<path transform="matrix(1,0,0,-1,0,616.227)" d="M64.628 352.095H115.171V402.638H64.628Z" fill="#c00808"/>
<path transform="matrix(1,0,0,-1,0,616.227)" d="M266.8 251.009H317.343V301.552H266.8Z" fill="#c00808"/>
<path transform="matrix(1,0,0,-1,0,616.227)" d="M216.257 200.466H266.8V251.009H216.257Z" fill="#c00808"/>
<path transform="matrix(1,0,0,-1,0,616.227)" d="M165.714 251.009H216.257V301.552H165.714Z" fill="#c00808"/>
<path transform="matrix(1,0,0,-1,0,616.227)" d="M115.171 200.466H165.71399V251.009H115.171Z" fill="#c00808"/>
<path transform="matrix(1,0,0,-1,0,616.227)" d="M64.628 251.009H115.171V301.552H64.628Z" fill="#c00808"/>
</g>
<g clip-path="url(#clip_5)">
<path transform="matrix(1,0,0,-1,0,616.227)" d="M471.407 342.837H54.973024V355.141H471.407Z" fill="#ffffff"/>
<path transform="matrix(1,0,0,-1,512.5183,298.309)" d="M0 0C0 37.163 0 74.327 0 111.49-.136 111.516-.204 111.529-.34 111.555-.476 111.581-.544 111.594-.679 111.62-.815 111.646-.883 111.658-1.019 111.684-5.647 112.563-7.963 112.992-12.596 113.83-12.611 113.833-12.625 113.833-12.639 113.836-35.151 117.792-57.695 121.272-80.351 124.286-80.449 124.299-80.546 124.318-80.644 124.331-85.716 124.98-88.253 125.292-93.33 125.894V125.885C-97.47 126.374-99.54 126.611-103.683 127.068V127.078C-126.196 129.457-148.71 131.366-171.302 132.811V132.794C-175.529 133.044-177.643 133.161-181.872 133.377V133.395C-203.582 134.409-225.269 134.991-247.002 135.142V135.118C-262.651 135.173-278.303 134.901-293.944 134.403-294.332 134.403-294.718 134.406-295.108 134.393-296.169 134.357-296.7 134.338-297.761 134.301-298.157 134.287-298.551 134.257-298.945 134.23-325.319 133.141-351.587 131.399-377.875 129-378.37 128.971-378.866 128.939-379.366 128.891-380.424 128.788-380.953 128.736-382.011 128.631-382.518 128.581-383.022 128.515-383.525 128.444-409.609 125.702-435.547 122.325-461.464 118.297-462.052 118.231-462.642 118.151-463.236 118.055-464.287 117.886-464.813 117.8-465.864 117.628-466.461 117.531-467.054 117.418-467.645 117.292-467.651 117.291-467.653 117.291-467.659 117.29-467.676 117.286-467.693 117.28-467.709 117.277-468.604 117.104-469.522 116.841-470.417 116.577-470.546 116.54-470.676 116.505-470.804 116.465-471.669 116.201-472.526 115.897-473.376 115.569-473.536 115.507-473.697 115.444-473.856 115.379-474.701 115.039-475.537 114.671-476.363 114.269-476.492 114.206-476.619 114.139-476.748 114.075-477.61 113.643-478.467 113.186-479.309 112.686-483.421 110.241-487.076 107.188-490.175 103.624-493.314 100.016-495.827 95.944-497.644 91.552-499.546 86.956-500.513 82.218-500.513 77.477-500.513 44.486-500.513 11.495-500.513-21.496V-46.374C-500.513-51.27-497.737-55.198-493.371-56.534-493.329-56.547-493.287-56.56-493.246-56.573-491.69-57.061-490.025-57.29-488.314-57.264-488.018-57.274-487.721-57.279-487.422-57.274-487.134-57.284-486.844-57.288-486.552-57.283-486.263-57.293-485.973-57.297-485.681-57.292-485.392-57.303-485.102-57.307-484.811-57.302-484.522-57.312-484.232-57.316-483.94-57.311-483.652-57.321-483.362-57.325-483.071-57.32-482.69-57.334-482.307-57.333-481.921-57.32-481.856-57.321-481.79-57.318-481.725-57.319-481.437-57.336-481.143-57.326-480.852-57.328-480.563-57.346-480.269-57.335-479.977-57.337-479.689-57.355-479.396-57.345-479.104-57.347-478.816-57.364-478.522-57.354-478.23-57.356-477.942-57.374-477.648-57.364-477.356-57.366-477.068-57.383-476.774-57.374-476.482-57.375-476.194-57.393-475.9-57.383-475.609-57.384-475.32-57.402-475.027-57.392-474.735-57.394-474.447-57.412-474.153-57.402-473.861-57.403-473.573-57.421-473.279-57.411-472.987-57.413-472.699-57.43-472.406-57.42-472.114-57.422-471.825-57.44-471.532-57.43-471.239-57.432-470.951-57.449-470.658-57.439-470.367-57.441-470.078-57.458-469.785-57.449-469.493-57.45-469.204-57.468-468.911-57.458-468.619-57.459-468.33-57.478-468.036-57.468-467.744-57.469-467.456-57.487-467.163-57.478-466.871-57.479-466.583-57.496-466.289-57.487-465.997-57.488-465.709-57.506-465.416-57.496-465.124-57.497-464.835-57.515-464.542-57.506-464.249-57.507-463.961-57.524-463.668-57.515-463.376-57.516-463.088-57.534-462.794-57.524-462.502-57.525-462.214-57.543-461.921-57.534-461.629-57.535-461.34-57.553-461.047-57.543-460.755-57.544-460.466-57.562-460.173-57.553-459.881-57.554-459.593-57.572-459.299-57.563-459.007-57.563-458.719-57.581-458.426-57.572-458.133-57.572-457.845-57.59-457.552-57.582-457.259-57.582-456.971-57.6-456.678-57.591-456.386-57.591-456.098-57.609-455.804-57.601-455.512-57.601-455.224-57.619-454.931-57.61-454.639-57.61-454.35-57.628-454.057-57.619-453.765-57.62-453.476-57.637-453.183-57.629-452.891-57.629-452.602-57.647-452.309-57.638-452.017-57.638-451.729-57.656-451.435-57.647-451.143-57.647-450.855-57.666-450.562-57.657-450.27-57.657-449.981-57.675-449.688-57.667-449.396-57.667-449.107-57.685-448.814-57.676-448.522-57.676-448.234-57.694-447.941-57.686-447.649-57.685-447.36-57.703-447.067-57.695-446.774-57.695-446.486-57.713-446.193-57.705-445.901-57.704-445.613-57.722-445.319-57.714-445.027-57.713-444.739-57.731-444.445-57.724-444.153-57.723-443.865-57.741-443.572-57.733-443.279-57.732-442.991-57.75-442.698-57.742-442.406-57.742-442.118-57.76-441.824-57.752-441.532-57.751-441.244-57.769-440.951-57.761-440.658-57.76-440.37-57.779-440.077-57.771-439.784-57.77-439.496-57.788-439.203-57.78-438.911-57.779-438.622-57.797-438.329-57.79-438.036-57.789-437.748-57.807-437.455-57.799-437.163-57.798-436.875-57.816-436.582-57.809-436.289-57.808-436.001-57.826-435.708-57.818-435.416-57.817-435.127-57.835-434.834-57.828-434.542-57.826-434.254-57.845-433.96-57.837-433.668-57.835-433.38-57.854-433.087-57.847-432.794-57.845-432.506-57.863-432.213-57.856-431.921-57.854-431.632-57.873-431.339-57.866-431.046-57.864-430.758-57.882-430.466-57.875-430.173-57.873-429.885-57.892-429.592-57.885-429.299-57.883-429.011-57.901-428.718-57.894-428.426-57.892-428.137-57.91-427.844-57.903-427.552-57.901-427.263-57.92-426.971-57.913-426.678-57.911-426.39-57.929-426.097-57.922-425.804-57.92-425.516-57.938-425.223-57.932-424.93-57.93-424.642-57.948-424.349-57.941-424.057-57.939-423.768-57.958-423.475-57.951-423.183-57.948-422.895-57.967-422.602-57.96-422.309-57.958-422.021-57.977-421.728-57.97-421.435-57.967-421.147-57.986-420.854-57.979-420.561-57.977-420.273-57.995-419.981-57.989-419.688-57.986-419.4-58.004-419.107-57.999-418.814-57.996-418.526-58.014-418.233-58.008-417.94-58.005-417.652-58.023-417.359-58.018-417.067-58.014-416.778-58.033-416.485-58.027-416.193-58.023-415.904-58.042-415.612-58.036-415.319-58.033-415.031-58.052-414.738-58.046-414.445-58.042-414.157-58.061-413.864-58.056-413.571-58.052-413.283-58.07-412.991-58.065-412.698-58.061-412.409-58.08-412.116-58.074-411.823-58.071-411.535-58.089-411.243-58.084-410.95-58.08-410.662-58.099-410.369-58.093-410.076-58.089-409.788-58.108-409.495-58.103-409.202-58.099-408.914-58.118-408.622-58.112-408.329-58.108-408.041-58.127-407.748-58.122-407.455-58.118-407.167-58.136-406.874-58.131-406.582-58.127-406.293-58.146-406.001-58.141-405.707-58.136-405.419-58.155-405.127-58.15-404.834-58.146-404.546-58.165-404.253-58.16-403.96-58.155-403.672-58.174-403.379-58.169-403.086-58.165-402.798-58.184-402.505-58.179-402.212-58.174-401.924-58.193-401.632-58.188-401.339-58.184-401.051-58.202-400.758-58.198-400.464-58.193-400.177-58.212-399.884-58.208-399.591-58.202-399.303-58.221-399.01-58.217-398.717-58.211-398.429-58.23-398.137-58.227-397.844-58.221-397.556-58.24-397.263-58.236-396.97-58.23-396.682-58.25-396.39-58.246-396.096-58.24-395.808-58.259-395.516-58.255-395.222-58.249-394.934-58.268-394.642-58.265-394.349-58.259-394.06-58.278-393.768-58.274-393.474-58.268-393.187-58.287-392.894-58.284-392.601-58.277-392.313-58.296-392.02-58.293-391.727-58.287-391.439-58.306-391.147-58.303-390.854-58.296-390.566-58.315-390.273-58.313-389.98-58.306-389.692-58.325-389.4-58.322-389.106-58.315-388.818-58.334-388.526-58.332-388.232-58.324-387.944-58.344-387.652-58.341-387.359-58.334-387.071-58.353-386.778-58.351-386.485-58.343-386.197-58.362-385.905-58.36-385.611-58.353-385.323-58.372-385.03-58.37-384.736-58.362-384.446-58.381-384.15-58.379-383.854-58.371-383.089-58.422-382.303-58.383-381.511-58.242-377.743-57.567-375.857-57.243-372.082-56.617-369.059-56.116-367.547-55.874-364.52-55.404-360.695-54.81-358.781-54.526-354.951-53.982V-53.939C-354.891-53.931-354.862-53.927-354.803-53.918-354.803-53.901-354.802-53.893-354.802-53.875-354.743-53.867-354.714-53.863-354.655-53.854-354.654-53.837-354.654-53.829-354.654-53.811-354.595-53.803-354.566-53.798-354.507-53.79-354.506-53.773-354.506-53.765-354.506-53.747-354.447-53.739-354.418-53.735-354.359-53.727-354.358-53.709-354.358-53.7-354.357-53.683-354.299-53.675-354.27-53.67-354.211-53.662-354.21-53.645-354.21-53.636-354.209-53.619-354.151-53.611-354.121-53.607-354.063-53.599-354.062-53.581-354.062-53.573-354.061-53.555-354.003-53.547-353.974-53.542-353.915-53.535-353.914-53.518-353.913-53.508-353.912-53.491-353.854-53.483-353.825-53.479-353.767-53.471-353.766-53.455-353.766-53.447-353.764-53.432-350.309-52.979-348.58-52.763-345.121-52.351-344.342-52.446-343.541-52.453-342.721-52.35-336.842-51.607-330.946-50.941-325.048-50.354V-50.311C-325.024-50.309-325.012-50.308-324.988-50.305-324.988-50.288-324.988-50.279-324.988-50.262-324.964-50.26-324.952-50.258-324.927-50.256-324.927-50.238-324.927-50.23-324.927-50.212-324.903-50.21-324.891-50.209-324.867-50.207-324.867-50.189-324.866-50.181-324.866-50.164-324.842-50.161-324.83-50.16-324.807-50.158-324.806-50.14-324.806-50.132-324.805-50.114-324.781-50.112-324.77-50.11-324.746-50.108-324.745-50.091-324.745-50.083-324.744-50.065-324.73-50.064-324.723-50.063-324.708-50.062H-324.706C-324.36-50.106-324.011-50.135-323.657-50.143-323.637-50.144-323.617-50.143-323.597-50.143-323.247-50.146-322.667-50.118-322.312-50.083-318.599-49.723-316.742-49.554-313.026-49.24-309.98-48.982-308.456-48.862-305.409-48.636-301.557-48.35-299.631-48.22-295.777-47.984V-47.59C-291.824-47.505-289.847-47.477-285.892-47.444-281.003-47.21-278.558-47.113-273.666-46.959-270.606-46.863-269.075-46.823-266.014-46.758-261.015-46.652-258.515-46.621-253.515-46.599-250.446-46.585-248.912-46.586-245.842-46.604-240.683-46.635-238.103-46.672-232.944-46.793-229.07-46.883-227.134-46.94-223.261-47.081-221.712-47.137-220.937-47.167-219.389-47.231-217.901-47.293-217.157-47.326-215.669-47.395-208.93-47.708-202.195-48.113-195.467-48.61-179.584-49.854-163.776-51.53-147.985-53.645-143.549-54.259-141.333-54.583-136.904-55.264-135.363-55.501-134.593-55.622-133.054-55.867-128.788-56.546-126.657-56.901-122.398-57.643-122.386-57.656-122.379-57.663-122.366-57.676-122.353-57.667-122.347-57.663-122.334-57.654-117.638-58.483-115.293-58.917-110.608-59.821V-59.646C-110.305-59.704-110.017-59.759-109.694-59.821V-59.646C-109.391-59.704-109.102-59.759-108.779-59.821V-59.646C-108.476-59.704-108.188-59.759-107.865-59.821V-59.646C-107.562-59.704-107.274-59.759-106.951-59.821V-59.645C-106.655-59.702-106.352-59.761-106.037-59.821V-59.645C-105.741-59.702-105.438-59.761-105.123-59.821V-59.645C-104.827-59.702-104.523-59.761-104.209-59.821V-59.645C-103.913-59.702-103.609-59.761-103.295-59.821V-59.645C-102.999-59.702-102.695-59.761-102.381-59.821V-59.645C-102.085-59.702-101.781-59.761-101.466-59.821V-59.645C-101.171-59.702-100.866-59.761-100.552-59.821V-59.645C-100.257-59.702-99.952-59.761-99.638-59.821V-59.645C-99.342-59.702-99.038-59.761-98.724-59.821V-59.645C-98.428-59.702-98.124-59.761-97.81-59.821V-59.645C-97.514-59.702-97.21-59.761-96.896-59.821V-59.645C-96.6-59.702-96.296-59.761-95.982-59.821V-59.645C-95.685-59.702-95.382-59.761-95.068-59.821V-59.645C-94.771-59.702-94.468-59.761-94.154-59.821V-59.645C-93.857-59.702-93.554-59.761-93.239-59.821V-59.645C-92.943-59.702-92.639-59.761-92.325-59.821V-59.645C-92.029-59.702-91.725-59.761-91.411-59.821V-59.645C-91.114-59.702-90.811-59.761-90.497-59.821V-59.645C-90.2-59.702-89.897-59.761-89.583-59.821V-59.645C-89.286-59.702-88.983-59.761-88.669-59.821V-59.645C-88.372-59.702-88.069-59.761-87.755-59.821V-59.645C-87.458-59.702-87.155-59.761-86.841-59.821V-59.645C-86.543-59.702-86.241-59.761-85.927-59.821V-59.645C-85.629-59.702-85.327-59.761-85.012-59.821V-59.645C-84.715-59.702-84.413-59.761-84.098-59.821V-59.645C-83.801-59.702-83.498-59.761-83.184-59.821V-59.645C-82.887-59.702-82.584-59.761-82.27-59.821V-59.645C-81.973-59.702-81.67-59.761-81.356-59.821V-59.645C-81.058-59.702-80.756-59.761-80.442-59.821V-59.645C-80.144-59.702-79.842-59.761-79.528-59.821V-59.645C-79.23-59.702-78.928-59.761-78.614-59.821V-59.645C-78.316-59.702-78.014-59.761-77.7-59.821V-59.645C-77.402-59.703-77.1-59.761-76.786-59.821V-59.645C-76.487-59.702-76.185-59.761-75.871-59.821V-59.645C-75.573-59.703-75.271-59.761-74.957-59.821V-59.645C-74.659-59.703-74.357-59.761-74.043-59.821V-59.645C-73.745-59.703-73.443-59.761-73.129-59.821V-59.645C-72.831-59.703-72.529-59.761-72.215-59.821V-59.645C-71.916-59.703-71.615-59.761-71.301-59.821V-59.645C-71.002-59.703-70.701-59.761-70.387-59.821V-59.645C-70.088-59.703-69.787-59.761-69.473-59.821V-59.645C-69.174-59.703-68.873-59.761-68.559-59.821V-59.645C-68.26-59.703-67.958-59.761-67.644-59.821V-59.645C-67.345-59.703-67.044-59.761-66.73-59.821V-59.645C-66.431-59.703-66.13-59.761-65.816-59.821V-59.645C-65.517-59.703-65.216-59.761-64.902-59.821V-59.645C-64.603-59.703-64.302-59.761-63.988-59.821V-59.645C-63.689-59.703-63.388-59.761-63.074-59.821V-59.645C-62.775-59.703-62.474-59.761-62.16-59.821V-59.645C-61.861-59.703-61.56-59.761-61.246-59.821V-59.645C-60.946-59.703-60.646-59.761-60.331-59.821V-59.645C-60.032-59.703-59.731-59.761-59.417-59.821V-59.645C-59.118-59.703-58.817-59.761-58.503-59.821V-59.645C-58.204-59.703-57.903-59.761-57.589-59.821V-59.645C-57.289-59.703-56.989-59.761-56.675-59.821V-59.645C-56.375-59.703-56.075-59.761-55.761-59.821V-59.645C-55.461-59.703-55.161-59.761-54.847-59.821V-59.645C-54.547-59.703-54.247-59.761-53.933-59.821V-59.645C-53.633-59.703-53.333-59.761-53.019-59.821V-59.645C-52.719-59.703-52.419-59.761-52.105-59.821V-59.645C-51.804-59.703-51.505-59.761-51.19-59.821V-59.645C-50.89-59.703-50.59-59.761-50.276-59.821V-59.645C-49.976-59.703-49.676-59.761-49.362-59.821V-59.645C-49.062-59.703-48.762-59.761-48.448-59.821V-59.645C-48.148-59.703-47.848-59.761-47.534-59.821V-59.645C-47.234-59.703-46.934-59.761-46.62-59.821V-59.645C-46.319-59.703-46.02-59.761-45.706-59.821V-59.645C-45.405-59.703-45.106-59.761-44.792-59.821V-59.645C-44.491-59.703-44.192-59.761-43.878-59.821V-59.645C-43.577-59.703-43.277-59.761-42.963-59.821V-59.645C-42.663-59.703-42.363-59.761-42.049-59.821V-59.645C-41.749-59.703-41.449-59.761-41.135-59.821V-59.645C-40.835-59.703-40.535-59.761-40.221-59.821V-59.645C-39.92-59.703-39.621-59.761-39.307-59.821V-59.645C-39.006-59.703-38.707-59.761-38.393-59.821V-59.645C-38.092-59.703-37.793-59.761-37.479-59.821V-59.645C-37.178-59.703-36.879-59.761-36.565-59.821V-59.645C-36.264-59.703-35.965-59.761-35.651-59.821V-59.645C-35.35-59.703-35.05-59.761-34.736-59.821V-59.645C-34.435-59.703-34.136-59.761-33.822-59.821V-59.645C-33.521-59.703-33.222-59.761-32.908-59.821V-59.645C-32.607-59.703-32.308-59.761-31.994-59.821V-59.645C-31.693-59.703-31.394-59.761-31.08-59.821V-59.645C-30.779-59.703-30.48-59.761-30.166-59.821V-59.645C-29.865-59.703-29.566-59.761-29.252-59.821V-59.645C-28.95-59.703-28.652-59.761-28.338-59.821V-59.645C-28.036-59.703-27.738-59.761-27.423-59.821V-59.645C-27.122-59.703-26.824-59.761-26.509-59.821V-59.645C-26.208-59.703-25.909-59.761-25.595-59.821V-59.645C-25.294-59.703-24.995-59.761-24.681-59.821V-59.645C-24.38-59.703-24.081-59.761-23.767-59.821V-59.645C-23.465-59.703-23.167-59.761-22.853-59.821V-59.645C-22.551-59.703-22.253-59.761-21.939-59.821V-59.645C-21.637-59.703-21.339-59.761-21.025-59.821V-59.645C-20.723-59.703-20.425-59.761-20.111-59.821V-59.645C-19.809-59.703-19.511-59.761-19.197-59.821V-59.645C-18.895-59.703-18.597-59.761-18.282-59.821V-59.645C-17.98-59.703-17.683-59.761-17.368-59.821V-59.645C-17.066-59.703-16.768-59.761-16.454-59.821V-59.645C-16.152-59.703-15.854-59.761-15.54-59.821V-59.645C-15.238-59.703-14.94-59.761-14.626-59.821V-59.645C-14.324-59.703-14.026-59.761-13.712-59.821V-59.645C-13.41-59.703-13.112-59.761-12.798-59.821V-59.645C-12.496-59.703-12.198-59.761-11.884-59.821V-59.645C-11.581-59.703-11.284-59.761-10.97-59.821V-59.645C-10.667-59.703-10.37-59.761-10.055-59.821V-59.645C-9.753-59.703-9.455-59.761-9.141-59.821V-59.645C-8.839-59.703-8.541-59.761-8.227-59.821V-59.645C-7.925-59.703-7.627-59.761-7.313-59.821V-59.645C-7.011-59.703-6.713-59.761-6.399-59.821V-59.645C-6.096-59.703-5.799-59.761-5.485-59.821V-59.645C-5.182-59.703-4.885-59.761-4.571-59.821V-59.645C-4.268-59.703-3.971-59.761-3.657-59.821V-59.645C-3.354-59.703-3.057-59.761-2.743-59.821V-59.645C-2.44-59.703-2.142-59.761-1.829-59.821V-59.645C-1.526-59.703-1.228-59.761-.914-59.821V-59.645C-.612-59.703-.314-59.761 0-59.821 0-39.881 0-19.94 0 0" fill="#c00808"/>
<path transform="matrix(1,0,0,-1,512.5183,298.309)" d="M0 0C0 37.163 0 74.327 0 111.49-.136 111.516-.204 111.529-.34 111.555-.476 111.581-.544 111.594-.679 111.62-.815 111.646-.883 111.658-1.019 111.684-5.647 112.563-7.963 112.992-12.596 113.83-12.611 113.833-12.625 113.833-12.639 113.836-35.151 117.792-57.695 121.272-80.351 124.286-80.449 124.299-80.546 124.318-80.644 124.331-85.716 124.98-88.253 125.292-93.33 125.894V125.885C-97.47 126.374-99.54 126.611-103.683 127.068V127.078C-126.196 129.457-148.71 131.366-171.302 132.811V132.794C-175.529 133.044-177.643 133.161-181.872 133.377V133.395C-203.582 134.409-225.269 134.991-247.002 135.142V135.118C-262.651 135.173-278.303 134.901-293.944 134.403-294.332 134.403-294.718 134.406-295.108 134.393-296.169 134.357-296.7 134.338-297.761 134.301-298.157 134.287-298.551 134.257-298.945 134.23-325.319 133.141-351.587 131.399-377.875 129-378.37 128.971-378.866 128.939-379.366 128.891-380.424 128.788-380.953 128.736-382.011 128.631-382.518 128.581-383.022 128.515-383.525 128.444-409.609 125.702-435.547 122.325-461.464 118.297-462.052 118.231-462.642 118.151-463.236 118.055-464.287 117.886-464.813 117.8-465.864 117.628-466.461 117.531-467.054 117.418-467.645 117.292-467.651 117.291-467.653 117.291-467.659 117.29-467.676 117.286-467.693 117.28-467.709 117.277-468.604 117.104-469.522 116.841-470.417 116.577-470.546 116.54-470.676 116.505-470.804 116.465-471.669 116.201-472.526 115.897-473.376 115.569-473.536 115.507-473.697 115.444-473.856 115.379-474.701 115.039-475.537 114.671-476.363 114.269-476.492 114.206-476.619 114.139-476.748 114.075-477.61 113.643-478.467 113.186-479.309 112.686-483.421 110.241-487.076 107.188-490.175 103.624-493.314 100.016-495.827 95.944-497.644 91.552-499.546 86.956-500.513 82.218-500.513 77.477-500.513 44.486-500.513 11.495-500.513-21.496V-46.374C-500.513-51.27-497.737-55.198-493.371-56.534-493.329-56.547-493.287-56.56-493.246-56.573-490.838-57.328-488.169-57.474-485.47-56.991-478.717-55.783-475.337-55.2-468.573-54.079-463.156-53.182-460.445-52.747-455.021-51.905-448.167-50.841-444.737-50.332-437.872-49.358V-49.281C-437.766-49.266-437.713-49.258-437.607-49.243-437.607-49.212-437.607-49.197-437.607-49.166-437.501-49.151-437.448-49.144-437.342-49.128-437.342-49.097-437.341-49.082-437.341-49.051-437.235-49.036-437.182-49.028-437.077-49.013-437.076-48.982-437.076-48.967-437.075-48.937-436.97-48.921-436.917-48.914-436.812-48.899-436.811-48.868-436.81-48.853-436.809-48.821-436.704-48.806-436.652-48.799-436.547-48.784-436.546-48.753-436.545-48.738-436.543-48.707L-436.282-48.67C-436.28-48.639-436.279-48.624-436.277-48.592-436.173-48.577-436.121-48.57-436.017-48.555-436.015-48.524-436.014-48.508-436.011-48.478-435.908-48.463-435.856-48.456-435.752-48.441-435.75-48.413-435.749-48.399-435.746-48.371-429.555-47.559-426.457-47.172-420.258-46.433-418.861-46.605-417.426-46.617-415.957-46.433-405.42-45.102-394.854-43.909-384.287-42.856V-42.779C-384.243-42.774-384.222-42.772-384.178-42.768-384.178-42.737-384.178-42.722-384.177-42.691-384.135-42.687-384.113-42.684-384.07-42.68-384.069-42.648-384.069-42.633-384.068-42.602-384.026-42.598-384.004-42.596-383.962-42.591-383.961-42.561-383.96-42.545-383.959-42.515-383.917-42.51-383.896-42.508-383.853-42.504-383.852-42.473-383.851-42.457-383.85-42.426-383.808-42.422-383.787-42.419-383.745-42.416-383.743-42.384-383.743-42.369-383.741-42.338-383.715-42.336-383.703-42.334-383.677-42.332H-383.673C-383.053-42.412-382.427-42.463-381.793-42.477-381.757-42.478-381.721-42.477-381.685-42.478-381.057-42.482-380.018-42.432-379.383-42.371-372.729-41.725-369.401-41.422-362.741-40.859-357.283-40.398-354.553-40.182-349.091-39.776-342.189-39.265-338.737-39.032-331.831-38.609V-37.902C-324.747-37.75-321.204-37.699-314.117-37.642-305.355-37.222-300.973-37.048-292.208-36.772-286.723-36.6-283.98-36.528-278.495-36.412-269.536-36.222-265.056-36.165-256.096-36.125-250.596-36.102-247.846-36.104-242.346-36.136-233.1-36.191-228.477-36.258-219.232-36.474-212.29-36.635-208.82-36.738-201.88-36.99-199.104-37.091-197.716-37.145-194.94-37.26-192.274-37.371-190.941-37.429-188.275-37.553-176.198-38.115-164.129-38.84-152.072-39.73-123.609-41.958-95.279-44.962-66.982-48.752-59.033-49.853-55.061-50.434-47.125-51.655-44.364-52.08-42.984-52.296-40.225-52.735-32.58-53.952-28.761-54.589-21.13-55.917-21.107-55.941-21.095-55.953-21.073-55.977-21.049-55.961-21.038-55.954-21.015-55.938-12.6-57.423-8.397-58.2 0-59.821 0-39.881 0-19.94 0 0" fill="#c00808"/>
<path transform="matrix(1,0,0,-1,55.4176,213.28998)" d="M0 0C0 1.578-.614 2.865-1.841 3.855-3.067 4.845-4.5 5.207-6.135 4.942-7.187 4.772-7.713 4.687-8.764 4.515-10.401 4.248-11.86 3.415-13.143 2.018-14.429 .617-15.069-.873-15.069-2.451-15.069-19.476-15.069-36.501-15.069-53.526-9.046-52.511-6.032-52.021 0-51.076ZM16.143-91.604C9.682-92.536 6.453-93.021 0-94.034V-66.466C-6.032-67.412-9.046-67.902-15.069-68.917-15.069-79.944-15.069-85.457-15.069-96.484-21.373-97.547-24.522-98.097-30.816-99.235V-5.202C-30.816-2.269-30.233 .598-29.067 3.402-27.903 6.202-26.33 8.739-24.345 11.005-22.364 13.269-20.031 15.197-17.346 16.783-14.662 18.367-11.802 19.411-8.764 19.908-7.713 20.08-7.187 20.165-6.135 20.335-3.099 20.826-.234 20.713 2.455 20.002 5.142 19.292 7.515 18.125 9.56 16.516 11.605 14.907 13.219 12.884 14.387 10.463 15.557 8.041 16.143 5.362 16.143 2.43Z" fill="#ffffff"/>
<path transform="matrix(1,0,0,-1,139.3244,202.8457)" d="M0 0C0 1.578-.617 2.905-1.852 3.973-3.085 5.04-4.527 5.494-6.172 5.334-7.23 5.231-7.759 5.179-8.817 5.074-10.464 4.911-11.933 4.172-13.224 2.856-14.518 1.538-15.163 .089-15.163-1.489V-52.563C-9.1-51.934-6.068-51.636 0-51.075 0-34.05 0-17.025 0 0M16.234-92.631C9.738-93.152 6.491-93.432 0-94.032 0-83.005 0-77.492 0-66.465-6.068-67.025-9.1-67.323-15.163-67.954V-95.521C-21.507-96.181-24.678-96.53-31.016-97.265V-3.233C-31.016-.301-30.429 2.529-29.255 5.258-28.083 7.983-26.499 10.42-24.501 12.56-22.505 14.696-20.157 16.476-17.454 17.89-14.752 19.302-11.875 20.164-8.817 20.467-7.759 20.572-7.23 20.624-6.172 20.726-3.117 21.023-.235 20.728 2.47 19.845 5.173 18.963 7.558 17.646 9.615 15.906 11.672 14.167 13.294 12.042 14.469 9.546 15.645 7.049 16.234 4.333 16.234 1.401 16.234-29.943 16.234-61.287 16.234-92.631" fill="#ffffff"/>
<path transform="matrix(1,0,0,-1,223.6014,197.7348)" d="M0 0C0 1.578-.619 2.944-1.857 4.09-3.094 5.236-4.541 5.781-6.191 5.725-7.252 5.689-7.783 5.671-8.844 5.633-10.497 5.575-11.97 4.929-13.265 3.695-14.564 2.459-15.211 1.05-15.211-.527V-51.602C-9.128-51.356-6.085-51.25 0-51.074ZM16.277-93.66C9.766-93.769 6.51-93.843 0-94.032V-66.464C-6.085-66.641-9.128-66.746-15.211-66.992V-94.56C-21.577-94.816-24.76-94.964-31.124-95.297-31.124-63.953-31.124-32.609-31.124-1.265-31.124 1.667-30.534 4.46-29.356 7.115-28.179 9.766-26.588 12.102-24.583 14.114-22.58 16.124-20.222 17.756-17.51 18.998-14.8 20.238-11.911 20.917-8.844 21.026-7.783 21.063-7.252 21.082-6.191 21.118-3.126 21.221-.236 20.742 2.477 19.688 5.188 18.635 7.579 17.167 9.642 15.297 11.704 13.427 13.329 11.199 14.507 8.629 15.686 6.058 16.277 3.304 16.277 .372Z" fill="#ffffff"/>
<path transform="matrix(1,0,0,-1,317.899,292.36659)" d="M0 0C-13.202 .551-26.412 .905-39.625 1.064V116.407C-26.412 116.248-13.202 115.894 0 115.343V99.951C-9.337 100.34-14.007 100.494-23.348 100.72V58.779C-16.059 58.603-12.415 58.49-5.128 58.214V42.822C-12.415 43.098-16.059 43.211-23.348 43.387V16.159C-14.007 15.933-9.337 15.779 0 15.39Z" fill="#ffffff"/>
<path transform="matrix(1,0,0,-1,396.1303,197.98328)" d="M0 0C-5.147 .519-7.722 .766-12.873 1.234-12.873-32.083-12.873-65.401-12.873-98.719-19.364-98.128-22.612-97.852-29.108-97.341-29.108-64.023-29.108-30.706-29.108 2.612-34.334 3.023-36.947 3.216-42.176 3.576V18.968C-28.099 17.939-14.049 16.748 0 15.393Z" fill="#ffffff"/>
<path transform="matrix(1,0,0,-1,465.9046,259.63539)" d="M0 0C5.195 21.916 10.419 42.645 15.701 64.54 23.167 62.814 34.306 60.684 34.306 60.684 34.306 60.684 34.306-15.788 34.306-54.023 27.548-52.897 24.17-52.334 17.413-51.211 18.009-25.91 18.607-.608 19.204 24.694 14.943 7.072 10.715-10.557 6.509-28.192 1.299-27.299-1.307-26.865-6.518-26.025-10.714-6.984-14.93 12.053-19.195 31.079-18.605 5.581-18.016-19.917-17.427-45.416-24.184-44.291-27.562-43.729-34.319-42.606-34.307-4.375-34.283 72.088-34.283 72.088-34.283 72.088-23.145 70.512-15.68 69.757-10.406 46.122-5.189 23.653 0 0" fill="#ffffff"/>
<path transform="matrix(1,0,0,-1,47.6156,317.8183)" d="M0 0C0-1.889 0-2.834 0-4.723-7.011-5.865-10.514-6.459-17.514-7.695-17.58-7.707-17.63-7.854-17.663-8.138-17.696-8.422-17.713-8.882-17.713-9.52-17.713-10.138-17.696-10.583-17.663-10.854-17.63-11.125-17.58-11.255-17.514-11.244-10.514-10.008-7.011-9.414 0-8.272V-12.995C-7.011-14.137-10.514-14.731-17.514-15.967-17.647-15.99-17.713-16.593-17.713-17.777-17.713-18.96-17.647-19.54-17.514-19.517-10.514-18.281-7.011-17.687 0-16.544V-21.267C-7.011-22.409-10.514-23.003-17.514-24.239-18.265-24.371-18.978-24.328-19.651-24.108-20.326-23.889-20.91-23.526-21.407-23.018-21.904-22.511-22.296-21.886-22.583-21.146-22.87-20.407-23.014-19.584-23.014-18.677-23.014-17.958-22.914-17.235-22.716-16.51-22.517-15.784-22.23-15.079-21.854-14.395-22.208-13.841-22.49-13.228-22.699-12.557-22.909-11.884-23.014-11.198-23.014-10.499-23.014-9.593-22.876-8.72-22.6-7.877-22.324-7.035-21.937-6.272-21.44-5.585-20.943-4.899-20.364-4.328-19.701-3.87-19.038-3.412-18.31-3.112-17.514-2.972-10.515-1.736-7.011-1.142 0 0" fill="#ffffff"/>
<path transform="matrix(1,0,0,-1,76.4343,324.92909)" d="M0 0V11.482C2.13 11.781 3.195 11.929 5.326 12.219 5.326 3.713 5.326-.541 5.326-9.047-1.599-5.177-5.059-3.265-11.975 .514V-11.523C-14.103-11.842-15.166-12.003-17.293-12.331-17.293-3.824-17.293 .43-17.293 8.936-10.381 5.407-6.922 3.62 0 0" fill="#ffffff"/>
<path transform="matrix(1,0,0,-1,117.0962,308.3681)" d="M0 0V-4.723C-7.463-5.54-11.192-5.974-18.646-6.895-18.713-6.903-18.763-7.043-18.796-7.314-18.829-7.586-18.846-8.051-18.846-8.709V-16.95C-18.846-17.589-18.829-18.044-18.796-18.318-18.763-18.592-18.713-18.725-18.646-18.716-13.326-18.059-10.665-17.744-5.34-17.14V-13.59C-9.57-14.07-11.685-14.318-15.912-14.832V-10.109C-9.551-9.336-6.368-8.968 0-8.272V-21.267C-7.463-22.083-11.192-22.517-18.646-23.438-19.402-23.532-20.118-23.451-20.796-23.196-21.474-22.942-22.062-22.549-22.562-22.015-23.062-21.481-23.457-20.843-23.745-20.097-24.034-19.353-24.179-18.528-24.179-17.621-24.179-14.325-24.179-12.677-24.179-9.38-24.179-8.475-24.035-7.608-23.745-6.778-23.457-5.951-23.062-5.21-22.562-4.561-22.062-3.911-21.474-3.374-20.796-2.949-20.119-2.524-19.402-2.265-18.646-2.172-11.192-1.25-7.463-.816 0 0" fill="#ffffff"/>
<path transform="matrix(1,0,0,-1,151.6742,305.0419)" d="M0 0V-4.723C-7.062-5.31-10.592-5.627-17.648-6.308-17.715-6.314-17.765-6.458-17.798-6.739-17.832-7.02-17.849-7.479-17.849-8.117-17.849-8.734-17.832-9.181-17.798-9.455-17.765-9.729-17.715-9.863-17.648-9.856-10.592-9.176-7.062-8.859 0-8.272V-12.995C-7.062-13.582-10.592-13.898-17.648-14.579-17.782-14.592-17.849-15.19-17.849-16.374-17.849-17.557-17.782-18.142-17.648-18.129-10.592-17.448-7.062-17.131 0-16.545V-21.267C-7.062-21.854-10.592-22.17-17.648-22.851-18.406-22.924-19.124-22.824-19.803-22.551-20.481-22.278-21.072-21.868-21.573-21.321-22.073-20.775-22.469-20.119-22.759-19.356-23.048-18.595-23.193-17.76-23.193-16.854-23.193-16.134-23.093-15.419-22.893-14.71-22.692-14-22.403-13.317-22.024-12.663-22.381-12.081-22.664-11.446-22.875-10.757-23.088-10.068-23.193-9.375-23.193-8.675-23.193-7.77-23.054-6.907-22.776-6.086-22.497-5.266-22.107-4.534-21.607-3.886-21.106-3.24-20.521-2.714-19.853-2.309-19.185-1.903-18.45-1.662-17.648-1.584-10.592-.904-7.062-.587 0 0" fill="#ffffff"/>
<path transform="matrix(1,0,0,-1,180.6826,314.4321)" d="M0 0C0 4.593 0 6.889 0 11.482 2.143 11.613 3.214 11.677 5.357 11.799 5.357 3.292 5.357-.961 5.357-9.468-1.608-5.051-5.089-2.865-12.05 1.46-12.05-3.354-12.05-5.762-12.05-10.577-14.191-10.728-15.262-10.805-17.403-10.964-17.403-2.457-17.403 1.796-17.403 10.303-10.444 6.228-6.964 4.167 0 0" fill="#ffffff"/>
<path transform="matrix(1,0,0,-1,215.6855,322.53459)" d="M0 0V7.1C-5.094 6.922-7.64 6.821-12.732 6.595V-.505C-14.876-.601-15.948-.65-18.092-.754-18.092 7.752-18.092 12.006-18.092 20.513-15.948 20.616-14.876 20.667-12.732 20.762V11.316C-7.64 11.543-5.094 11.644 0 11.822V21.267C2.145 21.342 3.217 21.377 5.362 21.443V.177C3.217 .11 2.145 .075 0 0" fill="#ffffff"/>
<path transform="matrix(1,0,0,-1,251.2154,307.0034)" d="M0 0C0 .634-.017 1.089-.05 1.366-.084 1.642-.157 1.779-.268 1.778-5.337 1.735-7.871 1.701-12.94 1.61-13.052 1.608-13.124 1.469-13.158 1.192-13.192 .915-13.208 .459-13.208-.174V-4.166C-7.925-4.07-5.283-4.035 0-3.991ZM-.242 6.501C.541 6.508 1.274 6.343 1.957 6.008 2.639 5.673 3.232 5.214 3.736 4.63 4.24 4.046 4.636 3.358 4.928 2.568 5.219 1.777 5.364 .939 5.364 .055V-14.73C3.219-14.739 2.146-14.746 0-14.764V-8.714C-5.283-8.758-7.925-8.793-13.208-8.889V-14.938C-15.354-14.978-16.426-14.999-18.572-15.047V-.262C-18.572 .623-18.421 1.464-18.119 2.264-17.817 3.062-17.414 3.76-16.91 4.357-16.407 4.955-15.814 5.429-15.131 5.782-14.449 6.136-13.716 6.319-12.932 6.333-7.856 6.425-5.318 6.458-.242 6.501" fill="#ffffff"/>
<path transform="matrix(1,0,0,-1,273.5095,309.8852)" d="M0 0C5.525-.046 8.287-.084 13.812-.188 13.923-.19 13.996-.059 14.03 .209 14.063 .477 14.08 1.298 14.08 2.677 14.08 3.315 14.063 3.772 14.03 4.051 13.996 4.33 13.923 4.47 13.812 4.472 8.395 4.574 5.686 4.611 .268 4.658 .156 4.659 .084 4.521 .05 4.243 .017 3.965 0 3.508 0 2.87ZM0-4.723V-11.884C-2.146-11.866-3.218-11.858-5.364-11.849V2.936C-5.364 3.82-5.213 4.658-4.911 5.449-4.609 6.239-4.206 6.927-3.702 7.51-3.199 8.094-2.606 8.553-1.923 8.888-1.24 9.223-.508 9.388 .276 9.381 5.701 9.334 8.414 9.297 13.838 9.195 14.621 9.18 15.353 8.996 16.036 8.642 16.718 8.288 17.312 7.813 17.815 7.215 18.319 6.618 18.717 5.918 19.007 5.122 19.298 4.323 19.443 3.48 19.443 2.596 19.443 1.073 19.331-.025 19.107-.7 18.884-1.372 18.581-1.974 18.201-2.5 17.82-3.027 17.371-3.475 16.857-3.844 16.343-4.214 15.794-4.486 15.212-4.66 17.025-7.672 17.932-9.178 19.745-12.196 17.368-12.141 16.179-12.116 13.802-12.071 11.989-9.173 11.082-7.726 9.269-4.833 5.562-4.776 3.708-4.754 0-4.723" fill="#ffffff"/>
<path transform="matrix(1,0,0,-1,309.743,301.2993)" d="M0 0V-21.267C-2.145-21.191-3.217-21.155-5.362-21.087-5.361-12.58-5.361-8.327-5.361 .18-3.217 .112-2.144 .076 0 0" fill="#ffffff"/>
<path transform="matrix(1,0,0,-1,339.9908,309.2226)" d="M0 0C0 .634-.016 1.089-.05 1.369-.084 1.647-.156 1.789-.268 1.795-5.33 2.089-7.862 2.225-12.927 2.471-13.039 2.476-13.111 2.342-13.145 2.067-13.178 1.792-13.195 1.338-13.195 .704V-3.288C-7.916-3.543-5.277-3.684 0-3.992ZM-.242 6.517C.54 6.471 1.272 6.258 1.954 5.877 2.636 5.497 3.228 4.999 3.731 4.381 4.234 3.764 4.631 3.049 4.921 2.24 5.212 1.43 5.357 .582 5.357-.303V-15.088C3.214-14.954 2.143-14.89 0-14.765V-8.715C-5.277-8.407-7.916-8.267-13.195-8.011V-14.06C-15.339-13.956-16.411-13.907-18.555-13.812-18.555-7.897-18.555-4.94-18.555 .974-18.555 1.858-18.404 2.689-18.102 3.469-17.8 4.247-17.398 4.918-16.894 5.482-16.391 6.046-15.799 6.481-15.116 6.789-14.434 7.097-13.702 7.231-12.919 7.193-7.847 6.947-5.312 6.812-.242 6.517" fill="#ffffff"/>
<path transform="matrix(1,0,0,-1,393.27,323.44429)" d="M0 0C.089-.009 .151 .125 .184 .399 .217 .674 .234 1.129 .234 1.768V16.522C2.372 16.311 3.441 16.203 5.578 15.983V1.229C5.578 .323 5.432-.505 5.141-1.257 4.85-2.01 4.452-2.658 3.948-3.203 3.444-3.75 2.851-4.157 2.168-4.428 1.484-4.699 .762-4.797 0-4.722-4.77-4.251-7.156-4.027-11.929-3.6-12.686-3.532-13.405-3.298-14.085-2.899-14.765-2.5-15.355-1.981-15.857-1.34-16.358-.7-16.754 .022-17.043 .83-17.333 1.636-17.478 2.492-17.478 3.398V18.152C-15.338 17.97-14.268 17.876-12.129 17.685V2.931C-12.129 1.737-12.062 1.134-11.929 1.123-7.156 .695-4.77 .471 0 0" fill="#ffffff"/>
<path transform="matrix(1,0,0,-1,415.4686,330.5424)" d="M0 0C-2.135 .247-3.202 .368-5.338 .606V15.391C-5.338 16.275-5.189 17.097-4.891 17.856-4.593 18.614-4.194 19.26-3.697 19.79-3.199 20.321-2.614 20.717-1.94 20.98-1.266 21.243-.552 21.331 .201 21.244 6.672 20.496 9.906 20.102 16.37 19.274V14.551C9.906 15.378 6.672 15.772 .201 16.521 .133 16.529 .083 16.396 .051 16.121 .017 15.847 0 15.392 0 14.754V12.995C6.552 12.239 9.826 11.84 16.37 11.002 16.37 9.113 16.37 8.168 16.37 6.279 9.826 7.117 6.552 7.516 0 8.272 0 4.963 0 3.309 0 0" fill="#ffffff"/>
<path transform="matrix(1,0,0,-1,443.1964,317.4951)" d="M0 0V4.723C7.658 3.676 11.484 3.125 19.129 1.967V-2.756C16.363-2.337 14.98-2.131 12.213-1.727V-18.271C10.084-17.959 9.019-17.806 6.89-17.504V-.96C4.135-.569 2.757-.377 0 0" fill="#ffffff"/>
<path transform="matrix(1,0,0,-1,478.8,328.6547)" d="M0 0V-10.742C-2.124-10.393-3.187-10.22-5.312-9.88-5.312-1.373-5.312 2.88-5.312 11.387-.018 6.378 2.627 3.86 7.913-1.202 13.2 2.058 15.842 3.674 21.122 6.881 21.122-1.626 21.122-5.879 21.122-14.386 19.002-14.002 17.942-13.813 15.821-13.438V-2.697C12.653-4.878 11.068-5.974 7.897-8.175 4.739-4.896 3.16-3.26 0 0" fill="#ffffff"/>
<path transform="matrix(1,0,0,-1,330.8856,471.63179)" d="M0 0C.663 7.236 7.014 12.572 14.179 11.915 21.35 11.258 26.617 4.859 25.954-2.378 25.291-9.616 18.948-14.955 11.778-14.298 4.611-13.64-.663-7.238 0 0M17.407-35.727 17.776-31.699C20.763-31.218 23.604-30.3 26.245-29.005L28.882-32.167C29.592-33.02 30.596-33.545 31.703-33.647 32.809-33.748 33.894-33.411 34.745-32.704L40.009-28.319C41.719-26.897 41.968-24.161 40.547-22.459L37.824-19.166C39.492-16.826 40.845-14.276 41.827-11.421L46.138-11.816C48.424-12.025 50.47-10.371 50.68-8.085L51.305-1.262C51.514 1.024 49.8 2.995 47.514 3.204L43.205 3.599C42.76 6.583 41.892 9.353 40.675 11.961L43.952 14.703C45.662 16.123 45.911 18.861 44.491 20.572L40.112 25.837C39.411 26.682 38.383 27.221 37.292 27.321 36.186 27.422 35.106 27.089 34.252 26.378L31.078 23.748C28.716 25.5 26.09 26.92 23.239 27.935L23.608 31.965C23.818 34.252 22.149 36.267 19.868 36.476L13.05 37.101C10.762 37.31 8.796 35.629 8.587 33.341L8.217 29.311C5.23 28.831 2.372 27.915-.268 26.623L-2.917 29.786C-3.627 30.641-4.634 31.167-5.741 31.268-6.848 31.37-7.934 31.034-8.788 30.324L-14.055 25.939C-14.908 25.228-15.433 24.227-15.535 23.122-15.636 22.016-15.3 20.935-14.592 20.08L-11.867 16.775C-13.537 14.431-14.893 11.865-15.876 9.012L-20.18 9.406C-22.466 9.615-24.474 7.986-24.683 5.7L-25.308-1.123C-25.518-3.409-23.842-5.405-21.556-5.614L-17.25-6.009C-16.804-8.995-15.936-11.748-14.72-14.356L-17.99-17.085C-18.847-17.796-19.372-18.798-19.473-19.908-19.575-21.015-19.239-22.098-18.531-22.951L-14.151-28.219C-13.443-29.072-12.439-29.596-11.333-29.701-10.226-29.802-9.147-29.464-8.292-28.756L-5.101-26.131C-2.738-27.881-.093-29.302 2.755-30.318L2.385-34.348C2.176-36.634 3.8-38.678 6.088-38.887L12.906-39.512C15.187-39.723 17.197-38.013 17.407-35.727" fill="#fefefe"/>
<path transform="matrix(1,0,0,-1,251.7005,463.42109)" d="M0 0C-.037 7.267 5.771 13.189 12.966 13.225 20.167 13.262 26.026 7.399 26.062 .132 26.099-7.136 20.3-13.062 13.1-13.098 5.903-13.133 .037-7.268 0 0M20.766-33.885 20.745-29.84C23.673-29.074 26.412-27.886 28.915-26.343L31.845-29.236C32.634-30.018 33.683-30.444 34.796-30.438 35.906-30.433 36.953-29.992 37.732-29.207L42.549-24.335C44.115-22.756 44.099-20.009 42.521-18.451L39.493-15.436C40.928-12.945 42.03-10.277 42.732-7.341L47.061-7.319C49.357-7.307 51.234-5.464 51.223-3.168L51.188 3.684C51.176 5.979 49.28 7.775 46.985 7.764L42.657 7.742C41.927 10.67 40.797 13.343 39.335 15.822L42.332 18.866C43.898 20.444 43.882 23.193 42.304 24.76L37.438 29.579C36.659 30.352 35.584 30.79 34.489 30.784 33.378 30.779 32.335 30.343 31.554 29.553L28.647 26.63C26.128 28.146 23.377 29.307 20.442 30.042L20.421 34.089C20.41 36.386 18.554 38.231 16.264 38.219L9.417 38.185C7.12 38.173 5.325 36.31 5.337 34.013L5.357 29.966C2.43 29.201-.326 28.014-2.83 26.474L-5.771 29.367C-6.56 30.15-7.613 30.576-8.725 30.57-9.837 30.565-10.885 30.126-11.666 29.337L-16.487 24.466C-17.268 23.675-17.694 22.629-17.689 21.518-17.683 20.408-17.244 19.365-16.457 18.582L-13.427 15.555C-14.864 13.061-15.966 10.376-16.67 7.441L-20.992 7.419C-23.287 7.408-25.129 5.593-25.117 3.297L-25.082-3.555C-25.071-5.85-23.211-7.675-20.915-7.663L-16.591-7.641C-15.86-10.571-14.731-13.227-13.269-15.706L-16.261-18.738C-17.046-19.528-17.472-20.576-17.466-21.69-17.461-22.802-17.022-23.847-16.235-24.628L-11.369-29.45C-10.581-30.232-9.532-30.656-8.421-30.654-7.309-30.648-6.267-30.208-5.485-29.421L-2.561-26.501C-.041-28.015 2.729-29.175 5.661-29.912L5.681-33.959C5.693-36.254 7.507-38.132 9.804-38.121L16.65-38.086C18.941-38.076 20.777-36.181 20.766-33.885" fill="#fefefe"/>
<path transform="matrix(1,0,0,-1,171.6292,469.9661)" d="M0 0C-.732 7.23 4.483 13.68 11.642 14.405 18.806 15.13 25.199 9.854 25.93 2.624 26.662-4.607 21.456-11.06 14.292-11.785 7.132-12.508 .732-7.231 0 0M23.911-31.744 23.504-27.719C26.345-26.676 28.958-25.232 31.303-23.457L34.495-26.057C35.355-26.759 36.441-27.082 37.547-26.97 38.652-26.859 39.652-26.32 40.353-25.464L44.682-20.154C46.089-18.432 45.811-15.699 44.091-14.3L40.789-11.588C41.979-8.971 42.82-6.21 43.238-3.22L47.545-2.784C49.829-2.553 51.522-.538 51.291 1.746L50.601 8.563C50.37 10.847 48.31 12.453 46.027 12.222L41.721 11.787C40.714 14.631 39.333 17.184 37.641 19.512L40.334 22.829C41.741 24.55 41.463 27.284 39.742 28.693L34.437 33.024C33.587 33.719 32.476 34.052 31.386 33.942 30.281 33.83 29.284 33.297 28.582 32.435L25.969 29.248C23.316 30.516 20.466 31.409 17.474 31.86L17.067 35.886C16.836 38.172 14.813 39.83 12.534 39.6L5.722 38.91C3.436 38.679 1.828 36.653 2.059 34.367L2.466 30.341C-.374 29.3-3.004 27.854-5.349 26.082L-8.553 28.68C-9.414 29.384-10.502 29.708-11.609 29.596-12.715 29.484-13.717 28.947-14.419 28.087L-18.751 22.777C-19.453 21.915-19.778 20.833-19.666 19.728-19.554 18.623-19.018 17.626-18.159 16.922L-14.854 14.199C-16.045 11.579-16.885 8.802-17.305 5.813L-21.605 5.378C-23.889 5.146-25.548 3.163-25.317 .88L-24.627-5.937C-24.396-8.221-22.37-9.86-20.086-9.629L-15.784-9.193C-14.776-12.039-13.398-14.576-11.706-16.904L-14.395-20.207C-15.1-21.069-15.424-22.153-15.312-23.261-15.2-24.368-14.663-25.366-13.805-26.068L-8.5-30.403C-7.641-31.105-6.556-31.427-5.451-31.319-4.344-31.207-3.349-30.669-2.645-29.81L-.015-26.625C2.639-27.891 5.507-28.78 8.496-29.233L8.903-33.259C9.134-35.543 11.119-37.239 13.405-37.008L20.217-36.319C22.496-36.09 24.143-34.028 23.911-31.744" fill="#fefefe"/>
<path transform="matrix(1,0,0,-1,211.0191,390.7616)" d="M0 0C-.32 7.26 5.253 13.404 12.441 13.72 19.634 14.037 25.718 8.407 26.038 1.148 26.358-6.114 20.794-12.26 13.6-12.577 6.41-12.893 .32-7.261 0 0M22.07-33.05 21.892-29.009C24.788-28.129 27.479-26.836 29.92-25.196L32.96-27.973C33.779-28.723 34.844-29.108 35.955-29.059 37.065-29.01 38.094-28.529 38.842-27.714L43.465-22.659C44.968-21.019 44.846-18.275 43.208-16.78L40.065-13.885C41.402-11.34 42.399-8.631 42.986-5.67L47.31-5.479C49.604-5.378 51.408-3.463 51.307-1.169L51.006 5.676C50.905 7.969 48.94 9.69 46.646 9.589L42.323 9.399C41.479 12.296 40.246 14.923 38.688 17.343L41.565 20.502C43.068 22.14 42.945 24.886 41.307 26.39L36.256 31.016C35.448 31.758 34.357 32.153 33.263 32.105 32.153 32.056 31.128 31.581 30.378 30.76L27.587 27.726C25.011 29.143 22.217 30.196 19.255 30.816L19.077 34.859C18.976 37.154 17.05 38.925 14.762 38.824L7.922 38.523C5.627 38.422 3.906 36.49 4.007 34.195L4.185 30.152C1.29 29.273-1.418 27.979-3.859 26.343L-6.911 29.12C-7.73 29.871-8.799 30.256-9.91 30.207-11.021 30.158-12.051 29.679-12.801 28.86L-17.428 23.805C-18.178 22.984-18.563 21.922-18.514 20.813-18.465 19.703-17.986 18.678-17.169 17.926L-14.023 15.019C-15.362 12.472-16.358 9.746-16.947 6.786L-21.265 6.596C-23.558 6.495-25.328 4.609-25.227 2.316L-24.925-4.53C-24.824-6.823-22.894-8.574-20.601-8.473L-16.281-8.282C-15.436-11.181-14.204-13.791-12.647-16.212L-15.519-19.357C-16.272-20.178-16.657-21.242-16.608-22.354-16.559-23.465-16.08-24.492-15.263-25.242L-10.212-29.871C-9.395-30.621-8.33-31.004-7.22-30.959-6.109-30.91-5.085-30.429-4.334-29.612L-1.527-26.581C1.051-27.996 3.864-29.046 6.822-29.669L7-33.711C7.101-36.005 8.987-37.811 11.282-37.709L18.122-37.408C20.411-37.309 22.172-35.344 22.07-33.05" fill="#fefefe"/>
<path transform="matrix(1,0,0,-1,131.9212,405.65879)" d="M0 0C-2.387 6.863 1.19 14.347 7.986 16.711 14.787 19.076 22.229 15.426 24.616 8.563 27.004 1.698 23.435-5.786 16.635-8.152 9.836-10.515 2.388-6.865 0 0M30.618-25.338 29.289-21.517C31.81-19.844 34.018-17.834 35.887-15.563L39.595-17.352C40.595-17.836 41.726-17.899 42.776-17.534 43.825-17.169 44.673-16.414 45.156-15.418L48.136-9.249C49.106-7.248 48.202-4.654 46.205-3.691L42.364-1.819C42.915 1.002 43.094 3.883 42.807 6.889L46.896 8.311C49.064 9.065 50.244 11.418 49.49 13.586L47.239 20.057C46.484 22.225 44.109 23.311 41.941 22.557L37.854 21.135C36.215 23.669 34.28 25.832 32.094 27.704L33.944 31.555C34.915 33.555 34.01 36.151 32.009 37.123L25.845 40.107C24.858 40.586 23.7 40.652 22.665 40.292 21.616 39.927 20.77 39.178 20.287 38.177L18.483 34.47C15.609 35.089 12.63 35.297 9.615 35.042L8.285 38.865C7.53 41.034 5.178 42.179 3.014 41.426L-3.452 39.177C-5.622 38.422-6.717 36.078-5.962 33.909L-4.633 30.087C-7.155 28.415-9.378 26.399-11.248 24.132L-14.967 25.917C-15.967 26.402-17.102 26.465-18.152 26.099-19.202 25.734-20.052 24.979-20.536 23.98L-23.52 17.811C-24.003 16.81-24.067 15.682-23.703 14.633-23.338 13.584-22.585 12.739-21.587 12.253L-17.74 10.37C-18.292 7.545-18.465 4.649-18.181 1.644L-22.263 .224C-24.431-.53-25.586-2.844-24.832-5.012L-22.581-11.484C-21.827-13.652-19.476-14.776-17.308-14.022L-13.224-12.601C-11.583-15.136-9.655-17.284-7.469-19.156L-9.319-22.993C-9.805-23.995-9.87-25.125-9.504-26.177-9.138-27.227-8.385-28.074-7.387-28.558L-1.222-31.545C-.224-32.029 .907-32.091 1.957-31.729 3.007-31.364 3.85-30.61 4.336-29.612L6.156-25.903C9.031-26.52 12.027-26.72 15.04-26.468L16.369-30.29C17.123-32.459 19.448-33.648 21.617-32.894L28.084-30.644C30.248-29.893 31.372-27.506 30.618-25.338" fill="#fefefe"/>
<path transform="matrix(1,0,0,-1,307.0846,403.3391)" d="M0 0C-7.193 .317-12.757 6.464-12.437 13.725-12.117 20.985-6.034 26.615 1.159 26.298 8.348 25.981 13.92 19.837 13.6 12.577 13.28 5.316 7.19-.315 0 0M-4.522-24.83 2.318-25.132C4.613-25.233 6.499-23.427 6.6-21.134L6.778-17.091C9.736-16.469 12.549-15.418 15.127-14.003L17.934-17.035C18.685-17.852 19.709-18.332 20.82-18.381 21.93-18.427 22.995-18.044 23.812-17.294L28.863-12.665C29.68-11.915 30.159-10.888 30.208-9.777 30.257-8.664 29.872-7.6 29.119-6.78L26.247-3.634C27.804-1.214 29.036 1.397 29.881 4.295L34.201 4.105C36.494 4.004 38.424 5.755 38.525 8.048L38.827 14.893C38.928 17.186 37.158 19.072 34.865 19.173L30.547 19.364C29.958 22.324 28.962 25.049 27.624 27.597L30.769 30.504C31.586 31.255 32.065 32.281 32.114 33.39 32.163 34.5 31.778 35.562 31.028 36.382L26.401 41.438C25.651 42.256 24.621 42.736 23.51 42.785 22.399 42.833 21.33 42.449 20.511 41.697L17.46 38.921C15.018 40.557 12.31 41.851 9.415 42.73L9.593 46.772C9.694 49.067 7.973 50.999 5.678 51.1L-1.162 51.402C-3.45 51.503-5.376 49.732-5.477 47.437L-5.655 43.394C-8.617 42.773-11.411 41.72-13.987 40.304L-16.778 43.338C-17.527 44.158-18.553 44.634-19.663 44.683-20.757 44.731-21.848 44.335-22.656 43.593L-27.707 38.968C-29.345 37.463-29.467 34.717-27.965 33.079L-25.088 29.92C-26.645 27.5-27.879 24.873-28.723 21.976L-33.046 22.167C-35.339 22.268-37.304 20.547-37.405 18.253L-37.707 11.408C-37.808 9.115-36.004 7.199-33.71 7.098L-29.386 6.908C-28.798 3.946-27.801 1.237-26.465-1.307L-29.608-4.203C-31.246-5.697-31.368-8.441-29.865-10.081L-25.242-15.136C-24.493-15.952-23.465-16.433-22.355-16.481-21.244-16.53-20.179-16.145-19.36-15.396L-16.32-12.619C-13.879-14.258-11.188-15.551-8.292-16.432L-8.47-20.473C-8.571-22.766-6.811-24.731-4.522-24.83" fill="#fefefe"/>
<path transform="matrix(1,0,0,-1,383.1481,413.8104)" d="M0 0C-6.801 2.366-10.37 9.849-7.982 16.714-5.594 23.578 1.848 27.228 8.648 24.862 15.444 22.498 19.022 15.015 16.635 8.152 14.247 1.287 6.798-2.363 0 0M-11.449-22.492-4.983-24.742C-2.813-25.497-.489-24.307 .265-22.139L1.595-18.317C4.607-18.569 7.603-18.368 10.478-17.751L12.299-21.46C12.784-22.459 13.628-23.212 14.678-23.578 15.728-23.939 16.858-23.877 17.856-23.393L24.022-20.406C25.02-19.922 25.773-19.075 26.138-18.025 26.504-16.973 26.44-15.844 25.954-14.841L24.104-11.005C26.289-9.132 28.218-6.984 29.859-4.45L33.942-5.87C36.111-6.625 38.461-5.5 39.215-3.332L41.466 3.139C42.221 5.308 41.066 7.621 38.898 8.375L34.815 9.795C35.1 12.8 34.926 15.697 34.375 18.521L38.221 20.405C39.22 20.89 39.972 21.736 40.337 22.784 40.702 23.833 40.637 24.961 40.154 25.962L37.171 32.132C36.687 33.131 35.837 33.885 34.787 34.251 33.736 34.616 32.602 34.554 31.602 34.069L27.883 32.283C26.013 34.551 23.789 36.567 21.267 38.238L22.597 42.06C23.352 44.23 22.257 46.574 20.087 47.329L13.62 49.578C11.457 50.331 9.104 49.186 8.35 47.016L7.02 43.194C4.005 43.449 1.026 43.241-1.848 42.622L-3.652 46.328C-4.135 47.329-4.981 48.079-6.03 48.444-7.065 48.803-8.223 48.737-9.211 48.258L-15.375 45.274C-17.375 44.302-18.28 41.707-17.31 39.707L-15.46 35.856C-17.645 33.984-19.58 31.82-21.219 29.287L-25.306 30.709C-27.474 31.463-29.85 30.377-30.604 28.209L-32.855 21.737C-33.609 19.569-32.429 17.217-30.261 16.463L-26.173 15.041C-26.459 12.035-26.28 9.154-25.729 6.333L-29.57 4.46C-31.568 3.498-32.472 .904-31.502-1.098L-28.521-7.266C-28.038-8.262-27.19-9.017-26.141-9.382-25.091-9.748-23.96-9.684-22.961-9.201L-19.252-7.412C-17.383-9.682-15.176-11.692-12.654-13.366L-13.983-17.186C-14.737-19.354-13.613-21.741-11.449-22.492" fill="#fefefe"/>
</g>
</g>
</svg>
