<svg xmlns="http://www.w3.org/2000/svg" xmlns:xlink="http://www.w3.org/1999/xlink" xmlns:inkscape="http://www.inkscape.org/namespaces/inkscape" version="1.1" width="1080" height="1080" viewBox="0 0 1080 1080">
<defs>
<clipPath id="clip_1">
<path transform="matrix(1,0,0,-1,0,1080)" d="M0 1080H1080V0H0Z"/>
</clipPath>
</defs>
<g clip-path="url(#clip_1)">
<path transform="matrix(1,0,0,-1,511.1406,751.0104)" d="M0 0C1.091 8.711 2.808 16.935 3.923 25.709 5.948 24.266 17.289 17.2 22.587 13.25 13.965 8.075 3.09 1.747 0 0M75.488 259.288C85.253 257.575 95.63 254.465 104.935 251.096 113.836 247.02 120.941 243.223 128.827 236.85 147.732 248.339 165.76 259.293 184.665 270.782 198.837 256.259 213.008 241.735 227.18 227.211 215.855 209.811 204.798 190.018 193.47 172.617 197.887 164.287 201.002 160.289 204.898 151.684 207.588 146.069 213.472 130.978 215.096 120.817 236.649 115.359 256.73 110.272 278.283 104.811 278.709 83.943 279.138 63.075 279.566 42.204 257.982 37.106 236.401 32.008 214.819 26.91 213.559 16.417 212.313 9.516 208.668-.512 205.061-8.113 199.024-19.253 193.954-25.565 205.703-44.36 216.848-62.184 228.599-80.982 213.975-95.669 199.354-110.356 184.732-125.044 166.146-113.456 147.559-101.872 128.97-90.285 120.93-95.726 112.159-100.15 103.204-103.839 94.679-107.344 86.064-110.296 77.086-111.87 71.876-133.208 66.668-154.549 61.458-175.887 40.877-175.832 20.296-175.776-.286-175.721-5.366-154.231-9.999-134.633-15.081-113.143-25.118-110.539-34.68-107.756-44.712-103.68-52.295-99.61-60.808-95.301-68.392-91.228-86.803-102.716-105.214-114.201-123.622-125.689-138.281-111.045-152.937-96.401-167.596-81.76-155.902-63.135-144.208-44.516-132.514-25.893-137.027-18.824-143.004-10.77-146.319-2.937-150.911 7.536-153.033 15.152-155.238 26.079-176.623 30.921-198.463 36.739-219.848 41.577-219.538 63.672-219.832 81.848-219.522 103.943-197.946 107.321-176.317 114.379-154.738 117.758-153.053 126.315-151.074 134.506-147.865 142.967-143.785 154.432-139.664 162.551-133.994 171.47-145.701 190.158-157.409 208.849-169.117 227.54-154.048 242.458-138.977 257.379-123.908 272.298-105.933 260.346-87.961 248.395-69.988 236.44-62.625 240.347-52.349 245.532-44.989 249.439-34.437 254.32-26.81 254.978-16.265 258.386-11.053 280.218-5.844 302.047-.632 323.878 20.07 323.332 40.623 322.991 61.325 322.445 61.404 321.998 52.815 311.1 52.618 310.851 37.428 311.135 22.239 311.423 7.049 311.708 2.331 291.103-2.383 270.499-7.1 249.894-18.627 246.367-27.295 242.722-39.662 238.938-48.622 233.316-60.8 228.829-69.76 223.21-87.859 234.67-104.755 245.369-122.851 256.833-133.172 246.552-143.493 236.272-153.815 225.991-142.964 208.29-132.113 190.589-121.262 172.888-133.254 152.323-140.351 131.586-145.615 108.513-166.198 103.847-186.784 99.181-207.368 94.512-207.47 80.285-207.121 64.585-207.223 50.356-186.64 44.832-166.514 40.783-145.931 35.259-143.744 23.324-139.901 11.08-135.595 1.509-130.392-9.519-126.421-16.735-119.651-26.294-130.978-44.426-142.302-62.559-153.625-80.691-143.339-91.176-133.05-101.661-122.763-112.143-104.853-100.907-86.03-90.152-68.12-78.915-58.987-85.134-45.809-91.711-35.474-95.636-23.973-98.731-16.696-100.899-5.192-103.075-.601-123.817 3.99-144.557 8.581-165.3 23.156-165.261 37.728-165.223 52.303-165.185 57.021-144.336 63.115-123.857 67.831-103.006 78.342-100.949 91.294-97.17 101.168-93.272 112.824-87.413 119.035-83.904 129.225-76.476 146.832-88.426 165.696-99.467 183.303-111.417 193.87-100.524 204.437-89.631 215.007-78.735 203.177-60.296 192.632-42.87 180.804-24.432 188.856-14.957 193.699-4.277 198.451 6.953 202.003 16.969 204.817 26.898 205.522 37.841 226.29 42.448 247.058 47.054 267.825 51.657 267.912 66.684 267.998 81.711 268.084 96.737 247.272 100.964 226.92 106.112 206.107 110.339 204.458 123.014 198.722 134.07 195.588 144.298 190.537 155.632 186.262 162.673 178.638 173.187 190.452 191.071 202.266 208.958 214.08 226.842 203.575 237.057 193.068 247.272 182.564 257.486 164.766 246.244 146.969 235.001 129.171 223.759 119.267 229.551 110.483 235.935 99.287 240.814 87.97 245.691 76.993 247.03 64.931 248.597 61.555 266.891 55.994 292.554 52.618 310.851 55.216 314.173 60.894 321.699 61.366 322.26 65.299 304.346 71.555 277.202 75.488 259.288M183.139 9.32 179.01 2.263 170.54 3.463 162.954-9.514 168.215-16.196 164.163-23.125 141.496 6.983 145.545 13.904ZM164.23 4.304 150.491 6.302 159.045-4.559ZM154.507-34.649 126.821-13.624 131.412-7.579 159.098-28.604ZM124.137-62.92 101.295-36.713 113.31-26.241C116.329-23.607 118.731-21.933 120.507-21.209 122.294-20.478 124.112-20.364 125.982-20.848 127.858-21.341 129.47-22.351 130.819-23.902 132.539-25.87 133.333-28.035 133.207-30.397 133.077-32.762 131.928-35.183 129.749-37.676 131.556-37.268 133.207-37.117 134.701-37.223 136.2-37.325 138.519-37.804 141.646-38.66L149.55-40.767 142.729-46.714 133.649-44.556C130.415-43.804 128.289-43.402 127.283-43.343 126.284-43.29 125.394-43.424 124.619-43.755 123.839-44.093 122.792-44.834 121.474-45.978L120.317-46.99 129.858-57.934ZM116.682-42.818 120.902-39.137C123.644-36.749 125.249-35.156 125.745-34.346 126.236-33.544 126.455-32.699 126.375-31.842 126.306-30.979 125.927-30.154 125.239-29.37 124.466-28.481 123.595-28 122.608-27.893 121.63-27.789 120.614-28.072 119.571-28.736 119.052-29.082 117.636-30.263 115.33-32.274L110.876-36.156ZM117.411-67.522 110.082-71.147 103.67-65.486 90.197-72.152 90.912-80.627 83.72-84.187 81.354-46.57 88.54-43.016ZM98.863-61.311 88.492-52.087 89.656-65.864ZM46.351-91.869 39.866-57.71 47.317-56.293 49.871-69.747 64.374-66.987 61.817-53.535 69.273-52.116 75.761-86.275 68.305-87.692 65.469-72.761 50.967-75.519 53.805-90.449ZM4.565-91.454 6.046-56.715 13.381-57.023 27.799-80.955 28.79-57.674 35.796-57.973 34.321-92.709 26.747-92.391 12.543-68.912 11.57-91.749ZM-33.108-81.466-23.762-47.972 2.956-55.418 1.377-61.079-18.037-55.669-20.112-63.107-2.059-68.135-3.638-73.796-21.691-68.764-24.22-77.843-4.104-83.448-5.683-89.109ZM-50.536-57.622-47.475-52.606-33.58-61.089-40.815-72.931C-42.908-73.327-45.519-73.204-48.659-72.568-51.784-71.929-54.663-70.805-57.3-69.198-60.641-67.157-63.154-64.728-64.844-61.907-66.529-59.088-67.254-56.075-67.022-52.886-66.792-49.698-65.798-46.669-64.058-43.817-62.166-40.723-59.788-38.399-56.924-36.839-54.058-35.288-50.884-34.684-47.411-35.041-44.755-35.307-41.911-36.371-38.858-38.236-34.887-40.659-32.257-43.326-30.971-46.239-29.692-49.152-29.558-52.163-30.591-55.293L-37.707-52.48C-37.262-50.75-37.406-49.081-38.13-47.469-38.851-45.875-40.141-44.506-42.006-43.371-44.818-41.653-47.566-41.113-50.242-41.763-52.919-42.413-55.257-44.374-57.251-47.638-59.412-51.169-60.183-54.327-59.579-57.116-58.965-59.908-57.303-62.141-54.571-63.808-53.22-64.63-51.716-65.209-50.063-65.546-48.398-65.89-46.872-65.995-45.468-65.886L-43.166-62.123ZM-101.893-30.117-76.804-6.042-71.72-11.339-77.856-38.601-61.043-22.465-56.188-27.523-81.277-51.602-86.527-46.134-80.545-19.348-97.038-35.179ZM-122.653 2.81-92.849 20.732-78.559-3.038-83.596-6.068-93.978 11.203-100.595 7.223-90.941-8.836-95.975-11.863-105.628 4.196-113.705-.662-102.947-18.559-107.981-21.589ZM140.132 134.956 147.184 138.511 150.174 132.582 143.119 129.028ZM126.949 156.897 121.252 161.878 125.179 170.926 114.701 180.085 106.344 174.904 100.748 179.792 138.061 202.02 143.652 197.138ZM128.055 177.678 134.481 192.361 120.895 183.933ZM72.151 193.64 75.083 200.978 81.245 198.519 78.32 191.181ZM47.747 200.762 40.179 200.994 37.476 210.48 23.563 210.904 20.391 201.598 12.963 201.826 27.704 242.682 35.12 242.453ZM35.415 217.522 31.064 232.944 25.91 217.812ZM-17.683 192.757-20.202 200.243-13.912 202.365-11.391 194.879ZM-40.864 182.091-46.603 177.156-55.001 182.325-65.556 173.247-61.614 164.243-67.249 159.397-83.947 199.48-78.319 204.32ZM-61.276 186.129-74.894 194.567-68.488 179.928ZM66.027 115.499C83.753 129.622 99.184 144.366 116.518 158.755L117.908 160.825 118.844 159.644C123.254 151.936 127.999 141.022 131.057 133.704 116.452 121.513 102.589 110.828 88.469 98.832 86.493 101.583 84.884 103.7 83.684 105.283 78.477 101.283 73.042 96.291 68.699 92.358 66.306 90.02 63.207 87.553 59.898 84.269 55.863 80.891 52.444 77.898 48.198 74.533 45.966 77.154 45.811 77.294 43.199 81.082 28.399 67.449 12.786 54.561-2.53 41.506L-4.151 41.51C-4.79 42.8-5.344 44.45-5.763 45.742L-6.409 46.72-8.354 46.725C-18.322 39.32-27.641 32.157-38.19 24.052L-40.421 22.412-40.37 22.445C-40.391 22.445-40.409 22.433-40.424 22.41-43.995 20.095-47.002 18.333-51.177 14.959L-51.94 14.33-62.949 4.914C-63.918 4.191-64.849 3.411-67.616 2.279-66.914 3.351-64.55 5.986-63.645 6.885-63.311 7.45-62.862 8.085-62.4 8.548-52.081 19.87-41.742 30.276-32.008 40.99-29.275 43.714-26.427 47.059-23.633 50.092L-23.615 50.08-23.272 50.481-23.26 50.495-23.212 50.546C-23.126 50.632-23.048 50.718-22.985 50.81-19.182 55.248-2.081 75.281-1.453 74.374-.304 72.708 .633 70.677 2.261 67.87 4.11 69.474 5.871 71.094 7.619 72.833 19.556 83.22 31.44 93.791 42.965 104.526 44.786 102.543 45.989 101.091 48.079 99.491 54.516 104.326 60.103 110.053 66.027 115.499M60.397 81.03 60.453 80.982 61.199 81.65C61.268 81.754 61.387 81.893 61.549 82.062L61.558 82.071C62.372 82.804 63.165 83.531 63.923 84.246L63.911 84.255C66.921 86.879 71.403 90.449 72.19 90.816 72.965 89.285 75.653 84.071 76.962 81.129 87.527 57.336 97.415 36.022 107.724 4.054L107.707 2.269C107.687-4.499 105.419-9.568 100.833-14.039 99.59-15.039 97.939-15.983 96.285-15.979L-38.074-15.618C-39.859-15.613-41.751-14.674-44.236-13.974-45.53-12.995-45.04-13.368-46.827-12.016-47.958-11.156-49.966-8.889-50.709-7.781L-51.692-6.186C-52.253-4.805-52.323-5.363-52.319-3.876-52.312-1.49-52.305 .893-52.298 3.279-52.294 4.398-52.1 4.543-51.955 5.512-51.818 6.425-51.541 7.371-51.232 8.31-50.926 9.252-50.587 10.185-50.328 11.074-49.585 12.048-40.28 18.648-39.046 20.418L-39.031 20.4C-25.104 29.699-17.26 36.244-9.345 41.851L-8.272 42.589C-7.158 40.89-6.483 38.768-5.141 36.964L-4.904 36.636-3.842 36.633C-3.427 37.096-2.738 37.633-2.319 38.253L-.917 37.601-.924 35.325C-2.513 22.213-4.903 6.879-6.89-5.947L-7.361-10.289-2.109-10.035C8.013-2.788 17.662 3.543 27.234 10.218L30.736 10.024C34.532 7.241 50.202-3.521 55.42-6.765L58.011-8.721C58.418-8.939 59.08-9.375 59.631-9.377 60.181-9.378 60.846-8.946 61.257-8.73L62.946-7.976 62.889-5.158C59.231 15.079 55.288 45.834 54.34 66.064L54.024 68.989 53.699 69.642 52.731 71.269 52.734 72.245 52.74 74.193C55.132 76.409 57.829 78.738 60.397 81.03M-25.099 53.517C-25.364 53.372-25.614 53.126-25.839 52.761-27.529 51.697-27.749 52.495-34.671 43.038-37.476 40.05-37.44 40.255-35.048 45.238-32.079 51.355-28.714 58.337-26.478 64.002-17.859 85.816-11.204 97.627-.464 124.864-.291 137.951 .076 153.215 .249 166.302 .093 166.972 .204 167.07-.793 167.055-1.138 167.05-1.882 167.974-2.182 168.144-2.762 169.22-3.792 170.079-4.492 170.679L-4.4 175.552C-3.749 176.431-3.517 177.418-2.787 177.72L-1.868 179.681C-.874 179.943 .632 179.906 1.438 179.952 9.618 180.406 49.615 180.602 58.678 180.006 58.977 179.624 59.42 179.24 59.746 178.9 60.054 178.584 60.193 178.333 60.585 178.034 62.067 178.03 61.861 178.037 62.211 176.385L61.944 170.685 61.482 170.461 60.672 170.418C60.565 170.163 60.443 169.297 60.407 169.032 60.346 168.592 60.32 167.849 59.852 167.597 59.181 167.242 57.562 166.773 57.112 166.715L56.785 124.901C56.776 124.782 60.649 117.522 61.212 114.994 57.885 112.715 51.768 106.383 50.242 106.387L49.59 106.389C48.418 106.392 48.09 107.25 48.094 108.38 46.344 120.359 44.665 133.99 43.877 145.972L43.55 148.02 43.554 149.368 43.88 149.968 46.197 149.962 46.476 150.612 46.804 150.936 47.142 155.487 47.146 156.787 46.822 156.788 43.261 157.809 42.611 160.375 42.612 160.7 14.703 160.774 14.702 160.45 14.043 157.852 10.474 157.21H10.149L9.82 156.563 9.818 155.911 10.144 155.262 10.138 153.31 10.133 151.686 10.455 151.033 10.779 150.708 11.102 150.383 13.699 150.376 13.697 149.725 13.693 148.425C10.708 126.974 8.128 102.749 5.06 83.589L4.744 79.371 4.385 74.65C3.797 74.259 3.639 73.885 2.913 73.887 2.262 75.013 1.447 77.145 .825 78.236L-.328 80.634C-1.306 79.961-.677 80.284-2.419 78.893-10.447 70.382-15.917 64.533-25.099 53.517M-91.32 86.611C-91.7 62.716-91.074 50.234-85.315 31.976-81.633 19.911-72.238 7.739-69.155 2.997-70.76 1.424-71.192 .325-72.549-.82L-72.163-1.145-70.405-1.04-67.961-.657-66.836-1.534-66.08-2.405C-58.506-11.601-56.188-12.52-47.882-19.656-32.814-33.819-10.056-41.044 9.453-45.654L18.953-46.331 23.819-46.669 31.283-46.688 36.803-46.379 41.186-46.227 45.565-46.075C80.853-37.873 100.843-25.66 118.659-7.14 135.816 10.691 145.749 28.443 148.395 70.625 145.483 100.753 147.96 105.565 132.531 132.085 133.423 133.121 134.58 131.847 132.425 135.587 128.256 145.109 124.595 155.505 119.177 164.394 116.593 162.854 115.033 161.656 113.189 159.82L111.771 159.098C106.446 167.27 78.652 184.665 62.216 189.204-4.034 213.546-85.298 154.679-91.32 86.611M18.9 88.502C15.919 85.773 13.984 84.21 11.221 81.46L10.897 81.461 10.898 81.865C11.688 87.45 12.662 94.728 13.549 99.982L14.255 101.283 15.203 100.861 23.586 92.803ZM35.996 102.977 33.866 100.969C32.041 98.772 30.458 97.61 29.151 96.311L27.292 96.342 18.726 105.145 18.751 106.436 38.091 106.262 38.367 104.973ZM17.138 113.322C19.068 115.923 25.918 124.475 28.834 126.729 29.59 126.727 34.531 119.466 37.585 115.983 39.549 113.357 39.889 112.627 35.147 112.645 30.836 112.66 26.504 112.597 22.253 112.624 19.564 112.64 18.569 112.294 17.138 113.322M37.683 139.908C38.411 139.906 38.396 139.647 38.978 139.253 39.656 134.095 40.202 129.789 40.556 123.645L40.727 122.264C39.48 123.204 33.061 130.466 31.817 132.445 33.31 134.059 36.641 138.679 37.683 139.908M16.534 122.409C16.892 126.704 17.427 130.389 17.981 134.641L18.483 138.463C19.014 138.991 19.014 138.991 19.744 139.373 21.067 137.808 22.362 136.233 24.601 132.809 22.043 129.035 20.108 126.469 16.534 122.409M22.915 145.232 23.858 145.214 32.424 145.179 33.64 145.119 34.174 144.469 29.053 138.304 27.488 138.308C25.943 139.803 23.753 142.626 22.217 144.409ZM51.748 25.923 52.595 25.754 53.284 23.056C54.547 15.833 55.659 7.52 56.473 .134L54.735 .043C52.613 1.792 36.521 12.576 34.348 14.253 35.338 14.938 46.55 22.613 51.748 25.923M16.466 28.505 41.037 28.528 44.761 28.414C44.088 27.237 44.088 27.237 43.219 26.061 40.011 23.812 33.114 19.639 30.363 17.805L27.296 17.813C22.418 21.241 17.487 23.834 13.294 26.573L12.67 28.521ZM26.414 48.455C28.277 48.584 28.536 48.584 30.088 48.326 34.689 44.699 38.919 40.734 43.444 37.565L43.717 35.408 12.42 35.536C12.521 36.539 12.463 36.197 12.626 36.848 12.831 37.68 13.641 37.949 14.267 38.402 18.847 41.728 21.69 44.553 25.063 47.287 25.263 47.447 26.214 48.292 26.414 48.455M34.502 53.821C39.358 58.307 44.333 60.518 46.597 62.473L48.588 61.516 49.034 59.438C50.106 53.848 50.879 46.661 51.498 41.019L49.887 40.431C46.692 42.406 40.568 47.796 34.96 51.821ZM5.265 43.761C7.338 45.433 9.983 47.538 12.493 50.102 15.174 52.252 16.78 54.021 19.824 56.351L20.952 55.497 23.094 53.48C20.232 50.325 18.13 48.876 15.785 46.746 13.428 44.551 8.272 40.325 6.055 39.106 5.22 39.554 5.258 41.146 5.261 42.136ZM24.71 59.729C25.198 60.454 32.707 67.443 33.899 68.392L40.391 68.374C41.149 68.372 41.686 67.832 41.684 67.071 41.684 66.898 41.88 65.812 41.697 65.55 37.647 63.217 33.273 59.959 29.474 57.03L27.181 57.084C26.666 57.085 25.558 58.626 24.71 59.729" fill="#171713" fill-rule="evenodd"/>
<path transform="matrix(1,0,0,-1,540.9589,363.91999)" d="M0 0C171.938-.462 310.956-141.32 310.439-314.551 309.923-487.782 170.068-627.892-1.87-627.431-173.808-626.97-312.825-486.111-312.309-312.88-311.793-139.649-171.938 .461 0 0M.01 11.577C179.454 11.095 324.543-134.819 324.008-314.263 323.473-493.708 177.517-638.841-1.928-638.36-181.372-637.878-326.461-491.964-325.926-312.519-325.391-133.075-179.434 12.059 .01 11.577" fill="#171713" fill-rule="evenodd"/>
<path transform="matrix(1,0,0,-1,283.7371,838.7953)" d="M0 0-3.885 6.96 12.204 15.941C14.763 17.368 16.364 18.381 17.023 18.971 18.073 19.944 18.666 21.186 18.781 22.703 18.904 24.226 18.421 25.944 17.35 27.866 16.267 29.808 15.099 31.088 13.851 31.689 12.597 32.293 11.417 32.413 10.288 32.047 9.162 31.678 7.422 30.843 5.071 29.535L-11.364 20.359-15.246 27.319 .363 36.036C3.933 38.026 6.558 39.25 8.237 39.695 9.919 40.143 11.55 40.147 13.125 39.706 14.704 39.273 16.257 38.376 17.794 37.031 19.337 35.676 20.863 33.654 22.375 30.943 24.201 27.669 25.261 25.006 25.55 22.953 25.835 20.896 25.731 19.085 25.23 17.515 24.728 15.946 23.993 14.695 23.017 13.74 21.564 12.333 19.176 10.704 15.853 8.85ZM10.867 51.541-20.653 38.791-23.544 45.945-8.495 69.511-29.619 60.964-32.378 67.796-.861 80.549 2.125 73.163-12.614 49.991 8.108 58.373ZM-2.262 88.681-34.935 79.266-37.14 86.93-4.47 96.348ZM-7.997 113.633-39.264 94.216-40.657 102.716-17.446 116.669-43.834 122.051-45.204 130.408-9.388 122.107ZM-11.956 139.982-45.953 139.576-46.289 168.721-40.547 168.789-40.3 147.618-32.749 147.708-32.976 167.397-27.234 167.465-27.007 147.776-17.793 147.885-18.049 169.826-12.304 169.897ZM-12.751 176.744-46.417 181.475-44.08 198.055C-43.493 202.222-42.759 205.213-41.89 207.013-41.022 208.825-39.733 210.182-38.032 211.1-36.318 212.017-34.476 212.34-32.486 212.06-29.956 211.702-27.986 210.558-26.588 208.611-25.181 206.665-24.507 203.962-24.559 200.487-23.466 202.064-22.326 203.328-21.148 204.283-19.967 205.247-17.928 206.479-15.047 207.979L-7.812 211.812-9.134 202.4-17.279 197.79C-20.175 196.131-22.017 194.976-22.805 194.318-23.583 193.669-24.168 192.944-24.534 192.145-24.902 191.337-25.212 190.028-25.471 188.214L-25.696 186.614-11.638 184.637ZM-31.057 187.367-30.237 193.195C-29.705 196.972-29.516 199.343-29.653 200.325-29.796 201.298-30.169 202.108-30.771 202.729-31.373 203.361-32.181 203.741-33.189 203.884-34.325 204.045-35.286 203.818-36.089 203.219-36.888 202.618-37.465 201.691-37.822 200.442-37.991 199.809-38.3 197.903-38.75 194.715L-39.616 188.57ZM-18.694 217.164-17.228 224.806C-14.946 224.651-13.115 225.105-11.717 226.184-10.318 227.269-9.296 228.971-8.643 231.29-7.949 233.745-7.877 235.723-8.423 237.221-8.972 238.716-9.847 239.641-11.051 239.98-11.827 240.199-12.556 240.118-13.253 239.751-13.939 239.384-14.67 238.598-15.435 237.407-15.961 236.59-17.005 234.695-18.588 231.712-20.622 227.876-22.51 225.314-24.263 224.028-26.723 222.214-29.25 221.682-31.848 222.412-33.519 222.883-34.932 223.872-36.082 225.365-37.229 226.871-37.89 228.75-38.073 231.021-38.251 233.291-37.937 235.869-37.116 238.777-35.781 243.519-33.867 246.834-31.371 248.71-28.873 250.599-26.098 251.171-23.024 250.437L-24.96 242.695C-26.745 242.846-28.15 242.492-29.191 241.632-30.229 240.773-31.057 239.272-31.659 237.138-32.281 234.932-32.373 233.091-31.931 231.626-31.645 230.679-31.082 230.079-30.229 229.839-29.453 229.62-28.685 229.817-27.921 230.416-26.943 231.181-25.553 233.31-23.743 236.81-21.942 240.313-20.378 242.832-19.068 244.378-17.754 245.931-16.254 247.016-14.56 247.624-12.871 248.232-10.991 248.245-8.925 247.665-7.052 247.136-5.461 246.04-4.163 244.371-2.865 242.701-2.13 240.655-1.959 238.227-1.778 235.796-2.159 232.932-3.091 229.641-4.441 224.852-6.43 221.442-9.063 219.414-11.696 217.38-14.905 216.636-18.694 217.164M2.917 251.055-28.799 263.29-25.927 270.732 5.789 258.493ZM-22.297 281.804-15.523 294.629C-13.994 297.52-12.64 299.626-11.455 300.937-9.861 302.697-8.016 303.963-5.919 304.713-3.826 305.472-1.624 305.715 .705 305.46 3.025 305.203 5.599 304.331 8.409 302.848 10.886 301.538 12.824 300.06 14.238 298.402 15.973 296.374 17.085 294.2 17.587 291.878 17.974 290.115 17.903 288.051 17.381 285.678 16.989 283.906 16.111 281.728 14.74 279.137L7.763 265.932ZM-13.493 286.172 6.409 275.664 9.17 280.893C10.203 282.845 10.847 284.31 11.12 285.276 11.478 286.548 11.553 287.711 11.36 288.765 11.169 289.83 10.527 290.948 9.43 292.129 8.339 293.313 6.626 294.522 4.3 295.748 1.977 296.977 .075 297.675-1.421 297.858-2.917 298.043-4.232 297.889-5.382 297.41-6.523 296.923-7.57 296.099-8.507 294.914-9.212 294.038-10.324 292.173-11.832 289.321ZM46.541 330.223 41.629 323.176 33.337 324.808 24.307 311.852 28.787 304.741 23.965 297.823 4.812 329.796 9.628 336.709ZM27.143 325.97 13.692 328.672 20.976 317.118ZM24.656 356.935 34.645 367.449C36.898 369.82 38.771 371.481 40.265 372.423 42.277 373.688 44.397 374.405 46.617 374.56 48.84 374.727 51.028 374.364 53.197 373.489 55.361 372.615 57.602 371.08 59.907 368.887 61.936 366.96 63.403 365.01 64.317 363.032 65.437 360.613 65.921 358.217 65.771 355.843 65.667 354.043 65.043 352.073 63.897 349.931 63.041 348.329 61.608 346.474 59.584 344.346L49.3 333.521ZM34.312 358.76 50.629 343.258 54.703 347.543C56.222 349.145 57.24 350.38 57.763 351.236 58.451 352.364 58.841 353.464 58.936 354.532 59.044 355.608 58.726 356.858 57.99 358.292 57.262 359.728 55.937 361.355 54.032 363.163 52.125 364.974 50.486 366.163 49.092 366.747 47.705 367.328 46.396 367.533 45.158 367.382 43.926 367.225 42.696 366.714 41.477 365.827 40.561 365.175 38.986 363.677 36.763 361.339ZM76.821 362.245 55.945 389.074 78.948 406.976 82.478 402.441 65.767 389.437 70.402 383.478 85.944 395.575 89.471 391.04 73.929 378.946 79.587 371.675 96.906 385.153 100.436 380.621ZM118.899 392.689 102.965 422.718 126.869 435.405 129.558 430.331 112.701 421.383 116.488 414.25 131.062 421.988 133.751 416.914 119.18 409.176 125.943 396.428ZM148.764 408.094 136.515 439.806 163.703 450.315 165.772 444.954 146.019 437.323 148.741 430.28 167.109 437.38 169.179 432.019 150.81 424.922 154.129 416.327 174.603 424.239 176.669 418.882ZM175.726 453.69 189.864 456.918C193.055 457.644 195.532 457.992 197.299 457.948 199.673 457.888 201.837 457.311 203.767 456.214 205.713 455.12 207.333 453.607 208.654 451.676 209.972 449.754 210.988 447.231 211.695 444.132 212.318 441.399 212.46 438.965 212.123 436.812 211.716 434.178 210.793 431.913 209.354 430.019 208.275 428.576 206.662 427.283 204.522 426.131 202.925 425.27 200.701 424.52 197.843 423.867L183.282 420.545ZM184.777 449.863 189.777 427.92 195.544 429.235C197.7 429.726 199.227 430.192 200.136 430.615 201.336 431.174 202.27 431.874 202.942 432.711 203.625 433.548 204.051 434.767 204.232 436.366 204.421 437.966 204.219 440.056 203.634 442.616 203.05 445.179 202.342 447.079 201.507 448.334 200.671 449.585 199.695 450.483 198.584 451.04 197.47 451.593 196.165 451.846 194.653 451.785 193.532 451.749 191.392 451.374 188.248 450.657ZM222.216 428.482 219.744 462.389 248.811 464.516 249.228 458.788 228.112 457.244 228.658 449.712 248.298 451.15 248.715 445.419 229.078 443.981 229.747 434.793 251.633 436.394 252.051 430.666ZM258.873 430.909 261.544 464.803 278.24 463.491C282.433 463.161 285.463 462.615 287.315 461.857 289.175 461.099 290.608 459.899 291.624 458.254 292.645 456.604 293.08 454.785 292.919 452.78 292.721 450.23 291.698 448.199 289.84 446.68 287.985 445.156 285.325 444.318 281.853 444.155 283.495 443.16 284.825 442.1 285.851 440.982 286.883 439.863 288.24 437.905 289.912 435.122L294.176 428.134 284.702 428.879 279.606 436.726C277.772 439.513 276.507 441.281 275.802 442.026 275.111 442.763 274.351 443.301 273.53 443.618 272.698 443.939 271.375 444.168 269.549 444.31L267.937 444.436 266.821 430.284ZM268.363 449.835 274.229 449.373C278.033 449.074 280.41 449.032 281.38 449.232 282.345 449.435 283.132 449.858 283.714 450.493 284.305 451.131 284.64 451.96 284.718 452.977 284.81 454.123 284.525 455.069 283.878 455.833 283.229 456.59 282.27 457.11 281.003 457.393 280.358 457.52 278.437 457.712 275.227 457.965L269.043 458.452ZM333.085 419.747 324.713 421.673 323.137 429.978 307.749 433.518 302.823 426.706 294.608 428.597 317.138 458.305 325.346 456.418ZM321.909 436.158 319.403 449.647 311.397 438.575ZM337.212 417.903 348.136 449.799 355.682 447.218 346.616 420.758 365.292 414.365 363.434 408.929ZM397.628 429.326 410.304 422.295C413.167 420.71 415.243 419.312 416.53 418.104 418.257 416.475 419.486 414.6 420.188 412.492 420.904 410.384 421.103 408.176 420.799 405.853 420.497 403.542 419.57 400.986 418.027 398.203 416.669 395.752 415.152 393.846 413.461 392.465 411.4 390.774 409.202 389.703 406.868 389.251 405.099 388.896 403.035 389.012 400.678 389.577 398.912 390.004 396.755 390.929 394.191 392.349L381.132 399.59ZM401.811 420.437 390.893 400.748 396.061 397.884C397.992 396.813 399.445 396.137 400.405 395.846 401.668 395.462 402.828 395.361 403.888 395.537 404.959 395.703 406.086 396.325 407.288 397.396 408.499 398.466 409.744 400.153 411.016 402.452 412.293 404.751 413.033 406.639 413.243 408.132 413.462 409.622 413.335 410.943 412.877 412.098 412.413 413.254 411.61 414.315 410.447 415.276 409.586 415.999 407.745 417.146 404.923 418.709ZM414.985 378.861 436.713 405.016 459.128 386.397 455.461 381.978 439.178 395.504 434.349 389.695 449.494 377.115 445.824 372.694 430.677 385.275 424.789 378.186 441.666 364.167 437.994 359.747ZM479.156 366.572 484.41 360.575 470.552 348.432C468.348 346.501 466.993 345.175 466.47 344.462 465.646 343.289 465.326 341.952 465.527 340.445 465.731 338.931 466.556 337.352 468.009 335.696 469.474 334.024 470.881 333.017 472.23 332.686 473.583 332.358 474.762 332.489 475.787 333.084 476.812 333.68 478.342 334.856 480.361 336.63L494.518 349.034 499.772 343.04 486.328 331.256C483.253 328.563 480.942 326.817 479.389 326.033 477.837 325.242 476.247 324.899 474.611 324.998 472.978 325.095 471.275 325.647 469.49 326.639 467.699 327.644 465.785 329.3 463.734 331.635 461.267 334.456 459.673 336.838 458.962 338.785 458.251 340.739 457.98 342.53 458.142 344.172 458.302 345.811 458.761 347.187 459.514 348.325 460.641 350.003 462.634 352.095 465.501 354.604ZM508.828 330.208 516.499 316.46C518.025 313.731 519.055 311.655 519.61 310.207 520.159 308.751 520.416 307.332 520.388 305.933 520.357 304.529 520.029 303.191 519.388 301.911 518.754 300.633 517.79 299.633 516.509 298.92 515.129 298.147 513.608 297.865 511.969 298.084 510.325 298.299 508.809 298.994 507.4 300.149 508.038 297.767 508.032 295.664 507.384 293.824 506.742 291.993 505.56 290.601 503.84 289.641 502.484 288.884 500.972 288.513 499.285 288.526 497.601 288.54 496.025 288.964 494.552 289.797 493.091 290.632 491.753 291.92 490.542 293.667 489.795 294.764 488.17 297.517 485.672 301.927L479.141 313.637ZM507.782 320.494 500.937 316.675 503.473 312.128C504.979 309.429 505.95 307.766 506.388 307.152 507.161 306.034 508.043 305.291 509.006 304.94 509.971 304.587 510.927 304.679 511.883 305.212 512.801 305.725 513.375 306.437 513.624 307.341 513.874 308.245 513.731 309.31 513.205 310.525 512.886 311.252 511.821 313.251 510.004 316.508ZM496.002 313.921 488.039 309.474 491.629 303.041C493.022 300.544 493.976 298.983 494.468 298.378 495.209 297.439 496.076 296.818 497.063 296.52 498.061 296.229 499.082 296.366 500.137 296.955 501.034 297.456 501.649 298.126 501.994 298.977 502.338 299.82 502.389 300.805 502.145 301.906 501.898 303.008 500.896 305.147 499.136 308.311ZM498.364 278.887 529.387 292.804 541.312 266.214 536.066 263.863 527.407 283.179 520.519 280.086 528.573 262.122 523.33 259.77 515.273 277.734 506.867 273.964 515.845 253.941 510.605 251.59ZM512.025 244.866 544.701 254.275 549.327 238.185C550.493 234.142 551.043 231.115 550.981 229.115 550.927 227.105 550.306 225.342 549.126 223.81 547.938 222.275 546.382 221.229 544.452 220.672 541.996 219.964 539.732 220.209 537.659 221.416 535.583 222.618 533.861 224.812 532.494 228.005 532.137 226.117 531.611 224.5 530.926 223.148 530.241 221.784 528.884 219.83 526.862 217.283L521.818 210.835 519.189 219.969 524.748 227.499C526.716 230.192 527.927 232.001 528.376 232.922 528.822 233.831 529.059 234.732 529.071 235.609 529.077 236.499 528.828 237.821 528.321 239.58L527.874 241.134 514.23 237.202ZM533.075 242.632 534.704 236.978C535.758 233.312 536.552 231.07 537.082 230.23 537.609 229.401 538.282 228.81 539.082 228.49 539.884 228.16 540.779 228.14 541.759 228.423 542.864 228.741 543.648 229.34 544.135 230.211 544.62 231.084 544.769 232.17 544.588 233.452 544.48 234.101 543.986 235.971 543.097 239.061L541.383 245.025ZM521.432 206.09 554.841 210.603 555.906 202.702 528.191 198.959 530.825 179.394 525.132 178.627ZM524.551 137.448 524.701 146.036 532.5 149.303 532.779 165.087 525.096 168.494 525.246 176.925 558.968 161.051 558.824 152.629ZM538.291 151.786 550.971 157.039 538.48 162.57ZM562.138 165.509 568.874 159.755 568.749 152.805 561.819 147.364 561.923 153.41 565.443 156.459 562.031 159.404ZM524.026 133.186 557.541 127.488 556.245 119.878 531.061 107.724 553.523 103.906 552.285 96.639 518.77 102.339 520.108 110.193 544.819 122.176 522.788 125.921ZM549.408 82.777 544.634 69.08C543.56 65.992 542.535 63.707 541.561 62.234 540.249 60.253 538.611 58.725 536.653 57.672 534.699 56.606 532.552 56.034 530.213 55.936 527.884 55.845 525.208 56.319 522.209 57.365 519.561 58.289 517.425 59.461 515.775 60.887 513.757 62.63 512.329 64.612 511.491 66.837 510.839 68.516 510.601 70.57 510.76 72.994 510.878 74.805 511.423 77.089 512.39 79.859L517.308 93.96ZM541.362 77.137 520.109 84.539 518.159 78.957C517.432 76.871 517.014 75.328 516.889 74.331 516.725 73.02 516.825 71.859 517.177 70.844 517.521 69.819 518.328 68.815 519.589 67.809 520.848 66.803 522.722 65.864 525.201 65 527.685 64.134 529.668 63.727 531.177 63.77 532.682 63.814 533.963 64.161 535.027 64.81 536.085 65.462 536.995 66.435 537.743 67.745 538.308 68.716 539.126 70.728 540.188 73.775ZM503.967 56.846 534.808 42.545 531.455 35.31 500.611 49.608ZM480.327 11.65 484.493 19.163 492.913 18.381 500.574 32.192 495.393 38.807 499.482 46.18 521.795 16.325 517.709 8.958ZM499.189 17.856 512.85 16.537 504.424 27.29Z" fill="#171713" fill-rule="evenodd"/>
<path transform="matrix(1,0,0,-1,539.9979,77.718997)" d="M0 0 16.898-47.811 67.59-49.107 27.341-79.952 41.773-128.564 0-99.816-41.773-128.564-27.341-79.952-67.59-49.107-16.898-47.811Z" fill="#fff215" fill-rule="evenodd"/>
<path transform="matrix(1,0,0,-1,480.3602,231.31311)" d="M0 0 11.019-31.178 44.077-32.024 17.829-52.138 27.241-83.839 0-65.092-27.241-83.839-17.829-52.138-44.077-32.024-11.019-31.178Z" fill="#171713" fill-rule="evenodd"/>
<path transform="matrix(1,0,0,-1,599.6386,231.31348)" d="M0 0 11.019-31.178 44.077-32.024 17.829-52.138 27.241-83.839 0-65.092-27.241-83.839-17.829-52.138-44.077-32.024-11.019-31.178Z" fill="#171713" fill-rule="evenodd"/>
<path transform="matrix(1,0,0,-1,366.273,276.7126)" d="M0 0 11.019-31.178 44.077-32.024 17.829-52.138 27.241-83.839 0-65.092-27.241-83.839-17.829-52.138-44.077-32.024-11.019-31.178Z" fill="#171713" fill-rule="evenodd"/>
<path transform="matrix(1,0,0,-1,820.8924,359.33113)" d="M0 0 11.019-31.178 44.077-32.024 17.829-52.138 27.241-83.839 0-65.092-27.241-83.839-17.829-52.138-44.077-32.024-11.019-31.178Z" fill="#171713" fill-rule="evenodd"/>
<path transform="matrix(1,0,0,-1,259.1076,359.33113)" d="M0 0 11.019-31.178 44.076-32.024 17.829-52.138 27.241-83.839 0-65.092-27.241-83.839-17.829-52.138-44.077-32.024-11.019-31.178Z" fill="#171713" fill-rule="evenodd"/>
<path transform="matrix(1,0,0,-1,713.7258,276.7126)" d="M0 0 11.019-31.178 44.077-32.024 17.829-52.138 27.241-83.839 0-65.092-27.241-83.839-17.829-52.138-44.077-32.024-11.019-31.178Z" fill="#171713" fill-rule="evenodd"/>
</g>
</svg>
