<?xml version="1.0" encoding="UTF-8"?>
<svg id="Layer_1" xmlns="http://www.w3.org/2000/svg" xmlns:xlink="http://www.w3.org/1999/xlink" version="1.1" viewBox="0 0 595.2 841.9">
  <!-- Generator: Adobe Illustrator 30.4.0, SVG Export Plug-In . SVG Version: 2.1.4 Build 226)  -->
  <defs>
    <style>
      .st0, .st1 {
        fill: none;
      }

      .st2 {
        fill: #7e8184;
      }

      .st3 {
        fill: #284060;
      }

      .st4 {
        fill: #f9f8fb;
      }

      .st5 {
        fill: #fefdf9;
      }

      .st6 {
        fill: #3e3f42;
      }

      .st7 {
        fill: #26262f;
      }

      .st8 {
        fill: #242b35;
      }

      .st9 {
        fill: #f1af45;
      }

      .st10 {
        fill: #8d9092;
      }

      .st11 {
        fill: #d1954e;
      }

      .st12 {
        fill: #d3a276;
      }

      .st13 {
        fill: #202a2d;
      }

      .st14 {
        fill: #232b35;
      }

      .st15 {
        fill: #d29855;
      }

      .st16 {
        fill: #847d7a;
      }

      .st17 {
        fill: #b97640;
      }

      .st18 {
        fill: #dbdbd6;
      }

      .st19 {
        fill: #8a8e94;
      }

      .st20 {
        fill: #3d3e3f;
      }

      .st21 {
        fill: #25272c;
      }

      .st22 {
        fill: #b4bebe;
      }

      .st23 {
        fill: #b97641;
      }

      .st24 {
        fill: #262b35;
      }

      .st25 {
        fill: #dbd9d3;
      }

      .st26 {
        fill: #f1af41;
      }

      .st27 {
        fill: #eeb044;
      }

      .st28 {
        fill: #434445;
      }

      .st29 {
        fill: #c6c8c8;
      }

      .st30 {
        clip-path: url(#clippath-1);
      }

      .st31 {
        clip-path: url(#clippath-3);
      }

      .st32 {
        clip-path: url(#clippath-4);
      }

      .st33 {
        clip-path: url(#clippath-2);
      }

      .st34 {
        clip-path: url(#clippath-7);
      }

      .st35 {
        clip-path: url(#clippath-6);
      }

      .st36 {
        clip-path: url(#clippath-5);
      }

      .st37 {
        fill: #284162;
      }

      .st38 {
        fill: #c09066;
      }

      .st39 {
        fill: #fff;
      }

      .st40 {
        fill: #7e8289;
      }

      .st41 {
        fill: #222930;
      }

      .st42 {
        fill: #f1ae44;
      }

      .st43 {
        fill: #252b35;
      }

      .st44 {
        fill: #7c818a;
      }

      .st1 {
        stroke: #000;
        stroke-miterlimit: 10;
        stroke-width: .2px;
      }

      .st45 {
        fill: #26425c;
      }

      .st46 {
        fill: #cbcdc4;
      }

      .st47 {
        fill: #f8b63e;
      }

      .st48 {
        fill: #d8d8dc;
      }

      .st49 {
        fill: #757978;
      }

      .st50 {
        fill: #d8d9d4;
      }

      .st51 {
        fill: #274162;
      }

      .st52 {
        fill: #fbb540;
      }

      .st53 {
        fill: #3b3c3f;
      }

      .st54 {
        fill: #2e2f32;
      }

      .st55 {
        fill: #d19753;
      }

      .st56 {
        fill: #13171a;
      }

      .st57 {
        fill: #d19650;
      }

      .st58 {
        fill: #81828e;
      }

      .st59 {
        fill: #bdbeba;
      }

      .st60 {
        fill: #494b4e;
      }

      .st61 {
        fill: #222b35;
      }

      .st62 {
        clip-path: url(#clippath);
      }

      .st63 {
        fill: #d19651;
      }

      .st64 {
        fill: #1f2325;
      }

      .st65 {
        fill: #f1af43;
      }
    </style>
    <clipPath id="clippath">
      <rect class="st0" width="595.2" height="841.9"/>
    </clipPath>
    <clipPath id="clippath-1">
      <rect class="st0" width="595.2" height="841.9"/>
    </clipPath>
    <clipPath id="clippath-2">
      <rect class="st0" width="595.2" height="841.9"/>
    </clipPath>
    <clipPath id="clippath-3">
      <rect class="st0" width="595.2" height="841.9"/>
    </clipPath>
    <clipPath id="clippath-4">
      <rect class="st0" width="595.2" height="841.9"/>
    </clipPath>
    <clipPath id="clippath-5">
      <rect class="st0" width="595.2" height="841.9"/>
    </clipPath>
    <clipPath id="clippath-6">
      <rect class="st0" width="595.2" height="841.9"/>
    </clipPath>
    <clipPath id="clippath-7">
      <rect class="st0" width="595.2" height="841.9"/>
    </clipPath>
  </defs>
  <g class="st62">
    <path class="st51" d="M487.2,415c0,106.2-86.1,192.3-192.3,192.3s-192.3-86.1-192.3-192.3,86.1-192.3,192.3-192.3,192.3,86.1,192.3,192.3"/>
    <path class="st52" d="M482.7,414.9c0,103.9-84.1,188.1-187.9,188.1s-187.9-84.2-187.9-188.1,84.1-188.1,187.9-188.1,187.9,84.2,187.9,188.1"/>
    <path class="st37" d="M477.8,416c0,100.9-81.9,182.7-182.8,182.7s-182.8-81.8-182.8-182.7,81.9-182.7,182.8-182.7,182.8,81.8,182.8,182.7"/>
    <path class="st47" d="M428.4,415.2c0,70.7-59.7,128-133.4,128s-133.4-57.3-133.4-128,59.7-128,133.4-128,133.4,57.3,133.4,128"/>
    <path class="st45" d="M169.1,414.6c0,67.5,56.4,122.1,125.9,122.1s125.9-54.7,125.9-122.1-56.4-122.1-125.9-122.1-125.9,54.7-125.9,122.1"/>
    <path class="st39" d="M173.5,416.3c0,65.1,57.4,111.3,124.5,111.3s118.4-46.3,118.4-111.3-54.4-117.8-121.5-117.8-121.5,52.7-121.5,117.8"/>
    <path class="st5" d="M418.8,516.2c3-3.3,13.4-13.3,32.3-19.7.4-.1.7.3.5.6-2.6,4.9-15.4,26.5-32.4,20.7-.7-.2-.9-1.1-.4-1.6"/>
    <path class="st5" d="M409.5,512.2s19.3-12.8,8.3-34.3c0,0-11.5,16.1-8.3,34.3"/>
    <path class="st5" d="M438.7,489.6s18.6,1.7,28.6-32.9c0,0-17.6,6.5-28.6,32.9"/>
    <path class="st5" d="M431.1,485.3s14.4-18.6-.9-37.7c0,0-8.3,27.7.9,37.7"/>
    <path class="st5" d="M452,453.7s17.7,1.7,20.2-37.3c0,0-12.8,8.3-20.2,37.3"/>
    <path class="st5" d="M444.7,451.3s8.6-20.7-9.6-35.8c0,0-1,30.5,9.6,35.8"/>
    <path class="st5" d="M457.3,416.4s17.5-3.4,9.6-37.7c0,0-12.5,15-9.6,37.7"/>
    <path class="st5" d="M449.2,416.4s4.3-23.9-16.6-31.5c0,0,7.7,29.1,16.6,31.5"/>
    <path class="st5" d="M453.8,381.7s13.8-12,0-39.7c0,0-9.1,19.8,0,39.7"/>
    <path class="st5" d="M445.9,381.7s-2.9-22.6-22.6-26.7c0,0,9.4,24,22.6,26.7"/>
    <path class="st5" d="M442.7,347.5s10.1-13.1-9.4-37c0,0-2.7,22.9,9.4,37"/>
    <path class="st5" d="M435.2,350.1s-3.1-17.1-26.3-22.4c0,0,12.9,21.3,26.3,22.4"/>
    <path class="st5" d="M426.6,327.7s-2.4-20.6-24.6-29.9c0,0,10.6,21.9,24.6,29.9"/>
    <path class="st5" d="M180.4,512.7s4.1-13.7-7.9-34c0,0-11.6,18.1,7.9,34"/>
    <path class="st5" d="M172.4,518.5s-7.5-13.5-34.2-21.1c0,0,16.6,29,34.2,21.1"/>
    <path class="st5" d="M158.7,486.1s10-8.1.8-37.3c0,0-14.6,15.9-.8,37.3"/>
    <path class="st5" d="M150.7,490.2s-8.3-24.5-27.7-32c0,0,8.4,32,27.7,32"/>
    <path class="st5" d="M144.9,452.3s11.5-6.6,9.7-35.6c0,0-17.5,10.1-9.7,35.6"/>
    <path class="st5" d="M137.8,455s-6.8-28.3-20.2-37.5c0,0,.6,35.5,20.2,37.5"/>
    <path class="st5" d="M140.3,417.4s12.5-8,15.2-28.7c0,0-18.1,1.5-15.2,28.7"/>
    <path class="st5" d="M132.8,418.1s1.8-27.8-10.5-38.6c0,0-7.9,32.2,10.5,38.6"/>
    <path class="st5" d="M144.1,383.1s14.2-8.4,22.1-23.3c0,0-20.3-3.1-22.1,23.3"/>
    <path class="st5" d="M135.6,383.1s8.6-18,.8-40.6c0,0-14.8,23-.8,40.6"/>
    <path class="st5" d="M154,350.6s9.6,2.8,26.2-21.9c0,0-18.6.3-26.2,21.9"/>
    <path class="st5" d="M146.4,349s10.9-11.2,9.4-38.2c0,0-18.5,22-9.4,38.2"/>
    <path class="st5" d="M162.5,327.8s13.8-6.1,24.4-29.3c0,0-18.9,5.4-24.4,29.3"/>
  </g>
  <g class="st30">
    <path d="M318.4,300.6s-1.3-3.8.7-7.1c0-.7-.3-6.3,1-7.3,0,0,0,0,0,0,0-.1,0-.2,0-.2,0,0-.9-5.2,2.4-5.5v-4.4l13.2-.8,5.2,5.4-1.6,1.7c.5.5-.1,3.3-.4,4.5.1,2.9-.4,5.7-.8,7.3,13.8-7.2,17.3,2.6,17.3,2.6,5.4,2.2,13.5,11.2,13.5,11.2,20.2,9.1,27.4,23.3,27.4,23.3,39.4,18.6,13.4,32.9,13.4,32.9,31.6,106.4-45.4,147.2-45.2,145.9l-66.6,19.6-40.8-120.8-15.8-20s0,0,0,0c-1-3.4,1.3-6.7,1.3-6.7,0,0,4.4-7.5,1.9-11.6-1.3-2-2.4-4.2-2.8-5.1-.1-.3-.4-.4-.7-.4h-1.5c-.4,0-.6-.4-.6-.7v-2.9c0-.4-.4-.7-.7-.8l-2.4-.4c-.6-.1-1.1-.7-1.1-1.3l.2-4.5c0-.3-.2-.5-.5-.5-1.2.4-3.7,1.2-4.8,0-.2-.2-.3-.4-.4-.6-1.4-3.2.2-8.7-.9-12.4-.2-.6-.8-1-1.1-.9-2,.5-3.9-.5-5.2-1.5-.3-.3-.6-.5-.9-.8-.6-.6-1.6-.6-2.2,0l-2.1,2.1c-.3.3-.9.2-1-.3-1.1-6.5-3.8-18.8-4.5-22,0-.4.2-.8.6-.8h4.5c0,0,.1,0,0-.1-1.4-6.5-.2-15.3,1.7-19.8,0,0,0,0,0-.1-.8-.3-7-3.2-7.6-10.6-.7-7.9,2.7-13,5.3-16.9,2.6-3.8,3.1-8.5,1.4-12.3-.9-2.2-4-5.7-6.5-7.4-.7-.5-.8-.6-1.7-.9-.7-.2,3.5-.8,4.3-.8,3.1,0,6.3.8,10.6,4.5,11.6,9.9,10.8,17.8,10.6,18.8,0,0,0,0,0,0,5.5,3.5,9.6,1,9.8.8,0,0,0,0,0,0,3.3-5,4.2-11.8-5.2-17.1-15.3-8.7-9.5-25.7-9-27.6,0,0,.2-.7.2-.6,8.2,13.3,17.9,13,17.9,13,0,0,20.1-2.1,25.5,15.8,4.2,13.8-1.4,22.9-5.6,28.5,0,0,0,0,0,.1,18.5,20.5,18.7,30.1,18.7,31.3,0,0,0,0,.1,0,5.5-1.6,9.1,2.7,9.7,3.5h2.8s.8-4.6,3.1-5.8c0,0-.3,3.2,1.2,4.9,0,0,3.9-6.1,5.4-5.7,0,0-.5,2.4-.4,3.8,0,0,2.2,1.1,6.4-5l3-10.3Z"/>
  </g>
  <g class="st33">
    <path class="st19" d="M277.6,438.4c8.6,14,52.3,70,14.8,95.3-29,19.6-65.3-10-99.8-54.8-35-45.4-57.7-103.6-30.5-123.7,3.7-2.7,12.8-3.1,20.9-2.2,22.1,2.7,55.6,22.3,94.6,85.3"/>
    <path class="st64" d="M256,425.4c34.6,45.8,47.4,93.8,30,106.8-24,17.9-57.7-12.2-90.6-54.3-35.1-44.8-51.9-99-32-114.5,16.3-12.7,56.1,13.7,92.6,62"/>
    <path class="st10" d="M249.6,438.7c28.2,37.5,39.7,76.7,26,86.1-13.7,9.4-51.5-17.8-72.6-46.2-27.7-37.3-42.4-79.8-27.2-91.8,12.4-9.8,44.1,12.3,73.9,51.9"/>
    <path class="st64" d="M243.9,441.8c25.5,34.1,36.5,69.4,24.7,77.5-11.8,8.1-42.8-13.1-67.4-47.9-24.6-34.9-34.3-69.6-23.2-77.6,10.8-7.9,38.9,12,65.9,48"/>
    <path class="st6" d="M239,444.3c23,31.3,36.3,61.2,26.7,68.3-9.6,7-37.3-12-60.3-43.2-23-31.3-35.3-61.4-25.4-67.9,12.3-8,35.9,11.6,58.9,42.9"/>
    <path class="st29" d="M280.8,457.2l2.5-.6s-31.3-70.9-94.8-98.8c0,0-.1,0,0,0,8.3,4.6,57.4,33.5,92.4,99.4"/>
    <path class="st29" d="M257.2,456.6h1.9s-45.8-71-77.8-69c0,0,0,0,0,0,2.5.6,35.4,8.8,75.9,69"/>
  </g>
  <g class="st31">
    <path class="st15" d="M283.7,421c14.9.7,24.9-1.2,24.9-1.2h.1c4.1-2.1,5.9-8.2,5.9-8.2,11.7.6,13.5-3.9,13.5-3.9l3.2-12.6c.1,0,.2.2.3.3,6.1,4.3,24-10.4,36.5-21.8,2.5-4.5,4.9-9.2,7.5-13.6,3.5-6,6.8-11.6,6.5-11.7,14.7,1,14-2.6,14-2.6-4.1-10.6-22.3-9.1-22.3-9.1-10.2,19.3-52.1,51.2-52.1,51.2-8.6.6-8.8,4.2-8.8,4.2h-23.2s-6.6,1.9-3.1,5.6c0,0-6.3,3.8-2.3,7.9,0,0-7,5.1-.5,9,0,0-4,4.4-.1,6.6h.1Z"/>
    <path class="st23" d="M400.5,366.3c9.6-.8,15-8.8,15-8.8l-3-2.6c1.2,0,3.3-1.3,3.3-1.3,2.5-14.5-15.7-10.5-15.7-10.5.5-1.5,5.1-3.4,5.1-3.4,2-6.9-31.7-9.8-31.7-9.8-14,.2-16.9-6.5-16.9-6.5,9.6,5.4,7.8,2.1,7.8,2.1-5.1-7.6-11.1-8.5-11.1-8.5-4.9-.7-11.1-5.7-11.1-5.7,0,0-.9,3.6,5.4,8.5,0,0-.4,6.2,1.4,8,1.9,1.8,20.7,8.8,20.7,8.8l-.3-.3.3-1.3s19.4-.3,20.9,2.3l-1.8,1.4s5.7,2.3,6.9,7.4c0,0-.3,3-13.5,1.9,0,0-14.2,23.9-16.2,24.6,0,0-26.4,18.8-34.6,22.9,0,0-.1,6.5-3,12.4,0,0-1.7,4.8-14.2,4.3,0,0,0,4.1-6.1,7.8,0,0-9.1,2.7-25,1.3,0,0,15.4,3.2,21.8,1.6,0,0,13.5-3.6,23.2-12.1,0,0,9.1-1.9,9.6-2.5.5-.6,53.6-28.4,61.6-42h1.1Z"/>
    <path class="st11" d="M327.6,365.1c-.4-3.5-1.6-7.6-4-12.2,0,0,9,5.7,4.9,24.2,0,.4.4.7.7.5l7.8-5.6c.1-.1.2-.3.2-.4-.3-2.1-2.7-16.2-8.3-20.4-.3-.2-.2-.6,0-.8,1.5-.6,5.7-4.9,8-8.5.3-.4,1-.2.8.3-1.8,5.7-3.4,20.1,3.4,24,.2-.1,2,5,28.4-29.1-.2,0-.4-.1-.4-.1l-20.5-6.1c-.1,0-.3-.2-.3-.3-.4-1.5-2.6-9.3-2.6-10.2,0-1-8.4-8.3-10.1-6.8,0,0-12.7-6-24.6,73.4,0,.3.2,1.3,1.1,1.1,3.4-.7,16.9-7.8,15.3-22.8"/>
    <path class="st55" d="M271.8,385.4s0,0,0,.1c.4,1.2,3.8,10.9,11.4,11.8,0,0,0,0,0,0-.5.4-3.8,3.7-2.5,7.9,0,0,0,0,0,0-.3.3-3.9,3.8-.8,9.9,0,0,0,0,0,0-.3.3-4.2,4.9-2.4,18.4,0,0,0,0,0,0-1.1-1.4-13.4-16.1-18.5-27,0,0,1.9-2.2,2.2-3.2.3-1,0-8.2,0-8.2l4.1,4.6-.6-10.4,5.1,3.9,1.3-7.2s.3-1.3,1-.9h0"/>
    <path class="st63" d="M291.5,374c1.1.3,2.3.5,3.6.4,0,0,0,0,0,0-.1.7-2.7,11-3.7,12.3-13.5,14.3-18.1-2.1-16.8-2.6.2.1.3.2.3.2,0,0,5.3,3.8,5.9,3.7.6-.1.4-.5.4-.5,0,0-6.6-12-2.8-14.7,3.7-2.6,3.5-4.3,5.5-5.2,0,0,.1,0,.1,0,.4.6,3.1,4.9,7.5,6.3"/>
    <path class="st57" d="M292.1,363.1s-4,7.5,3.1,9.2c.3,0,.6-.1.6-.4l4.2-13.2c0-.1,0-.3-.2-.3h-3.8c-.3,0-.6.1-.9.4-.9,1-3.2,3.6-3.1,4.2"/>
    <path class="st23" d="M324.2,414s6,.8,9.3-.8c0,0-12.3,21.9-27.5,30.2,0,0,6.4,2.3,24.2-6.7.1,0,.2-.1.3-.2,0,0,1.5,9.1-19.9,16.5,0,0,7.1,3.8,15.6,3.6,0,0-.3-2.2-6.5-3.6,0,0,17.8-11.4,12.9-19.7,0,0-13,6.4-14.5,6.1,0,0,17-12.2,19.7-31.1l-9.6,2.5-4.1,3.2Z"/>
    <polygon class="st17" points="291.1 453.3 295.6 457 289.6 456.9 291.1 453.3"/>
    <path class="st11" d="M326.3,456.7c.6.4-5.5-.1-10.2,8.3,0,0-3.3-2.3-21.1-8.3l-4-3.3s6-28.4,6.5-30.1c0,0,6.7,2.8,26.6-9.3,0,0,7.5.6,9.3-.8,0,0-13.2,23.2-27.5,30.2,0,0,5.5,2.4,24.5-6.8,0,0,1.4,9.3-19.9,16.5,0,0,7.6,4,15.6,3.6"/>
  </g>
  <g class="st32">
    <path class="st13" d="M402.1,380.1s4.3,3.3,5.6,6.1-4.3,56.5-1.9,59.1l-1.5,11.4s-11.6-7-3.9-39.5c0,0,1.6-34.5,1.7-37"/>
    <path class="st13" d="M386,486s9-24.1,9.5-29.3c0,0,2.5,10.9,1,16.7l-10.5,12.6Z"/>
    <path class="st13" d="M371,500.1s.8-22.9,1.9-23.6c0,0,15.7-37,13-81.6,0,0,11.8,36-3,80.7,0,0-11.3,23.7-11.9,24.5"/>
    <path class="st13" d="M378.1,407.7s-2.9,21.8-4.2,23.2c0,0,6.1,21.5-15,56.8l3.2,15.2s20.3-60.9,16.1-95.2"/>
    <path class="st13" d="M366.5,404.8l1.8-2.3s-.4,17.8-4.1,20.8c0,0,2.4-15.6,2.3-18.5"/>
    <path class="st13" d="M357.3,401.6s8.2-1.8,8.9-4.6c0,0-8,32.9-9.6,33.8,0,0,5.7,9-2.5,27.9,0,0-1.3-1.6-3.1-1.7,0,0,2.7-16.5,0-23.2,0,0-10.3,4.2-7.1-2.6,0,0,15.6-18.3,13.3-29.6"/>
    <path class="st13" d="M362.8,432.5s5.5-4,5.5-6.6c0,0,1,5.9,0,8.8,0,0,7.3,8.7-9.6,38.1l-2.2-8.5s10.4-15,9.8-27.9c0,0-3.7-2.6-3.4-3.9"/>
    <path class="st13" d="M336.7,457h8.8s.9-9.5,0-10.7c0,0-7.9,10.7-8.8,10.7"/>
    <path class="st13" d="M374.7,329.2s7.4.6,7.7.4c.3-.2-8.7-14.7-12.3-14.6,0,0,5.3,10.5,4.7,14.2"/>
    <path class="st13" d="M374.6,315.9s10.7,12.3,10,13.7c0,0,7.8.9,8.7,1.5,0,0-16.3-16.2-18.6-15.2"/>
    <path class="st13" d="M372.1,327.7l-9.2-6.7s-6-12.5-7.8-11.7c0,0,2.7,4.2,2.1,6.6,0,0-3-1.5-6.1-3.8,0,0-.6-2.9-.9-3.8,0,0-13.5,2.4-14.7,3-1.2.6-.4,0-.4,0,0,0,7.7-7.1,13.4-7.6,0,0-9.3-.5-18.7,7.9,0,0,3.3-9.6,12.7-15.8,0,0,15.6-7.1,29.4,31.5l.2.5Z"/>
    <path class="st13" d="M298,321.3c.3,1.1,3.4,13.5,0,20.1,0,0,1.2,9.1,2.1,11.1,0,0,0,0,0,0,.5-2.3,8.1-31.5,11.3-33.9,0,0,0,0,0,0-.3-.1-2.2-.8-3.4,1.1,0,0-.1,0-.2,0-.2-.7-1-3.4-.6-4.6,0,0,0,0,0,0-.7.8-2.7,3.3-2.9,4.4,0,0,0,.1-.1,0-.5-.3-2-1.6-2.5-3.6,0,0,0,0,0,0-.1.5-1,4.5-3.6,5.3,0,0,0,0,0,.1"/>
  </g>
  <g class="st36">
    <path class="st54" d="M355.7,237.7c3,4.6,20.8.5,28-10,.4-.5,1.3-1.6,1.5-.9,8.4,35.2-7.5,54.8-15.4,64.3-.3.4-.8.3-1.1.2-2.6-14.9-11.4-21.8-20.8-23.3-3,4.4-5.1,8.3-6.8,13.1l-5.7-6c-4.8.3-9.5.6-14.3.9,1-4.5,2-9.2,3.2-13.9-2,.5-4.1,1.5-5.7,2.1-8.3,3.3-14.3,10.4-18.9,17.3-.8,1.2-1.5,2.3-2.2,3.5-.3,0-.9,0-1.4-.6-6.2-7.1-12.3-13.9-16.6-31-1.6-6.5-2.1-9.3-2.2-16.7,0-12.3,1.5-25.9,4.5-36.1,4.1-15.1,11.6-22.9,11.9-21.1h0c8,19.3,21.6,44.9,39.1,51.4,0,0,.6.5,1.8,0,.8-.4,1.3-1.2,1.5-2,.4-1.6,2.1-4.8,8.9-9.1,0,0,2.2-1.7,5.3-8.2l.4,8.7s1.4,1.8,1.4,5.3c0,0,2.1,2.7,3.3,11.3,0,0,0,.3.2.8"/>
    <path class="st22" d="M278.9,439.8s5.5,8.2,6.2,10.6c0,0,5.7-18.6,7.1-27.5,0,0-5,.3-9-1.1,0,0-2.6,14.1-4.3,18.1"/>
    <path class="st22" d="M292.4,389.6s7.3-1.9,8.3-1.4l25.9-87.3s-5.5-.8-7.3,0c0,0-27.1,87.9-26.8,88.7"/>
    <path class="st4" d="M324.3,293.9s-1.5,2.7-1.2,4.9c0,0,4.2.2,5.6.8,0,0,1.1-4.4.4-5,0,0-2.4-1.1-4.8-.7"/>
    <path class="st4" d="M324.4,291.5s4.7-.4,6.3,1.1c0,0,1.3-3.2-.4-4.7,0,0-2.7-1.6-4.9.2,0,0-1.2,2-.9,3.4"/>
    <path class="st46" d="M327.1,274h8.3s12.4-42,12.8-41.8c0,0-.6-2.3-6.3-1.4,0,0-12.4,29.8-14.8,43.2"/>
    <path class="st46" d="M341.4,228.9s4.3-1,7.8.9c0,0,.2-3.4-.2-3.7,0,0-1.8-1.3-5.9-1.2,0,0-1.2,1-1.7,3.9"/>
    <path class="st46" d="M345.3,221.7s-1.3,0-1.4,2c0,0,2.5,0,4.9,1.3,0,0,.7-1.2,0-2.3,0,0-1.9-1.1-3.5-.9"/>
    <path class="st46" d="M345.9,220.4s1.4-.2,3.7.9v-6.1s-3.9,5-3.7,5.3"/>
    <path class="st50" d="M324,260.6h.4s5.2-18.1,5.7-18.6c0,0-4.2-11.6-4.7-12.2,0,0-.3,7.8,0,9.2,0,0-2.5-4.9-3-4.8,0,0,0,4.2,0,4.7,0,0-4.7-13.6-5.4-14s6.9,34.9,6.9,35.7"/>
    <path class="st18" d="M315.9,262.9s2.8-.4,2.8-1-11.1-49.7-11.6-50c-.5-.3-4.3-9.3-5.1-9.3s14.1,58.8,13.9,60.3"/>
    <path class="st18" d="M308.9,240.9s0,.1,0,.4c.7,2.9,5.5,21.7,5.5,22.8s-8.8,2-17.6,19.7c0,0-16.1-17.3-16.7-35.1,0,0,7,2.6,10.2,7.1,0,0,5.7,14.7,9,16,0,0,1.3.4,1-3.7,0,0-25.7-27.6-4.6-71,0,0,11,48.5,12.6,59.8l.5-16"/>
    <path class="st16" d="M278.7,233.3s.3,10.1.7,11.4c0,0,8.6,5.4,9.2,5.7,0,0-2.6-9.8-2.4-11.8l-7.5-5.2Z"/>
    <path class="st53" d="M279.1,231.2l6.4,5.2-.2-13.1-6-3.2s-.6,9.8-.2,11.1"/>
    <path class="st48" d="M279.8,216.7l6.5,4.5v-8.5l-3.9-2.6,4.3.6s.9-2.3.4-2.8c-.5-.5-5.5-1.9-6.1-1.8-.6,0-1.7,9.1-1.3,10.6"/>
    <path class="st49" d="M326,273.1s-2.1.4-2.4-6.1c0,0,10.9-35.4,11.5-35.8.5-.4,5-.6,5-.6,0,0-14.4,41.4-14,42.5"/>
    <path class="st20" d="M320.4,262l2-.8s-4.6-20.1-5.4-20.1,3.4,20.9,3.4,20.9"/>
    <path class="st56" d="M327.1,281.6s-1,2.2-.3,3.2c0,0,4.9.3,4.9.6,0,0,1.3-2.2.7-2.6-.6-.4-.6-1.7-5.4-1.3"/>
    <path class="st58" d="M321.1,285.1c-.4.8,4.1.1,4.3.4.2.3.3-3.3.3-3.9,0-.6-2.4-.6-3.8,0-.8.4-.8,1.9-.8,3.4"/>
    <path class="st58" d="M320,290.7c0,.7.5,1.2,1.2,1.2,1,0,2.1,0,2.2-.3,0-1.9.2-2.2.4-4.5,0,0-3.1-.3-3.5.3-.2.3-.2,1.7-.2,3.3"/>
    <path class="st58" d="M323,293.8s-1.3,2.8-1.1,5.3c0,0-1.7.8-2.6,0-.5-.5-.9-1.3-.7-2.5,0,0,0-2,1-2.7"/>
    <path class="st7" d="M330.9,295.1l-1.1,5s4,1.9,5.6-3.4c0,0-1.6-2-4.5-1.5"/>
    <path class="st7" d="M332.9,288.6l-.7,4.4s5.7,1.4,5.2-2.2c0,0,0-3.9-4.5-2.2"/>
    <path class="st7" d="M333.6,282.6v3.1s4.2.3,4.6.6c.4.3.1-2.9-.6-3.7,0,0-2.5-1.1-4,0"/>
    <path class="st21" d="M301.5,388.6s3.5.5,3.5,1,24.2-87,24.2-87c0,0-2-.4-2.4,0-.4.4-24.8,86-25.4,86.1"/>
    <path class="st59" d="M367.8,240.4s13.9-8.2,15.8-10.6c0,0,8.8,27.9-13.7,57.4l-.4-12.3s9.9-6.9,10-31.6c0,0-2.2-.3-2.4,0,0,0,3,14.4-8.6,28.8l-.8-31.7Z"/>
    <path class="st2" d="M357.5,244.1s3.3,27.6,3,29c0,0,4.7,1.9,7,9.2,0,0-2.9-38.2-3.3-38.6-.4-.3-2.6-.6-2.6,0,0,0,2.3,24.8,2.2,26.6,0,0-1.1.3-1.4-1.9l-3-25.1s-1.9,0-2,.7"/>
    <path class="st60" d="M352.7,247.1s2.3-2,2.8-2c0,0,3.2,17.9,3.3,23.9,0,0-2.4,0-2.3-.5,0,0-3.8-20.7-3.7-21.3"/>
    <path class="st28" d="M336.2,274.6s3.9,3.1,4.5,4.5c0,0,12.9-37.5,13.3-42.1,0,0-4.4-4.6-4.8-4.3-.4.3-11.8,41.1-13.1,41.9"/>
  </g>
  <g class="st35">
    <path class="st6" d="M233,282.8c-.3.4-.7,1-1,1.8-1.7,3.8-1.8,9,.8,13,1.6,2.4,3.5,3.7,4.4,4.2,4.9,3,11.5,3.1,16.8.4,4.9-2.5,7.2-6.7,8-8.4,0,0,.7-.9.7-3.8,0-1,.3-2.1.9-2.9,3.6-4.9,14.8-22.6,4.9-37.4,0,0-4.9-9.3-18.7-9.9-.2,0-.7,0-.9,0-1.2,0-6.3-.1-12.1-4.8-1.8-1.4-4.5-4.5-6.3-7.7-1-1.8-1.9,9.9-1.5,12.1,0,0,0,.6,0,.7,1.8,9.1,9,13.2,10.2,13.8,1.1.5,4.7,2.6,6.6,6.1.5,1,1.7,4,.7,8.2-.2.8-.4,1.7-.8,2.5-2.2,5.1-6.9,7.5-9,8.4-.4.3-.9.6-1.4.9-1.1.9-1.9,1.8-2.4,2.6"/>
    <path class="st6" d="M232.7,271.9c-.8.7-8.9,8.1-14.3,23,0,.2-.3.3-.5.2-2.2-1.7-13.3-11.2-1.6-26.1,0,0,0,0,0,0,.1-.2,7.2-12.2-6.6-20.4,0,0,0,0,0,0,1.1-.1,18.5-2.4,23.1,23.3,0,0,0,.1,0,.2"/>
    <path class="st25" d="M231,233.8c-.2-.2-.5,0-.5.3.4,2.3,2.3,9.7,11.2,13.4,10.9,4.5,20.6,17.3-8.1,36.9,0,0,1.9,9.3,17,4.8,0,0,17.5-18.4,16.4-34,0,0-.8-13.8-17.1-13.6,0,0-10.1,0-19-7.6"/>
    <path class="st25" d="M218.7,294c-4.3-3.5-5.6-6.7-6-9-.6-3.8-1.7-6.8,3.6-14.9,2.5-3.8,3.2-8.5,1.7-12.7-.9-2.4-2.5-5-5.2-7.6-.1-.1,0-.3.1-.3,2,.5,8.4,2.7,10.7,8.1,0,0,1.1,1.7.9,6.6-.2,4-.6,5.9-.4,7.6.2,1.5.8,3.8,2.8,6.4,0,0,0,0,0,0-1.4,1.9-2.8,4.1-4.2,6.6-1.8,3.2-3.1,6.3-4.1,9"/>
    <path class="st25" d="M227.3,281.5c-1,.9-12.9,12-9.8,36.4h-3.3c0,0-.2,0-.1.2.2,1.7,2.4,16.1,2.4,18.3,0,0,0,.1.1,0,1.9-1.8,23.4-21.9,35-21.1,0,0-.9-5.7-2.1-7.4,0,0-15.3,2.1-26.4,9.5,0,0-1.1-27.9,4.3-35.8,0,0,0,0,0,0"/>
    <path class="st44" d="M251.2,307.8s.7,4.1,1.3,5.5c0,.1.2.2.3.2,1.8,0,14.8.3,16.8,0,.1,0,.2-.2.2-.3-.2-1-1.2-4.8-2-5.7,0,0-.2-.1-.3-.1h-4.2c-.2,0-.3.2-.3.3.1.5.3,1.5.2,2.6,0,1-2.4-3.2-2.4-3.2,0,0-.1,0-.2,0h-5c0,0-.2,0-.2.2v2.3c0,0,0,.2-.2.2h-1.5s0,0,0,0v-2.2c0,0,0-.1,0-.1l-2.6.2v.2Z"/>
    <path class="st40" d="M269.6,308.1l2.4,5.3s0,0,.1,0h3.4c0,0,.1,0,0-.1l-2.4-5.4c0,0,0,0-.2,0h-3.4c0,.1-.1.2,0,.3"/>
    <path class="st40" d="M274.7,308.2l1.9,5.2s0,0,0,0h3.3c0,0,.1,0,0-.1l-2.2-5.1c0,0,0-.1-.2-.1h-2.8c0,0-.1,0,0,.1"/>
    <path class="st38" d="M222,336.4s4.1,1.4,5.4,1c1.3-.4,2.4-6.8,2.5-7.5,0,0,0,0,0,0,.3.3,2.2,1.6,6.9-3.1,0,0,.2,0,.2,0v3.3s0,0,0,0l-3.8,1.3s-2.3,1.4-.5,2c1.7.6,3,.3,1.7,1.2-.8.5-4.2,3.9-4.8,4.5,0,0,0,.1,0,.2l.3,10.1s0,3.8,2.3,1.9c2.1-1.7,6.1-4.9,6.7-5.3,0,0,0,0,0,0l-3.6-2c-.1,0-.1-.3,0-.3,0,0,.2,0,.2,0,8.6,1.5,10.2,2,10.5,1.4.7-1.2,1-1.6,1-1.6,0,0,.4-1.1,1,0,.6,1.2-.1,1.3,1.3,1.4,1.2,0,6.2,0,7.8,0,.3,0,.5-.2.6-.5.2-1.6.3-6.6-4.1-6.9-5.3-.3-7.8-.4-7.8-.4,0,0,6.4-7.4,5.3-9.4-.7-1.2-2.6-.8-4.2-.7-5,1.3-4.6.9-4,.2.3-.4,1.4-1.2,2.3-1.9,1.3-1,1.9-2.8,1.1-4.2,0-.1-.1-.2-.2-.3-.9-1.2-2.6-1.5-3.9-.9-3.5,1.7-13.7,6.8-20.8,16.2l.8.2Z"/>
    <path class="st12" d="M242.4,354.7c-1.4.2-2.8,1.2-3.2,2.5-.2.6-.2,1.2.3,1.7,1.4,1.6,3.6-.3,3.6-.3,0,0,1.6-.5,2.1.5,0,0,1,1,3.8.5.7-.1,1.2-.8,1.1-1.5,0-1-.7-2.4-2-2.9,0,0-2.9-.9-5.7-.6"/>
    <path class="st27" d="M271.2,344.6s2.3,2.7,3.9,5.9c.9,1.8,1.6,3.8,1.6,5.5,0,0-.3,8.4-2.3,11.3-.4.6-.7,1.2-1,1.9-1,3.2-2.8,11.3,5.2,16.2t0,0c-.4-.6-5.9-10.3-1-16.3.7-.9,1.2-2,1.5-3.1,1.3-4.9,4.9-15.4,7.4.8,0,0,.4,5.1,5.2,5.4,0,0,0,0,0,0l-1.4-2.6c-.6-1-.8-2.2-.5-3.4.2-1,.3-2.8.1-5.7,0,0,0,0,0,0,.3-.2.9,0,1.4.3.3.2.6-.1.4-.4-1-2-2-4.3-2.8-6.7-2.4-6.7-3.6-13.6-3.4-14.3,0,0,0-.2,0-.2-.2-.1-1.4.8-1.7,2.1-.1.5,0,1.2.2,1.9,0,0-.5,1-4.2-2.8,0,0,2.9-11.1-8-10.1,0,0,0,.1,0,.1,0,.2,3.2,1.8,4.2,3.5.2.3.2.6,0,.9-1,1.5-3.5,5-.3,8.9,0,0-.3,4.7-6.8-5.2,0,0-.4-7.6,1.3-11.3.8-1.8,1.2-3.9.9-5.9-.5-2.9-1.3-5.2-3.8-5.3-1.8,0-3.3,1.2-3.9,2.8-.8,2.4-2,7.2-2,14.9,0,0-.1,0-.1,0l-1.4-15.5c0-.4-.3-.7-.7-.8l-4.2-.7s-2.7.4-.5,2.5c0,0,2.2,1.3,2.3,1.4.3.4-1.6,13.8,2.6,15.5,8.3,10.1,11.1,13,15.8,18.2,0,0,0,0,0,0,0-.3,0-1.2,0-1.5,0-.2-.5-1.6-.5-1.6"/>
    <path class="st27" d="M283.3,325.8s3.1,4,.4,2.6c-.5-.3-1.1-.5-1.6-.6-1.3-.3-3.5-.7-5-.5,0,0-.8,0,10.3,11.6.2.2,2.4,1.6,2.7,7.6,0,1.6.4,3.1,1,4.5.9,2.4,2.8,5.2,6.6,6.2,0,0,3.5,1,.7-2.2,0,0-6.5-6.3-4.4-11.4,0,0,1.5-6.4-4.7-9.3,0,0-4.8-1.9-1.3-2.3,0,0,1.7,1.3,1.3-.9,0,0-1.4-4.9,1.8-1h.1c0,.1,3.2,2,5.5,6.7h0c0,.1.7,1.8,1,0,0,0,0-.1,0-.2.3-2,.2-10.4-3.1-13,0,0-2.3-1.5-1.9,2.2,0,0,0,0,0,0,0,0-3.3-.7-5.7-.7-.2,0-.4-.5-.5-.6-.9-1.2-6.6-7.4-12.9-5.6-.5.2-1.1,1.1-.3,2.2.9,1.2,2.2,2.1,3.7,2.5l6.3,2.1"/>
    <path class="st27" d="M260.9,343.7c-3.8,4.5,7.6,13.1,7.7,16.9,0,2.1-1,9.9-2.7,14.3-.6,1.4-.4,2.9.4,4.1,1.2,1.7,2.6,4,2.5,5.4,0,.3.2.5.5.4.8-.4,2.1-1.7,1-6.4,0,0-2.3-5.9,1.2-11.1,0,0,3.9-8,1.3-12.6-.4-.8-9.6-13.5-11.8-11"/>
    <path class="st27" d="M238.3,352.1c.8.8,2.4,1.4,6-.1,0,0,2.7-.9,5.3.9,2.4,1.7,6.5,1.4,7.1,1.3,0,0,0,0,0,0,0,.9,1,9,3.8,8.2,0,0,0,0,0,0l.4,5.9s0,0,0,0c-2.2-4-4.8-8.3-5.4-8,0,0-.1.2-.1.3.2,1.2,1.3,8.4.3,11.3,0,0-1.3-8.6-3.5-9.4-.2,0-.4,0-.4.2-.2,1.1-.9,4.5-.7,6.5,0,0,0,0,0,0-.6-.7-3.2-3.8-4.1-4.2,0,0-.1,0-.1,0-.1.7-.5,3.8.9,6.7.8,1.6.7,3.6-.2,5.1-.2.4-.5.8-.8,1.2-1,1.3-1.7,2.8-1.9,4.4l-.2,1.4s0,0,0,0c.4-.2,2.3-1.1,2.8-1.1.6,0-2.4,5.5-.7,8.7,0,0,0,0,.1,0,.2-.6,1.2-3.1,4.5-7.3,0,0,0,0,0,0l-.2,3.8c0,.1.1.2.2.1l1.9-1.1c.1,0,.3,0,.3.1v7.4c0,0,0,0,0,0l1.4-.2c0,0,.1,0,.1.1v10.5c0,0,0,.2.2.1.3,0,1.1-.2,2.2-1,1.3-1.1,2-2.6,2.2-4.3.3-2.4.6-6.6,0-10.6,0,0,0,0,0,0l4.1,5.6c0,.1.3,0,.3-.1-.4-2.2-2-9.9-2.7-11.6,0,0,0,0,0,0,.9,1.1,5.2,6.1,6.5,7.3,0,0,.2,0,.1-.1-1.3-2.2-7.8-13.8-4.9-20.2,0,0,6.4-11.5-1.3-15.2-.6-.3-1-.8-1.3-1.3-.8-1.8-1.7-4.3-6-6.1-2-.8-4.1-1.2-6.3-1.3-3.2,0-8.1.3-10.3,3.3-.5.7-.5,1.7,0,2.4"/>
    <path class="st41" d="M249.9,304.7c1.6-.1,0,2.2,0,2.3,0,0,0,0,0,0-10,0-22.8,6.6-24.8,7.6-.1,0-.3,0-.3-.2-.4-2.8-2.9-24.8,9.5-41.1,0,0,0,0,0,0,0,.6.1,2.9,1.5,4.3l.6.9s-4.7,1.2-6,11.2c0,0-2.3,17.3,19.4,15,0,0,0,0,0,0"/>
    <path class="st41" d="M265.7,288.5c.4-.4.7-.8,1.1-1.1.6-.5,1.4-.4,2,.1,2.8,2.8,12.3,12.9,10.7,17.7,0,0-1.3,2.1-2.6,0,0,0-4.2-7.8-3.9-7,0,0,1.6,3.5,1.3,4.3,0,0-.1,0-.2,0-.7-.5-4.5-2.9-6.3-2.3-.4.1-.7.5-.8.9-.2,1-.3,3.2,2,4.9,0,0,0,0,0,0h-17s0,0,0,0c1-.5,8.8-4.3,11-12.2.5-2,1.4-3.9,2.7-5.4"/>
    <path class="st1" d="M282.5,421.7s22.6,5.6,34.9-4.4c0,0,3.9-3.7,12.8-7,0,0,7.4-1.2,8-1.4"/>
    <path class="st1" d="M339.2,408.3s-1.1,1.1-11.2-.2"/>
  </g>
  <g class="st34">
    <path class="st24" d="M78.6,501.9c-.6-.3-9.1-4.3-13.3,8.8,0,0,0,.2,0,.3v19.9s0,0,0,0c0,.4.5,7.2,5,9.2.2,0,.4.2.4.4l8.8,23.3s1.1,2.7,0,4.5l-7.6,17.4c0,.2-.2.3-.3.4-1.3.8-7.9,4.9-8.5,11.2v17.9c-.1,0-.1,0-.1.1.1.8,1.8,9.8,9.3,11.2,0,0,.1,0,.2,0l116.1-6c.2,0,.4,0,.5-.2.9-.9,4.6-4.2,9.1-.2.1.1.3.2.5.2,7.8-.1,167.5-2.7,205.5,0,.2,0,.3,0,.5-.1,1.1-.8,6.5-4,6.9,1.7,0,0-.3,11.8,10.6,12.6l19.4.7c0,0,.1,0,.2,0,.8-.2,6.9-1.8,7.5-11.9,0-.4.3-.7.7-.7,2.1-.3,8.6-1.4,11-5.1,0,0,2.5-2,3.7.4,0,0,0,.2.2.2.7.7,5.4,4.9,10.4,4.8l36.4,1.5c0,0,.1,0,.2,0,.8-.1,8.3-1.8,15.5-17.5,0-.1,0-.2,0-.4-.2-4.3-3-81.2-.1-89.4,0-.2,0-.5,0-.7-1.7-2.5-12.2-17.6-21.5-13.7l-33.8,12.8c0,0-.1,0-.2.1-.7.5-5.1,4.1-7.1,7.9-.2.4-.8.5-1.1.3-1.9-1.3-6.7-4.6-7.8-4.1l-45.7,10.5c-.2,0-.4.2-.5.4-.9,1.7-6,9.5-12.7,2.2-.2-.2-.4-.3-.7-.3l-25.1,2.5c-.5,0-.8-.3-.9-.8l-.6-14.2s0,0,0-.1c-.1-.5-1-4.2-3.2-6-.2-.1-.3-.2-.5-.3l-7.8-29.2s-.4-2,.5-3c.1-.2.2-.3.3-.5,0-2.2.2-15.2,0-16.3-.2-1.2-4.2-7.4-8-7.5h-25.6s0,0-.1,0c-.6,0-6.2,1.1-8.4,7.1-.2.6-1.1.7-1.4,0-1.5-2.8-4.8-7.6-9.7-7.3h-22.6c0,0,0,0-.1,0-.6,0-6.5,1-9.3,5.6-.3.5-1.1.5-1.4-.1-1-2.3-3.4-6.2-7.3-5.8l-26.7.3c0,0-.2,0-.2,0-.9.3-6.9,2.7-8.5,10.4,0,0,0,.1,0,.2v15c0,.3.3.6.6.7.5.2,1.1,1,.6,3.1l-5.9,27.2c0,.2-.1.3-.2.4-.7.7-3.3,3.4-3.6,8.4l-.4,12.3c0,.5-.4.8-.9.8l-22-1.7c-.3,0-.5,0-.7.3-1,1.3-5,5.7-7.7-1,0-.2-.3-.4-.6-.5l-51.3-11.6-4-1c-.2,0-.4,0-.6,0-.8.4-3.3,1.3-5.2-1.4,0-.1-.2-.2-.4-.3l-48.6-16.4s0,0,0,0"/>
    <path class="st9" d="M274,531.9v-11.3c0-3.8-2.1-4.2-2.1-4.2l-8.5-35.5c1.2-1.7,1-3.5,1-3.5v-11.5s.5-3.4-3.6-3.8h-19.4s-3.2,0-3.5,3.8v11.5s-.4,2.5,2.1,3.5l-7.5,35.5s-3.9,1.1-4.1,4.2v11.3s-.4,4.5,4.1,3.6h18.6s.4-1,1.1-1c0,0,.9-.2,1.4,1h18.4s2.4.4,2.1-3.6"/>
    <polygon class="st3" points="246 520.5 246.5 516.4 257 516.4 257.6 520.5 254.5 520.5 254.5 531.9 271.9 531.9 271.9 520.5 269.1 520.5 258.4 477.4 260.7 477.4 260.7 465.9 241.3 465.9 241.3 477.4 244.7 477.4 235 520.5 232.4 520.5 232.4 531.9 248.9 531.9 248.9 520.5 246 520.5"/>
    <polygon class="st9" points="248.9 508.2 254.5 508.2 251.7 497.7 248.9 508.2"/>
    <path class="st9" d="M317.5,531.9v-11.3c0-3.8-2.1-4.2-2.1-4.2l-8.5-35.5c1.2-1.7,1-3.5,1-3.5v-11.5s.5-3.4-3.6-3.8h-19.4s-3.2,0-3.5,3.8v11.5s-.4,2.5,2.1,3.5l-7.5,35.5s-3.9,1.1-4.1,4.2v11.3s-.4,4.5,4.1,3.6h18.6s.4-1,1.1-1c0,0,.9-.2,1.4,1h18.4s2.4.4,2.1-3.6"/>
    <polygon class="st3" points="289.5 520.6 290.1 516.4 300.5 516.4 301.1 520.6 298 520.6 298 531.9 315.4 531.9 315.4 520.6 312.7 520.6 302 477.4 304.3 477.4 304.3 465.9 284.9 465.9 284.9 477.4 288.3 477.4 278.5 520.6 276 520.6 276 531.9 292.4 531.9 292.4 520.6 289.5 520.6"/>
    <polygon class="st9" points="292.4 508.2 298 508.2 295.2 497.8 292.4 508.2"/>
    <path class="st9" d="M360.9,531.9v-11.3c0-3.8-2.1-4.2-2.1-4.2l-8.5-35.5c1.2-1.7,1-3.5,1-3.5v-11.5s.5-3.4-3.6-3.8h-19.4s-3.2,0-3.5,3.8v11.5s-.4,2.5,2.1,3.5l-7.5,35.5s-3.9,1.1-4.1,4.2v11.3s-.4,4.5,4.1,3.6h18.6s.4-1,1.1-1c0,0,.9-.2,1.4,1h18.4s2.4.4,2.1-3.6"/>
    <polygon class="st3" points="332.9 520.5 333.5 516.4 343.9 516.4 344.6 520.5 341.5 520.5 341.5 531.9 358.8 531.9 358.8 520.5 356.1 520.5 345.4 477.4 347.7 477.4 347.7 465.9 328.3 465.9 328.3 477.4 331.7 477.4 322 520.5 319.4 520.5 319.4 531.9 335.8 531.9 335.8 520.5 332.9 520.5"/>
    <polygon class="st9" points="335.8 508.2 341.5 508.2 338.7 497.7 335.8 508.2"/>
    <path class="st65" d="M177.4,569.7v8.8s.6,3.2,4.3,3.7l17.2.5s2.7-.9,2.5-3.8v-8.4s-.7-3.5-3.5-3.1l-16.3-.9s-4.2-.4-4.2,3.3"/>
    <path class="st26" d="M203.5,558.9l.4,32.8s-6-.7-6.7,4.5l.3,12.5s.6,3,3.9,3l29.2-.6s2.9-1.2,2.8-3.7c0,0,.6,2.6,2.2,3.3h14c0,0,2.9-.9,3.4-6.4,0,0,0,6,3,6.8h27.8c0,0,2.6.5,2.8-3.8v-12s-.4-3.1-4.6-2.8v-28.9c0,0,4.4.5,4.9-2.5v-12.5c0,0,0-3.4-3.8-3.1l-29-.8s-3.1-.5-3.8,2.8l-7,26.3-8.1-27.7s0-3.8-4.6-3.6l-28.4-3.1s-5.8-1.4-5,5.2v11.1s.4,4.3,6.3,3.2"/>
    <path class="st26" d="M300.9,563.7l-9.6,28.3s-4,.5-4.7,3.2v12s.7,2,3.1,3.1h24.9s1.4-4.7,3.1,0h25.3s2.3-4.5,4,0l57.2.7s2.6.8,2.3-6.6c0,0,6.6,8.5,12.1,7.1v10.9s.3,3.1,3.4,3l17.4,1.5s3.6,0,3.7-4.3v-10.3l11.1.3,8.2-8s1.1-2.7,2.2.5l8,8.7,38.4,1.9,10.4-11.7v-88.1c0,0-9.7-8.9-9.7-8.9,0,0-1.6-1.4-4.5.2l-34.5,12.5-9.2,13.1-11-7.4-39.7,9.4-8,8.5v2.4c0,0-9.1-7.7-9.1-7.7l-47.4,5.6s-3.4-.3-3.9,4.5l.5,11.3s0,3.5,5.9,2.3v30.6h-4.3c0,0-1.8,3.9-3.1.2h-2.2c0,0-11.4-30-11.4-30,0,0-.3-1.2,1.5-1.9v-13.1c0,0-.6-3.3-5.1-2.7-4.5.6-24.5.9-24.5.9,0,0-3.2.9-2.7,4.9l.3,10s-.5,2,1.9,3.4"/>
    <path class="st65" d="M69.9,593.8v20s-.8,3.1,2.9,3.3l25.8-1.2s2-3.9,3.9-.5l26.2-1.1s.7-2.9,2-.1l27.3-1.1s.6-3.6,2.6-.3l26.4-.7s2.6-1.5,2.5-3.6l-.5-13s1-4.2-6.7-3.1l-11.6-20,9.1-16.2,3.7.3s3.6-.1,2.8-4.1l.3-12.6s-.3-3.9-4.5-3.8l-45.8-10.1s-5.9-1.9-6.8,3.1v15.9s.7,4.1,4.5,3.1l11.3,23-11.2,21.1h-3.3c0,.1-1.7,1.7-2.6,0h-3.8c0,0-12.6-26.5-12.6-26.5l10.1-20.4s5.9,1.9,6-2.1l.2-17.4s-1-3-3.8-3.4l-46.5-15.8s-4.9-2.8-6.6,3.1l.2,18.7s-.1,3.6,4.3,4.4l11.7,30.9-11.8,27.5s-5.9-.9-5.8,2.8"/>
    <polygon class="st3" points="75.1 509.6 75.1 527.7 78.6 528.8 91.6 562.8 78.1 595.1 73.5 595.1 73.5 612.8 97.2 611.7 97.2 595.5 93.8 595.2 100.4 580.1 107.4 595.5 103.4 595.6 103.4 611 127.1 610 127.1 596 122.6 596 107.7 566.1 119.8 540.4 124.6 541.2 124.6 526.3 101.8 519.6 101.6 535.8 105.3 536.7 100.3 548.5 94.8 534.1 98 534.8 98.4 518.5 75.1 509.6"/>
    <polygon class="st3" points="133.4 529.5 133.4 543.6 136.9 544.1 149.9 570.8 136.6 595.8 131.6 595.8 131.6 609.8 155.6 608.8 155.6 596 152.3 595.9 158.7 584 165.6 595.8 161.5 595.9 161.5 608.5 185.2 607.8 185.2 596.1 180.9 596 166.1 572.5 178 551.7 182.8 552.2 182.7 540.2 160.2 535.6 160.2 548.8 163.5 549 158.4 559 153.2 547.5 156.5 548 156.8 535.3 133.4 529.5"/>
    <polygon class="st3" points="180.9 570.1 180.9 577.7 197.2 578.5 197.2 571.5 180.9 570.1"/>
    <polygon class="st3" points="201.4 596.5 201.4 607.1 229.6 607.1 229.6 596.5 224.4 596.5 224.1 574.3 237.4 606.5 247.9 606.5 261.3 575.1 261.3 596.4 257.2 596.3 256.9 606.5 283.1 606.1 283.1 596.4 278.5 596.3 278.4 559.5 283.1 559.5 283.1 549.6 254 548.5 243.4 586.8 231.5 546.6 201.4 543.3 201.4 554.8 207 555.3 207.3 596.5 201.4 596.5"/>
    <polygon class="st3" points="290.8 596.8 290.8 605.8 312.3 605.8 312.3 596.8 309 596.8 309.8 593.4 321.9 593.4 322.9 595.9 319.1 595.9 319.2 605.8 341.5 605.8 341.5 596.4 338.5 596.4 324.5 559.2 327.5 559.2 327.4 548.4 302.4 549.3 302.5 559.2 306.2 559.3 293.9 596.8 290.8 596.8"/>
    <polygon class="st9" points="315.4 577.1 319.2 585.1 312.3 585.1 315.4 577.1"/>
    <polygon class="st3" points="348.2 547.2 348.2 557.5 354.1 557.5 354.1 595.8 348.2 595.8 348.2 605.8 376.3 606.3 376.3 595.7 371.2 595.8 371.4 581.1 382.4 595.4 379.1 595.3 379.4 606.3 402.2 606.3 402.2 595.4 399.6 595.4 388 580.5 393.4 580 402.2 572.6 402.2 548.1 394.2 542 348.2 547.2"/>
    <polygon class="st42" points="371.2 556.1 371.2 569.8 384.7 569.1 384.7 554.7 371.2 556.1"/>
    <polygon class="st14" points="375.2 559.8 375.2 565.6 381 565.6 381 559.2 375.2 559.8"/>
    <polygon class="st3" points="408.5 600.6 416.1 607.2 429.3 608 429.3 613.2 421.7 613.2 421.9 621.1 438.3 622.5 438.3 608.2 452.5 608.5 459.8 601.7 459.8 580.4 443.6 581.5 443.7 594.9 424.7 595.1 424.4 549.1 443.6 545.7 443.8 552.9 459.8 550.5 459.8 534.6 452.2 529.4 415.1 538.5 408.5 544.8 408.5 600.6"/>
    <polygon class="st3" points="466.9 533.4 466.9 602.3 474.1 609.7 509.7 611.4 517.2 602.6 517.2 517.6 509.2 510.7 474.6 522.9 466.9 533.4"/>
    <polygon class="st42" points="483.3 536.2 483.3 594.4 501.1 594.4 501.1 530.8 483.3 536.2"/>
    <polygon class="st61" points="487.1 539.3 487.1 590.2 497.3 590.2 497.3 536.3 487.1 539.3"/>
    <path class="st8" d="M100.4,589.7s-1.1,2.2-1,2.6c.1.4,2.5.5,2.6.2.1-.3-1-3.2-1.6-2.8"/>
    <path class="st8" d="M158.8,591.4s-1.2,1.2-.9,1.8c.3.6,2,.4,2.1.2,0-.2-.6-2-1.2-2"/>
    <path class="st43" d="M463.3,552.3v25.9s-2.4-2.7-3.5-2.2-16.2,1.5-16.2,1.5c0,0-4.1.5-4,4.3v9.1h-10.7l-.5-38.6,11.5-1.8s-.4,7.4,4.5,6.6l16.6-2.4s1.8-1.1,2.3-2.4"/>
    <polygon class="st43" points="395.4 583.2 404.6 575.5 404.6 592 400.7 590.9 395.4 583.2"/>
  </g>
</svg>