<?xml version="1.0" encoding="UTF-8"?>
<svg id="Layer_1" xmlns="http://www.w3.org/2000/svg" xmlns:xlink="http://www.w3.org/1999/xlink" version="1.1" viewBox="0 0 886.8 886.8">
  <!-- Generator: Adobe Illustrator 30.4.0, SVG Export Plug-In . SVG Version: 2.1.4 Build 226)  -->
  <defs>
    <style>
      .st0, .st1 {
        fill: none;
      }

      .st2 {
        fill: #d56302;
      }

      .st3 {
        fill: #e08001;
      }

      .st4 {
        fill: #170800;
      }

      .st5 {
        fill: #a24700;
      }

      .st6 {
        fill: #140701;
      }

      .st7 {
        fill: #9e4400;
      }

      .st8 {
        fill: #fddd76;
      }

      .st9 {
        fill: #fddd77;
      }

      .st10 {
        fill: #e9b633;
      }

      .st11 {
        fill: #e7ab20;
      }

      .st12 {
        fill: #e15b00;
      }

      .st13 {
        fill: #df7f00;
      }

      .st14 {
        fill: #de7e00;
      }

      .st15 {
        fill: #9b4301;
      }

      .st16 {
        fill: #160900;
      }

      .st17 {
        fill: #fde185;
      }

      .st18 {
        fill: #994200;
      }

      .st19 {
        fill: #eab230;
      }

      .st20 {
        fill: #130501;
      }

      .st21 {
        fill: #edbc2c;
      }

      .st22 {
        fill: #150801;
      }

      .st23 {
        fill: #ebb52f;
      }

      .st24 {
        fill: #9c4300;
      }

      .st25 {
        fill: #dc7d01;
      }

      .st26 {
        fill: #dd7d00;
      }

      .st27 {
        fill: #b13500;
      }

      .st28 {
        fill: #a74a01;
      }

      .st29 {
        fill: #eab430;
      }

      .st30 {
        fill: #9b4200;
      }

      .st31 {
        fill: #fbca44;
      }

      .st32 {
        fill: #f9e8a0;
      }

      .st33 {
        fill: #9d4301;
      }

      .st34 {
        fill: #fddc72;
      }

      .st35 {
        fill: #757575;
      }

      .st36 {
        fill: #eab32d;
      }

      .st37 {
        fill: #eab633;
      }

      .st38 {
        fill: #f8ca37;
      }

      .st39 {
        fill: #fddc71;
      }

      .st40 {
        fill: #e28101;
      }

      .st41 {
        fill: #fac539;
      }

      .st42 {
        fill: #e9b531;
      }

      .st43 {
        fill: #a64900;
      }

      .st44 {
        fill: #fcc941;
      }

      .st45 {
        fill: #734b23;
      }

      .st46 {
        fill: #150600;
      }

      .st47 {
        fill: #994100;
      }

      .st48 {
        fill: #aa4c00;
      }

      .st49 {
        fill: #f7e7a6;
      }

      .st50 {
        fill: #dd7c00;
      }

      .st51 {
        fill: #fbdb74;
      }

      .st52 {
        fill: #a82f00;
      }

      .st53 {
        fill: #fff;
      }

      .st54 {
        fill: #fce087;
      }

      .st55 {
        fill: #e25b00;
      }

      .st56 {
        fill: #e5aa26;
      }

      .st57 {
        fill: #e9b12d;
      }

      .st58 {
        fill: #af3401;
      }

      .st59 {
        fill: #de7e01;
      }

      .st60 {
        fill: #fedc6d;
      }

      .st61 {
        fill: #9d4400;
      }

      .st62 {
        fill: #e07f01;
      }

      .st63 {
        fill: #4c290b;
      }

      .st64 {
        fill: #fedc6e;
      }

      .st65 {
        fill: #e9b331;
      }

      .st66 {
        fill: #e15c01;
      }

      .st67 {
        fill: #180901;
      }

      .st68 {
        fill: #f9c438;
      }

      .st69 {
        fill: #160800;
      }

      .st70 {
        fill: #1c0d00;
      }

      .st71 {
        fill: #fddc74;
      }

      .st72 {
        fill: #eebe3b;
      }

      .st73 {
        fill: #f9c737;
      }

      .st74 {
        fill: #130801;
      }

      .st75 {
        fill: #fbc63e;
      }

      .st76 {
        fill: #f1c144;
      }

      .st77 {
        fill: #b03501;
      }

      .st78 {
        fill: #ebb632;
      }

      .st79 {
        fill: #e9b12e;
      }

      .st80 {
        fill: #e9b42f;
      }

      .st81 {
        fill: #9d4300;
      }

      .st82 {
        fill: #fbc841;
      }

      .st83 {
        fill: #974100;
      }

      .st84 {
        fill: #df7e00;
      }

      .st85 {
        fill: #eab62f;
      }

      .st86 {
        fill: #fdda6f;
      }

      .st87 {
        fill: #eab227;
      }

      .st88 {
        fill: #fcd967;
      }

      .st89 {
        fill: #ecba37;
      }

      .st90 {
        fill: #fddc73;
      }

      .st91 {
        fill: #ad4f00;
      }

      .st92 {
        fill: #ecba33;
      }

      .st93 {
        fill: #f9c63b;
      }

      .st94 {
        fill: #974000;
      }

      .st95 {
        fill: #f7d260;
      }

      .st96 {
        fill: #b23500;
      }

      .st97 {
        fill: #170900;
      }

      .st98 {
        fill: #984100;
      }

      .st99 {
        clip-path: url(#clippath);
      }

      .st1 {
        stroke: #f3a302;
        stroke-miterlimit: 10;
        stroke-width: 8px;
      }

      .st100 {
        fill: #fdde76;
      }

      .st101 {
        fill: #984101;
      }

      .st102 {
        fill: #fac235;
      }

      .st103 {
        fill: #fdde78;
      }

      .st104 {
        fill: #a22300;
      }
    </style>
    <clipPath id="clippath">
      <rect class="st0" width="886.8" height="886.8"/>
    </clipPath>
  </defs>
  <g class="st99">
    <path class="st70" d="M443.4,4C200.7,4,4,200.7,4,443.4s196.7,439.4,439.4,439.4,439.4-196.7,439.4-439.4S686.1,4,443.4,4M443.4,731.2c-158.9,0-287.8-128.8-287.8-287.8S284.5,155.6,443.4,155.6s287.8,128.8,287.8,287.8-128.8,287.8-287.8,287.8"/>
    <path class="st1" d="M443.4,4C200.7,4,4,200.7,4,443.4s196.7,439.4,439.4,439.4,439.4-196.7,439.4-439.4S686.1,4,443.4,4ZM443.4,731.2c-158.9,0-287.8-128.8-287.8-287.8S284.5,155.6,443.4,155.6s287.8,128.8,287.8,287.8-128.8,287.8-287.8,287.8Z"/>
    <path class="st53" d="M199.6,658.2c3.4,3.9,5.1,5.9,8.5,9.6-18.1,16.7-36.1,33.5-54.2,50.2,11.8,12.4,24,24.5,37.3,35.4-2.3,2.8-3.4,4.1-5.7,6.9-17.5-15.1-33.6-31-48.9-48.3,21-17.9,42-35.9,63-53.8"/>
    <path class="st53" d="M257.6,778.5c-7.6,5.8-15.5,11.3-23.4,16.5-5.4-3.3-8.1-5-13.4-8.5,25.9-15.8,50.1-33.3,73.1-53,5.2,2.7,7.8,4,13,6.4-1.7,30.2-1.1,60,1.9,90.1-6.1-2.1-9.1-3.2-15.1-5.6-.7-9.5-1.1-19.1-1.2-28.7-11.9-5.1-23.6-10.9-34.9-17.3M293.2,787c0-10.4.2-15.6.7-25.9.3-5.8,1.2-10.9,2-15.8-.1,0-.2,0-.3-.1-3.5,3.8-7.2,7.6-11.2,11.2-7.9,6.7-12,10-20.3,16.4,9.6,5.1,19.1,9.8,29,14.4"/>
    <path class="st53" d="M380.8,821.6c-5.1,8-10.4,15.9-16,23.6-6.1-1.2-9.1-1.8-15.1-3.2,18.5-23.9,34.9-48.7,49.5-75.2,5.7.7,8.5,1.1,14.2,1.5,8.5,29,19.2,56.7,32.1,84.1-6.4,0-9.5,0-15.9-.1-3.8-8.7-7.4-17.6-10.7-26.6-12.7-.7-25.4-2.1-38-4.2M416.5,817.2c-3.5-9.8-5.1-14.7-8-24.6-1.7-5.6-2.6-10.6-3.4-15.6-.1,0-.2,0-.3,0-1.9,4.7-4.1,9.6-6.6,14.3-5,9-7.7,13.5-13.2,22.4,10.4,1.6,21,2.8,31.5,3.5"/>
    <path class="st53" d="M492.9,765.3c2.7,16.1,5.3,32.3,8,48.4,1.5,15.7,15.7,24,30.2,20.9,15.2-3.2,24.2-17.3,18.9-32.5-4.9-15.6-9.7-31.2-14.6-46.9,4.6-1.4,6.9-2.2,11.4-3.8,5.4,15.2,10.7,30.4,16.1,45.6,8.9,23.6-8.3,41.1-30.3,46.2-21.7,5.1-42.9-3.6-45.4-27.8-2.1-16.1-4.1-32.3-6.2-48.4,4.7-.6,7.1-.9,11.8-1.7"/>
    <path class="st53" d="M591.1,732.1c15-8.1,29-17.4,42.7-27.6,2.2,2.9,3.3,4.3,5.4,7.1-10.6,8.1-21.6,15.5-33.1,22.3,5.6,9.5,8.4,14.3,13.9,23.8,11.5-6.7,22.6-14.1,33.2-22.1,2.1,2.8,3.2,4.3,5.3,7.1-10.9,8.2-22.3,15.8-34.1,22.7,6.3,10.8,12.6,21.6,19,32.4-5.3,3.1-7.9,4.6-13.3,7.5-13.1-24.4-26.1-48.7-39.2-73.1"/>
    <path class="st53" d="M673.9,667.9c3.5-3.8,5.2-5.7,8.5-9.6,14.1,12,28.1,24,42.2,36,17.2,13.7,9.4,33.5-4,46.3-4.2,4-10,8.3-13.8,10.1-1.6-3.2-2.4-4.9-4.1-8.1,2.9-1.5,6.9-4.2,10.6-7.7,9-8.6,12.1-21.5.6-30-13.4-12.4-26.7-24.7-40.1-37.1"/>
    <path class="st53" d="M33,461.4c-1.4-13.7-1.6-27.8-.3-41.3,1.4-15.1,3.3-31.5,12.5-44.1,5-6.7,12.2-9.5,18.7-7.7,12.8,3.5,17.3,18.7,18.4,31,.2,0,.2,0,.4,0,2.4-8.5,12.5-15.6,20.9-16.1,12.5-.8,21.9-2.2,25.7-3.8-1.2,6.3-1.8,9.4-2.8,15.9-2.8,1.5-10.8,2.9-22.2,4.4-13.4,1.8-19.1,12.2-20.2,25-.5,6.9-.7,10.5-1,17.6,12.9.7,25.9,1.3,38.8,2-.2,6.8-.3,10.2-.3,17.2H33M74.3,441.8c.3-7.9.5-11.8,1.1-19.5.9-11.8.1-32.2-13.3-35.3-14.7-3.4-19.8,21.8-20.5,32.5-.6,9.8-.5,17.2-.1,20.6,10.9.6,21.9,1.1,32.8,1.7"/>
    <path class="st53" d="M147.8,254.8c5.7,8.6,11.7,17.1,17.9,25.3-2.8,4.9-4.1,7.3-6.7,12.4-20.6-26.6-39-54.3-55.1-83.9,4.6-6.7,7-10,12-16.4,32,7.6,62.8,17.6,92.9,30.7-3.9,4-5.7,6-9.4,10.2-9.4-3.8-18.9-7.2-28.6-10.3-8.4,10.2-16.1,20.9-23.1,32M162,219.1c-9-2.8-18.2-5.2-27.3-7.4-6.3-1.5-11.6-3.3-16.9-4.9,0,.1-.1.2-.2.3,3.1,4.8,6.3,9.8,9.4,15,4.7,8.4,9.7,16.8,14.9,24.9,6.4-9.6,13-18.7,20.1-27.9"/>
    <path class="st53" d="M249.2,84.5c13.8,26.5,27.7,53,41.5,79.5-4.6,2.3-6.9,3.4-11.4,5.9-14.9-26-29.7-51.9-44.6-77.9,5.7-3.1,8.7-4.6,14.5-7.5"/>
    <path class="st53" d="M404.2,131.1c-15.2-28.7-32.5-55.7-52.1-81.7,6.9-1.4,10.4-2.1,17.4-3.3,9,13.2,17.6,26.7,25.5,40.6,5.7,10.3,11.4,20.7,15.5,31.8.1,0,.2,0,.3,0,2-11.6,5.8-22.8,9.6-33.9,5.5-15.1,11.6-30.1,18.5-44.6,7-.1,10.5,0,17.5,0-15.3,29-27.9,58.6-38,89.8-5.7.4-8.5.7-14.2,1.3"/>
    <path class="st53" d="M640.7,133c-13.6,22.6-41.7,29.8-65.8,21-23.3-8.5-37.3-33.2-30.9-57.1,8-29.6,41.6-38.5,68.4-27.4,24.8,10.3,43.9,37.4,28.3,63.5M559.2,100.7c-5.7,17.3,2.7,38.2,20.1,44.9,18.6,7.3,38.4-2.4,47.6-19.4,10.3-19.1,1-40.5-18.8-48.2-20.5-8-42,1.9-48.8,22.7"/>
    <path class="st53" d="M695.3,217.1c1.6,6.7,5.5,15,10.6,22.2,5.3,7.4,15.8,15,24.8,8.6,9-6.3,6.1-19.7,2.5-28.1-5.1-12.1-10.5-30.7-.3-40.5,14.2-13.7,35.4,3.4,43.9,14.8,5.4,7.2,10.6,16.5,12.4,26.4-4.1.6-6.2.9-10.3,1.6-.9-4.4-3.7-13.3-10-22.4-5.4-7.8-16.8-15.5-24.7-9.5-7.9,6-1.8,21.8.9,29.8,4.3,12.9,7.7,30.5-6.2,39.9-14.7,9.9-32.4-2.8-41-14.9-5.4-7.6-10.6-17.2-11.9-23.3,3.7-1.8,5.5-2.7,9.2-4.4"/>
    <path class="st53" d="M784.4,379.1c-9.9-2.3-20-4.2-30-5.8-1.2-6.2-1.9-9.2-3.3-15.2,33.3,4.2,65.4,11.5,97.2,22.6,1.4,9.6,2,14.5,2.9,24.4-27.9,21.6-57.6,39.8-88.8,56.3,0-7.4,0-11.1-.3-18.3,9.4-5.3,18.6-10.9,27.7-16.6-1-15.9-2.8-31.7-5.4-47.4M798.9,421.9c8.6-5.5,17-11.3,25.2-17.4,5.6-4.1,10.7-7.2,15.6-10.3,0-.2,0-.3,0-.5-5.6-1.4-11.4-2.9-17.3-4.7-9.3-3.2-18.8-6-28.3-8.4,2.2,13.7,3.6,27.4,4.7,41.3"/>
    <path class="st70" d="M365.3,722c-15.4-4.8-25.3-15.8-31.9-23.3-13.9-15.5-17.4-35.2-18-48.3-2.6,3-6.7,7.7-11.7,13.7-2.7,3.3-4.3,5.5-5,6.2-17,18.1-37.6,29.6-62.2,33.7-3.7.6-6.8,2.1-10,3.8-7.3,3.9-14.9,6.9-23.3,7.5-3.5.2-6.9-.8-10-2.3-11.9-5.8-24.2-10.6-36.4-15.6-25.4-10.5-39.6-30.5-44.9-57.3-2.4-12.1-2.5-24.4-3.1-36.6-.2-3.6-1-6.4-3.8-9.1-18.5-17.8-28.5-40-33.1-64.9-1-5.3-1.6-10.3-1.9-15-.2-3.2-1.1-16.3,1.5-34.7,3.3-22.6,10.3-42.1,15.5-54.6-3-7.2-9.7-26.5-3.1-48.5,1.7-5.5,5-16.1,14.8-25.7,10.5-10.2,22.3-13.5,27.6-14.5,1.8-3.1,5.4-8.3,11.7-12.2,12.4-7.6,25.4-4.5,28.2-3.8.8-2.2,2.9-7.4,8.3-11.7,5.7-4.6,11.7-5.3,14-5.5,13.7-1.7,27-.2,38.2,9,12.9,10.6,20.7,24.2,23.8,40.7,1.3,6.9,2.5,13.9,2.4,20.9,3.1,2.2,6.1,4.4,10,7.2-7.1-20-5.1-38.1,7.5-55-8.5-13.1-6.8-26.9-1.6-41-3.9-12.8-7.3-25.8-7.1-39.8-7-4.9-12.9-11-17.4-18.3-1.7-2.8-3-5.6-4.5-9.2-5.5-13.7-6.1-24-7.8-33.1-4.8-26-15.3-28-19.8-49.6-.7-3.2-2.3-12-9.2-18.8-.6-.6-.4-1.4-4.5-3.8-19-11.6-27.7-29.4-30.6-50.7,0-.2.1-.5.3-.9,16.3,4.4,32.4,9.8,49,12.9,14.9,2.7,29.6,5.9,44.1,10.2,26.3,7.7,50,20,69,40.3,5.2,5.5,10.3,11.1,15.6,16.7,8-3.6,21-8.3,37.8-9.1,13.4-.6,24.4,1.5,32,3.6,6.8-2.6,16.8-5.6,29.2-6.2,14.8-.8,26.8,2.1,34.2,4.5,4.8-17.3,18.9-30.6,36.4-34.2,17.1-3.6,34.9,2.6,46.3,16,8.1.7,22.6,3.4,35.8,13.9,3.7,2.9,9.7,7.3,13.6,15.4,4.6,9.4,6.4,19.7,5.6,29.9-1.2,15.9,0,31.4,3.8,47,3.1,12.7,1.1,25-7,36.3-11.2-14.6-25.5-24.8-41.8-33-1.6,5.4-3.5,10.5-5.8,15.6,6.8,16.7,9.7,34.9,17.8,51,8.3,16.5,17.7,32.4,35,42.3,19.1,10.8,37.5,23.2,52.9,38.9,7.3,7.5,16.2,11.7,24.9,16.5,12.9,7.1,26,14.1,37,24.1,20.2,18.6,34.5,40.6,39,68.2,2.4,14.8,2,29.4-1.7,44.3,7.1,8.4,13.2,17.7,17.9,27.9,6.7,14.2,10.2,29.1,9.2,44.8-.9,13.2-3,26.4-8,38.9-3.3,8.2-2.9,16.1-1.4,24.5,2.6,13.9,4.5,27.9,3.8,42.1-.6,12.9-4,25.1-11.6,35.8-.2.3-1.3,1.7-2.3,3.9-1.2,2.5-1.6,4.6-1.7,5-1,4.4-9.5,19.7-19.6,21.6-7.7,1.4-13.3-5.5-21.1-11.1-21.4-15.5-39.5-7.1-74.4-14.1-13.1-2.6-31.5-8-52.7-20.2-21.4,18.2-38.8,21.8-51.1,21.6-31.3-.5-44.7-26.5-73.9-20-9.7,2.2-14.7,6.4-33.6,10.4-11.2,2.3-20.7,3.1-27,3.4-2.4.6-7.2,2.2-11.7,6.4-3.9,3.6-5.8,7.6-6.7,9.8-5.1-1.8-11.1-5-15.4-10.9-4.1-5.8-3.7-9.9-7.8-15-4.7-5.8-11.1-6.6-17.1-8.5"/>
    <path class="st94" d="M481.3,497.8c-11.4,1.3-20.2,7.9-26.1,16.5-9,13.1-16.9,22.4-19.8,28.9-3.9,8.6-5.9,16.3-7,21.8l-1.2,4.9c-2.2,2.2-4.9,4.6-8.4,7-2.6,1.8-5.1,3.1-7.3,4.2.8,1.4,2.2,3.6,4.7,5.5,3.4,2.7,7,3.5,8.7,3.8-.4,6.8-3.2,11.8-6.6,12.4-.7.1-1.7.1-2.9-.5.7,3.2,2.6,9.7,8,12.4,1.4.7,2.6.9,5.1,1.2,11.7,1.4,17.5,2,23.8.3,4-1.1,7-2.7,9.9-4.2,3.4-1.8,5.9-5,9.7-6.3,4.1,10.7,1.1,20.7-3.4,30.4-1.9,4.1-6.2,5.5-10,6.8-20.9,7.6-40.2,3.9-57.4-9.9-5.5-4.4-8.1-11.2-10.3-17.8-5.3-15.8-4.9-32-2.1-48.2.7-4,1.6-8.1,2.4-12.4,4.9-.7,9.7-1,14.3-2.1,11.8-2.9,21-9.7,28.8-19,5.6-6.7,9.5-14.5,15-21.2,23.3-28.4,51.7-49.8,85.9-63.4,6.4-2.5,12.6-5.6,19.1-8.5-18.1-2.4-55,7.1-79,20.5,14.4-23.9,29.4-46.2,44.4-68.5-1.2,9.5-3.8,18.8-3,29.5,7.2-13.4,14.2-25.7,18.6-39.3,5.3-16.3,12.4-32,15.4-49.1,1.8-10.6,2.3-21.1-.3-31.7-1.2-5-4.5-8.9-6.7-13.5.9,11.7.8,23.3-1.6,34.8-2.4,11.7-8.8,21.3-17.1,29.8.8-4,1.7-8,2.4-12,.7-4.1.6-8.2-.5-13.1-1,2.5-1.9,4.3-2.5,6.2-4,12.7-12.1,22.9-20.7,32.5-11.5,12.7-20.5,26.9-28.2,42-7.8,15.5-16.2,30.5-26.4,44.6-8.4,11.6-13.1,25.2-17.1,39-.3,1.1-.7,2.3-.9,3.5-3.9,15.9-19.4,22.5-32.1,22.4-6.4,0-12.7,0-19.2.3,5.7,2.5,11.6,4.6,17.2,7.6-13.5,6.8-45.9,3.7-57-8.5,2.4-3.2,3.2-3.5,18-5.9-7-1.4-13.6-.7-20.1-1.1-9.6-.6-17.3-4.8-22.7-12.9,1.4-3.6,3.7-1.7,5.5-.7,3,1.7,6,3.3,9.4,4.2,3.1.8,6.1,0,9.1,0,12.6-.5,25.1.7,37.2,4.1,10.1,2.9,20.4,3.8,30.8,2.9,5.1-.4,8.2-3.7,10.5-7.7,3.3-5.7,5.6-11.8,6.3-18.4,1.7-14.6,6.8-27.9,14.2-40.4,4.4-7.5,8.8-14.9,12.5-22.8,3.7-5.9,6.8-12,8.8-18.6.3-1.1.3-2.4,1.9-2.6,2.1,5.8.2,11.6.1,18,2.2-2.3,2.9-4.7,3.8-7,2.3-6.3,3.6-13,5.9-19.4,1.7-4.6.6-9.5-.2-14.2-1.6-8.6-3.9-17-9.7-23.8-2.4-2.8-7.7-8.4-16.6-10.2-7.1-1.4-13,.5-15.6,1.6,2.7-.2,8.5-.3,13.4,3.4.9.6,1.6,1.3,2.3,2-7.1,1-13.6,1.9-19.7,4.4-4.5,1.9-7.1,4.3-7.8,4.9-3.5,3-5.7,6.1-7,8.3.7-.6,1.9-1.4,3.5-1.5.2,0,1.7,0,2.2.4,2.3,2.1-7.3,18.3-20.3,29.6-3.5,3-6.6,5-10.8,5.8-3.5.7-7.2.4-11-1-3.2-1.1-6.5-1.2-9.7-2-13.6-3.4-26.3-9.2-39.2-14.3,0-.8,0-2,.5-3.4.2-.6.5-1.1.8-1.6,1.4-2.3,3.4-4,4.7-5.2,2.6-2.2,4.2-3.6,4.2-3.6,3.3-2.8,5.1-4.2,6.8-5.3,2.5-1.6,4.6-2.4,5.8-2.9,3.4-1.4,8.5-3.9,16-8.7.6.2,1.3,0,1.9.3.4.2.6.5.8,1.1-1.3,6.3-7.5,7-12,9.7-1.3,3.8-1.4,7.4-.8,11.2.6,3.5,2.3,6.9,2,10.5,7.2,4.7,14.9,6.4,23.3,5.7,8.3-.8,13.2-5.3,17.3-12.4,6.3-11,12-22.3,19-32.8,6.3-9.3,16.3-13.4,26.7-12.7,11,.7,20.5,6.4,26.5,16.5,1.6,2.8,2.8,5.9,6.5,6,2.1,3.2,2.1,7,4.1,9.8,1.5-2.1,1.5-4.7,1.4-6.9-.3-9.4-3.2-17.8-10.6-24.1-4.4-3.7-9.3-6.6-14.7-8.8-1.7-.7-2.3-1.5-3.8-2.1-2.9-1.1-4.9-.7-4.9-1.3-.1-.7,3.2-1.7,6.1-2.7,1.3-.4,3.2-1.2,4.2-1.2,12.8-.5,24.8,1.4,33.6,12.1.3.4.7.8,1.1,1.1.2.2.5.2,1.3.2,6.1-8.7,10-18.5,12.5-29.1,2.5-10.6-.2-21.3-.6-32,3.6-.1,4.7,2,6,3.8,9.1,12.8,9,26.9,6.1,41.2,3.9-5.6,8.3-15,9-22.1,1.3-11.5-1.8-22-9.5-30.7-3.4-3.9-7.2-7.5-11.1-10.9-1.4-1.2-2.9-2.4-2.3-5.2,4.7-1.2,9.5.9,14.4.6-2.3-.7-3.9-1.5-4.8-2-13-7.1-14.9-22.7-18.6-28.4-.2-.4-.9-1.5-.9-2.9,0-.7.3-1.4.9-2.2,8.1,4.7,13.2,12.2,19,19.1-1.6-4.4-4.5-10.3-9.4-16.4-3.2-3.9-6.5-6.9-9.3-9.1,1-.3,6.3-1.9,10.7,1.1,1.2.8,2,1.7,2.6,2.5-3-6.2-7-12.9-11.7-19.3,2.7-2,4.5-.9,6.1.2,5.7,4,10.4,9.1,14.9,14.3.9,1.3,1.7,2.7,2.6,4,1.7,2.5,2.8,5.3,4,8.4,3.5-10.3-2.9-19.7-1.1-29.5,4.5,5,12.9,25.7,15.8,39.3,3.8-7.5,3.2-15.5,4.7-23,2.4,11.5,4.9,23.1-3.9,33.2,4.4,5.7,9.8,10.4,12.5,16.9,5,11.8,9.7,23.6,11.8,36.3,2.9,16.9,4,33.9,3.8,50.9,0,8.3-.8,16.6-.2,25,6.5-15.3,11.8-30.9,11.6-48,4.7,6.8,9.7,13.5,14.1,20.6,5.7,9,13.5,15.1,23.5,18.9,16.1,6.1,29.4,16.6,41.6,28.4.4.3.5.9.7,1.4-1.7,2.3-3.7.8-5.4,0-8.3-3.7-17-6.4-25.6-9.3-8.7-2.9-17.3-2.5-26-.4-.6.2-1.3.3-1.8,1.2,3.8,5.7,10.1,8.2,15.7,11.2.1,2-.9,2.7-2.1,2.7-6.2.2-12,2.3-18.2,2.4-8.6.2-14.1-3.9-17.1-11.8-5.2,9.9-12,17.8-21.5,23.1-2.2-1.7-1.9-3.4-1.7-5,1.6-10.6,0-20.7-3.5-31-1.6,4.6-1.9,9.3-3.7,13.6-5.6,13.5-14.2,25.4-22,37.6-2.4,3.7-4.4,7.6-6.7,11.7,8.4-.5,16.1-2.1,23.4-5.5,11.9-5.7,23.5-12.2,33.8-20.6,1.4-1.2,2.9-2.4,5.6-1.6.9,7.1-4.7,12.4-5.5,19.1,2.2.8,5.1.1,6.8,2.8-4.1,4.4-10.3,5.6-14.2,10.1-3.3,3.3-7.1,6.1-9.9,9.9-3.9,5.4-6.4,11.4-7.4,17.9-.6,3.6-1.1,7.3-1.8,9.7,2.4-6.1,7.2-12.2,11.6-18.6,4.6-6.8,10.5-12.5,16.5-17.9,1.9-1.7,3.8-4,7-2.6,1.3,2.2,0,3.9-1.1,5.5-6.3,8.5-6.5,17.9-4.6,27.9,2.5,13,8.7,24.3,15.8,34.9-.3-10.1,1.7-20,5.4-29.6,2.4-6.4,5.1-12.6,9.4-18,1.5-1.9,2.8-3.9,5.6-4,1.6,1.3,1,2.9.5,4.4-2.1,7.3-2.5,14.8-1.7,22.2.8,7,4.2,13.2,7.5,19.3,7,13,18.3,21.3,31.1,27.9,2.1,1.1,4.2,2.4,6.4,3.2.6.2,1.3.3,2.3,0,6-6.1,6.1-14.6,7.2-22.8,3.8,1.1,4.4,3.7,5.3,6,3.1,7.7,3.7,15.8,4.5,23.9,0,.8-.2,1.6.7,2.4,12.6-2.9,20.9-10.9,26.2-22.4,4.1-8.8,5.4-17.9,4.3-27.7-.9-8.3-2.1-16.4-4.6-24.3-1-3.1-2.1-6.1-3.7-8.8-1-1.7-2-3.5-1.1-5.7,2.5-1.2,4.2.2,5.9,1.5,6.9,5.1,13.4,10.6,18.9,17.4-5.1-13.8-14-24.5-25.2-33.5-3.2-2.6-6.3-5.3-10-7.3-2.6-1.4-4.2-4-6.2-6.1-2.3-3-6.1-4.9-6.9-9.2,13.7-2.4,25.6,2.2,36.7,9.7,19.7,13.2,32.4,31.6,40,53.8,2.8,8.1,3.4,16.3,3.7,24.8-5.3-11.5-10.7-22.8-19.9-32.7,11.1,33.2,10.4,64.5-11.3,93.4,10-4.1,19.7-8.4,26.7-17.4,2.8,2.8,5.4,5.4,7.1,8.5,8.7,15.9,14,32.8,13.5,51.1-.3,8.8-1.9,17.5-3.9,26-3.8,16.6-2.1,33.1,1,49.6,2.9,15.5,1.6,30.7-4.6,45.4-3.7,8.7-6.8,17.6-10.7,27.6-1.7-2.1-3.2-3.6-4.3-5.4-5.2-7.8-13.3-8.9-21.7-9.7-24.1-2.3-48.4-3.3-72.1-8.8-5.9-1.4-11.4-3.7-16.4-7.2-4.9-3.4-9.7-7-14.3-11,7.4.6,14.4,2.4,21.1,5.2,6.8,2.9,14.2,3.5,21.3,4.6,7.3,1.1,14.8,0,22.2,1.4-25.5-9.1-49.6-20.6-70.9-37.9,2.2-10.7,5.3-20.9,6.5-31.5,1.9.8,1.8,2.6,1.8,4.1-.5,13.5,6.4,22.6,17,29.7,2.4,1.6,4.9,3.1,6.4,4.4-1.3-1.2-3-3.2-4.2-6-3.1-7.6.6-14.8,1.2-16,4.8,6.1,9.4,10,12.8,12.4,2.6,1.9,4.1,2.4,7.7,5.3,3.6,2.9,7.1,6,10.7,8.8,8.4,6.6,17.3,12.5,27,17,4.1,1.9,8.4,3.3,13.1,3.1,3.2-.1,6.4.6,9.5,1.6.3.3.1-.6,0-.1-1.8-.7-1.9-2-1-3.5,2-1.6,4.4-.4,6.6-.8,4.8.9,7.2,1.3,7.2,1.2,0-.2-4.2-1.3-12.7-3.4-1.7-2.1-4.4-5.2-8.2-8.5-5.5-4.7-11.2-6.5-17.4-10.6-3.7-2.4-7.6-4.4-12-5.3-5.2-4.6-11.9-7.7-15.3-14.2,1.9-2,3.7-1.4,5.3-1.2,14.3,2.3,27.7,7.4,40.6,13.9,1.9,1,3.8,1.9,6,2.1,2.7.2,4.7,1.9,6.6,3.5,4.3,3.7,9.3,6.1,13.8,8.9,5-2.5,6.9-6.9,6-12.5-.3-1.6-1.3-3.3-.2-5-.1-17.3-4.8-32.8-18.1-44.8-7.3-6.6-15.6-11.5-25.4-13.5-.8-.2-1.5-.6-2.2-.8-1.9-3.8-.4-7.5.3-11.2,1.6-9.7-.6-18.9-6.6-26.3-5.3-6.6-12.2-11.8-20.6-14.5-6-2-12.2-3.7-17.9-6.6-1.3-.7-2.2-1.9-3.7-2.2-10.3-5-18.6-12.8-27.3-19.9-11.1-9-19.4-20.1-24.1-33.7-2.8-8.1-4.9-16.5-5.3-25.7-4.2,11.3-5.5,44,5.8,59.7-17.5-3.6-49.5-26-53.2-57.4-3,7.2-3.6,14.9-3.4,22.6.2,7.8,2,15.4,4.8,23.3-7-1.9-13.5-2.2-20.1-.9-1.3-1.6-.4-3.1.2-4.5,1.7-3.8,2.6-7.8,3.2-11.9,1.1-7.7-3.5-14-11.1-15.4-5.7-1-11.4-1-17,.5-1.4.4-2.8,1-4.3,0-1.1-2.2.4-3.8,1.5-5.4,4.3-6.1,8.7-12.1,14.2-18.3-14.2,7.1-29.2,10.9-41,21.1-.8.7-2.8,1-1.7,2.9"/>
    <path class="st13" d="M521.1,211.3c-.4.3-5-8.4-15.3-16.6-3-2.4-6-4.4-8.7-6,2.4,3.1,5.1,7,7.5,11.6,3.3,6.2,5.4,11.9,6.7,16.6-.6-1.4-2.2-4.5-5.6-7.1-3.3-2.4-6.6-3.1-8.1-3.3,3,2.6,7,6.7,10.6,12.5,3.4,5.5,5.2,10.6,6.3,14.4-3.3-3-6.8-6.6-10.3-11-2.1-2.5-3.9-5-5.5-7.4,0,3.3.3,10.1,4.2,17.2,5.7,10.5,15.2,14.6,18,15.7-6.1.8-11.9-.8-19-1.2,5.8,4.2,9.7,8.7,13.9,12.8,11,10.6,15.4,30.9,7.6,45.4-2.1,4-3.4,8.4-6.4,11.9-.8,1-1.6,2.1-2.9,2.9,4.2-17.7,4.5-34.5-8.7-49.1,6,23.6,0,44.6-13.5,64.3-4.1-6.4-8.9-9.7-11.6-11.4-13-7.8-27.1-4-29.7-3.3-2,.5-3.6,1.1-4.7,1.6.7,0,1.7,0,3,.3,9.4,1.7,14.6,9.5,24.2,24.1,2.8,4.4,3.9,8.9,5.4,14.6.4,1.5.9,3.1-.5,4.5,0-1.4-.3-3-.7-4.8-.5-2.2-1.2-4-1.9-5.4,1,2.5,1.1,3.2.9,3.3-.5.3-1.9-.7-3.6-1.9-1-.8-1.8-1.4-2.3-1.9-.7-.9-1.7-2.2-2.9-3.8-4.7-6-6.9-9.1-8.2-10.2-4.9-4-10.9-6.2-17.4-6.8-9.2-.9-18.4,2.9-24.7,10.7-3,3.6-4.6,6.6-6.7,10.8-4.1,8.4-3.4,11.2-6.5,17.1-1.2,2.3-4.7,8.9-11.8,13.6-12.4,8.3-26.6,5.4-29.6,3.7-3.2-1.9-7.1-2.4-10-5.3-3.6-3.5-4.4-7.7-4.5-8.6-.1-.8-1.2-6.6,2.2-12.1,2.7-4.4,5.7-4.3,10.5-9,3.5-3.4,5.5-7,6.7-9.4.9-2.6,2.3-7.5,1.2-13.3-1.8-9.4-8.6-14.9-11.4-16.8-8-5.5-15.8-6.6-26.8-7.6-5.8-.5-13.9-.8-23.8.6,1.1-.9,2.7-2.2,4.7-3.8,2.8-2.1,5.3-4,7.8-5.7,0,0,1.2-.8,2.4-1.6,5.8-3.7,11.9-7.6,16.9-9.5,3.5-1.4,9.9-3.1,19.2-1.6-.4,2.8-2.7,1.9-4.3,2.2-3.7.8-5,2.4-4.3,6.1,2.4,0,4.7-1.7,7.1-.4,4.1-1.1,11.3-2.4,20.1-1.1,9.8,1.5,16.8,5.6,20.5,8.1,2.5,1.5,5.7,3.9,8.7,7.4,1.9,2.2,3.4,4.4,4.4,6.3-.2-1.1-.7-2.7-1.5-4.5-2.4-5-6.3-8.1-6.2-8.3.1-.1,1.2,1,3.3,2.1.9.5,1,.4,1.6.8,1.3.7,2,2.1,3.1,3.1,4.7,3.9,5.9,4.4,15.7,5.9-2.4-1.5-4.1-2.7-5.7-4.1-1.5-1.4-3.5-2.6-3.4-5.2,1.8-2.2,4.3-1.9,6.6-1.6,5.8.9,11.3-1.2,17.1-1.3,1.6,0,3-1,4.2-2.1,6.3-5.2,12.3-10.8,17-17.4,6.9-9.6,10.9-20.3,8.2-32.3-3.1-13.9-19.9-21.6-32.7-15.6-11.5,5.4-21,13.7-31,21.1-7.1,5.2-13.7,11.1-21.6,15-4.7,2.3-9.4,3-13.9-.6,0-.7-.1-1.4-.2-2.2-.2-1.8-.2-3.8-.2-5.9.3-9.2,2.9-16.9,5.5-22.3-5.1,3.7-8,9.1-10.9,14.5-.7,1.5-1.5,3.5-2,5.8-.8,4-.5,7.5-.1,9.7-2.2-3.7-5.1-9.6-6.3-17.2-.6-3.8-.6-7.3-.5-10.1-2.6,2.2-3.5,6.2-7.2,7.5-.8,1.5-1.7,3.2-2.4,5.2-.8,2-1.3,3.8-1.6,5.4-1.4,2.1-3.3,1.8-5.3,1.1-2.1-.8-4-2-5.7-3.6-1.7-2.9-3.4-5.7-5-8.6-2.3-.2-1.4,1.4-1.2,2.3.5,2.8.7,5.5.3,8.3-.4,2.5-1.3,4.6-3.8,5.5-2.3.2-3.5-1.3-4.9-2.5-3.7-3.5-7.1-7.2-10.2-11.2-1.9-2.4-4-4.7-6.2-6.7-6.3-5.6-12.9-6.3-20.1-1.9-1.9,1.1-3.7,2.3-5.7,1.2-.3.7-.9,1.9-2.2,3-1.3,1.1-2.5,1.5-3.2,1.7.4-2.4,1.2-5.7,2.9-9.3,2.2-4.6,5-7.9,7.1-9.8,10.8-5.7,29.6-3.9,36.5,3.3-1.5-2-2.2-3.1-2-3.3.1-.1.6.2,1.5,1,2.8,4.2,3.5,4.9,3.6,4.8.7-.4-8.9-20-17.9-23.4-4.1-1.6-8.3-1.9-8.3-1.9-1.4.2-2.8,0-4.7,0,1.8-2.8,2.8-5.6,4.9-7.6,4.6-8.1,9.1-16.2,13.6-24.4.2-2.2.5-3.9.7-5.1.2-.9.4-1.7.6-3.1,0,0,.2-1.4.3-2.9.2-3.2-.5-8.2-.9-10.2-2.3-9.8-14.5-20.1-14.5-20.1-12.4-16.7-29.4-25.9-48.8-31.5-9.5-2.8-18.9-5.7-28.9-6-1.5,0-2.9-.2-4.6,0-1.5-.2-.5,2.7-2.4,2.2-7.2-4.2-13.3-9.6-18.3-16.7,4.3-.7,7.8,1.3,11.5,2.3,10.9,2.6,22.1,3,32.9,5.7,12.8,3.2,26,5.4,38,11.5,2.7,2.9,6.6,3.8,9.8,5.9,8.5,5.4,15.5,12.5,22.4,19.7,6.4,6.7,13.4,12.4,20.7,18,2.1,1.6,5.1,2.5,5.5,5.9-5.5,4.2-8.1,10.5-11.4,16.2,5.7-6.6,13.1-10.5,21.2-13,11.7-2,23.3-4.4,35.1-5.3,6.9-.6,13.8-1,20.7-1.6,1.3-.1,2.7,0,3.6,1.7-1.4,3.4-4.6,5.5-7,7.9,6.7-2.2,13.2-6.3,20.7-6.6,7.1-.4,13.9-4.2,21.8-2.3-1.9,5.5-6.8,6.6-9.8,9.9,12.8-6.7,26.8-10,40.6-13.4,2,.6,4,1.2,6.8,2-4,1.9-7.8,2.9-10,6.2,7.3,1.2,12.8-.1,16.6-3,3.1-2.4,4-5,6.6-11,6.4-15,9.7-22.6,14.3-26.8,6.3-5.9,13.7-7.5,16.5-7.9,8.3-1.3,14.8,1.1,19.1,2.7,18.8,7.2,27.1,24.7,29,28.7,1.4,2.9,2.3,5.5,2.9,7.3,1,4.2,2.1,8.3,3.1,12.5.4-5.3.3-13-2.1-21.8-1.4-5.1-3.3-9.3-5.1-12.6,13,5,20.9,12.2,25,16.6,2.8,3,7.1,6.3,8.6,12.3,3,11.5,3.2,21.3,2.7,24.9-1.5,10.9-1.1,28.5,7.1,57.1-4.6-6.3-12.9-14.7-25.7-25.5h0c-19.6-17.5-14.3-10.5-34.4-29.6-8.6-8.1-12.9-12.2-14.2-13.8-16.4-20.2-23-39.3-23-39.3-1.2-3.3-2.3-7-4.4-7.2-3.1-.3-6.1,6.9-11,18.2-2.9,6.6-7.3,16.5-12.9,28.8.7.9,1.6,1.8,2.7,2.7,3.5,2.9,7.2,3.9,9.5,4.3.3.7.7,1.8,1.4,3,3.2,6.2,7.5,9.8,8.7,10.8,8.9,7.9,15.6,23.7,15,24.1"/>
    <path class="st14" d="M683,421.6c19.7,12.5,37.7,26.5,43.3,50.9-7.5-8.9-16-16.5-25.8-22.9-.9,1.5,0,2.3.5,3.2,8.7,16.3,11.9,33.9,8.9,51.9-2.9,17.3-12.8,30.3-30.6,35.5-1,.3-2,.6-3.2,1,0-11.8-1.5-23.2-7.1-33.9.7,8.9-2.3,16.7-7.4,24-3.9.5-6.8-2.3-10-4-12.3-6.3-23.2-14.1-30.7-26.1-9.3-15.2-12.8-31.1-6.7-48.5-13.8,15.5-18.7,34.1-18.7,54.6-1.8-.7-2.3-2.4-3.2-3.7-9.2-13.4-16-27.7-16.8-44.2-.3-6.9,1.4-13.2,5.6-18.8,1.2-1.6,2.5-3.1,2.5-5.3.6-3.8,3.2-4.7,5.4-4.7-5.1,1-11.3,1.8-17,4.8-1.6.9-3.2,2.1-5.2,1.2.3-.9.9-1.6,1.7-2.1,4.1-2.6,8.1-5.2,12.3-7.9-2.3-.6-4.7-.8-7.7-.6,1.3-7.2,5.5-13.1,7-20.6-19.9,14.2-39.3,28.5-65,29.5,2.4-4.4,4.5-9.1,7.4-13.2,7.1-10.1,13.3-20.6,19.5-31.2,2.7-4.7,4.7-9.8,5.5-15.3.5-3,1.5-5.9,2.6-10,5.9,13.3,7.2,26,4.9,40.2,9.8-7.8,18.5-15,21.6-27,1.1.5,1.4,2.3,1.9,3.7,3.6,10.1,10.2,11.6,19.3,10.8,2.8-.2,5.5-1.1,8.2-1.5,2.7-.4,5.3-.5,8.1-.9-7.9-2.3-13.7-7.1-18.8-13.6,11.8-3.4,23-4.5,34.4-.1,8.5,3.2,17.1,5.9,25.4,9.6.9.4,1.7.9,2.6.4,4.4,3.1,7.8,7.2,11.6,12-22.6-1.7-44.1,1.3-64.6,10.9,30.7-.7,60.4,1.7,84.7,23.9-2.2-3.9-4.5-7.7-6.7-11.6"/>
    <path class="st94" d="M610.1,663.3c-2.5,15.8-6.5,39.5-23.4,55.5-10.6,10-22.5,12.4-36.2,8.8-1.9-.5-3.8-1.3-5.7-1.9-.2,0-.4-.3-1.3-1.1,18.2-.3,31.8-8.9,44.3-21.5-15.3,11.3-34.7,13.7-50,6-12.4-6.2-18.2-16.9-20.2-21.3-.7,1.9-1.4,5-1.1,8.5.3,2.8,1.3,5.8,5.4,11.8,2.6,3.7,6.4,8.5,11.8,13.6-7-3.5-13.3-6-18.8-7.8-4.1-1.4-9.7-3.2-17.3-4.5-7-1.2-13.1-1.6-17.8-1.6-5.1,3-12.4,6.9-21.7,10.5-13.6,5.3-27.2,8.3-27.8,6.7-.3-.8,3.2-1.9,6.6-6.2,3.4-4.3,4.4-8.9,4.7-10.5,2.2-11-4.2-20.1-5.3-21.7-.5-1.1-1.1-2.3-1.6-3.6-.5-1.3-1-2.5-1.4-3.7,1.1,0,3,0,5.1.7,3.9,1.5,5.7,4.8,6.1,5.8-.2-2.6-.9-4.5-1.7-6-4.4-7.9-17.2-11-31.9-8.1,2.1-2.5,5.8-6.2,11.2-9.1,8.9-4.8,17.4-4.9,26.3-5.1,4.3,0,10.4.2,17.6,1.5,2.2.2,7,.8,11.9,4,4.8,3.1,7.3,7,8.3,9-1.1-3.4-2.1-7.6-2.5-12.3-.9-10.4,1.4-20.4,5.6-30.3,2.1,8.4,4.4,16.7,9.2,24.4,1.8-3.6,3.5-7.3,6.6-9.9,3.3-2.8,6.6-3.9,11-2.4,9.6,3.4,16.6,9.9,22.7,17.8-1.3,7.1-3.3,14.1-1.5,21.3,1.7,7,2.7,14.1,6,21.4,3.4-10.9,11.2-17.9,19.2-24.6,16.2,8.3,37.2-9.3,37-20.6-5.4,3.8-10.7,7.4-17.7,6.8.5-.5,1.2-1.4,2.1-2.3,3.5-3.7,4.4-3.9,5.9-5.7,3.1-3.6,4.2-8.7,5-12.7.1-.5.4-2,1.2-3.7.6-1.2,1.3-2.3,2.2-3.4,3.3-4,5.5-8.5,6.8-13.5.3-1.4.6-2.9,2.2-3.5,3.6,3,4.6,12,2,18.7.7-1.7,1.3-2.7,2.9-2.7.2,12.2-.9,22.2-2,28.8"/>
    <path class="st60" d="M169.5,540.9c-1,0-1.8-.2-2.2-.3-.9-.2-1.7-.5-2.4-.7-9.6-13-16.8-27-22.1-42.8,7.4-17,17.9-32.5,29.8-47.5,17.9,1.1,35.6,4.1,53.4,7.3,2.9,14.7,10.1,28,12.5,42.7.8,2.9,0,5.5-1.6,7.9-7.7,11.8-18.3,20.3-30.5,27-8.3,4.6-16.9,7.9-26.7,7.2-1,0-3.7-1.2-6.6-1-.5,0-1.8.2-3.6,0"/>
    <path class="st26" d="M754.3,681c4.2,7.7,2.6,14.2-5.2,20-8.9-7.1-23.4-16.9-43.5-22.6-10.4-3-19.9-4.1-27.6-4.5,3.2,1.3,6.6,3,10.1,4.9,3,1.7,5.8,3.4,8.3,5.1,1.9,3.1,4.8,7.1,8.9,11.3,1.6,1.7,3.8,3.8,6.9,6.1,3.6,2.7,6.3,3.9,17.6,9.1,3.5,1.6,6.2,2.9,7.6,3.5-.9.6-2.3,1.5-4.2,2.2-8.3,3.3-16.5.8-23.7-1.8-21.3-7.6-31.9-11.4-42.9-21.5-4.4-4.1-10.5-10.6-16.1-20.1,0,2.8.5,10.1,5.4,17.1,3.3,4.7,7.3,7.3,9.7,8.7-14.3-5.2-23.2-11.8-28.2-16.2-3.2-2.8-4.7-4.7-5.9-6.4-4.6-6.9-5.7-15-5.5-23.7.2-4,.4-7.9,1.4-12.1,6.9,3.7,13.1,8.2,20.5,10.5,7.2,2.3,14.5,3.8,21.8,5.6-4.7-2.1-9.6-4.6-14.8-7.7-6.7-3.9-12.6-7.9-17.7-11.8,2.3.9,4,1,5.2,1,.6,0,1.5,0,2.8,0,1.3.2,2.2.5,2.4.6,3.4,1.1,23.6,2.5,28.8,3,13.6,1.1,17.2,0,24.3,1.1,1.6.2,3.2-.4,4.8-.5,5.7-.4,11.2,0,16.4,2.4,8.4,3.9,13.3,11.6,18.8,18.4,4.8,5.9,9.1,12.3,13.6,18.4"/>
    <path class="st50" d="M660.1,560.9c8.3,2.7,17,4.7,24.8,8.4,17.1,8.1,25.8,17.9,26,37.3,0,5.1-1.5,10.2-2.3,15.3-8.7-1.5-17.6-1.7-26.4-2.5-14.9-4.1-29.6-8.9-45.1-9.6-2.7-.1-5.6-.3-7.9-2.2-2.4-7.6-5.7-14.7-10.9-20.8-5.1-6.1-11.3-10.2-19.3-11.4-1.7-10.7,5.9-15.4,13.1-15.8,7.5-.5,15.2-1.1,22.7,0,7.1,1.1,14.1,2.6,21.1,3.8,2.7.6,5.3,1.1,8.7,1.9-1.8-1.7-3.2-2.9-4.5-4.1"/>
    <path class="st80" d="M229.7,592.7c-2.4-6.5-3.9-13.2-5.8-19.8-1.9-6.6-2.7-13.5-5.5-20.1,9.7-11.6,20.7-22.4,28.9-35.3,13.6.5,26.6,3.2,39.6,5.2,3,9.2,5.7,18.3,6.3,27.9.4,5.5-.3,10.3-3.4,14.7-5.3,7.3-10.6,14.6-17.8,20.3-5.7,4.4-12.3,5.6-19,6.5-7.5,1-15.1,1.5-23.2.7"/>
    <path class="st47" d="M330.8,533.5c4.3,3.4,9.7,7.1,16.2,10.5,11.2,5.8,21.6,8.3,29.2,9.5-1.1,5-2.3,11.4-2.9,18.9-.9,10.8-.3,19-.2,20.5.9,13.8,4.6,27,10.7,39.4-9.5,6.2-19.9,7-30.6,6.1-18.9-1.6-33.2-11.4-44.2-26.4-4.4-5.9-5.9-13-7.3-20.1-.4-1.9.7-3.3,1.7-4.7,8-10.6,13.8-22.4,19.5-34.3,2.9-6.1,5-12.5,7.8-19.5"/>
    <path class="st60" d="M200.1,416.7c.3.1.4.2.7.4.3.2.6.4.9.6-.3-.5-.6-1.1-.8-2-.2-.7-.3-1.2-.3-1.7,0-.2,0-.4,0-.6,0,0,0-.5-.1-1-.9-6.6-.4-13.2-.4-13.2.1-2,.4-4.5,1-7.5.5.2,1.2.6,1.8,1.3.9,1.2.4,2.7.4,4.4,0,2.5-1,4.9-1.1,7.4,0-2.2.5-4.3,1.2-6.1,2.7-6.9,10.3-8.5,9.8-10.6-.2-.9-1.9-1.9-8.8-2,.6-.5,1.6-1,2.7-1.4,0,0,1.3-.4,2.8-.6,12.8-1.1,21.7,4.2,21.7,4.2,4.4,2.7,7.3,5.5,8.9,8.1,6.1,9.4,10.5,19.6,12.8,31-8.4,7.7-16.8,15.4-25.2,23.2-18-4.4-35.8-8.2-54.3-7.4-5.9-9.3-9.7-18.8-9.6-29.7q1.7,1,2.1,3c1.4-3.9,3.1-6.9,4.4-8.9,2.3-3.5,3.4-4.1,4.3-4.2,1.6-.3,3.4.6,5.4,2.5,1.9,1.9,3.9,3.7,6,5.3,1.8,1.4,3.7,2.6,5.6,3.8,1.4.9,6.8,1.2,7.6,1.4.3,0,.6.2.6.2"/>
    <path class="st12" d="M248.2,505.5c-4.1-16.6-9.2-32.8-15.3-49.2,7.8-8,17.6-14.2,25.2-23.2,14.1,5.1,25.1,14.3,34.8,25.2,0,6.2,0,12.4-1.8,18.5-6.4,21.4-17.5,27-35.4,28.7-2.5.2-5,.7-7.5,0"/>
    <path class="st27" d="M211.2,555.3c1.8,3.3,1.8,7.1,2.8,10.6,2.2,7.3,4.3,14.5,6.5,21.8.6,1.9,1.5,3.7,1.1,6.2-10.5,6.5-22.4,10.2-34.4,14.2-14.1-5.8-27.1-13.4-37.9-24.7,2.7-9.9,5.2-19.6,10.5-28.4.8,0,1.6.2,2.2.8,6.8,6,15,5.4,23.1,4.6,3.7-.4,7.3-1.3,11.1-1.2,1.1,0,2.2,0,3.1-.6,3.6-2.5,7.6-3.5,11.9-3.3"/>
    <path class="st94" d="M132.2,615.8c16.2,13.3,36.1,14.1,54.5,19.5,15,4.5,30.8,4.1,46.2,6.5-8.3,7-25.9,9.3-57.4,4.8,7.5,12.2,23.8,21.8,45.8,26.7-13.1,9.5-26.6,16.1-42.9,9-7.2-3.1-14.6-5.8-21.2-10.2-11.4-7.8-18.1-19-22-31.9-2.3-7.6-4.4-15.3-3-24.4"/>
    <path class="st55" d="M100.2,469.2c0-4.3.2-8,.5-10.8,1.6-1.5,3.3-.7,4.7,0,3.3,1.7,6.6,3.3,9.7,4-1.7-1-1.7-1.2-1.5-2.7,0,0,.2,0,.3,0,.1,0,.2.1.4.2,2.6,1.1,5.3,2.3,9,3.9-4.9-8.7-4.6-17-3.3-25.4.4-1.3,1.4-2.1,2.5-2.2,7.9-.6,14.6-4,20.5-9.2,5.3,3.3,10.6,6.5,15.9,9.8,2.9,1.8,4.6,4.7,6.6,8.3-5.3,6.5-11.1,14.4-16.6,23.7-5.8,9.7-10.1,18.9-13.4,27-4.8-.8-9.7-1.5-14.8-2.1-5.6-.7-11.1-1.4-16.4-1.9-1.7-4.3-2.6-8-3.1-10.9-.9-5-1-8.8-1.1-11.6"/>
    <path class="st24" d="M495.5,172.2c.5,1.2,1.1,2.5,1.8,3.8.7,1.4,1.4,2.6,2.1,3.8-2-1.3-4.9-3.2-8.2-5.7-3.6-2.8-5.4-4.2-6.1-5.2-4.5-6,1.7-17.7,9.1-31.6,6.5-12.1,10.3-19,15-18.6,3.6.3,5.7,4.8,8.4,10,5.6,11,12.5,21.4,18.3,32.3,10.1,19.1,29.9,32.2,43,41.8,6.3,4.7,15.3,10.9,26.8,17.3.2.9.9,3.7,1.2,4.5.8,3.3,1.7,6.8,2.6,10.1-20.4-12.5-36.4-25-48.2-35.1,0,0-27.9-23.8-42-46.2-1.2-1.9-2-3.3-2.6-4.3-3.5-5.8-6.1-12.1-8.5-18.6-4.2,7-9,16.9-11.3,29.6-.8,4.4-1.2,8.4-1.4,12.2"/>
    <path class="st64" d="M99.8,522.2c0-7.8,2.8-15.1,4.4-22.9,10.9-.6,21.5,2,31.9,2.8,5.1,14.8,12.6,27.6,21.2,39.7-1.9,3.9-3.7,7.4-5.4,11-4.5-.5-8.5,1.6-12.8,2.1-7.2.8-13.6-.4-19.9-4.1-9.5-5.7-15.3-13.8-17.6-24.5-.3-1.5,0-2.9-.2-4.4.2-.4-.7-.3-.2,0,.2,0,.1.2,0,.4-.2.7-.5,1.3-1.3,1-.4-.1-.3-.7,0-1"/>
    <path class="st14" d="M471.7,605.7c-1.4,3.5-4.6,5.1-7.5,6.8-1.5.8-3.6,2.3-6.8,3.7-.9.4-5.2,2.3-9.7,3.2-3.9.8-12.5,2.7-21.3-1.5-9.9-4.7-13.6-14.2-14.4-16.7.5,0,4.5.5,7.5-2.6,2.9-2.9,2.6-6.6,2.6-7.2-1.3-.1-3.6-.6-6-2.1-4.2-2.8-5.4-7.2-5.7-8.3,3.1-1.1,8.3-3.5,13-8.6,2.4-2.6,4-5.2,5-7.3-2.3,15.8.4,30.9,6.7,45.7,4-10.1,9.9-18.7,16.1-27.5,5.5,1.2,11.1,2,16.9,2.6,1.2,6.7,2.5,13.3,3.7,19.9"/>
    <path class="st30" d="M370.7,270c.9.2,1.8.4,2.8.5,6.9,1.9,12-1.7,16.8-5.2,10.6-7.7,20.8-15.8,31.3-23.5,6.6-4.8,13.4-9.2,21.5-11.1,11.3-2.6,26,7.1,28.4,18.5,2.7,12.9-1.3,24.2-8.8,34.5-4.8,6.6-10.9,12-17,17.4-1.8,1.6-3.9,2.5-6.1,2.6-6.9.3-13.6,2.1-20.6.9-.4,0-.8,0-1.5.2,2.9,4.8,8,6.8,12.2,10.4-10.7-1.7-14.9-3.5-16.8-4.8-3.1-2.3-6.3-4-6.3-4-.6-.5-1.1-.8-1.4-1.1-.4-.4-1.1-.9-1.8-1.6-1.4-1.4-2.2-2.5-2.7-3-1.4-1.5-2.9-3.1-4.6-4.8,1.8-1,3.1-.4,4.5-.1,5.5,1.2,10.9,2.8,16.4,3.4,13.1,1.6,24.2-2.4,32.3-13.1,4.4-5.8,5-12.7,4.5-19.8,0-1.4,0-2.9,0-4.5,3.4,1.1,5.9,3.1,8,5.9,2.5-7.5-1.9-11.5-17.1-16,1.3-1,3.5-2.5,6.5-3.1,1.5-.3,5-1.1,8.5.8,1.3.7,2.3,1.6,2.8,2.2,0-.8.1-2-.3-3.3-1.1-3.4-4.2-4.9-5.6-5.6-4.5-2.2-9.1-1.7-11-1.4-14.1,2-25.4,9.7-36.1,18.5-6.4,5.3-12.8,10.9-20.4,14.7-4.5,2.2-9.3,2.1-14.1,2.1-3.7,0-4.4-3.2-4.4-6.4"/>
    <path class="st94" d="M393.8,693c-1.9,4.8-3.8,9.6-4.2,14.8-25.6-3.5-45.1-27.7-45.9-52.4,15.5,1.7,30.4-.5,44.5-6.3,5.5,4.2,10.9,8.3,16.6,12.6-1.6,1.7-3.3,3.8-4.8,6.6-4,7.4-4.1,14.6-3.9,18.3-.8,2.1-1.6,4.3-2.4,6.4"/>
    <path class="st63" d="M352.1,323.8c5.4,1.9,5.8,6.3,5.7,11.1-.2,5.9-2.7,10.7-6.5,15.1-.8.5-1.7,1-2.5,1.4-1,0-2.5-.2-3.8-1.2-2.3-1.9-1.5-4.8-2.9-7.4-2.3-4.5-10.8-7.4-15.5-4-3.2,2.4-3.7,7.2-3.3,10.2.1.9.4,2.5,1.4,4.2,1.8,2.8,4.1,3,4.7,5.6.2.9.3,1.8,0,2.9-.8,4.3-3.9,6.9-8.9,7.8-.5,0-1,.2-1.8.4-1.8-2.8-4.3-7.2-5.8-13.1-1.6-6.4-1.3-11.9-.9-15.3-1.1,3.4-2.3,8.2-2.5,14-.2,5.5.5,10.1,1.2,13.5-2.2-.5-6-1.6-9.4-4.6-1.8-1.6-5.8-5.1-5.1-8.7.6-3.2,4.2-3.4,4.8-7.1.4-2.6-1-4.9-1.6-5.7-.7-1.1-1.8-2.9-4-3.6-1.9-.6-4.4-.3-6,1.1-3.9,3.3-.5,10.7-3.2,12.4-.9.5-2.8.5-7.2-3-.8-.9-1.8-2.4-2.4-4.4-1.5-5.3,1.5-10,2.4-11.5,1.9-2.9,4.1-4.5,5.5-5.5,4-2.8,7.9-3.7,9.8-4,11.1-1.7,22.2-.6,33.4-.2,5.3.2,10.6.8,15.9-.2,2.8-.5,5.6.2,8.3,0"/>
    <path class="st25" d="M452.6,417.1c-7.7,17.7-10.8,18-16.6,31.2-8.4,19.2-11.1,35.5-11.1,35.5-1.4,8.4-3.9,16.6-10.7,22.6-2.4,2.1-5.1,3-8.3,3.3-11.9,1-23.2-1.2-34.6-4.1-12.1-3.1-24.4-3.8-36.9-2.6-4.8.4-9.4-.8-13.5-3.8-1.7-1.2-3.5-3.6-6.3-1.7-.5-1.4-1.1-2.9-1.8-4.9,8.9,3.4,17.1.5,25.4-.5,10.2-1.1,20.2,1.1,30,3.5,7.7,1.9,15.3,4.3,23,6.3,8.1,2.1,18.2-2.9,21.8-11.5,2.4-5.9,4.7-11.9,6.1-18.1,1-4.7,1.6-5.4,2-6.9,3.7-11.7,9.4-15.4,20.3-32.3,5.3-8.2,8.7-14.6,9.5-16.1,5.4-10.4,8.3-18.4,8.5-18.4.2,0-2.6,8.5-6.9,18.4"/>
    <path class="st14" d="M529.2,546.6c1.6-1,13.4-8.3,26.2-3.7,14.5,5.2,21.6,22.4,18.6,34.5-.6,2.4-1.6,4.4-2.4,5.8-2.9.9-3.5-.8-3.6-3.1-1.8,4-2.1,4.4-5.2,5.8-2.8-4-.4-9.2-2.9-13.2-1.9,4.9-4.4,9.8-8.1,13.8-1.7,1.8-3.3,4-6.4,3,0-3.1,0-6.1,0-9.2-.5-11.3-9.8-18.3-20.8-15.7-3.2.8-6.5,1.3-9.4,3.5-.8-3.2,0-5.7,1.2-8.2,1-2,2.8-3,4.7-4,7.3-3.6,21-11.4,20.8-12.3-.1-.3-2.5,0-12.6,2.9"/>
    <path class="st26" d="M481.3,497.8c-.8,0-1.6-.1-2.4-.2,2.5-8.5,37.5-22.6,49.3-26.2-7.6,8.3-13.9,16.5-20,25.9,6.4-2.1,12.1-2.8,18.2-2.2,12.5,1.3,17.9,8.3,15.4,20.6-.9,4.6-2.7,8.9-4.6,13.1-2.7.7-5.3,1.4-7.6,2-10.7-19.2-24.4-33.5-48.3-33"/>
    <path class="st14" d="M613.2,636c-.2-.5-.4-1-.7-1.8-2.2,2.7-2.9,5.3-5.1,7.2.3-4.1,2.4-7.5,1.9-11.2-.5-3.5-1-7.1-1.8-10.7-1.6,6.3-3.9,12.2-8,17.2-1.5,1.9-3.7,3.4-4.6,5.8-.2-3.6.1-7.1-.5-10.7-2.5-13.6-16.9-17.6-26-14.5-1.7.6-3.5,1-5.3,1.6-1.1-4.9,1.1-8.4,3.8-11.8,8.5-2.8,15.4-8.3,22.3-13.7,3.7-2.9,8-4.8,13-2.8,9.6,4.8,12.6,13.5,13.7,23.2.8,7.5-.3,14.9-2.6,22.1"/>
    <path class="st81" d="M225.5,123.5c13.6,8,25.1,18.1,31.6,32.7,2.6,5.9,3.4,12.6,6.8,18.2,4.9,8.1,8.5,16.5,10.4,26.6,0,.2-.4,1.3-1,2.9-5-4.9-8.1-10.6-11.4-16.3,2.5,10.7,3.8,21.8,10.3,31-2,4.2-4.1,8.3-6.1,12.6-1,.3-1.4-.7-2-1.4-5.2-11.3-12-22.2-9.1-35.6.6-2.9-1-5.5-1.3-8.2-1.1-9.9-5.9-17.9-11.4-26-7.3-10.9-15.6-21.3-20.9-33.5h0c-.2-.6-.4-1.2-.6-1.8-.4-1.4-.8-2.7-1.2-4,1.9.9,3.9,1.8,5.8,2.7"/>
    <path class="st10" d="M99.8,522.2c1.5,0,.5-1.4,1.6-2.2,2.9,11.3,6.1,22,17,28.7,11.1,6.9,21.8,5.5,33.2,1.2.6.6-1.1,2.1.3,2.9-3.4,9-6.8,18-9,27.9-7.4-1.7-14.8-3.1-21.1-7.3-7.5-5.1-13.8-11.6-18.7-19.4-2.2-3.5-3.2-7.3-3.6-11.3-.7-6.8-1.2-13.7.3-20.5"/>
    <path class="st104" d="M366.9,439.2c0,2.9.5,7.7,3.1,12.7,1.1,2.2,2.4,4.1,3.6,5.5,2.3-.1,3.8-1.3,5.2-2.8,5.1-5.8,10.2-11.6,15.5-17.2,3.3-3.5,7.2-6.1,12-8-.4,2-1.9,3.3-1.7,5.5,5.9-5.9,10.5-13.3,19.7-14.3,1.9,5.6-.7,9.1-3.8,12.3-4.9,5-9.5,10.1-12,16.8-.5,1.4-1.2,2.7-1,4.5-4.8-3-5.8-9.1-10.6-11-1.8.4-2.5,1.2-2.7,2.6-1.9,12.1-12.5,19.9-24.7,18.3-5.8-.8-11.7-1-17.5-1-4.2,0-6.2-1.5-8-2.9-7.5-5.8-4.4-20.4-4-22.4.2,2.1,1.6,3.9,3.6,4.6,1.9.7,4.1.2,5.5-1.3-.7,2.5-1.4,5.1-2.1,7.8-.3,1.2-.6,2.4-.9,3.7,3.3-4.5,6.7-9.1,10-13.6,1.1.2,2.3.4,3.6.5,2.7.2,5.1,0,7.1-.2"/>
    <path class="st7" d="M210.3,101.8c-1-.6-2-1.2-3-1.9,2-.3,5.1-.6,8.7-.7,17.4-.5,30.6,5,45.8,11.6,10.9,4.7,16.5,7.2,23,12.6,3.6,3,7.1,7.5,14.3,16.4,3.7,4.6,6.4,8.2,8.8,13.1,2.9,6,3.4,9.8,3.6,11.5.4,3.9,0,7.1-.5,9.2,0,.8-.3,1.9-1,3.1-.4.7-.8,1.3-1.2,1.7-.3-3.8-1.2-9.2-3.4-15.2-.6-1.6-3.5-9.2-10.9-18.1-7-8.5-14-13.2-20.1-17.4-10.8-7.5-22.7-13.2-35.6-17.2-3.8-1.2-12.7-2.3-24.2-6.9-1.8-.7-3.3-1.4-4.3-1.9"/>
    <path class="st9" d="M336.9,472.6c2.8.4,5.6,0,8.3-.4,8-.9,16.5-.3,26.6,1.6,2.1.4,5.3,1.1,9.1,2.2,2.6-2.1,5.5-4.7,8.5-8.1,3.4-4,5.9-7.8,7.7-11,3.4,1.6,2,5.1,2.5,7.6,1.1,5.2.8,10.6-.3,15.9-.5,2.5-1.4,4.9-3.1,6.8-.8.8-1.5,1.6-1.4,2.7-3.9,1-7.1-1.1-10.4-2.3-18-6.3-36.5-7.9-55.4-5.9-1.5.2-3,.7-4.5,1.1-1.7-2.7-6.9-11.7-5.9-22.8.2-2.8.8-9.3,5.4-15.3.6-.8,1.2-1.5,1.7-2-.1.1-.9.8-.9,1.8,0,.5.1.9.2,1.1-.2,2.5-.8,10.6,2.7,17.8.9,2,2.5,5,5.8,7.4,1.3,1,2.5,1.5,3.4,1.9"/>
    <path class="st82" d="M468.5,147.6c-1.4,2.4-4,3.2-6.4,3.6-15.4,2.2-22.9,4-33.1,11.2-1.5,1-3.7,2.8-6.1,5.6,1.2-2.9,3.3-6.9,7-10.9,2.4-2.5,4.7-4.4,6.7-5.7-5.9.2-14.1,1.1-23.4,4.2-9.4,3.1-16.5,7.3-21.4,10.7,0-1.4.4-4.5,2.7-7.7,2.5-3.6,6-5,7.2-5.4-13.6.8-27.4,1.7-41.3,2.7-5.9.4-11.7.9-17.6,1.3,11.5-4.5,23.7-6.6,35.7-8.9,11.7-2.2,23.3-1.7,34.8.6,3.1.6,6.1-.3,9.1-.9,13-2.4,26-3.8,39.3-2.3,2.4.3,4.7.8,6.9,1.8"/>
    <path class="st12" d="M286.4,440.9c-8.1-6.4-16.6-12-26.4-15.9-2.3-6.6-2.9-13.9-6.7-20.1-3.7-6-8-11.5-13.3-16.3,7.5,1.6,19.9,8.3,29.3,16.2,5.5,4.6,11.1,9.1,14.9,15.2-.7,1.5.6,2.1,1.3,3,3.3,4.1,4.9,9,6.8,13.8.5,1.1.6,2.3,0,3.4-1.8,2.2-3.9,1-5.9.7"/>
    <path class="st14" d="M491.5,513.8c10.4,3.1,16,11.1,21,19.9,1.2,2.2,2.3,4.5,3.5,6.8-2,2.4-4.1,5-6.1,7.5-2.4.5-3.2-1.4-4.3-2.8-1.4-1.7-2-4-3.6-5.9-1.4,1.2-2.3,2.7-2.8,4.2-2.1,5.5-7.1,7.6-11.6,10.2-.8.5-1.7.7-2.6,0,1.2-4.8,1.9-9.6,1.2-14.5-1.2-8.5-5.3-14.7-13.2-18.3-.8-1-2.4.2-3.2-1.4,2.2-3.3,5.9-3.1,9.1-3.3,4.4-.2,8.5-1.4,12.7-2.5"/>
    <path class="st61" d="M271.6,249.1c.6-1,1.6-2.5,3.1-4.1,4-3.8,8.7-4.9,11.7-5.5,2.7-.6,5.4-1.2,8.5-.6,6,1.2,10.4,5.9,14.5,10.9,4.3,5.3,8.8,10.2,14.1,15,1-1.7,2.5-4.6,3.1-8.4.7-3.8.3-6.9,0-8.9.3,0,.7.2,1.2.6.5.4.8.9.9,1.2,0,.3.1.9.3,1.6.1.5.3,1.4.5,2.4,1.6,7.9,2.8,13.3.6,17.9-.7,1.5-2.3,4-6.3,6.2-6-5.1-11.4-10.8-16.7-16.8-3.6-4.1-7.4-8-11.4-11.7-1.9-1.7-3.5-2.7-5.5-2.7-5.2-.1-8.9,6.9-9.5,8,.5-.4,3-2.4,6.6-2,3,.3,4.9,2,5.5,2.6-2.7.7-5.7.4-8,2.4-2.2,2-4,4.1-3.5,7.4.9-1.7,2.6-2.7,4.1-2.3.8.2,1.4.7,1.7,1.1-.6.9-1.1,1.9-1.6,2.9-3,7.3.1,14.8,1.4,17.4-2.6.4-5.1.8-7.7,1.2-2.2-4.3-4.7-10.3-6.3-17.7-1.5-7.1-1.8-13.4-1.6-18"/>
    <path class="st30" d="M207.8,316.7c5.3,3.3,15,10.3,22.7,22.7,7.5,12.2,9.5,23.7,10.1,29.9-3.3.3-5-1.9-7.2-3.8.4-5.9-.4-11.8-2.2-18.3-2.7,13.1-13.5,16.1-23.9,21.5,2.2-6.6,1.4-12.2.6-17.8.7-1.3-.3-2.6,0-4.1.4-1.8,2.1-2.7,3.7-3.7,2.9-1.9,4-4.5,2.9-7.9-1.7-5.1-4.2-9.7-8.3-13.4-1.3-1.1-2.8-2.1-2.6-4.2.2-.2.5-.3.7-.4,1.3-.6,2.6-.5,3.3-.4"/>
    <path class="st84" d="M215.2,331.8c1.4,4.7,2.1,6.1,1.4,8-.7,2-2.5,3.6-5.6,5.3-2.6,1.4-1.6,4-2.9,5.7-1.9-6.7-5.6-11.9-11.7-15.4-6.1-3.6-14-2.4-19,2.7-1,1-1.9,2.1-3.3,3.5-.3-2-.6-4.3-.7-6.9,0-2.7,0-5.1.3-7.2.6-1.9,2.3-6.9,7.2-10.4,5-3.6,10.2-3.4,13.9-3.3,3.4,0,13.6.4,17.6,6.9,1.5,2.3.2,2.3,2.8,11"/>
    <path class="st101" d="M485,553.7c2.6-1.6,5.1-3.4,7.8-4.7,4.2-2,4.6-6.6,7.1-9.7.8-1,1.2-2.2,2-3.7,3.2,4.1,4.1,9.3,8.1,12.4-3.1,5.1-6.2,10.3-5.6,16.7.2,1.8-.8,3.4-1.9,4.7-5.3,6-6.7,13.3-7.7,20.9-.3,2.1-1,4.1-1.6,6.3-5.7-5.6-6.4-13.8-1.9-20.8,4.3-6.7,7.6-13.7,8.8-21.7.2-1.1.6-2.2,0-3.4-9.5,17.7-27.4,27.8-36.6,20.2,7.9-5,16.3-9.3,21.6-17.2"/>
    <path class="st37" d="M169.5,540.9c.5,0,1-.1,1.5-.2.5,0,1.5-.2,2.6-.3,1,0,1.7-.1,2-.2,5.4-.3,12.3-.1,17.3-1.5,3.4-.9,6.7-2.2,9.9-4,13.5-7.2,25.3-16,33.5-29.2,1.1-1.8,2.2-3.7,2.2-5.9,1,3.3,2,6.5,3,9.8.6,1.9-.6,3.3-1.5,4.7-7.8,11.8-16.7,22.7-27.2,33-8.3.2-17.1-1.3-25.8-2.7-5.8-.9-11.8-1.3-17.4-3.6"/>
    <path class="st53" d="M279.9,357.6c5.3,2.6,9.5,6.7,14,10.5,6.3,5.3,12.6,10.7,20.7,12.7.5,1.8-.2,3-1.2,3.8-5.5,4.2-10.7,8.9-17.5,10.9-5.2,1.5-8.6-1.5-11.8-4.8-2.3-5.8-3.1-12-5.5-17.7-1.5-3.7-1.9-7.5-1.6-11.4.1-2,.6-3.7,3-4"/>
    <path class="st96" d="M248.2,505.5c1.3-1.8,3.3-1.4,5.1-1.5,8.4-.5,16.8-1.6,23.7-6.9,6.1-4.7,9.6-11.2,11.8-18.5,1.7-5.6,3.1-11.3,2.5-17.2-.1-1.4,0-2.7,1.6-3.1,1.2,1,1.8,2.3,1.8,3.8.3,17.5-2.1,34.7-7.2,51.5-.1.5-.4.9-.7,1.6-12.3-2.7-24.7-3.6-37.3-6.1-.9-.8-1-2.3-1.4-3.7"/>
    <path class="st83" d="M655.9,563.2c-9.3-.9-18.5-2.2-27.8-2.4-6.9-.2-14.1-1.4-20.8,1.6-2,.9-4.4,1.8-5.9,4.2-2.2,3.6-.9,7.9-.5,9-.3,0-.6-.1-.9-.2-.4,0-.7-.1-1.1-.2-3.5-.9-7.1-.5-10.8-.9-.9-5.7-1.7-11.4-2.8-17-.7-3.8,4.1-7.5,8.9-7.8,11.9-.8,23.3,2.4,34.4,5.9,9,2.8,18.3,4.6,27.2,7.7"/>
    <path class="st86" d="M547.8,678.8c-.3.7-.7,1.4-1.3,2.7-1.1-7.3-.2-13.8,1.5-20.2,2.4-8.9,6.1-17.2,11.4-24.7,4.4-6.2,7.8-9.8,12.6-9.8,6.2,0,12.8,6.7,12.8,14.1,0,4.7-2.6,8.2-3.6,9.4,0-.6,0-1.4,0-2.5.2-1.6.5-2.8.6-3.1.6-2.4,1.7-4.8.4-7.7-2.5,2.1-4.3,4.7-6.5,6.8-8.6,8.5-18.1,16-25.3,25.9-2,2.8-1.8,6-2.7,9"/>
    <path class="st45" d="M356.4,327.1c-14-1.2-24.2-2.1-29.4-2.5-18.3-1.6-23.1-2.1-29.5,0-10,3.2-16.7,10.4-21.1,16.6.6-3.7,2.3-10.6,7.7-16.4,7.3-7.8,17-9,26.2-10.1,7.8-1,13.7,0,25.4,1.9,9.9,1.6,15.7,3.6,19.3,8.4.6.8,1.1,1.6,1.3,2.1"/>
    <path class="st90" d="M504.4,624.2c-.5,2.7-3.3,4.4-3.5,7.2-1.6-14.9,2-28.9,7.3-42.5,2.1-5.4,5.4-10,10.6-13.1,5.4-3.2,12.2-1.9,15.4,2.7.4,3.4-1.4,5.9-3.6,8.1-4.6,4.8-9.3,9.4-14.1,14-6.3,6.1-9.7,13.8-12.3,22-.2.5-.2,1,.2,1.5"/>
    <path class="st81" d="M158.1,331.2c1.7.7,2.8,2,4.2,3.7,0,1.9,0,4.1,0,6.4,0,5.5,1.1,10.7,3.2,15.9,3.2,8,4.5,16.6,6.3,25.1.2.8,0,1.6-.7,2.3-.2,0-.5.1-.8.2-1.1.3-1.3.5-1.4.5-1.2,0-1.4-10.3-5.7-17.2-.6-1-4.3-6.5-10.9-8.1-9.4-2.2-17.1,5.4-17.7,6-.3-.4-.9-1-1.1-2-.1-.5,0-1.3.4-2.7.7-2.4,2.6-4,4.7-5.2,2.7-1.7,5.5-3.2,8.6-4.5-.3-4.9,1.3-9.3,2.7-13.7,1.2-4.1,3.7-6.7,8.3-6.6"/>
    <path class="st98" d="M545.4,589.6c8.4-4.4,11-12.9,14.6-20.8,2.8,5.1,3,10.5,2.9,16.5,1.1-.7,2.9-2,4.5-4.4,1.6-2.4,2-4.7,2.2-6,.4,1.6.3,2.9.2,3.8-.3,1.5-.9,2.9-.3,3.5,0,0,.2.2.5.2.5,0,1-.9,1.3-2.3.3.6.2,1.1.2,1.5-.1.7-.5,1.1-.3,1.5.1.2.3.2.4.3-.8,1.9-1.9,3.5-3.4,4.9-4.9,4.6-8.9,9.8-11.9,15.7-1.1,2.1-1.4,3.8-3.1,7.4-.5,1.1-1.1,2.1-1.9,4-.9,1.9-1.6,3.5-2,4.5-2.1-2.5-2.5-4.6-2.5-5.9,0-1.3.4-2.2,2.7-6.9,2.1-4.3,3.2-6.2,3-6.3-.3-.2-2.3,3.6-6.1,6.4-3.3,2.5-7,3.3-9.9,3.6,5.1-6.3,9.2-12.8,8.9-21.2"/>
    <path class="st40" d="M219.8,120.9c10,16.3,18.3,29.7,25.8,40.9,2.2,3.4,7.9,17.6,11.1,29.9.3,1,.2,2.2,0,3.2-.6,2.2,0,10.4,2.7,20.9,1.1,4.5,3,10.3,6,16.7-4.2-5-9.9-12.9-14.2-23.6-6-14.9-2.7-19-8.6-35-4.9-13.2-8.6-14.4-15.6-31.3-3.7-9-5.9-16.6-7.2-21.6"/>
    <path class="st18" d="M618.3,586.7c10,16.3,19.8,21.5,27.2,23,5.2,1.1,10.2.5,19.5,2.9,7.5,1.9,13.4,4.7,17.3,6.7-8.7-.4-19.2-.2-30.9,1.6-8.8,1.3-16.6,3.3-23.3,5.4.2-3.3.2-7-.2-11-1.3-12.5-5.8-22.3-9.6-28.6"/>
    <path class="st100" d="M181.6,346.8c.4-.4,3.1-2.8,7.1-2.4,3.1.3,5,2.1,5.5,2.7,1.2,2.6,1.3,5.5.8,8.2-2.1,11.9-3.1,23.9-3.5,35.9,0,1.5.1,2.8.5,4.3.3,1.1,1.2,2.8-.8,3.5-2.5-3.3-5.2-7.4-7.7-12.3-4.2-8.4-6.3-16.2-7.3-22.1,1,2,2.5,5.2,4,8.3.2.5.4,1.3,1,2.3.9,1.5,1.1,3.3,1.5,5-1.6-2.7-4.6-8.5-4.8-16.6-.3-7.9,2.3-13.9,3.7-16.7"/>
    <path class="st82" d="M721.9,644.2c-26.5-2.1-43.7-2.5-54.5-1.6-3.8.3-13.9,1.5-24.9-3.2-2.4-1-4.3-2.1-5.4-2.8,1,0,2.6-.2,4.6-.3,18.4-1.3,31.4-2.4,46.6-1.5,10.6.6,21,2.5,30.7,7.4,1,.5,1.9,1.4,2.9,2.1"/>
    <path class="st103" d="M403.5,734.1c-.7,1.6-1.3,3.1-2,4.6-1.6-.5-1.3-1.7-1.5-2.7-2.1-14.8.5-28.8,8.1-41.6,2.5-4.3,6-8.3,11.7-7.3,6.3,1.1,9,5.9,10.8,11.5.5,1-.1,1.1-.9,1-1.1-.2-1.4-1.6-2.6-1.7q-5.8,4.4-6.8,2.1c-2.5,5.9-7,10.7-10.4,16.2-3.5,5.5-5.7,11.4-6.5,17.9"/>
    <path class="st34" d="M438.6,574.1c-.9-8.6,5.5-20.7,5.5-20.7,0,0,5.1-9.5,12-16,.9-.9,2.4-2.2,4.7-3.3,2.2-1,4.6-1.6,7.1-1.6,2.6,0,4.9.8,6.8,3.5.3.5.6,1.4.6,2.6,0,.7,0,1.2-.2,1.7-1,1.7-2.7,4.1-5.4,6.2-2.1,1.7-3.6,2.6-5.4,3.4-4.4,1.9-7.4,5.6-10.5,9.1-3.4,3.9-6.8,7.8-10.8,10.9-1.1,2.3-.5,5.4-3.3,6.6-.2-.1-.5-.3-.7-.6,0,0-.5-.6-.6-1.6"/>
    <path class="st39" d="M107.7,443.4c-7.7-10.9-14.3-22.3-12.7-36.5.7-6.3,4.1-11,9.7-12.7,2.3.7,4.7,1.2,5.6,4,1,3.3.5,6.5-.6,9.7-1.3,3.9-1,7.9-.9,11.9.1,6.7-.4,13.3.3,20,.1,1.4,0,2.7-1.4,3.5"/>
    <path class="st66" d="M211.2,555.3c-1.4,1.4-3.3.5-5.5,1.3-3.6,4.9-9.6,3.9-15.2,4.7-7.5,1.1-14.9,1.9-22.5,0-3.8-1-6.3-3.1-8.3-6.2,1.1-2.4,2.2-4.8,3.5-7.7,16,3.1,31.8,6.9,47.9,8"/>
    <path class="st95" d="M330.7,414.4c-.7-.8-1.4-1.7-2.1-2.5-2.9-3.4-5.5-6.8-7.9-10.2-.5,1.6-1,3.5-1.2,5.8-.1,2,0,4-.1,6.1-5.5-1.3-6.8-5.7-8.3-9.9-4.1,2.6-5.1,7.8,3.3,27.6-8.9-5.7-17.7-11.1-20.3-22.4,7.6-1.4,14.4-5.7,20.9-10.6,2.8-2.1,5.8-3.1,9.3-2.4.5.8,1.1,1.4,2,1.9,3,1.5,4.6,2.5,5.2,3.9.7,1.6-.2,2.6-.7,6.3-.4,2.7-.2,5,0,6.4"/>
    <path class="st59" d="M455.5,679.5c-.3.1-.8.3-1.4.4-1.1,0-2-.3-2.4-.6-2.4-1.2-4.2-3-5.9-3.9-1.1-.6-2.8-1.3-5.3-1.3,1.2,1.2,3.5,3.7,4.7,7.6,1.5,4.6.8,8.6.4,10.3-.2-1.4-1-4.6-3.6-7.6-3-3.4-6.6-4.5-8-4.8.6.5,1.9,1.8,2.4,4,.3,1.3.2,2.4,0,3.1-1.6-2.1-4.6-5.4-9.5-7.7-1.6-.8-4.8-2.3-9.3-2.4-3.9-.1-7,.9-8.8,1.6.1-1.2.5-3.1,1.4-5.1,0,0,1.6-3.2,4.8-5.9,2.9-2.4,20.3-13.1,27.3-6.9,2.6,2.3,1.2,4.7,4.4,10.2,2.7,4.6,6.2,7.5,8.7,9.1"/>
    <path class="st100" d="M140.7,374.7c1.4-2,3.7-5.5,7.5-5.7,2.8-.2,5.6,1.6,8.5,5.2.2,2-2.1.5-2.5,1.8-2.7,11.9-4.6,23.9-1.9,36.1.4,1.8.5,3.7.6,5.5,0,1.3.2,2.8-1.6,3.1-3.3-3.7-6.1-7.7-8.4-12.1-.5-4.8-3-9-3.4-13.9-.4-5.3-1.3-10.5,1.1-15.4-.4.9-.8,1.9-1.3,3.1-.8,2.1-1.2,3.2-1.5,4.5-1.1,4-1,6.8-1.1,6.8-.1,0-1.7-10.7,3.9-19.1"/>
    <path class="st57" d="M546.4,681.5c.2-1.7.6-4.2,1.7-7,1.9-5.2,4.8-8.5,9.2-13.2,10-10.7,13.7-13.4,19.9-20.9,2.3-2.8,4.1-5.2,5.3-6.8.7,1,1.8,3,2.1,5.7.1.8.3,2.9-.4,5.5-.1.4-.6,1.8-1.5,3.4-.5.8-.9,1.4-1.3,1.8-.4.6-1.1,1.6-2,2.7-6.9,8.8-13.8,11.4-21.5,17.4-3,2.4-7.2,6-11.5,11.4"/>
    <path class="st17" d="M404.5,285.6c1.3-2.8,3.6-4.5,5.5-7.1,2.2,4.5,5.1,8,9.8,9.1,3.7.9,7.4.3,10.8-1.6,6.7-3.7,7.8-13.4,2.8-23.8,9.2-1.2,12.6.8,12.8,8.2.1,6.2-1.7,11.8-6.7,16-9.6,8.2-22.8,8.5-33,.7-.6-.5-1.2-1-2-1.5"/>
    <path class="st24" d="M348.9,249.8c2.1-4.4,5.5-7.9,9.2-11.2-2.4,6.8-.3,12.9,1.9,19.4.8,2.2,1.6,4.7,2.2,7.6.9,4.6,1.1,8.6,1,11.8-6.1,1.5-11.6-1.4-13.4-7.2-2.1-6.7-1.9-13.6-.8-20.5"/>
    <path class="st85" d="M191.8,613.6c9.1-1.2,17.3-5.1,25.5-8.9,6.1-2.8,11.9-5.2,18.9-3.9,6.2,1.1,12.6-.4,18.9-1.5-19.4,12.6-40.5,17.1-63.3,14.3"/>
    <path class="st80" d="M301.3,495.8c1.7,7.2,4.1,13,6.8,18.6,1.4,2.8.8,5.6.1,8.5-2,8.4-4.2,16.7-7.6,25.2-1.9-3.7-1.5-7.3-1.9-10.6-.5-3.8-1-7.7-2.5-11.2-1.6-3.8-1.1-7.3,0-11.1,1.7-6.1,3.3-12.2,5.2-19.3"/>
    <path class="st65" d="M403.5,734.1c-.5-.1-1.1-.3-1.7-.4,2.7-15.2,12.1-26.4,21.7-37.5,0,2-1.9,2.7-2.8,5.1,2.7-2.4,4.8-4.3,6.8-6,1.8.6,1.4,3,3.2,3.3,2.8,6.8,1.6,10.6-4.7,13.8-9.7,5-17.3,12.1-22.5,21.7"/>
    <path class="st29" d="M151.3,420.7c-4.2-5.6-3.2-18.9-3.2-18.9.1-1.4.5-6.4,2.6-16.3,1.2-5.9,2.5-10.7,3.4-14.1.7.6,1.6,1.5,2.6,2.8,1.2,1.7,5.9,7.2,2.1,22.8-1.4,5.8-3,11.6-2.9,17.6,0,3.6.1,7.1,1.8,11.1-1.3-.5-3.1-1.5-4.9-3.2,0,0-.8-.8-1.5-1.8"/>
    <path class="st56" d="M431.5,386.8c0,.6.2.8.1,1.3,0,.4-.2.8-.2,1.5,0,.1,0,.3,0,.3.1,2.7-.8,5.3-.8,5.3-.5,1.3-.9,1.6-.9,2.7,0,.6.1,1.1.2,1.4-2.9-1.8-2.9-4.8-3.2-7.6-.2-2.2,0-4.5-1.6-6.4-1.5.1-2.1,1.2-2.7,2.2-1.7,2.7-3.5,5.3-5.4,7.8-2.8,3.6-5.9,6.9-5.1,12,.2,1-.3,2.1-1.4,2.6-1.3-1.7-3.1-4.5-3.1-8.1,0-3.6,1.8-5.5,6.6-12,6.1-8.2,8.9-12.7,15.3-18.4,2.1-1.9,4.6-2.7,7.1-3.5,2.8-.8,5.3,1.4,6.3,5.3.9,3.8,1,7.6.1,11.5-1.3,6.3-3.4,12.2-6.6,17.8-2.1-1.3-1.2-3.4-1.1-5.1.1-3,.9-6,1.8-9,.8-2.5.7-5-.4-7.4-.6-1.3-1.6-3.5-3.1-3.6-.2,0-1.1,0-2.1,1.3-.5,1.2-.8,2.8,0,3.8,0,0,.1.1.2.2.2.2.4.3.4.3.4.3-.6,2-.5,3.7"/>
    <path class="st42" d="M123.1,583.8c6.8,1.3,13.1,4.3,19.8,4.4,10.1,10,22.1,16.9,34,24.1-21.6-2.7-38.8-13.4-53.8-28.5"/>
    <path class="st53" d="M306.6,308.3c7.2-6.1,13.4-10.2,17.8-12.8,2.8-1.7,6.3-3.4,10.8-6.9,5.2-4,7.8-6,8.7-7.9,3.8-8.3-6.1-17.8-3.4-28.9.4-1.6,1-3.3,1-3.3.7-1,1.6-2.4,2.6-4.2,3-5.5,4-10.3,4.6-13,2.8-12.2,4.2-18.4,7-23.1,4-6.7,9.6-11,10.4-10.5.7.5-3.3,5.2-5,11.8-.2.9-1.1,4.5-2.7,9.2h0c-1.1,3.9-1.8,4.3-3.3,8.5-.5,1.3-.8,2.3-1,3.1-.7,2.5-1.1,4.4-1.4,5.6-.8,3.5-1.5,6.2-2.1,8.5-1.4,5.1-1.9,6-2.2,8.8,0,.5-.2,2.3-.2,4.8.2,7.7,2.7,9.6,3,14.9.3,5.5-2,9.9-4.4,14.5-3.5,6.6-6.6,8.3-5.6,10.4,1,2.3,5.2,1.7,16,3.3,1.6.2,5.3.8,10.1,1.9.4,0,.8.2,1,.2,1.3.2,2.3.4,3,.6,4.3,1,7.4,2.3,8.6,2.9,0,0,.3.1.5.3,2.9,1.4,13.4,7,15.1,17.4,0,0,1.3,7.9-3.3,16.7-.2.4-.4.7-.5.9-1.2,2.2-2,3.1-4.2,6.2-.6.9-.9,1.3-1.2,1.8,0,0-1.1,1.8-1.9,3.8-1.6,3.6-5.1,11.9-1.6,16.5,2.4,3.1,7.1,3.2,11.9,3.3,4.2,0,11.6-.6,20.3-5.3-2,3.3-4.9,8-9,13.3-1.6,2-2.7,3.3-3.5,4.3-8.2,9.7-12.3,11.7-14.4,12.6-5.8,2.6-11.3,2-36.3-5.5-23.6-7.1-26.8-9-27.2-10.3,0-.2,0-.4,0-.4-.2-2,.7-3.7,1-4.3,2.5-4.6,6.9-7.8,6.9-7.8,4.9-3.6,9.6-6.8,14.1-9.7,0,0,8-3.6,14.4-7.2.3-.2,1.2-.7,2.1-1.5h0c.7-.7,2.3-3,2.6-3.8,4.4-8.9,2-18,2-18-3-11.4-13.7-17.6-20.1-19.4-2-.6-5.4-1.2-6.2-1.4-1.5-.3-6.7-1.3-12.8-1.7-9-.7-17,0-22.1.7"/>
    <path class="st7" d="M121.3,358.9c-1.7,14-.2,27.7,3.6,42.2-4.5-2.8-6.1-6.7-8.4-9.9-3.7-5.1-8.4-7.1-14.5-5.8-1.6-.8-3,1.1-5.1,0,1.6-5.8,7.1-6,11.1-8,3-10.3,7.5-17.9,11.9-20.1,1.2,0,.9,1.1,1.4,1.7"/>
    <path class="st19" d="M504.1,625.9c-1.5,2.4-2.7,4.4-3.3,5.6,1.2-9.4,4.2-16.1,6.4-20.2,1.2-2.3,3.8-7,8.5-11.9,5.5-5.8,9.7-7.4,14.6-14.2,1.9-2.6,3.1-4.9,3.9-6.5.5,8.7-1.5,14.5-3.4,18.1-5.8,11.2-16.3,13.4-26.6,29.1"/>
    <path class="st41" d="M332.8,154c-10.1-7.3-19.7-15.2-28.6-24.1-8.4-8.4-16.1-17.8-27.4-22.8-1-.5-2.2-1.1-2.3-2.5,18.6,8.6,34.4,21.1,49.2,34.9,4.1,3.8,8.4,7.4,12.6,11-.9,1.7-2.2,2.6-3.5,3.5"/>
    <path class="st88" d="M90.5,527.3c-4.8-20.8-3.8-41.5,2.2-62.1.5,7.3,1,14.7,3.2,21.7,1.7,5.5.9,10.4-.7,15.7-2.5,8-3.7,16.3-4.7,24.7"/>
    <path class="st3" d="M158.1,331.2c-.7.1-1.7.4-2.8,1-2.5,1.5-3.4,4-4.2,6.3-1.4,4-1.2,7.7-1.1,11.8,0,1.5.2,2.8.2,3.7-.6,0-5.7,0-8.9,3.1-1.6,1.6-2.5,3.6-2.5,3.6-.4,1-.6,1.9-.7,2.5-1.7,2.1-3.4,4.1-5.2,6.2-3.1-6.3-2.6-12.3-.7-18.3,5.3-1.8,5.6-7,7.4-11.1.7-1.7,1.4-3.3,2.3-4.9,4.5-4.6,10.2-4.5,16-3.9"/>
    <path class="st76" d="M201.3,417c.2.6.6,1.2,1,1.8.8,1.1,1.6,2,2.3,2.5-4.4-1-10.9-3.1-17.6-7.5-5-3.3-8.6-6.8-11.2-9.7-.7.5-1.6,1.2-2.6,2.1-3.9,3.7-5.2,8-5.5,9.1-1.2,4.4-.6,8.1-.2,9.9-.8-1.2-1.8-3-2.5-5.2-.9-2.6-1-4.9-1.1-6.5.2-8.5,4.3-14.7,11.4-19.6,2.7,3.7,6.3,8.2,11.3,12.6,5.3,4.8,10.5,8.1,14.7,10.5"/>
    <path class="st15" d="M287.2,283.7c.8,1.8,3.3,6.7,9,10.2,5.9,3.5,11.6,3.2,13.5,3-1.9,1.4-4.3,3.5-6.5,6.4-1.5,2-2.6,4-3.4,5.6-3.1.9-6.7,2.1-10.5,4-3.6,1.7-6.7,3.6-9.2,5.4-3.7-7.6-4.2-14-4.2-17.7,0-10.1,4-17.7,6.7-19,.4-.2,1.3-.4,2.4-.3,1.5.1,1.5,1.6,2.3,2.4"/>
    <path class="st62" d="M121.3,358.9c-.5-.6-.9-.9-1.4-.9-.5,0-.9.6-1.1.8-1.8,2.7-3.7,14.7-9.4,19-1.8,1.4-2.1.5-5.6,2.7-3.4,2.1-5.7,4.4-7.2,6.1.9-1.4,2.3-2.2,3.7-2.1.8,0,1.4.5,1.7.7-3.5.5-5.5,3.3-8.6,5.5v-9.4c7.9-6.3,11.6-15.7,16.6-24,4-2.9,7.9-6,12.7-7.8.8,3.5-1.2,6.4-1.5,9.4"/>
    <path class="st78" d="M107.7,443.4c-1.1-9.5-.7-19-.8-28.5,0-5.8,2.2-11,3.3-16.6,6.8,6.3,7.7,13.9,5.1,22.4-1.7,5.7-3.5,11.4-3.9,17.4-.2,3.2-.7,6.3.7,10-2.5-1.2-3.6-2.8-4.5-4.6"/>
    <path class="st8" d="M380.8,434.6c-.9,1.8-1.5,2.7-1.9,3.2,0,.1-.3.5-.5,1-.2.5-.3.9-.3,1.2-.8-1.6-1.8-4-2.7-7.1-.8-2.7-1.3-4.7-1.6-6.6-.7-4.5-1-9.1-2.7-13.9,2.5.3,5.6.5,9.1.2,4.2-.4,7.8-1.4,10.4-2.3-.3.2-.7.5-.8,1-.2.9.5,2,2,2.5-2.5,4.6-4.9,9.3-7.4,14.1-1.2,2.3-2.3,4.5-3.5,6.8"/>
    <path class="st72" d="M323.2,402.1c-.1-1.2-.2-3.3.9-6.1,7,2.2,14.2,4.6,21.7,7.3,7.1,2.6,13.8,5.2,20.3,7.9-2.2,3.1-4.1,5.9-6.3,8.9-2.5-5.2-5.7-9.7-11.1-12.3-1.6,2.5-1.6,5.5-2.5,8.7-4.9-4.1-6.9-10.2-11.4-14.8-.9,1.2-2,3-2.8,5.3-1.1,3-1.3,5.6-1.3,7.3-.3-.3-.7-.8-1.2-1.4-3.1-3.7-5.8-6.9-6.2-11"/>
    <path class="st79" d="M438.5,572.6c.8-2.1,2.3-5.2,4.7-8.3,4.5-5.8,9.7-8.1,14.1-10.8,4.6-2.8,11.1-7.3,18-15,0,1,0,2.4,0,4.1,0,0-.6,5.2-3.6,9.9-4.2,6.6-11.7,6.8-19.1,11.7-4.2,2.8-9.6,7.9-13.6,18-.2-1.3-.3-2.6-.4-4.1-.1-2-.2-3.8-.1-5.5"/>
    <path class="st36" d="M191.3,399c2.1-2-.9-3.1-.9-4.9.2-8.2-.3-16.4,1-24.6,1-6.3,2.4-12.5,2.2-18.9,0-1.2.2-2.4.7-3.5,6.4,4.5,7.2,13.1,5.1,20.5-2.2,7.9-5.2,15.5-6.1,23.7-.3,2.8-.4,5.7-.6,8.4-.9.3-1.1-.1-1.3-.7"/>
    <path class="st54" d="M302.8,266.6c-2.9,4.7-5.2,9-2,14.3,3.5,5.7,8.6,7,15,5.9-6.2,5.7-13.8,5.2-19.6-1.1-5.7-6.1-6-16.2-.4-21.6,2.6-.3,4.7,1,7.1,2.5"/>
    <path class="st31" d="M320.9,234.6c.6,1.5.9,2.8,1,3.7-2.5-3-8.1-8.8-16.8-10.8-4.9-1.1-9.3-.7-11.8-.5-5,.5-9.1,1.8-11.8,2.9.8-1,7.6-9.5,18.7-9.3,9.6.1,17.8,6.6,20.7,13.9"/>
    <path class="st52" d="M143.1,427.1c-.4,3.6-3.4,5-6,6.4-4.6,2.5-9.5,4.3-14.8,4.2-.7,0-1.5.5-2.2.8.4-7.4,5.1-11.7,10.9-15.2,2.8-1.7,5.6-1.5,8.2.6,1.3,1.1,2.7,2.2,4,3.3"/>
    <path class="st35" d="M279.9,357.6c-.6,4.2-1,10.1.1,17.1,1.2,7.7,3.8,13.8,5.8,17.7-2.4-2-10.6-9.1-12.9-21.5-1.7-9.2.7-16.5,1.9-19.7.6,1.5,1.7,3.3,3.4,5,.5.5,1.1,1,1.6,1.4"/>
    <path class="st51" d="M407.4,401.8c.8-.7,1.9-1.7,3.3-3,3.4-3.1,5.1-4.7,5.8-5.6,3.1-3.9,5.1-7.5,5.1-7.5.8-1.7,2.3-2.9,4.5-2.8.9,1.4,1.8,3.4,2.6,5.8,1,3.3,1.1,6.2,1.1,8.2.4-.8.8-2,1.1-3.5,1-4.9-.2-8.9,0-8.9.1,0,1,2.1,1.1,5,.1,2.5-.3,4.4-1.2,7.8-.4,1.5-.7,2.7-1,3.6-.5-1.2-1.3-2.8-2.7-4.5-1.6-1.9-3.3-3.1-4.4-3.7-1.9,1.9-4.3,4.8-6.4,8.9-2.6,5.3-3.2,10.1-3.4,13-1.3-1.6-2.3-3-2.9-4.1-1-1.7-1.9-3.8-2.3-6.2,0-.4-.1-.7-.2-1.1,0-.2,0-.4,0-.6,0-.2,0-.4,0-.6"/>
    <path class="st102" d="M602,590.7c-5.6-.5-10,2.3-14.1,5.6-4,3.2-7.9,6.6-12.5,9-2.7,1.4-5.5,2.6-8.6,1.9,5.6-11.4,15.2-16.7,27.3-18.3,2.8-.4,5.5.2,8,1.7"/>
    <path class="st71" d="M431.6,387.4c-.5-1.8-1.1-3.6-1.6-5.3-.1-.4-.2-.9-.2-1.6.3-2.1,2.7-4,4.9-3.7,1.8.3,2.7,2,3.2,2.9,1.4,2.5,1.2,5.2,1,7.1-.4,3.5-1.7,4.7-1.4,7.9.1,1.6.6,2.8.9,3.6-.5,1.5-1.3,3.3-2.5,5.2-.4.6-.8,1.1-1.2,1.6-.2-2.5-.5-5.3-1-8.2-.6-3.5-1.3-6.6-2.1-9.5"/>
    <path class="st15" d="M289.6,187.4c-2.8-10.4-1.2-20.6-2.9-30.6,9,3.8,11.7,22.4,2.9,30.6"/>
    <path class="st93" d="M545.3,541.6c.6,0,1.2,0,1.4.2.4.8-3.9,3.8-6.8,5.7-3.8,2.6-6.8,4.3-7.5,4.6-2.1,1.2-6.2,3.1-8,4-3.3,1.6-6.1,3-8,3.9,1.6-2.8,4.2-6.8,8.6-10.4,8-6.5,16.7-7.7,20.3-8"/>
    <path class="st89" d="M221.9,385c-1.7.7-5.1,2.2-8.5,4.6-2.6,1.9-4.5,3.8-5.4,4.7-.1.1-.2.3-.3.4-1.1,1.4-2,2.6-2.6,3.5,0,0-.3.6-.7,1.1-1,1.8-2.5,7.9-3.6,16.2-.1-.5-.3-1.2-.4-2-.3-1.6-.9-5.6-.8-11.3.1-4.9.2-7.4,1.2-10.3.9-2.4,1.5-4.2,3.3-5.8,3.1-2.6,7.3-2.4,11.2-2.3,2.7.1,4.9.6,6.4,1"/>
    <path class="st58" d="M286.4,440.9c1.5-1,3.3-.7,5.5-.8-2.6-7.1-5-13.9-9.2-19.6.6-1.1,1.1-.5,1.5-.5,8.6,9.3,12.6,20.8,16.6,32.3-.3.2-.6.4-.9.6-4.5-4-9-8-13.5-12.1"/>
    <path class="st68" d="M110.1,357.3c-2.6,9.4-6.8,17.8-14.8,23.9-.6.5-1.1.7-1.8.2,1.1-7.8,5.3-13.9,10.8-19.2,1.8-1.7,3.8-3.2,5.8-4.8"/>
    <path class="st33" d="M330.4,252c2.4,1.6,5,3.8,7.6,6.6,1.1,1.2,2.1,2.4,3,3.6.9,1.7,2,3.9,2.7,6.8.6,2.5.8,4.6.9,6.4-.2,0-.4.2-.6.2-1.4.4-2.7,0-3.4-.2-.9-2.9-1.9-6-3.2-9.2-2.2-5.4-4.6-10.1-6.9-14.1"/>
    <path class="st87" d="M394.8,489.8c-.4,0-.8.2-1.3.2-.6,0-1.2,0-1.6,0,2.4-3.5,9-14.1,6.3-26.3-.5-2.1-1.2-4-2-5.7.4-.5.7-1.1,1.1-1.8.4-.7.6-1.3.9-1.9.9,2.1,1.8,4.9,2.6,8.4.7,3.3.7,5.8,1.1,7.7.7,3.4.4,6.9,0,10.3-.5,4.3-3.5,6.9-7,9"/>
    <path class="st92" d="M140.7,374.7c-.9,4.6-1.6,11.2-.6,19.1,1,8.5,3.5,15.1,5.6,19.5-2.4-2.9-8.1-10.4-9.1-20-.2-1.5-.4-4.6.3-8.6.8-4.5,2.6-7.9,3.9-10"/>
    <path class="st28" d="M356.2,294.2c-1.1.6-2.7,1.3-4.8,1.7-2.6.5-4.9.2-6.2,0,.4-1.2,1.4-3.9,3.9-6.2,3.5-3.1,7.4-3.4,8.6-3.4,1.7.5,3.5,1,5.8,1.7-3.1,1.7-6,3.1-7.2,6.3"/>
    <path class="st23" d="M181.9,346.4c.6.6,1.2,1.4,1.1,2.3,0,.7-.5,1.2-.6,1.3-5.6,6.6-3.8,14-1.6,21.1,1.2,3.9,2.4,7.8,3,12.6-.7-1.8-1.5-3.7-2.5-5.7-.6-1.1-1.1-2.2-1.7-3.2-.9-1.6-6.7-11.9-2.2-22,1.2-2.7,2.9-4.8,4.4-6.3"/>
    <path class="st21" d="M378,439.9c-.1-1-.2-2.5.3-4.1.6-2.4,1.7-4.1,2.5-4.9,0,0,5.6-6.6,9-17.2,0-.3.2-.8,0-1.4-.3-.8-1.1-1.1-1.7-1.3,1.1-.4,2.3-.8,3.6-1.1,1.3-.4,2.6-.6,3.8-.9-2.6,5.9-5.3,10.9-7.7,15-1.5,2.5-4.7,6.2-8,12.3-.8,1.5-1.5,2.8-1.9,3.6"/>
    <path class="st38" d="M491.5,513.8c-2.9,3.1-6.8,3.7-10.8,3.9-3.4.2-7,.1-10.2,1.2.2,2.1,2.3.4,2.5,2h-4.9c3.9-6.6,12.8-9.4,23.5-7.1"/>
    <path class="st77" d="M114.4,459.9c.7,2.5,3.7,1.9,5.2,4.5-4.7,0-8.7-.9-12.4-3.2-2.1-1.3-4.1-2.4-6.5-2.7.3-1.8.6-3.6,1-5.8,4.4,2.5,8.5,4.9,12.6,7.3"/>
    <path class="st11" d="M339.1,472.7c-1.4,0-3.6-.4-5.9-1.4-8.3-4-9.6-14.4-10.1-18.4-.7-5.6.7-8.1,1.6-9.2.4-.5.7-.8,1-1-.1,1.3-.2,3.6,0,6.4.3,4.9,1,16,8.8,21.5,1,.7,2.5,1.6,4.7,2.2"/>
    <path class="st73" d="M142.1,335c-.7,5.9-2.7,11.4-5.9,16.4-1.4.1-2.6.3-3.8-.5,1.8-6.2,5-11.5,9.7-15.9"/>
    <path class="st2" d="M302.2,462.3c.2,5.5.8,11.9,2.2,18.9,1.3,6.3,2.9,11.9,4.6,16.6-2.3-4.7-4.6-9.3-6.9-14-.3-5.2-.5-10.4-.8-15.6.3-2,.6-4,.9-5.9"/>
    <path class="st32" d="M418.7,273.2c-.2-1,0-1.8,0-2.1.1-.2.6-1.1,1.6-1.5.8-.3,1.5-.2,1.9-.1.3,0,1.7.4,2.4,1.6.6,1,.7,2.4,0,3.4-.4.6-1,.8-1.3,1-.3.1-1.5.7-2.9,0-1.4-.6-1.8-2-1.9-2.3"/>
    <path class="st49" d="M307.1,273.2c1.4-.7,3,0,3.5,1.1.5,1.1-.1,2.7-1.3,3-1,.3-2-.5-2.5-1.3-.4-.9-.3-2,.3-2.8"/>
    <path class="st97" d="M728,604.9c-.4,2.1.2,4.3-1.1,6.1-4.3-25.3-20-40.7-44.5-49.8,11.3-7,21.6-13.6,27.7-25,6-11.1,8.7-23,9.7-35.8,7,12.9,2.9,44.5-10.8,59.1,5.7,6.4,11.3,13,15.4,20.7,5.3,7.7,6.2,15.9,3.5,24.7"/>
    <path class="st26" d="M728,604.9c-.2-8.4,0-16.8-3.5-24.7,2,.5,1.8,2.8,3.1,3.9,1.3-3.7-1.1-6.6-1.9-10.3,10.3,3.1,15.7,10.4,19.5,19.6,3-9,.2-18.6,3.7-27.3,11.6,18,15.4,38.2,8.4,63.6-2.1-3.1-4.1-5.9-5-10-1.7,3.6-1.3,7-2.5,10.5-5.5-9.9-7.1-21.4-14.4-30.2-1.4-.1-.9,1.8-1.9,2.1-1.4.3-2.6-.1-3.6-1.2-1.1,1.3.3,3.6-2,4"/>
    <path class="st16" d="M566.9,436.4c7.5-4.8,15.6-7.6,25.7-6.8-3.9,1.4-6.5,3.2-8.8,5.5-10,5.5-16.7,14.3-23.2,23.3-4.8,6.7-9.4,13.5-12.4,21-1-16.9,4.7-33.4,18.7-43"/>
    <path class="st97" d="M733.3,712.6c-3.2-.8-6.8-1.6-10.7-3.4-2-.9-6.9-3.3-18.7-15.6-2.7-2.8-6.3-6.7-10.5-11.6,2.2.5,5.2,1.5,8.6,3.1,4.1,2,7,4.1,9.1,5.7,8.4,6.6,10.9,10.7,15.6,14.7,3.9,3.3,10.3,7.3,20.6,9.1-3.5-.2-8.4-.6-14.1-2"/>
    <path class="st69" d="M478,365.4c-4.1-19.2-13.2-34.8-32-43.5.6-.2,1.6-.4,2.9-.3s2.1.5,2.5.7c10.3,4.6,15.4,7,18.9,10,2,1.7,4.5,4,6.7,7.7,3.3,5.4,4.6,11.6,4.5,18.4,0,3.5-1,7-1.6,11.2-1.5-1.6-.8-3.4-2-4.3"/>
    <path class="st61" d="M573.3,158.2c.4-4.9.3-11.9-1.7-20-1.5-5.9-3.6-10.8-5.5-14.5,2.3.9,4.8,2,7.3,3.3.9.5,1.8,1,2.7,1.5.7,3.3,1.3,7.6,1,12.6-.3,7.3-2.2,13.2-3.8,17.1"/>
    <path class="st4" d="M405,227.1c5-6.6,11.3-11.5,18.9-14.6,11.8-4.8,22.8-1.8,33.6,3.6-14.5-.2-28.6,1.1-41.9,7.5-3.1,3.3-6.3,6.4-11.2,6.1-.9-1.4-.5-2.1.5-2.5"/>
    <path class="st5" d="M438.4,173.7c5.4-1.6,10.1-4,15.3-5,4.1-.8,8.1,1.1,11.8,3.1,7.2,3.9,13.4,8.9,16.9,17.3-13.6-8.9-27.8-14.7-43.9-15.5"/>
    <path class="st75" d="M405,227.1c-.2.5-.4,1-.7,1.6,2.4,0,3.9-1.6,5.7-2.4,1.9-.9,3.7-1.8,5.6-2.8-1.6,5.6-6.2,8.9-10.2,12.6-3.8,3.5-8,6.7-11.5,10.4-2.2,2.3-4.7,3.1-7.6,3.4-.5-4.5,11.5-21.8,17.5-25.5,1.4.5.6,1.9,1.2,2.7"/>
    <path class="st48" d="M376.7,178.1c-4.6,2.6-13.1,8.1-20,18.4-6.5,9.6-8.7,19-9.5,24.1-.5-1.9-3.8-15.6,5.2-28.3,8.8-12.3,22.3-13.9,24.3-14.1"/>
    <path class="st43" d="M384.6,185.3c-4.4-.9-6.8,2.3-9.5,4.7-3.9,3.4-7.7,6.7-13.3,8.5,1.1-1.9,2.9-4.7,5.5-7.8,9.5-11.3,21.2-15.5,25.4-16.9,3.1-1,7.8-2.2,13.8-2.5-4.9,3.4-9,6.2-13,9-2.2.7-3.4,2.9-5.3,4-1.1.6-2,1.9-3.5.9"/>
    <path class="st46" d="M375.6,225.8c4.2-14.1,11.1-25.5,27.6-28.8-10.3,9.3-17.4,20.6-27.6,28.8"/>
    <path class="st91" d="M340.3,238.1c-.9,0-.1-6.9-4.5-15.4-2.6-4.9-4.6-5.9-9-12.1-3.4-5-5.7-9.5-6.9-12.4,2.8,1.9,6.9,4.9,11.2,9.2,4.2,4.3,7.5,7.7,9.5,12.9,3.2,8.7.9,17.7-.2,17.7"/>
    <path class="st4" d="M395.1,322.5c-1.6-3-5.3-8.7-12.1-13.3-5.1-3.4-10.1-4.8-11.7-5.2-1.2-.3-2.2-.5-3-.6,1.6-.2,9.8-1.3,17.4,4.3,7.4,5.4,9.1,13.2,9.4,14.9"/>
    <path class="st35" d="M376.8,347.1c7.8-5.4,7.2-14.5,9.9-22.3,6.7,6.7,1.7,18.4-9.9,22.3"/>
    <path class="st20" d="M384.6,185.3c1.2-1.2,2.7-2.4,4.3-3.6,3.7-2.6,7.2-4.2,10.1-5.2-4.5,3.3-9.6,7.6-14.8,13.1-3.7,3.9-6.7,7.8-9.2,11.3.5-2.3,1.6-5.8,4-9.5,1.9-2.8,3.9-4.9,5.5-6.2"/>
    <path class="st22" d="M390.2,362c-1.2,0-2-1.4-2.1-1.5-.9-1.5-.1-3.2.2-4.1.3-.7.6-1.4,1.4-1.7.9-.3,1.7.2,1.7.2,1.3.8,1.4,3.1.9,4.7-.1.4-.8,2.3-2.1,2.4"/>
    <path class="st6" d="M372.8,381.5c.1.3.8,1.8.2,3.5-.2.4-.8,2-2.1,2.1-1.3,0-2.2-1.5-2.3-1.6-.5-.9-.4-1.7-.3-2.5.1-.6.4-3.5,1.7-3.8.9-.2,2,.8,2.7,2.3"/>
    <path class="st22" d="M361.3,375.2c-1.7-.5-2.6-4.2-1-5.8.8-.8,2.3-1.2,3.4-.5,1.4.8,1.4,2.9.8,4.2-.6,1.3-2.2,2.4-3.3,2.1"/>
    <path class="st74" d="M383,381.4c-1.3-.5-2.3-3.2-1-4.9.8-1,2.2-1.4,3.6-1,1.3.6,1.6,1.3,1.7,1.6.6,2-2.6,5-4.3,4.4"/>
    <path class="st67" d="M374.6,365.1c-.5-.4-1.8-1.5-1.7-3.2.1-1.1.9-2.6,2.3-2.8,1.4-.2,2.4,1.1,2.5,1.2.8,1,.6,2.2.5,2.8,0,.3-.4,2.5-1.7,2.7-.7.1-1.4-.4-1.9-.8"/>
    <path class="st44" d="M631.5,431.8c9.3,1.3,18.5,2.2,27.2,6,10.7,4.7,16.9,12.8,20,23.9,2.1,7.9,3.6,15.8,4.1,24,0,.9.4,1.8-.9,3.3-12.8-22.7-32.3-39.1-50.4-57.1"/>
    <path class="st35" d="M353.4,357.4c-6.9,3.3-7.6,2.9-11.9,5.3-3.6,1.9-9.6,5.2-13.8,11.9-2.4,3.9-3.7,6-3,8.3,1.1,4.1,7.1,4.4,23.7,9.6,10.3,3.2,10.4,3.8,16.3,5.1,3.6.8,13.5,3.5,20.3,2.2,14.2-2.8,25.8-15,30.2-31.3-1.9,1.1-4.3,2.1-7,3.1-1.6.5-3,.9-4.4,1.2-1.1,3-4.1,10.1-11.5,15.4-1.7,1.2-6.1,4.2-12.3,5.2-7.8,1.3-10.8-1.2-29.6-6.5-11.4-3.2-14.9-3.6-15.8-6.5-1.5-4.9,6.3-11.7,8.4-13.6,3.4-2.9,5.1-3.3,11.3-7.8,3.5-2.5,6.2-4.8,7.9-6.3-2,1.2-5,2.9-8.8,4.7"/>
    <path class="st35" d="M294.5,368.6c.9.8,2.5,2.1,4.5,3.3,7.9,5,14.8,5.2,15.7,9.2.1.7,0,1.2,0,1.8-1,6.8-12.5,10.3-14.2,10.8,4.2-2.7,6.8-6.7,6.3-10.2-.2-1.5-1-2.8-1.2-3.1-1.7-2.7-4.1-3-6.4-4.7-1.5-1.1-3.4-3.1-4.6-7"/>
    <path class="st53" d="M338,538.7c7.4,4.2,16.4,8.4,27,11.7,3.9,1.2,7.7,2.3,11.4,3.1-2.3,14.4-3.4,34.2,1.3,56.8,1.7,8.2,3.9,15.5,6.3,22-11.6-5.1-17-11.6-19.8-16.7-5.3-9.7-1.7-15.7-7.1-37.5-1.2-5-2.7-10.9-5.9-18.2-4.2-9.6-9.3-16.7-13-21.4"/>
    <path class="st53" d="M390.9,554.6c2.4-.3,4.8-.8,7.4-1.3,6.6-1.3,12.6-3.1,17.9-5-3.1,3.7-7.2,9.2-10.7,16.5-1.9,4-5.7,12.1-6.8,23.3-1.2,11.5,1.1,20.3,2.9,26.9,1.8,6.5,5.1,15.9,11.7,26-4.8-2.2-12.8-6.7-18.9-15.4-7.3-10.5-7.9-21.4-8.2-33.8-.2-8.7.4-21.7,4.6-37.2"/>
    <path class="st35" d="M390.8,554.5c2.1-.3,4.3-.7,6.6-1.1,2.3-.4,4.6-.9,6.8-1.4-4.3,4.6-8.8,10.7-11.8,18.6-11.6,29.8,6.9,59,9.7,63.2-1.8-1.3-4.3-3.4-6.8-6.4-2.8-3.4-5.6-8.1-8-16.9-1.8-6.6-6-23.1-.7-43.4,1.4-5.5,3.1-9.8,4.4-12.6"/>
    <path class="st35" d="M347,543.4c5.6,2.7,10.5,4.5,14.2,5.8,3.3,1.2,6.1,2,7.5,2.4,2.7.8,5.2,1.4,7.6,1.9-2.1,13.3-3.2,31.6.6,52.8,1.8,9.9,4.3,18.6,7,26.1-7.8-11.1-11.2-20.8-12.8-27.5-2.3-9.5-3.1-21-3.4-25.1-.6-8.5-.2-11.1-.7-13.9,0,0-.2-1.1-.5-2.1-2.3-8.4-16.2-18.1-19.4-20.3"/>
    <path class="st70" d="M354,276.1c-.4-.2-.7.1-1.3.3-3.1,1-5.4-2.2-8-1.2-1.2.5-1.8,1.6-1.9,1.7-.9,1.7.2,2.8-.4,4.6-.8,2.2-3.5,3.1-3.3,3.3.1.2,2.1-1.4,4.5-1.2,2.4.2,2.8,2,4.9,2.1,2.9,0,4.9-3.5,5.1-3.8,1.3-2.3,1.5-5.4.5-5.9"/>
  </g>
</svg>