<?xml version="1.0" encoding="UTF-8"?>
<svg id="Camada_1" xmlns="http://www.w3.org/2000/svg" xmlns:xlink="http://www.w3.org/1999/xlink" version="1.1" viewBox="0 0 1920 1920">
  <!-- Generator: Adobe Illustrator 30.4.0, SVG Export Plug-In . SVG Version: 2.1.4 Build 226)  -->
  <defs>
    <style>
      .st0 {
        fill: none;
      }

      .st1 {
        fill: #0e0908;
      }

      .st2 {
        fill: #ec632d;
      }

      .st3 {
        fill: #fff;
      }
    </style>
    <clipPath id="clippath">
      <rect class="st0" x="-1685.4" y="493.1" width="1920" height="1920"/>
    </clipPath>
  </defs>
  <path class="st1" d="M144.3,829.2c28.8-.9,55.1,6.8,82,9.3-60.4-58-132.4-55.6-207.4-38.3-.3-.9-.6-1.7-.8-2.6,13.3-11.7,26.5-23.6,40-35.2,34.6-29.5,71.9-55.1,115.7-68.3,46.4-14,93.7-17,140.5.6q7.7-15.4-10.5-30c4.9-2.7,10.1-2.1,14.3-.7,6.6,2.2,9.8.2,12.1-5.8,15.2-38.4,36.6-73.6,59.4-107.8,46-69.2,99-132.4,167.5-180.4,95.3-66.8,197.8-118.7,313.6-140.8,76.4-14.6,153.3-19.4,230.7-13.6,103.4,7.7,202.7,31.3,295.2,79.6,47.9,25,91.5,56.6,134.2,89.3,37.3,28.6,72.2,60,103,95.6,11.6,13.3,23.1,26.8,32,42,20.5,35.2,46.4,67,64.9,103.6,18.1,35.8,33.8,72.5,46,110.8,15.4,48.6,24.4,98.3,29.8,148.9,6.9,65.3,5.1,130.2-5.8,194.9-10.2,61.1-29.6,119.1-54,175.9-22.7,52.8-51,101.9-85.6,147.6-47.2,62.3-104.4,114-167.3,160.2-61.9,45.5-128.6,80.8-201,105.5-86.2,29.4-174.9,41.7-266,39.5-109.7-2.6-215-24.6-315.6-68.1-75.7-32.7-143-78-204-133.8-46.2-42.3-87.8-88-122-140.4-37.4-57.4-65.9-119-87.7-184.2-21.8-65.3-31.7-132.1-33.2-200.4-.1-4.2-1.4-7.6-3.4-11.2-28.2-50.7-61.7-97-108.6-132.4-2.1-1.6-3.9-3.6-5.8-5.5-.6-.6-.9-1.6-2.2-4ZM342,1163.6c.4-2.2-.5-3.9-2.3-5.2-20.7-42.9-35.9-88.1-54.6-131.8,0,29.7,3.5,58.7,9.6,87.3,16.3,75.3,44.5,146.1,84,212.2,35,58.5,77,111.6,126.2,158.8,41,39.3,87.3,71.6,136.3,100,61.6,35.7,125.4,66.4,195.1,83.3,60,14.6,121,21.9,182.7,24,77.7,2.6,154.2-4.9,228.9-27.2,82.9-24.8,160.1-62,232.1-109.8,39.2-26.1,73.2-58.6,106.6-91.6,54.8-54.1,100.7-114.6,134-184.5,24.7-51.9,43.7-105.4,56.1-161.6,11-49.5,17.7-99.4,16.8-150.1-.6-33.2-3-66.4-7.1-99.5-6.5-52.8-18.5-104.2-35.6-154.5-20.1-58.9-51.8-111.5-87.7-161.9-78.2-109.8-177.4-194.4-299.9-251.4-99.8-46.4-204.9-69-314.4-72.1-62.5-1.7-124,6.2-185,19.9-43.9,9.8-86.5,22.7-127.7,40.7-35.3,15.5-69.1,33.7-102.3,53.2-51.2,30.2-98,66.2-139.5,108.9-32.1,33-62,67.8-88.4,105.5-24.8,35.4-48.9,71.3-63.3,113.3,9.3,2.4,18.2,4.7,27.1,7,82,27.4,120.7,92.2,145.2,169.4,2.1-9.6,4.4-18.2,7.3-26.8,17.2-49.9,40.2-96.9,69-141.1,22.3-34.1,48.2-65,77.8-93.2,30.7-29.3,67.2-49.7,102.8-71.5,17-10.4,35.3-18.4,53.8-25.8,48.5-19.3,99-29.9,150.8-35.5,34.2-3.7,68.5-3.8,102.7-.6,35.7,3.3,71.2,8.3,105.6,17.9,67.4-83.5,167.8-117.8,227.6-108.4,1,19.2-.2,38.3-3.9,57.3-3.7,18.6-9.8,36.5-16.6,56,50.1-20.2,100.2-26.5,151.9-21,4.6.7,9.1,1.5,13.7,2.2,24.3,4.2,26.6,7.6,21.9,31.9-20.7,69.8-65.6,120-128.3,155.8,1.7,2.6,2.7,4.3,3.8,5.9,17.3,25.6,35.9,50.4,49.7,78.2,8.8,17.7,16,36.5,35,46.5.8.5,1.5,1.3,2.2,2,11.1,10.8,13.7,18.2,5.4,30.7-6.9,10.5-4.9,19.3-1.8,29.4,1.2,4.1,2.1,8.3,3,12.5,6.1,28.3,8.6,56.9,10.7,85.8,3.5,50.8,1.4,100.8-11.8,150.1-24.8,92.4-74.3,170.7-140.2,238.6-62.8,64.6-140,105.6-226.8,128.9-54.7,14.7-110.4,18.9-166.9,18.3-31.6-.4-62.3-5-93-11.2-31.5-6.3-61.9-16.7-91.7-28.3-27.8-10.8-54.6-24.2-80.3-39.6-36-21.7-68.6-47.6-97.5-78.2-2.8-2.9-5.5-5.3-11.1-3.9-28.7,6.8-57.7,11.7-87.5,11.2-38.6-.6-75.3-6.8-108.5-28.8-38.5-25.5-70.5-56-88.3-99.7-3.1-7.8-5.8-16.1-11.6-22.6h.2c.3-2.2.3-4.2-2.1-5.2h.1ZM1179.6,1167.6c-8.4,12.4-22.3,22.4-16.1,40.9,3.5-13.9,9.4-26.5,17.8-38,.8-1.2-.2-2.4-1.7-2.9,1.3,4.6,2.4,1.6,3.5,0-1.1,0-2.3,0-3.5,0ZM189.1,846.7c13.1,12.2,27.2,23.5,39.1,36.8,45.8,51.1,72.7,112.5,94.1,176.7,18.9,56.8,38.3,113.5,76,161.5,32.7,41.6,74.9,67.6,126.1,79.7,27.2,6.4,54.7,5.2,82.1,1.7,30.5-3.8,59.1-13.5,84.8-30.8,3-2,6.7-4.1,6.6-8.2-.2-4.7-5.3-4.2-8.2-6-1-.7-2.6-.6-3.8-1-40-13.9-73.2-37-96.7-72.7-17.6-26.9-30.3-56.4-40.9-86.6-13-36.9-20.1-75.5-30.2-113.3-2-7.3-4.9-14.6-5.4-22-1.8-26-8.8-51-14-76.4-4.7-23.1-12.4-45.6-19.8-68.1-12.2-36.7-29.2-70.3-58-96.5-19.9-18.1-42.6-31.6-70.9-35.8,13.3,20.3,28.7,38.2,35.5,61-13.1-3.4-23.2-11.1-34-17.3-45.6-26.2-93.9-37.2-146-25.6-52.4,11.7-97.7,37.3-139.6,73.8,43.7-1.5,85.2-.9,124.1,18.3,38.5,19,69,45.4,87.4,85-14-7.5-27.1-16-41.3-22.8-14.8-7.1-30.8-9.3-47.1-11.4ZM1219,653.8c.4.8.7,1.7,1.1,2.5-3.8,2.6-7.6,5.2-11.8,8.2,39.8,16.7,69,45,95.7,76.3,19.6,23,36.6,48.2,58.2,69.5,28,27.5,61,41.2,100.7,37.1,8.7-.9,11.4-4,8-12.9-5.2-13.7-10.8-27-17.5-40-6-11.6-13.5-22.2-20.6-33.1,11.9,4.1,16.8,15.2,24.8,23.5,5.9-9.1,11.5-18,19.4-25.4,10.7-10.1,10.1-13.4-2.8-19.9-23.4-11.9-46.3-24.5-64.5-44.1-2.4-2.5-6-4.6-5.1-9.1,12.7-2.3,21.5-9.2,26.6-20.6-42.6-23.5-79.9-53.9-114.9-88.4-.8,1.9-1.6,3.2-1.3,3.5,10.7,12.9,14.5,28.8,19.6,44.2,7.4,22,20.6,37.4,45.3,41,6.6.9,13.3-.2,19.7,1.9.9,11-19.5,25.1-43.5,30.3,3,5.6,11.3,6.7,13.4,14.4-40.9-21.2-77.3-49.7-124.4-54.3,14.2-3.5,27.1,2,41,5.1-8.6-12.5-15.6-24.6-13.1-41,12.8,7.2,24.6,14,38,21.6-2.2-8.1-6.1-12.8-10.2-17.6-18.2-21.2-44-27.3-69-34.9-3.5-1.1-7.2-1.3-8.8-5.3,2.2-3.7,5.6-4.5,9.4-4.8,22.8-1.4,45.4-7,68.5-2.3,2.3.5,5,1.5,7.7-2.1,18.5-24.6,38.3-48,51.5-76.4,19.1-41,34.6-82.8,37.6-129.4-39.5-1.2-76,7.2-110,26.4-34.1,19.3-62.8,44.6-86.4,75.9-23.3,30.9-35.8,66-40.5,104-5.9-1.5-5.8-5.3-7.7-7.1-20.8,6.7-40.7,14.9-59.9,24.9-38.7,20-73.6,45.2-105.7,74.5-5.3,4.8-7.2,10.5-7.3,17.7-.5,31.6,15.2,54.6,38.2,74.1,21.1,17.9,46.1,30,67,48.3,20,17.6,37.2,36.3,45.8,62.4,5.9,17.8,10.2,35.5,9.3,54.5,6.4-.7,11.5-2.5,16.5-5.3,20.9-11.8,32.8-31.5,45-50.9,8.3-13.2,14.6-27.7,24.5-39.7,6.5-7.8,13.8-15,21.1-22.7-19.6-19.2-45-21.1-69.3-26.6,10.8-6.4,22.3-4.9,33.4-3.2,28.1,4.3,53.1,17.3,78.5,29.3,32.7,15.5,65,32.1,102.1,38-3.5-4.6-8.1-7.9-12.2-11.7-20.6-19-39.1-39.8-56.3-61.9-11.7-14.9-23.7-29.6-38.2-42.1-29.2-25.3-58.9-49.8-97.6-59.5-1.3-.3-3.3-1-3.5-4.5,10.1-7.5,21.4-12.4,34.6-12.2ZM561.2,1085.7c1-.2,1.9-.4,2.9-.6,0-6.5.3-13,0-19.5-2-40,3-79,16.2-116.8,13.4-38.5,32.3-73.6,64.9-99.5,5.4-4.3,5.8-10.1,7-15.8,10-46.9,34.5-83.5,76.3-107.9,46.6-27.2,96.9-28.4,148.5-21.5,6.9.9,14.9,5.9,20.8.8,18-15.5,35.1-32.1,53.9-49.5-17.3-.4-32-2.5-44-12.8,1.3-2.9,3-3,4.6-3.4,25.6-6.7,51.3-13.4,76.8-20.4,4.5-1.2,11.2-1.2,11.1-9-13.4-7.2-25.8-1.5-40.7,3.4,26.4-32.5,63.8-41.9,97.8-57.3-5.2-6.8-11.3-8.2-19.4-9.5,5.6-2.3,9.2-3.8,12.8-5.3,24.2-10.3,50-13.4,75.6-15.4,23.9-1.9,34.8-16.4,43.2-36-4-.9-7.5-1.8-11.1-2.5-33.9-7.1-68.2-11.2-102.8-12.8-59.8-2.8-119.6-.1-176.6,18.6-105.3,34.6-192.8,96.4-260.5,184.4-46.8,60.8-73.1,131-88.3,205.6-2.6,12.7-7.1,25.7-5.2,38.3,5.8,39.7,12.7,79.3,21.7,118.5,3.6,15.6,6.4,31.7,14.5,45.9ZM1096.6,1025.9c2-5.6,3.6-10.4,5.5-15.2,7.8-19,3.6-36.2-7.5-52.5-11.2-16.6-25.2-30.9-37.9-46.2-3.8-4.6-7.5-5-12.8-1.6-7.5,4.8-13.7,11.2-21,16.5-26.6-25-51.6-50.8-75.2-77.8-13.7-15.7-25.5-32.9-36.4-50.9-11.3-18.6-19-38.3-23.7-59.4-.8-3.8-.7-9.3-5.9-10.7-20-5.4-40-11.6-61-10.2-25.9,1.8-50.9,7.6-74,20.1-41.3,22.3-68.7,54.9-76.7,102.6,9.2,2.1,18.2.9,28.2,6.1-31.8,12.8-53.6,34.3-71.4,60-18.2,26.2-34.6,69.7-28.9,86,7.1-7.7,14.5-14.8,22.8-20.9,33.8-24.7,69.8-43,113.4-40.7,22.4,1.2,28.6,4.9,35.3,25.5,1.9,5.9,5.8,6.5,10.5,6.6,10.7,0,21.4-.8,32,.2,15.1,1.4,28.7,6.2,33.9,24.3,14.8-24,10.2-49.8,12.5-74.7,3.7,6.2,6.6,12.4,8.3,19,7.5,27.5,10.9,54.7-6.8,80.1-2.8,4.1-6.2,7.8-9.1,11.9-3,4.4-3.4,8.1,1.9,11.7,4.6,3.1,8.4,7.5,12.5,11.4,14.5,13.7,28.4,28.1,45.1,39.2,5.6,3.7,9.4,3.3,14.3-2,12.6-13.7,21.7-30.1,36.2-42.2,16.2-13.5,30-30.1,51.7-35.8,18.9-5,37.9-8.8,57.2-11.3,6.6-.9,8.6,1.6,10.7,6.8,3.7,8.7,8.1,17.1,16,24.3ZM1319.2,1124.7c12.9-4.8,24.1-9,35.9-13.4-6.5-8-12.2-14.9-16.4-22.9-2.3-4.4-5.1-9.5-3.8-14.1,3.6-12.7,1.7-25.1-.7-37.5-3.8-19.2,1-30.9,19.1-36.9,23.7-7.8,44.2-20.3,63.7-35.5,20.7-16.1,41.8-8,48.2,17.2,2.1,8.3,6.5,13.9,14.4,17.7,8.7,4.2,18.7,9.2,19.1,19.9.8,25.2,2.2,50.5,1.5,75.8-.6,21.6-10.2,37.2-27.8,48.8-9.2,6-18.8,11.4-29.2,14.8-11.1,3.6-17.6,10.8-21.6,21.5-7.7,20.6-18.6,39.3-32.8,56.3-12.7,15.1-25.9,29.5-34.4,48.2-8.7,19.4-26.4,30.4-47.5,34.2-8.4,1.5-17.3.7-25.9.9-50.9,1.5-91.2-16-114.2-64.6-13.7,37.7-43.6,64.5-63.4,98.1,12.7,9.9,23.9,21.2,32.9,34.5,9.2,13.5,15.9,28.2,22.4,42.9,332.1-85.6,424.4-403,358.8-597.9-8.8,5.4-17.4,11.7-27.8,12.3-9.2.5-17.3,3-25.3,7.1-30.1,15.4-60.8,9.5-91.3,1.8-34.6-8.7-65.9-25.2-97.2-41.8-3.2-1.7-6-5.4-10.8-2.9-13.2,6.9-24.1,15.9-30.5,30.3,10.7,9.4,20.8,18.5,31.2,27.4,10.3,8.8,16.2,24.6,3.6,37.6-3.1,3.2-6.8,6.4-7.8,11.8,20.5,15.8,38.9,33.5,42.6,61.1,3.6,27.2-8,49.5-25.2,70.5,35.6,13.8,46.4,40.1,40.3,77ZM695.7,1200.2c-11.1-17.6-20.2-36.4-20.1-59.1.1-23.8,7.9-44.6,19.8-64.5,18.3-30.6,44.1-54,72.7-74.3,14.5-10.3,31.5-14.9,50.4-13-2.5,7.5-8.7,15.5,5.8,20.6,1.4-2,3.6-4.9,5.7-7.8,10.6-14.6,7.1-25-10.1-30.9-4.2-1.4-8.3-1.9-12.7-1.9-9,.1-18,0-27,.1-10.5.3-17.9-3.5-19.7-14.5-1.4-8.7-7.1-10.9-14.8-11.6-12.6-1.1-25.1-.6-37.5,2-55.3,11.5-94.8,41.4-114.5,95.8-9.9,27.4-10.5,55.2-6.9,83.4,2.1,16.7,5.6,33.2,11.5,49,2.3,6.2,5.3,9.5,13.3,10.1,22.6,1.7,44.4,7.2,63.1,21,9.7,7.2,19,14.8,28.4,22.2,5.9-8.3,11.5-16.1,17.1-24-7.2-10.2-15.8-1.3-24.5-2.7ZM1242.8,972.9c2.8,15.8,1.7,31.4-1.4,46.9-9.3,46.1-34.7,80.1-76.4,102-2.7,1.4-6.5,1.9-6.5,6.5.1,16.7,0,33.5,0,52.9,24-33.8,55.4-45.9,92.7-41.8,16.3,1.8,30.2-.9,44.8-7.6,8.8-4.1,11.8-9.1,12.1-17.7,1.1-28.5-14.6-50.9-44.2-62.8-2.8-1.1-6.9-.7-7.6-5.1,15.7-3.8,17-5.1,21.5-20.6,1.6-5.4,3.5-10.7,4.5-16.2,7.5-38,7.3-61.8-27.9-88-7.6,6.3-13.6,13.6-14.5,27-7.5-13.7-16.9-21.4-29.8-25.8-8.6,11.5-19.8,20.5-29.1,31.4-18.7,22.1-35.7,45-28.8,76.6,2.4,11-2,24.7,11.8,31.6,5.7,2.8,6.1,7.7,6.1,13.4,0,6.3-2.7,12.9,1.9,21.5,32.6-37.5,61.7-74.7,70.7-124.2ZM1125.7,929.1c.7-.8,1.4-1.3,1.5-1.8,2.5-35.8,0-70-31-94.9-7.8-6.2-15.5-12.5-23.6-18.4-24.8-18.3-52.7-32.1-75.2-53.8-16.8-16.2-26.5-35.2-29.4-58-1.9-14.6.5-27.6,13.3-37.3,6.7-5,12.4-11.4,19.9-18.4-18.1-1.9-32.5-.4-45,12.9-14.4,15.3-26.1,32.8-40.5,47.9-9.5,9.9-10,21.9-8.7,34.3.7,7.6,1.8,15.1,3.4,22.5,4.4,20.3,10.8,39.9,22.3,57.6,15.8,24.2,36.7,43.8,56.3,64.5,10.9,11.5,21.2,23.6,34,33.9,2.8-3.6,5.2-6.8,7.6-9.9,9.6-12.3,18.6-25.1,29.8-36.1,15.6-15.3,30.6-13.2,41.9,5.8,6.1,10.2,10.6,21,14.2,32.3,1.9,6,3.4,12.7,9.2,16.9ZM1147.3,1139.2c-9.8,20.1-25.1,36-39.2,52.8-9.6,11.5-15.3,26.4-31.9,31.4-11.6,3.5-22.5,9.5-33.7,14.3-3.4,1.5-6.8,3.1-7.7,7.1-2.3,10.4-4.5,20.9-1.2,31.5,9.8,31.9,30.3,58.1,46.7,86.4,2.6,4.4,4.4,3.9,8-2.3,13.6-23.6,30.4-45.1,45.2-67.9,10.3-15.9,23-31.3,20.8-52.3-1.2-11.2-1.7-22.5-2.2-33.8-1-22.4-3.1-44.7-4.7-67.1ZM1409.4,647c2.7,3.4,5.1,2.5,7.2,1.9,14.3-4.4,28.2-9.9,40.2-19.1,25.2-19.3,47.2-42,66.2-67.5,18.6-24.9,34.2-51.3,40.4-82.3.9-4.6,1.8-8.5-4.2-10.1-23.7-6.5-47.8-8.8-72-5.8-32.8,4-63.7,15.4-94.2,27.7-7.7,3.1-15.1,6.9-20.2,14.1-13.6,19.4-27.5,38.5-42.9,56.4-3.9,4.5-3.5,8-1.1,12.3,8.1,14.4,18.4,26.8,32,36.4,59.8-117.1,122.1-129.1,195.6-132.4-1.1,16.6-7.1,31.4-15.8,45.1-24.8,39.3-56.9,71.5-94.8,98.3-11.9,8.5-23.9,17-36.5,25ZM1259.4,1147.8c-13,0-24.7,1.2-36.2,4-46.5,11.7-66.6,75.2-43.8,114.2,25.8,44.1,98.8,57.3,133.8,43.2,21.4-8.6,42.2-35.3,40-52.8-6.8,5.1-13.1,10.2-18.8,16.2-17.2,18.5-37,30-64,27.3-21.5-2.2-49.6-21.6-53.9-42.5-7.9-38.7-.3-73.1,32.4-98.9,3.5-2.8,7.4-5.3,10.3-10.6ZM1260.7,1235.3c10.1-18.3,27.8-26.8,38.5-41.9-14.6-4.1-28,2.6-42.1-1.2,7-10.9,19.5-14.4,26.7-24.3-40.4-5.1-65.4,25.1-64,57,1.3,28.5,16.4,53.4,44.3,66.2,14.1,6.5,29.3,6,43.1-2,12.8-7.4,23.3-17.7,32.8-28.9,3.2-3.8,7.6-7.7,6-14-20.3,9.7-39.4,22.5-64.2,17.4,5.6-7.4,12.5-13.1,18.6-19.6,6.2-6.5,13-12.7,16.5-21.9-18.5,4.1-35.1,12.6-56,13.2ZM984.9,1245.3c-18.2-7.8-34.2-16.5-52.2-19.7-35.7-6.4-72-6.3-108-10-11.5-1.2-23.2-1.4-35.4-2.1.7,2.2.9,3.6,1.5,4.7,9.6,17.3,27,25.4,43.4,32.3,33.4,14,69.2,18,105.3,16.4,16.9-.7,32.2-7.8,45.4-21.6ZM1150.1,1051.2c-2.1-23.7-7.3-46.9,4.8-69.2,11.4-20.9,28.8-36.8,43.9-54.9-3.6-2.4-6.4-1.5-9.2-1-11.4,2.3-20,9.2-26.6,18-5.6,7.5-11.8,9.7-20.1,7.2-6.9-2.1-13.8-2-20.8-1.8-4.7.2-6.8-1.3-8.4-6.2-3.1-9.4-7.1-18.5-11.6-27.3-9.2-18-20.4-22.5-41.5-16.9,12.6,15.9,24.9,31.5,37.4,47,6.2,7.8,12,15.7,14.5,25.7,4.6,18.3,1,35.6-6.2,52.3-3.5,8.1-.7,12.3,6,17.1,11.3,7.9,24,8.2,37.8,10.1ZM705,1071.5c-6.5,7.2-10.7,15.2-14.3,23.2-12.5,27.7-13.1,55.5.7,83.1,2.6,5.3,6,8.2,12.4,7.6,6.7-.7,13.8,1.1,19,4.6,9.4,6.3,19.1,4.9,31.2,5.2-18.2-13.8-38.1-20.8-55.6-35,22.6-3.4,42.6,2.6,64.4.5-24.3-15.3-49.8-24.7-73-41.8,29.5-6.8,56.2,2,83.5,1.5-21.5-18.2-44.8-33-68.3-48.9ZM1437.1,1018.9c-.2-.9-.4-1.8-.6-2.7-18.6,14.1-34.1,6.8-49.1-5-3.8-3-7.7-6.3-15-7.5,10.4,13.4,22.2,21.9,33.8,30.6,11,8.2,12.2,18.6,2.6,28.4-9.8,9.9-21.9,9.5-34.4,7.8-8.6-1.1-16-5.7-26.1-10.6,8.3,12.7,18.1,17.3,29.6,19.5,12.3,2.3,14.4,5.2,13.8,17.8-.4,8.3-2.3,16.2-6.7,23.7,14.6-3.2,26.4,5.3,39.3,7.7,4.3.8,7.7,5.9,7.1,10.9-.6,5.2-4.2,8.1-9.8,8-.5,0-1,1.3-1.6,2.1,15.3,3.7,19.7.3,18-14.2-.7-6.3,1.2-9.9,7-12.4,7-3,14.3-5.8,21-11.6-11-1.2-19.6,4.8-29.8,5-1.6-6.9-1.8-14.7-5.1-20.9-5.3-9.9-1.2-14.2,6.9-18.6,8.9-4.8,17.4-10.7,28.1-17.3-3.9-.3-5-.7-5.8-.4-9.7,3.6-18.5,8.8-27.4,14-7,4.1-11.5,1.9-12.8-6.1-.6-3.6-.5-7.1.8-10.8,2.1-5.6,3.1-11.6.8-17.5-1.9-5.2-.2-8.9,4.2-11.9,3.8-2.6,7.4-5.5,11-8.3ZM1159.2,927.8c31.6-2.1,49.4-30.7,77.8-43.2-5.5,14.6-14.9,23.5-23.2,33.5,6.4,4.2,13.1,6.5,18.1,11.4,2.2,2.2,4.7,2.5,7.1.2,12.1-11.5,23-23.2,21.7-42.1-1.3-19.6-16.8-26.2-29.4-37.1-10.3,15.2-17.4,31.6-30.3,43.8-12.9,12.3-27.5,22.6-41.8,33.4ZM762.6,1208.6c-3.8-2.2-7.7-2.3-11-3.4-11.6-4.1-18.6.6-24.3,10.4-4,6.8-9.3,12.9-13.8,19.4-3.7,5.5-7.6,5.6-12,1.1-10.8-11.1-24.9-17.4-38.5-24-10.1-4.9-20.8-8.9-34-6.8,21.4,18.7,43.1,34,68.3,44.2,5.3,2.1,9.6.9,13.9-1.2,13.1-6.3,24.6-15,36.3-23.5,5.8-4.2,12.1-8,14.9-16.2ZM1113.2,1075.6c-6.4,36.5-19.5,68.5-36.7,99-2.9,5.2-7.8,9.7-9.2,15.2-4.9,18.7-17.3,30.6-33.2,40-3.3,1.9-6.2,4.5-9.3,6.8,15.8-3.3,32.4-6.9,39.3-22.9,6.4-14.9,15.1-24.8,31.5-26.9.2,0,.4-1.1.6-1.8-4.2-2.6-9.9.5-14.1-3.7.7-1.5,1.1-3.2,2.1-4.4,7.6-9.2,15.5-18,18.3-30.2,1-4.5,6.1-5.7,10-7.3,6.2-2.6,12.4-5.1,19.7-8.1-8-3.6-15.3-3.1-22.2-4.7,7.1-19.9,7.9-31.6,3-51ZM831.9,1053.1c.5-11.7-6.4-18.5-10.8-26.3-4.8-8.3-9.6-16.5-14.7-25.3-19.9,2.7-35,14.2-51.1,27.6,26.1,8.2,50.5,15.8,76.6,24ZM707.4,1068.7c29.3,1.9,54.7,14.3,84.3,15.6-15.2-18.4-30.8-33.6-43.4-51.9-15.2,10.5-29.1,20.8-40.9,36.3ZM937.8,1437.4c-27.1-29.6-77.2-45.8-99.6-27.1,32.1,12.3,65,20.4,99.6,27.1ZM1025.4,1243.4c-8.8-.3-16,2.2-23.3,3.5-10.7,2-14.7,10.2-17.6,19.1-.8,2.4-2.1,6.8,3,7.8,11.5,2.4,21.8,7.6,33.1,15-.9-16.5-4-31.4,4.9-45.5ZM1422.6,685.7c15.6,18.1,30.8,34.8,55.2,45.2-12.2-20.9-24.1-38.5-37.6-55.3-6,3.4-11.3,6.5-17.5,10.1ZM1018.3,1032.7c4.2,10.1,9.8,17.5,18.9,19.3,19,3.9,37.7.3,58.4-5.4-27.1-4.9-51.6-9.3-77.3-13.9ZM1276.2,629.6c2.3,16,8.4,28.3,22.3,37.9-1.5-9-1.4-16.4,3.9-22.8-8.9-5.2-17.1-9.9-26.2-15.1ZM330.5,702.4c7.9,3.1,14,8,23.1,8.4-5.9-8.5-10.7-16.2-18.5-22.1-1.8,5.1-3.1,9.2-4.7,13.7ZM1136.3,940.9c15.3,5.1,20.2,3.8,21.3-4.9-7.3-.8-14.1.9-21.3,4.9ZM1115.8,927.1c2.2,17,2.8,17.7,11.5,13.1-3.9-4.2-5.2-10.5-11.5-13.1Z"/>
  <path class="st2" d="M343.8,1168.6c5.8,6.5,8.5,14.8,11.6,22.6,17.7,43.7,49.8,74.2,88.3,99.7,33.2,22,69.9,28.2,108.5,28.8,29.7.5,58.8-4.3,87.5-11.2,5.6-1.3,8.3,1,11.1,3.9,28.8,30.6,61.4,56.5,97.5,78.2,25.7,15.4,52.4,28.8,80.3,39.6,29.8,11.6,60.2,21.9,91.7,28.3,30.7,6.2,61.4,10.8,93.1,11.2,56.5.7,112.2-3.6,166.9-18.3,86.8-23.3,163.9-64.3,226.8-128.9,66-67.9,115.5-146.1,140.2-238.6,13.2-49.3,15.3-99.3,11.8-150-2-28.9-4.6-57.5-10.7-85.8-.9-4.2-1.7-8.4-3-12.5-3.1-10-5.1-18.9,1.8-29.4,8.3-12.5,5.7-19.9-5.4-30.7-.7-.7-1.3-1.6-2.2-2-19-10-26.2-28.8-35-46.5-13.8-27.8-32.4-52.6-49.7-78.2-1.1-1.6-2.1-3.3-3.8-5.9,62.7-35.8,107.6-86,128.3-155.8,3.7,4.2,7.4,8.5,11.2,12.7,40.4,44.6,75.6,92.8,104.3,145.9,33.6,62.1,46.9,130.3,61.5,198.1,8.8,41.1,5.4,82.9,6.1,124.5,1.3,79.3-15.7,155.3-43.1,229-22.1,59.5-52.5,115-88.2,167.4-23.2,33.9-48.8,65.9-79.1,93.8-42,38.8-89.1,70.9-137.2,101.3-77.3,48.8-163,75.7-252.6,91.7-49,8.8-98.2,7-147.5,7.9-71.1,1.3-139.8-12.4-207.2-33.4-56.8-17.8-109.7-44.2-160.7-74.9-76.8-46.2-142.5-104.9-198.1-174.9-44.1-55.6-76-117.9-99.2-184.8-2.6-7.3-6.8-14.5-5.7-22.9ZM777.5,1493.1c-21-10.6-41.3-20.8-61.7-31.1-3.2,5.1-5.9,9.2-6.8,14.5,4.8,4.1,9.5,8.1,14.5,12.4-10.6,16.8-20.7,32.7-31.1,49.1,8.4,5.1,16.3,9.8,24.5,14.8,10.8-17.8,21.4-35,32.2-52.8,7.5,3.4,14.2,6.5,21.6,9.9-2.5,2.6-4.3,4.1-5.6,5.9-16.7,23-16,47.9,13.2,61.9,9.1,4.4,19.1,5.9,29.1,6.4,34.7,1.7,45.9-20.4,42.7-51.9-.7-7.2-5.3-12.7-11.6-16.7-21.2-13.3-43.3-17.3-68.1-6.8,2.5-5.6,4.4-10.1,7-15.8ZM1211.2,1508.6c7.2,26.6,14.1,52.2,21.1,78.1,7.5-1.6,13.9-3,21.2-4.5-4.9-16-9.6-31-14.2-45.9.8-.3,1.6-.6,2.4-.8,7.4,11,14.8,21.9,22.2,33,5.8,8.7,12.4,1.3,18.7,1.1,5.6-.2,5.7-4.1,5.6-8.5-.2-14.8,0-29.6,0-44.4.7-.1,1.3-.3,1.9-.4,5.1,14.8,10.2,29.6,15.5,45.1,7.2-3.8,13.5-7.2,20-10.6-9.3-23.8-18.4-46.9-27.7-70.5-10.3,2.8-19.5,5.3-29.7,8.1v44.6c-8.7-10.3-15.7-18.6-22.8-26.9-2.6-3-5.1-6-10.1-4.3-7.5,2.5-15.2,4.4-24.1,6.9ZM1656.9,1073.5c-.1.8-.3,1.6-.4,2.3h-45.5c-1.1,11.1-3.5,21-3.1,31.7,20,5.3,39.6,10.6,59.2,15.8,17.3,4.6,19.2,3.1,19.2-15.2,0-.3-.3-.6-.7-1.4-15.2-3.9-30.8-8-46.4-12,0-.5.1-.9.2-1.4,17.2-1,34.3-2.1,51.2-3.1,4-17.2,4.1-17.3-9.4-25.6-10.1-6.2-20.3-12.2-30.4-18.2.2-.5.4-1.1.6-1.6,16.2,3,32.3,6.1,48.1,9,2.5-3.6,1.2-6.7,1.7-9.5,1.8-9.3-2.4-13.1-11.4-14-8.6-.9-17.1-2.9-25.6-4.5-14.9-2.8-29.9-5.6-45.8-8.6-.9,8.9-1.3,16.8-2.6,24.6-.9,5.5.9,8.4,5.7,11.1,11.9,6.6,23.6,13.7,35.3,20.5ZM1510.1,1299.6c11.9,10.3,23.5,20.4,37.1,32.1-11.3-2-19.8-3.3-28.2-4.9q-28-5.5-44.2,16.8c-.3.4-.2,1.2-.4,2.5,18.9,17,38.2,34.2,58.1,52.1,4.8-5.6,9.3-10.8,14.1-16.3-11.6-10.1-22.5-19.6-35.7-31,11.4,1.4,19.8,2.3,28.2,3.6q27.2,4.4,43.6-17.5c.3-.4.3-1.2.5-2.2-19.5-17.1-39.2-34.2-59-51.6-5.2,6-9.4,11-14,16.4ZM1144.6,1607.3c14.8-2.8,28.4-6,42.2-7.9,15.8-2.2,24.9-11.9,30.1-25.7,10.1-26.9-11.1-55.7-39-52.4-16,1.9-31.8,5.5-48,10.5,4.9,25.2,9.8,49.9,14.8,75.5ZM1137.8,1608.5c-10.1-19.1-19.1-36.8-28.6-54.1-11.4-20.8-11.5-20.5-35.4-16.2-5.5,1-8.8,3.2-10.8,8.5-4.6,12.1-9.8,24-14.6,36-5.2,13.1-10.3,26.3-15.8,40.5,6.9-.7,12.5-2,18-1.7,9.7.5,16-2.7,17.2-13.1,1.1-9.2,6.7-13,15.6-12.9,2.6,0,5.4-.2,7.9-.9,4.6-1.3,8.2-.3,9.4,4.4,3.4,12.7,12,13.9,22.9,11.1,3.8-1,7.9-.9,14.1-1.5ZM1413.8,1402.7c14.3,16.4,28.1,32.5,42.3,48.3,6.2,6.9,13.8,6.5,22.1-.5,9.7-8.1,19.2-16.5,28.4-25.1,9.7-9,11.6-18.7,3.4-29.2-12.2-15.7-25.8-30.1-39.9-46.4-6.7,7.7-12.4,14.3-18.5,21.3,10,10.6,20.5,21.7,30.9,32.9,4,4.2,6.6,9.7,2.6,14.3-4.3,4.7-9.9,9.1-17.7,5.5-3.5-1.6-6.1-4-8.6-6.7-9.2-9.9-18.5-19.8-28.2-30.1-6,5.5-11.3,10.4-16.9,15.6ZM546.1,1434.7c11.9-9.1,23.1-17.8,34.7-26.7-7.7-8.6-13.7-17.2-22.3-24.3-4,6.1-15.7,7.6-7.4,18.3-3.5,1.7-4.6,5.6-8.8,5.6-4.1-3-6.5-7.4-9-11.6-6.4-11-4.3-19.4,6.3-26.5,8.3-5.5,18.9-5.1,28.1,1.2,9.4,6.4,16.4,15.2,22.9,24.6,4.8-4,9.1-7.6,13.6-11.4-9.2-16.2-20.6-29.2-37.2-37.1-18.7-8.9-37.3-5.2-50.6,10.2-11.8,13.7-12.1,31.8-.5,48.8,7.8,11.4,18.1,20.3,30.1,28.9ZM1681.9,1133.3c-28.4,0-55.3,0-82.2,0-3.1,0-4.5,1.3-6,4.1-11.3,21.4-11.1,24.8,5.9,41.6,15.2,15.1,30.8,29.9,46.5,45,2.4-5,4.6-10.7,7.7-15.7,3.3-5.3,2.7-9.7-2.2-12.8-11.7-7.4-9.5-16.5-5.4-27.4,3.2-8.3,7.1-11.7,15.9-10.3,3.8.6,8.9,2.5,11.2-3.2,2.7-6.7,5.4-13.4,8.5-21.2ZM663.3,1427.4c-17.3-13.4-33.6-26-48.9-37.8-19.7,19.3-38.6,37.9-58,56.9,17.5,13.9,34.9,27.7,52.2,41.5,5.8-3.4,9.1-8.3,12.9-13.1-10.7-8.3-20.8-16.2-31-24.2,3.2-3.8,5.2-7.2,8.7-9.2,9.3,5.2,16.5,13.4,26,17.8,5.5-3.8,9.3-8.4,13.5-13.5-8.1-6.6-16.1-13-24.4-19.7,1.9-3.4,3.9-6.2,7.9-8,9.7,7.3,19.5,14.7,29.8,22.5,3.9-4.5,7.3-8.4,11.3-13.2ZM1544.3,662c4.4,8.3,8.5,15.9,12.5,23.5,1.3,2.6,3.1,4.1,6.2,4.1,28.5,0,57.1,0,85.9,0-.3-5.1-3.9-7.8-5-11.6-2.6-8.3-8-11.8-16.5-9.9-11,2.4-17.5-2.6-21.7-12.2-1.6-3.6-3.8-6.8-5.5-9.9,4.7-8,15.8-12.3,15.6-20.4-.1-7.7-7-15.2-10.8-22.4-20.4,19.8-40.1,38.9-60.7,58.9ZM913.3,1595.5c-13.3-2.6-25.8-5.1-37.9-7.5,1.2-10.8,5.7-13.6,15.1-11.2,7.1,1.8,14.6,4,22.2,2.6,1.7-15.3,1.7-15.1-11.8-18-5.7-1.2-11.9-1.3-17.1-4.9.1-4.4,0-8.7,3.1-12.8,12,.5,23.8,4.5,36.1,3.8,1.3-4.6,3.5-8.4,2.6-13.6-20.3-4.7-40.9-8.9-62.3-11.7-6,26.3-11.8,51.8-17.8,77.8,21.7,4.1,42.1,8,62.4,11.9,3.4-5.1,4.1-10,5.3-16.3ZM1575.5,717.5c.9,17.2,5.9,32.8,18.1,45.2,15.1,15.3,47,15.8,62.1,1.1,14-13.5,14.6-29.9,8-47-8.6-21.8-8.2-20.5-31.8-17.6,2.9,5.7,6,11.1,8.4,16.8,5.2,12,2.6,20.8-7.4,26.6-9.7,5.6-25.1,3-31.7-5-6.2-7.4-6.7-17-10.6-25.7-5.1,1.9-9.7,3.6-15.1,5.6ZM1594,1198.1c-6.7-2.6-11.8-5.7-17.6-6.3-7.9,9.1-13,19.2-16.4,30-4.1,13.1-5.4,26,3.9,38,17.5,22.6,49.2,23.1,66.7.8,2.9-3.7,5.6-7.5,7.6-11.7,9.1-18.8,9.8-18-9.7-29.9-3.2,9.1-5,18.7-12.7,25.4-7.2,6.2-18,8.1-26,3.8-7.8-4.1-11.5-13.1-9.1-23.2,2.3-9.8,5.4-19.2,13.4-27.1ZM1649.4,778.4c-5.6,1.3-11.6,1.3-17.1,4.5,1.4,9,2.8,17.7,4.1,26.6-4,1.8-7.5,2.5-11.9,2.4-2.6-10.7-5.2-21.6-7.8-32.7-6.2,0-11.3,1.7-16.8,4.1,4.4,19.4,8.8,38.4,13.3,58.2,27.4-5.5,53.9-10.9,81-16.3-2.3-9.1-2.3-17.4-6.4-25.1-11.1,1.7-21.8,3.4-32.9,5.1-4-8.6-.9-18.2-5.5-26.8ZM1673.5,986.8c0-6.8.4-12.5,0-18.1-1-11.9-9.1-18.1-23.9-18.9-12.1-.6-24.1,6.8-24.8,17.1-1,15.2-.2,30.4-.2,46.3,25.9,1.3,50.9,2.5,76.4,3.8,0-8.7,1.4-15.8-1.6-24.7-16.4,0-33.1,0-49.7,0-4.6,0-8.7-.1-8.8-6.5-.1-5.6,1.5-10.1,7.1-11.7,5.5-1.6,7.5,2.8,9.6,6.7,1.1,2,.4,4.8,2.7,6,4.4,0,8.6,0,13.3,0ZM700.5,1473.3c2.8-4.9,5.4-9.4,8.3-14.3-8-6.5-15-13.2-23-18.4-8.3-5.4-17.5-3.7-25.4,1.4-7.8,5-9.8,13.2-8.2,22,1.2,6.5,3.3,12.9,5.3,19.2,1.2,4,2.4,8-2.3,10.4-4.3,2.1-7.5-.2-10.5-3.4-4.2-4.6-8.6-9-14.3-15-.9,8.5-10.3,14.4-4.9,20.7,7.5,8.6,15.8,17.2,26.5,22.4,7.1,3.5,14.7,5.4,21.6-.2,7-5.7,9.5-13.3,7.4-22.3-1.8-7.8-3.6-15.6-5.1-23.4-.7-3.4,0-6.7,3.2-8.8,3.2-2,5.6,0,8.2,1.6,4.2,2.6,8.4,5.2,13.2,8.1ZM983,1558.9c2-17.1-.1-20.2-16.1-23.4-2.6-.5-5.3-1-7.9-1.1-18.3-.5-31.6,14.9-26.6,30.9,2.2,7.2,9.1,10.3,13.6,15.6,4.1,4.7,8.8,9,7.6,16.3-10.2,3.6-19.7-.5-29.2-2.5-3.2,17.1-2.4,18.2,13.2,20.8,8.3,1.4,16.4,2,24.7,0,18.3-4.6,23.3-20.4,10.8-34.7-5.2-6-11.4-11.2-14.9-18.6-3.2-6.6-1.2-9.1,6-9.1,6.9,0,12.7,2.9,18.8,5.8ZM1607.1,1299.6c-22.6-14.9-44.3-29.3-66.6-44-4.4,8.3-8.1,15.1-11.9,22.3,21.2,14.7,41.7,28.8,62.7,43.3,5.2-7.1,10-13.7,15.8-21.6ZM1044.7,1544.4c-17.2-3.4-17.9-2.9-25.3,10.3-8.7,15.3-17.7,30.5-26.5,45.7-8,13.9-15.9,27.9-23.9,41.8,14.1,4.2,22-.7,27.7-12.8,6.5-13.8,14.9-26.7,22.4-40,8.5-14.9,16.9-29.8,25.6-45ZM1663.6,905.6c9.2-.2,16.9-7.7,16.7-16.2-.2-8.6-9.2-17.4-17.5-17.3-8.3.1-16.8,9.3-16.6,18.1.1,8.3,8.4,15.6,17.5,15.4ZM1395.6,1477.7c0-8.9-8.5-16.7-18.6-17-7.2-.2-13.9,7.2-13.8,15.3,0,9,7.3,16.5,16.2,16.9,8.9.3,16.2-6.5,16.2-15.2ZM842.4,1493.1c-2-2.8-5.3-3.8-7.3-3.3-6.7,1.7-10.8-.9-15.7-5.3-5.5-4.9-11.5-2.7-15.6,4.1,3.3,2.6,6.1,4.5,10,4.8,3.9.3,6.2,3.2,8.7,5.9,8.4,9.1,15.9,6.8,19.9-6.2Z"/>
  <path class="st2" d="M1543.6,453c-51.6-5.5-101.8.8-151.9,21,6.8-19.4,12.9-37.3,16.6-56,3.7-19,4.9-38.1,3.9-57.3-59.7-9.5-160.1,24.8-227.6,108.4-34.4-9.5-69.9-14.6-105.6-17.9-34.2-3.1-68.5-3.1-102.7.6-51.7,5.6-102.3,16.2-150.8,35.5-18.5,7.4-36.8,15.4-53.8,25.8-35.6,21.9-72.1,42.3-102.8,71.5-29.5,28.2-55.5,59.1-77.8,93.2-28.8,44.2-51.9,91.2-69,141.1-2.9,8.5-5.2,17.2-7.3,26.8-24.5-77.2-63.2-142-145.2-169.4,8.2-16,15.8-32.3,24.8-47.8,41.6-72.3,87.5-140.1,152.8-195.2,100.9-85.1,214-140.9,343.1-165.5,90.2-17.2,180.8-18,271.4-4.4,76.9,11.6,150.1,35.8,219.7,70.5,60.9,30.3,112.6,73.1,162,119ZM562.4,609.6c-3,1.2-5-1.1-7.3-2.1-21.3-9.3-42.6-18.6-63.7-28.2-4.4-2-7.2-2-10.1,2-3.9,5.3-8,10.3-12.2,15.7,16.7,17.3,32.6,33.7,48.3,50.4,2.1,2.2,6.4,3.6,5,8.1-1.6.1-3.2.2-4.8.3-6.5.4-10,3.7-8.6,10.3,1.2,5.4,4.9,8.7,10.8,7.9,7-1,8.1-5.6,6.6-11.7-.4-1.5-2.8-3.3,0-5,2.9,2.5,5.4,3,8.1-.7,3.2-4.4,6.9-8.5,10.3-12.6-2.2-4.6-7.8-5.9-8.7-10.9,1.3-2.8,2.7-5.3,5.9-6.8,4.4,1.7,8.9,3.4,13.7,5.2,4.6-5.9,8.9-11.5,12.6-16.3-.9-4.1-5.4-2.4-5.9-5.7,10-.9,14.3-6.1,11.9-16.2,4.2-1,3.7,5,7.6,4.8,4.8-4.5,9.8-9.3,15.2-14.3-2.8-3.8-5.4-7.2-7.8-10.5,1.4-3.6,3.7-5.7,7-7.6,4.2,2.4,8.4,4.9,10.2,5.9,6.6-5.4,12.3-10,18.2-14.8-21.8-13-42.9-25.5-64-38-15.4-9.2-15.2-9-27.7,3.6-5,5-4.5,8.1-.4,13.2,12,15,23.5,30.5,34.9,46,1.6,2.1,6.2,3.8,3,7.9-4.2,1.9-10.5-1.3-13,4.7-2.7,6.2,1.2,10.5,5.2,14.6.1.1,0,.6,0,.9ZM718.5,480.5c10.7-6.4,21-11.9,30.5-18.4,8.2-5.5,10-13.6,5.5-21.8-8.2-14.8-16.4-29.7-25.4-44.1-4.5-7.2-11.4-13.6-20.8-8.9-12,6.1-23.4,13.6-35.4,20.6,15.5,24.6,30.3,48.2,45.6,72.5ZM1187.8,416.3c12.1.2,22.2-7,25.8-19.6,3.8-13.1,7.1-26.4,10.1-39.7,2.1-9.6-1.2-17.7-9.4-23.5-17.3-12-37.5-5.3-43.7,15.1-3.4,11.1-5.8,22.5-8.5,33.9-4.5,18.5,7,33.5,25.8,33.8ZM816.9,364.4c1.3,10.6,5.8,22.8,8.7,35.4,1.1,4.8,1.7,9.7,5.4,13.6,8.2,9,21.4,11.8,32.7,6.5,11.4-5.4,17.3-17.5,14.5-30.9-2.5-11.7-5.4-23.2-8.5-34.8-4.2-16.1-13.6-22.6-29-20.4-14.8,2.1-23.8,12.8-23.8,30.6ZM1090.3,353.2c2.7-5.1,5.8-9.5,7.6-14.4,3.6-10-1.7-24.5-9.5-25.4-12.4-1.4-25-2.7-38.2-1.3-1.4,27.6-2.7,54.7-4.1,82.3,10.9,1.2,20.8,2.3,30.6,3.5,9.9,1.2,16.6-3,19.7-12.4,4-12.1,1.6-22.9-6.1-32.3ZM1006,311.9c-7.8.5-14.6-1.4-19.3.2,0,22.4-.7,43.7.2,64.9.6,14.2,11,21.9,27,22.2,13.4.3,22.7-5.9,23.2-18.1.9-22.8.3-45.7.3-69h-18.2c0,3.8,0,7.4,0,11-.2,15.6-.4,31.3-.6,46.9,0,4.3-1.6,8.7-6.3,8.7-4.5,0-6.2-4.4-6.3-8.7,0-2.7,0-5.3,0-8,0-16.3,0-32.5,0-50.1ZM872.5,326.5c4.6,21.3,9,41.4,13.3,61.5,1,4.7,3.2,8.8,6.3,12.3,6.9,7.9,20.7,9.8,32.5,4.7,9.7-4.2,12.7-10,11.5-22.8-.5-5.3-1.5-10.5-2.2-15.8-2.3-16.3-4.7-32.6-7-48.9-7.3-.4-13,1-18.9,2.8.2,2.6.2,4.9.6,7.2,2.5,16.5,5.1,32.9,7.6,49.4.7,4.5.5,9.8-4.9,10.3-4.8.4-7.2-4.1-7.5-8.9-.1-1.3-.2-2.7-.4-4-2.9-16.9-5.8-33.8-8.7-51.2-7.8,1.2-14.3,2.2-22.1,3.4ZM1149.4,404.5c1-6.9,2.4-13,2.6-19.3.4-13.7-1.4-27,8.5-39.6,7.2-9.2,0-27.2-9.6-28.2-12.4-1.2-24.9-.3-37.8-.3-2.7,28-8.1,54.3-8.8,81.2,5.4,1,9.6,1.3,14.6.1.9-8.1,1.9-16.3,2.8-24.5.3-3.2,1-6.1,5-6.2,4.1,0,6,2.7,6.2,6.4.2,4.3,0,8.6,0,13q.2,15,16.6,17.5ZM423.2,678.4c23.1,18.3,45.9,36.3,69,54.5,4.5-6.8,8.2-12.6,12-18.5-3.8-3.2-7.2-6.2-10.3-8.9,3.4-14.6,12.6-4.7,19.5-5.3,3.5-6.1,7.1-12.3,10.9-19-22.8-6.7-45.1-13.1-67.3-19.6q-22.9-6.8-33.8,16.8ZM664.2,494.1c7.5,4.4,13.8,8,20.2,11.7,5.6-4.7,10.8-9.1,16.6-14.1-13.5-7.9-26-15.6-38.8-22.4-5.3-2.8-7.6-6.6-8.9-12.1-2.5-11.1-5.8-22-9-34-7.1,5.8-12.7,10.4-18.1,14.9,2,5.5,3.7,10.2,6.7,18.4-14.9-10.3-25.2-7.9-33.1,5.3,10.2,5,20.2,10.3,30.5,14.7,5.2,2.2,7.7,5.5,9.3,10.6,4.1,13.3,8.5,26.5,12.9,39.9,15.8-8.1,16.1-9.2,11.8-32.8ZM769.3,359.7c-12.8,6.5-24.6,12.4-36.7,18.5,11.5,24.2,22.8,47.8,34.5,72.4,13.7-6.1,26.5-11.8,39.6-17.5-2.5-4.8-3-9.3-7-12-7.3.7-13,6.5-20.5,6.9-2-4.5-4.8-8.3-5-13,4-4.2,10.6-2.3,14.5-6.8-1.1-5.8-2-11.5-5.9-16.7-6,2.2-11.5,4.2-17.3,6.3-3.5-4.7-6.8-9.1-7-15.3,6.2-2.9,12-5.6,18.3-8.5-2.6-5.1-4.7-9.2-7.4-14.3ZM970.9,398.4v-64.3c2.2-.4,4.9-.9,8-1.4,0-6.7,1-12.9-1-19.5-15,.5-29.8.3-45.1,2.8.7,6.1-1,11.6,1,16.7,4.2,1.9,8.5-.6,12.5,2.5,1.8,20.7,3.6,41.8,5.4,63.1,7,0,13.1,0,19.1,0ZM622.2,530.1c-5,.3-8.3,2.3-8.2,8.4.1,6.1,3.5,9.5,8.8,9.9,4.6.3,9.5-1.7,9.2-7.8-.3-5.8-3-10.1-9.8-10.4Z"/>
  <path class="st2" d="M189.1,846.7c16.4,2.2,32.3,4.3,47.1,11.4,14.2,6.8,27.3,15.4,41.3,22.8-18.4-39.6-48.9-66.1-87.4-85-38.9-19.2-80.4-19.8-124.1-18.3,41.9-36.5,87.2-62,139.6-73.8,52.1-11.7,100.3-.6,146,25.6,10.8,6.2,20.9,13.9,34,17.3-6.9-22.8-22.3-40.7-35.5-61,28.3,4.1,51,17.7,70.9,35.8,28.9,26.2,45.8,59.8,58,96.5,7.5,22.5,15.1,45,19.8,68.1,5.2,25.3,12.2,50.4,14,76.4.5,7.4,3.4,14.7,5.4,22,10.1,37.8,17.2,76.4,30.2,113.3,10.6,30.2,23.2,59.7,40.9,86.6,23.4,35.7,56.7,58.8,96.7,72.7,1.2.4,2.8.3,3.8,1,2.9,1.9,8,1.4,8.2,6,.2,4.1-3.6,6.1-6.6,8.2-25.7,17.3-54.3,27-84.8,30.8-27.4,3.4-54.9,4.7-82.1-1.7-51.1-12.1-93.4-38.1-126.1-79.7-37.8-48.1-57.1-104.7-76-161.5-21.4-64.3-48.4-125.6-94.1-176.7-11.9-13.3-26-24.6-39.1-36.8Z"/>
  <path class="st3" d="M1543.6,453c-49.4-45.9-101.2-88.6-162-118.9-69.6-34.7-142.8-59-219.7-70.5-90.6-13.6-181.2-12.8-271.4,4.4-129.1,24.6-242.2,80.4-343.1,165.5-65.3,55.1-111.2,122.9-152.8,195.2-9,15.5-16.6,31.9-24.8,47.8-8.9-2.3-17.8-4.6-27.1-7,14.5-41.9,38.6-77.8,63.3-113.3,26.4-37.7,56.3-72.5,88.4-105.5,41.6-42.7,88.3-78.6,139.6-108.9,33.2-19.5,67-37.8,102.3-53.2,41.2-18,83.8-30.9,127.7-40.7,61.1-13.7,122.5-21.7,185-19.9,109.5,3.1,214.7,25.6,314.4,72.1,122.5,57,221.7,141.6,299.9,251.4,35.9,50.4,67.7,103,87.7,161.9,17.1,50.3,29.1,101.7,35.6,154.5,4.1,33.1,6.5,66.3,7.1,99.5.9,50.7-5.8,100.6-16.8,150.1-12.4,56.2-31.4,109.7-56.1,161.6-33.3,69.9-79.2,130.4-134,184.5-33.4,33-67.3,65.6-106.6,91.6-72,47.8-149.2,85-232.1,109.8-74.7,22.3-151.2,29.8-228.9,27.2-61.7-2.1-122.7-9.4-182.7-24-69.6-17-133.5-47.6-195.1-83.3-49-28.4-95.3-60.7-136.3-100-49.2-47.2-91.2-100.3-126.2-158.8-39.6-66.1-67.8-136.9-84-212.2-6.2-28.6-9.6-57.7-9.6-87.3,18.7,43.8,33.9,89,54.6,131.8-.6,2.3-.5,4.3,2.3,5.1v-.2c-1.2,2.4-.5,4.2,2,5.1,0,0-.2,0-.2,0-1.1,8.3,3.1,15.5,5.6,22.9,23.2,66.9,55.1,129.2,99.2,184.8,55.6,70,121.4,128.7,198.1,174.9,50.9,30.7,103.8,57.1,160.7,74.9,67.4,21.1,136,34.7,207.2,33.4,49.3-.9,98.5.9,147.5-7.9,89.6-16.1,175.2-42.9,252.6-91.7,48.1-30.4,95.2-62.6,137.2-101.3,30.2-27.9,55.9-59.9,79.1-93.8,35.8-52.4,66.2-107.9,88.2-167.4,27.4-73.7,44.5-149.7,43.1-229-.7-41.6,2.7-83.4-6.1-124.5-14.6-67.8-27.9-136-61.5-198.1-28.7-53.1-63.9-101.3-104.3-145.9-3.8-4.2-7.5-8.5-11.2-12.7,4.7-24.3,2.4-27.8-21.9-31.9-4.5-.8-9.1-1.5-13.7-2.2Z"/>
  <path class="st2" d="M1219,653.8c-13.2-.2-24.6,4.7-34.7,12.2.2,3.6,2.2,4.2,3.5,4.5,38.7,9.8,68.4,34.2,97.6,59.5,14.4,12.5,26.5,27.2,38.2,42.1,17.2,22.1,35.7,42.9,56.3,61.9,4.1,3.8,8.8,7.1,12.2,11.7-37-5.9-69.4-22.5-102.1-38-25.4-12-50.3-25-78.5-29.3-11.1-1.7-22.6-3.3-33.4,3.2,24.3,5.5,49.7,7.5,69.3,26.6-7.2,7.7-14.6,14.9-21.1,22.7-10,12.1-16.3,26.5-24.5,39.7-12.2,19.4-24.1,39.1-45,50.9-5,2.8-10.1,4.7-16.5,5.3.9-19.1-3.4-36.7-9.3-54.5-8.6-26.1-25.9-44.8-45.8-62.4-20.8-18.3-45.9-30.5-67-48.3-23-19.5-38.7-42.4-38.2-74.1.1-7.2,2-12.9,7.3-17.7,32.1-29.3,67-54.5,105.7-74.5,19.2-9.9,39.1-18.2,59.9-24.9,1.9,1.8,1.7,5.6,7.7,7.1,4.7-38,17.2-73.1,40.5-104,23.6-31.3,52.2-56.7,86.4-75.9,34-19.2,70.5-27.6,110-26.4-3,46.6-18.5,88.4-37.6,129.4-13.2,28.3-33,51.8-51.5,76.4-2.7,3.5-5.4,2.5-7.7,2.1-23.1-4.7-45.7.8-68.5,2.3-3.8.2-7.2,1.1-9.4,4.8,1.6,4,5.3,4.3,8.8,5.3,25,7.7,50.8,13.7,69,34.9,4.1,4.8,8,9.5,10.2,17.6-13.4-7.6-25.2-14.3-38-21.6-2.4,16.4,4.5,28.5,13.1,41-13.9-3.1-26.8-8.6-41-5.1,47.1,4.6,83.5,33.1,124.4,54.3-2.1-7.7-10.4-8.8-13.4-14.4,24-5.2,44.3-19.3,43.5-30.3-6.3-2.2-13.1-1-19.7-1.9-24.6-3.5-37.9-18.9-45.3-41-5.2-15.4-8.9-31.3-19.6-44.2-.3-.3.6-1.6,1.3-3.5,34.9,34.5,72.3,64.8,114.9,88.4-5.1,11.5-13.9,18.3-26.6,20.6-.9,4.5,2.7,6.5,5.1,9.1,18.1,19.6,41.1,32.2,64.5,44.1,12.9,6.5,13.6,9.9,2.8,19.9-7.9,7.4-13.5,16.3-19.4,25.4-8-8.3-12.9-19.4-24.8-23.5,7.1,11,14.7,21.5,20.6,33.1,6.7,13,12.3,26.3,17.5,40,3.4,8.9.7,12-8,12.9-39.7,4-72.7-9.6-100.7-37.1-21.6-21.3-38.6-46.5-58.2-69.5-26.7-31.3-55.8-59.7-95.7-76.3,4.2-2.9,8-5.5,11.8-8.2-.3-.9-.7-1.7-1-2.5ZM1090.2,723.3v-.2c.7,4.8-3.9,6.3-6.1,9.1-4.2,5.1-9.1,9.6-11.1,17.3,15.5-1.4,30.1-6.2,46.4-6.1-9.1,10.3-22.7,9.7-30.4,19.3,16.6-1.9,33.2-3.8,50.6-5.8-4.9-4.5-10.9-2.9-16.5-4.2,4.2-7.6,13-9.4,18-17.4h-46.9c13-16.6,31.2-24.4,48.4-36.6-11.7-3-19.1,4-28.2,4.1,5.3-6.6,10.1-12.5,16.2-20h-29c7.3-9.7,18.1-13.3,25.7-21.2-19.1,6.3-38,12.9-52.2,32.1h29c-7.5,10.2-15.8,18.3-21.9,29.2,3.6.2,5.9.3,8.1.4ZM1279.2,532c2.8,6.3-1.7,13.6,3.5,18.8,4.2-1,6.4-5.2,10.6-4.9.8,6.1-2.1,11.9,0,18.5,2.5-1.3,4.3-2,5.9-3.1,17.1-12.1,29.5-28.6,41.4-45.3,27.8-38.8,44.4-82.2,52.4-129.2,1.3-7.5-2.3-8.4-7.7-6.9-5.7,1.5-11.3,3.6-16.7,6.1-76.3,36.1-131,93.5-165.6,170.1-3.4,7.6-6.8,15.6-6.4,25.4,24.6-8.3,39.2-29.2,58.8-43,2.4,5.3-3.3,10,.5,15.6,10.8-4,14.4-15.9,23.3-22.1ZM1193.1,638h-36.6c11-7.2,23.8-5.6,36.4-9.9-18.2-6-52.3,1.4-62.5,13.2,10.4,5.8,21.7-3.2,31.9,1.8-2.2,6.3-10.5,5.5-12.7,11.7,10.3.6,33.6-7.2,43.6-16.8Z"/>
  <path class="st3" d="M561.2,1085.7c-8.1-14.2-10.9-30.2-14.5-45.9-9-39.1-16-78.7-21.7-118.5-1.8-12.7,2.7-25.6,5.2-38.3,15.2-74.6,41.5-144.9,88.3-205.6,67.8-88,155.2-149.8,260.5-184.4,57-18.7,116.7-21.4,176.6-18.6,34.6,1.6,68.9,5.7,102.8,12.8,3.6.7,7.1,1.6,11.1,2.5-8.4,19.7-19.3,34.1-43.2,36.1-25.6,2-51.5,5.1-75.6,15.4-3.6,1.5-7.2,3-12.8,5.3,8.2,1.3,14.2,2.7,19.4,9.5-34,15.5-71.4,24.9-97.8,57.3,14.9-4.8,27.3-10.6,40.7-3.4,0,7.8-6.6,7.8-11.1,9-25.5,7-51.2,13.7-76.8,20.4-1.6.4-3.3.6-4.6,3.4,12,10.3,26.7,12.3,44,12.8-18.8,17.4-35.9,34-53.9,49.5-5.9,5.1-13.9,0-20.8-.8-51.6-6.9-101.9-5.7-148.5,21.5-41.7,24.3-66.2,61-76.3,107.9-1.2,5.7-1.5,11.5-7,15.8-32.7,25.9-51.5,61-64.9,99.5-13.2,37.8-18.2,76.8-16.2,116.8.3,6.5,0,13,0,19.5-.9.2-1.9.4-2.9.6Z"/>
  <path class="st3" d="M1096.6,1025.9c-7.9-7.1-12.4-15.5-16-24.3-2.2-5.2-4.1-7.7-10.7-6.8-19.4,2.5-38.4,6.3-57.2,11.3-21.7,5.8-35.5,22.3-51.7,35.8-14.5,12.1-23.7,28.6-36.2,42.2-4.8,5.3-8.7,5.7-14.3,2-16.8-11.1-30.6-25.5-45.1-39.2-4.1-3.9-7.9-8.3-12.5-11.4-5.4-3.6-5-7.3-1.9-11.7,2.8-4.1,6.2-7.8,9.1-11.9,17.6-25.4,14.2-52.6,6.8-80.1-1.8-6.5-4.7-12.7-8.3-19-2.3,24.9,2.3,50.7-12.5,74.7-5.2-18-18.8-22.8-33.9-24.3-10.6-1-21.3-.1-32-.2-4.7,0-8.6-.6-10.5-6.6-6.6-20.6-12.9-24.3-35.3-25.5-43.6-2.3-79.6,16.1-113.4,40.7-8.3,6.1-15.7,13.2-22.8,20.9-5.7-16.4,10.6-59.8,28.9-86,17.8-25.6,39.7-47.1,71.4-60-10-5.2-19-4-28.2-6.1,8-47.7,35.4-80.2,76.7-102.6,23.1-12.5,48.2-18.3,74-20.1,21-1.5,41,4.8,61,10.2,5.2,1.4,5,6.9,5.9,10.7,4.7,21.1,12.3,40.8,23.7,59.4,10.9,18,22.8,35.2,36.4,50.9,23.6,27,48.6,52.8,75.2,77.8,7.3-5.3,13.5-11.7,21-16.5,5.3-3.4,9-3,12.8,1.6,12.8,15.3,26.7,29.7,37.9,46.2,11,16.3,15.3,33.5,7.5,52.5-2,4.7-3.5,9.6-5.5,15.2Z"/>
  <path class="st3" d="M1319.2,1124.7c6.2-37-4.7-63.2-40.3-77,17.3-20.9,28.9-43.2,25.2-70.5-3.7-27.5-22-45.2-42.6-61.1,1-5.5,4.7-8.7,7.8-11.8,12.6-13,6.7-28.8-3.6-37.6-10.3-8.9-20.5-18-31.2-27.4,6.4-14.4,17.4-23.3,30.5-30.3,4.7-2.5,7.6,1.2,10.8,2.9,31.3,16.6,62.6,33.1,97.2,41.8,30.5,7.7,61.2,13.6,91.3-1.8,8-4.1,16.1-6.5,25.3-7.1,10.4-.6,19-6.9,27.8-12.3,65.6,194.9-26.8,512.3-358.8,597.9-6.5-14.7-13.3-29.4-22.4-42.9-9.1-13.3-20.2-24.6-32.9-34.5,19.8-33.7,49.8-60.4,63.4-98.1,23,48.5,63.3,66.1,114.2,64.6,8.7-.2,17.5.6,25.9-.9,21.1-3.8,38.8-14.8,47.5-34.2,8.4-18.7,21.7-33.1,34.4-48.2,14.2-17,25.1-35.7,32.8-56.3,4-10.7,10.5-17.9,21.6-21.5,10.4-3.4,20-8.8,29.2-14.8,17.6-11.5,27.2-27.2,27.8-48.8.7-25.3-.6-50.6-1.5-75.8-.3-10.7-10.4-15.7-19.1-19.9-7.9-3.8-12.3-9.4-14.4-17.7-6.4-25.2-27.4-33.3-48.2-17.2-19.6,15.2-40,27.7-63.7,35.5-18.1,6-22.8,17.7-19.1,36.9,2.4,12.4,4.3,24.8.7,37.5-1.3,4.6,1.5,9.7,3.8,14.1,4.2,8,9.9,14.9,16.4,22.9-11.8,4.4-23.1,8.6-35.9,13.4Z"/>
  <path class="st3" d="M695.7,1200.2c8.7,1.4,17.3-7.5,24.5,2.7-5.6,7.9-11.2,15.7-17.1,24-9.3-7.3-18.7-14.9-28.4-22.2-18.7-13.9-40.5-19.3-63.1-21-8-.6-11-3.9-13.3-10.1-5.9-15.8-9.3-32.3-11.5-49-3.6-28.2-3-55.9,6.9-83.4,19.7-54.4,59.2-84.3,114.5-95.8,12.4-2.6,24.9-3.2,37.5-2,7.7.7,13.4,2.9,14.8,11.6,1.8,11.1,9.3,14.8,19.7,14.5,9-.2,18,0,27-.1,4.3,0,8.5.5,12.7,1.9,17.2,5.9,20.7,16.3,10.1,30.9-2.1,2.9-4.3,5.9-5.7,7.8-14.5-5.1-8.4-13.1-5.8-20.6-18.9-1.8-35.8,2.8-50.4,13-28.7,20.2-54.4,43.7-72.7,74.3-11.9,19.9-19.7,40.8-19.8,64.5-.1,22.7,9,41.5,20.1,59.1Z"/>
  <path class="st3" d="M1242.8,972.9c-9,49.5-38,86.7-70.7,124.2-4.6-8.6-1.9-15.2-1.9-21.5,0-5.7-.4-10.6-6.1-13.4-13.8-6.8-9.4-20.6-11.8-31.6-6.9-31.6,10.1-54.5,28.8-76.6,9.2-10.9,20.4-19.9,29.1-31.4,12.9,4.5,22.2,12.2,29.8,25.8.9-13.4,6.9-20.7,14.5-27,35.3,26.2,35.4,50,27.9,88-1.1,5.5-3,10.8-4.5,16.2-4.5,15.5-5.9,16.8-21.5,20.6.7,4.4,4.8,4,7.6,5.1,29.6,11.9,45.3,34.3,44.2,62.8-.3,8.6-3.3,13.6-12.1,17.7-14.6,6.7-28.6,9.4-44.8,7.6-37.3-4.1-68.6,8-92.7,41.8,0-19.4,0-36.2,0-52.9,0-4.6,3.8-5.1,6.5-6.5,41.7-21.9,67.1-55.9,76.4-102,3.1-15.5,4.2-31.1,1.4-46.9Z"/>
  <path class="st3" d="M1125.7,929.1c-5.8-4.2-7.3-10.9-9.2-16.9-3.6-11.3-8.1-22.1-14.2-32.3-11.3-19-26.3-21.1-41.9-5.8-11.2,11-20.2,23.8-29.8,36.1-2.4,3.1-4.8,6.3-7.6,9.9-12.8-10.2-23.1-22.3-34-33.9-19.6-20.8-40.5-40.4-56.3-64.5-11.5-17.7-17.9-37.3-22.3-57.6-1.6-7.4-2.6-15-3.4-22.5-1.2-12.4-.7-24.5,8.7-34.3,14.5-15.1,26.2-32.6,40.5-47.9,12.5-13.3,26.9-14.9,45-12.9-7.5,7-13.2,13.4-19.9,18.4-12.9,9.7-15.2,22.7-13.3,37.3,2.9,22.8,12.6,41.8,29.4,58,22.5,21.7,50.4,35.5,75.2,53.8,8,5.9,15.8,12.2,23.6,18.4,30.9,24.9,33.5,59.1,31,94.9,0,.6-.8,1-1.5,1.9Z"/>
  <path class="st2" d="M1147.3,1139.2c1.6,22.4,3.7,44.7,4.7,67.1.5,11.3,1,22.6,2.2,33.8,2.2,21-10.5,36.4-20.8,52.3-14.8,22.8-31.6,44.3-45.2,67.9-3.6,6.3-5.4,6.7-8,2.3-16.4-28.3-36.9-54.5-46.7-86.4-3.2-10.6-1.1-21.1,1.2-31.5.9-4,4.3-5.6,7.7-7.1,11.2-4.8,22.1-10.8,33.7-14.3,16.6-5,22.3-19.9,31.9-31.4,14.1-16.9,29.3-32.8,39.2-52.9Z"/>
  <path class="st2" d="M1409.4,647c12.5-8,24.5-16.5,36.5-25,37.8-26.8,69.9-59.1,94.8-98.3,8.7-13.8,14.7-28.5,15.8-45.1-73.4,3.3-135.8,15.3-195.6,132.4-13.6-9.6-23.9-22-32-36.4-2.4-4.3-2.8-7.8,1.1-12.3,15.4-17.9,29.4-37,42.9-56.4,5-7.2,12.4-11,20.2-14.1,30.5-12.3,61.3-23.6,94.2-27.7,24.3-3,48.4-.8,72,5.8,6,1.6,5.1,5.6,4.2,10.1-6.2,31-21.8,57.4-40.4,82.3-19,25.5-41,48.1-66.2,67.5-12,9.2-25.9,14.7-40.2,19.1-2.1.6-4.5,1.5-7.2-1.9Z"/>
  <path class="st3" d="M1259.4,1147.8c-2.9,5.3-6.8,7.8-10.3,10.6-32.7,25.8-40.3,60.2-32.4,98.9,4.3,20.9,32.4,40.3,53.9,42.5,27,2.8,46.7-8.8,64-27.3,5.6-6,11.9-11.2,18.8-16.2,2.1,17.5-18.7,44.2-40,52.8-35,14.2-108,.9-133.8-43.2-22.8-39-2.7-102.6,43.8-114.2,11.4-2.9,23.2-4,36.2-4Z"/>
  <path class="st2" d="M1260.7,1235.3c20.9-.5,37.5-9.1,56-13.2-3.5,9.2-10.3,15.4-16.5,21.9-6.1,6.4-13,12.2-18.6,19.6,24.8,5.1,43.9-7.7,64.2-17.4,1.6,6.3-2.8,10.2-6,14-9.5,11.2-20,21.5-32.8,28.9-13.8,8-29,8.5-43.1,2-27.9-12.8-43-37.7-44.3-66.2-1.5-32,23.5-62.1,64-57-7.2,9.9-19.7,13.5-26.7,24.3,14,3.8,27.5-2.8,42.1,1.2-10.7,15.1-28.4,23.6-38.5,41.9Z"/>
  <path class="st3" d="M984.9,1245.3c-13.2,13.7-28.5,20.9-45.4,21.6-36,1.6-71.9-2.4-105.3-16.4-16.4-6.9-33.8-15-43.4-32.3-.6-1.1-.8-2.4-1.5-4.7,12.2.7,23.9.9,35.4,2.1,36,3.7,72.3,3.6,108,10,18.1,3.3,34,11.9,52.2,19.7Z"/>
  <path class="st2" d="M1150.1,1051.2c-13.8-1.8-26.5-2.2-37.8-10.1-6.8-4.8-9.5-9-6-17.1,7.2-16.7,10.8-34,6.2-52.3-2.5-10-8.2-17.9-14.5-25.7-12.4-15.5-24.8-31.1-37.4-47,21-5.6,32.3-1,41.5,16.9,4.5,8.8,8.5,18,11.6,27.3,1.6,4.8,3.8,6.3,8.4,6.2,7-.2,13.9-.3,20.8,1.8,8.3,2.5,14.6.4,20.1-7.2,6.5-8.8,15.2-15.6,26.6-18,2.9-.6,5.7-1.5,9.2,1-15.1,18.1-32.5,34-43.9,54.9-12.1,22.3-6.9,45.5-4.8,69.2Z"/>
  <path class="st2" d="M705,1071.5c23.5,15.9,46.8,30.8,68.3,48.9-27.3.6-54-8.3-83.5-1.5,23.2,17.2,48.7,26.5,73,41.8-21.9,2.2-41.8-3.9-64.4-.5,17.4,14.2,37.4,21.2,55.6,35-12-.3-21.7,1.2-31.2-5.2-5.2-3.5-12.2-5.3-19-4.6-6.4.7-9.8-2.3-12.4-7.6-13.8-27.6-13.2-55.4-.7-83.1,3.7-8.1,7.9-16.1,14.3-23.2Z"/>
  <path class="st3" d="M1437.1,1018.9c-3.7,2.8-7.2,5.7-11,8.4-4.4,3-6.1,6.7-4.2,11.9,2.2,5.9,1.3,11.9-.8,17.5-1.4,3.7-1.4,7.2-.8,10.8,1.3,7.9,5.8,10.1,12.8,6.1,8.9-5.2,17.7-10.4,27.4-14,.8-.3,1.9,0,5.8.4-10.7,6.7-19.1,12.5-28.1,17.3-8.2,4.4-12.2,8.7-6.9,18.6,3.3,6.2,3.6,14,5.1,20.9,10.2-.2,18.8-6.1,29.8-5-6.7,5.8-14,8.6-21,11.6-5.8,2.5-7.7,6.1-7,12.4,1.7,14.5-2.8,17.9-18,14.2.6-.8,1.1-2.1,1.6-2.1,5.6,0,9.2-2.9,9.8-8,.6-5-2.8-10.1-7.1-10.9-13-2.4-24.7-10.9-39.3-7.7,4.4-7.6,6.3-15.4,6.7-23.7.6-12.7-1.6-15.6-13.8-17.8-11.5-2.1-21.3-6.8-29.6-19.5,10.1,4.9,17.5,9.4,26.1,10.6,12.5,1.7,24.7,2.1,34.4-7.8,9.6-9.8,8.3-20.2-2.6-28.4-11.6-8.7-23.4-17.3-33.8-30.6,7.3,1.2,11.2,4.5,15,7.5,15,11.8,30.5,19.1,49.1,5,.2.9.3,1.8.5,2.7ZM1401.4,1091.2c-2.7,5.3-.5,9.9-1.7,13.8-1.6,5.2-.5,8.7,4.2,10.4,7.2,2.6,13.7,8.8,22.3,5.3.8-.3,1.6-1.3,1.8-2.2,2.3-9.2-.2-17.6-4.4-25.7-3.6-6.9-8.7-1.3-13.1-1.5-2.9-.2-5.9,0-9,0ZM1413.1,1067.4c-5.2,4.1-13.4,4.6-14.9,12.8-.6,3.5,2.5,4.7,5.1,4.8,5.4.2,11.2-.7,14.1-5.6,2.8-4.6.3-8.9-4.3-12.1Z"/>
  <path class="st3" d="M1159.2,927.8c14.3-10.8,28.9-21,41.8-33.4,12.8-12.3,20-28.6,30.3-43.8,12.6,10.9,28.1,17.5,29.4,37.1,1.2,19-9.6,30.6-21.7,42.1-2.4,2.2-4.8,2-7.1-.2-5.1-4.9-11.8-7.3-18.1-11.4,8.4-9.9,17.8-18.9,23.2-33.5-28.3,12.5-46.2,41-77.8,43.1Z"/>
  <path class="st3" d="M762.6,1208.6c-2.8,8.2-9.1,12-14.9,16.2-11.7,8.5-23.3,17.2-36.3,23.5-4.3,2.1-8.7,3.3-13.9,1.2-25.2-10.2-46.9-25.4-68.3-44.2,13.2-2.1,23.9,1.9,34,6.8,13.6,6.6,27.6,12.8,38.5,24,4.5,4.6,8.3,4.4,12-1.1,4.5-6.6,9.8-12.6,13.8-19.4,5.7-9.8,12.7-14.5,24.3-10.4,3.3,1.1,7.1,1.2,11,3.4Z"/>
  <path class="st3" d="M1113.2,1075.6c4.8,19.4,4.1,31.1-3,51,6.9,1.6,14.2,1,22.2,4.7-7.3,3-13.6,5.5-19.7,8.1-3.9,1.6-9,2.9-10,7.3-2.8,12.2-10.7,21.1-18.3,30.2-1,1.2-1.4,2.8-2.1,4.4,4.2,4.2,9.9,1.1,14.1,3.7-.2.7-.3,1.7-.6,1.8-16.4,2.2-25.1,12.1-31.5,26.9-6.9,16-23.5,19.6-39.3,22.9,3.1-2.3,6-4.9,9.3-6.8,15.8-9.4,28.2-21.3,33.2-40,1.4-5.5,6.3-10,9.2-15.2,17.2-30.5,30.3-62.5,36.7-99Z"/>
  <path class="st2" d="M831.9,1053.1c-26.2-8.2-50.5-15.8-76.6-24,16.1-13.3,31.2-24.9,51.1-27.6,5.1,8.8,9.9,17.1,14.7,25.3,4.5,7.8,11.3,14.6,10.8,26.3Z"/>
  <path class="st2" d="M707.4,1068.7c11.8-15.5,25.7-25.8,40.9-36.3,12.7,18.3,28.2,33.4,43.4,51.9-29.6-1.3-55-13.7-84.3-15.6Z"/>
  <path class="st3" d="M937.8,1437.4c-34.6-6.7-67.5-14.8-99.6-27.1,22.5-18.7,72.5-2.5,99.6,27.1Z"/>
  <path class="st3" d="M1025.4,1243.4c-8.9,14.1-5.8,29-4.9,45.5-11.3-7.4-21.6-12.7-33.1-15-5.1-1.1-3.8-5.4-3-7.8,2.9-8.9,6.9-17.2,17.6-19.1,7.4-1.4,14.6-3.8,23.3-3.5Z"/>
  <path class="st3" d="M1422.6,685.7c6.2-3.6,11.6-6.7,17.5-10.1,13.5,16.8,25.4,34.4,37.6,55.3-24.3-10.3-39.6-27.1-55.2-45.2Z"/>
  <path class="st3" d="M1018.3,1032.7c25.8,4.7,50.3,9.1,77.3,13.9-20.8,5.7-39.4,9.2-58.4,5.4-9.1-1.8-14.7-9.2-18.9-19.3Z"/>
  <path class="st3" d="M1276.2,629.6c9.2,5.3,17.3,10,26.2,15.1-5.3,6.4-5.4,13.8-3.9,22.8-13.9-9.6-20-21.9-22.3-37.9Z"/>
  <path class="st3" d="M330.5,702.4c1.5-4.5,2.9-8.6,4.6-13.7,7.8,6,12.6,13.6,18.5,22.1-9.1-.3-15.2-5.2-23.1-8.4Z"/>
  <path class="st3" d="M1179.6,1167.6c1.5.5,2.5,1.8,1.7,2.9-8.4,11.5-14.3,24.1-17.8,38-6.2-18.4,7.7-28.5,16.1-40.9h0Z"/>
  <path class="st3" d="M1136.3,940.9c7.2-4,14-5.7,21.3-4.9-1.1,8.7-6,10-21.3,4.9Z"/>
  <path class="st3" d="M1115.8,927.1c6.3,2.6,7.7,8.8,11.5,13.1-8.7,4.6-9.3,4-11.5-13.1Z"/>
  <path class="st3" d="M1179.6,1167.6h3.6c-1.1,1.6-2.2,4.6-3.5,0h0Z"/>
  <path class="st2" d="M344,1168.5c-2.5-1-3.2-2.7-2.1-5.1,2.4,1,2.4,3,2.1,5.1Z"/>
  <path class="st2" d="M342,1163.6c-2.7-.8-2.8-2.8-2.3-5.1,1.8,1.3,2.7,2.9,2.3,5.1Z"/>
  <path class="st3" d="M777.5,1493.1c-2.5,5.7-4.5,10.2-7,15.8,24.8-10.6,46.9-6.5,68.1,6.8,6.3,3.9,10.9,9.4,11.6,16.7,3.2,31.6-8,53.6-42.7,51.9-10-.5-20-2-29.1-6.4-29.2-14.1-29.9-38.9-13.2-61.9,1.3-1.9,3.2-3.4,5.6-5.9-7.4-3.4-14.1-6.4-21.6-9.9-10.8,17.8-21.4,35-32.2,52.8-8.3-5-16.2-9.8-24.5-14.8,10.4-16.4,20.5-32.4,31.1-49.1-5-4.3-9.7-8.3-14.5-12.4.8-5.3,3.6-9.4,6.8-14.5,20.4,10.3,40.7,20.5,61.8,31.1ZM824.4,1540.7c-.1-10.7-7.7-19.3-17.1-19.4-14.2-.1-26.2,10.6-25.9,23.2.2,10.6,8.6,19.2,18.6,19.1,14.8-.1,24.6-9.3,24.4-22.9Z"/>
  <path class="st3" d="M1211.2,1508.6c8.8-2.5,16.6-4.4,24.1-6.9,5-1.7,7.5,1.3,10.1,4.3,7.1,8.3,14.1,16.6,22.8,26.9v-44.6c10.2-2.8,19.4-5.3,29.7-8.1,9.2,23.6,18.3,46.7,27.7,70.5-6.5,3.5-12.8,6.8-20,10.6-5.3-15.5-10.4-30.3-15.5-45.1-.7.1-1.3.3-1.9.4,0,14.8,0,29.6,0,44.4,0,4.3,0,8.3-5.6,8.5-6.2.2-12.9,7.6-18.7-1.1-7.3-11-14.8-22-22.2-33-.8.3-1.6.6-2.4.8,4.6,15,9.3,29.9,14.2,45.9-7.3,1.6-13.7,2.9-21.2,4.5-7-26-13.9-51.5-21.1-78.2Z"/>
  <path class="st3" d="M1656.9,1073.5c-11.8-6.9-23.4-14-35.3-20.5-4.8-2.6-6.6-5.5-5.7-11.1,1.3-7.8,1.7-15.7,2.6-24.6,15.9,3,30.8,5.8,45.8,8.6,8.5,1.6,17,3.6,25.6,4.5,9,.9,13.2,4.7,11.4,14-.6,2.8.8,6-1.7,9.5-15.8-2.9-31.9-6-48.1-9-.2.5-.4,1.1-.6,1.6,10.1,6.1,20.3,12.1,30.4,18.2,13.5,8.3,13.4,8.3,9.4,25.6-16.9,1-34,2-51.2,3.1,0,.5-.1.9-.2,1.4,15.6,4,31.2,8.1,46.4,12,.4.8.7,1.1.7,1.4,0,18.3-2,19.8-19.2,15.2-19.6-5.2-39.2-10.4-59.2-15.8-.4-10.6,2-20.6,3.1-31.7h45.5c.1-.8.2-1.6.4-2.4Z"/>
  <path class="st3" d="M1510.1,1299.6c4.6-5.4,8.9-10.4,14-16.4,19.9,17.4,39.5,34.5,59,51.6-.2,1-.1,1.8-.5,2.2q-16.4,21.9-43.6,17.5c-8.4-1.4-16.9-2.2-28.2-3.6,13.1,11.4,24.1,20.9,35.7,31-4.8,5.6-9.2,10.7-14.1,16.3-19.9-17.8-39.1-35.1-58.1-52.1.2-1.3,0-2.1.4-2.5q16.3-22.3,44.2-16.8c8.4,1.7,16.9,3,28.2,4.9-13.6-11.8-25.2-21.8-37.1-32.1Z"/>
  <path class="st3" d="M1144.6,1607.3c-5-25.6-9.9-50.3-14.9-75.5,16.2-5,32-8.6,48-10.5,28-3.3,49.2,25.4,39,52.4-5.2,13.8-14.3,23.5-30.1,25.7-13.8,1.9-27.4,5.1-42.1,7.9ZM1166.6,1583.7c17.6-2,26.3-10.9,24.5-23.7-2.2-16.5-8.4-19.7-31.3-15.6,2.2,12.9,4.5,25.9,6.8,39.3Z"/>
  <path class="st3" d="M1137.8,1608.5c-6.2.6-10.3.5-14.1,1.5-10.9,2.8-19.4,1.6-22.9-11.1-1.3-4.7-4.8-5.8-9.4-4.4-2.5.7-5.3,1-7.9.9-8.9,0-14.6,3.7-15.6,12.9-1.2,10.4-7.4,13.5-17.2,13.1-5.5-.3-11.1,1-18,1.7,5.5-14.1,10.5-27.3,15.8-40.5,4.8-12,10-23.9,14.6-36,2-5.3,5.3-7.5,10.8-8.5,23.9-4.3,24.1-4.6,35.4,16.2,9.5,17.4,18.5,35,28.6,54.1ZM1093.4,1577.1c-4-7.4-7.3-13.6-11.7-21.8-2.1,8.6-3.6,14.8-5.2,21.2,5.3,1.9,10.2,1.1,16.8.6Z"/>
  <path class="st3" d="M1413.8,1402.7c5.7-5.2,11-10.1,17-15.6,9.7,10.3,19,20.2,28.2,30.1,2.5,2.7,5.1,5.1,8.6,6.7,7.7,3.6,13.4-.8,17.7-5.5,4.1-4.5,1.4-10.1-2.6-14.3-10.5-11.2-20.9-22.3-30.9-32.9,6-7,11.8-13.6,18.5-21.3,14.1,16.2,27.8,30.7,39.9,46.4,8.2,10.5,6.3,20.2-3.4,29.2-9.3,8.6-18.8,16.9-28.4,25.1-8.3,7-15.9,7.4-22.1.5-14.2-15.7-28-31.9-42.3-48.3Z"/>
  <path class="st3" d="M546.1,1434.7c-12-8.6-22.3-17.5-30.1-28.9-11.5-16.9-11.3-35.1.5-48.8,13.3-15.4,31.9-19.1,50.6-10.2,16.6,7.9,28,20.9,37.2,37.1-4.5,3.8-8.8,7.4-13.6,11.4-6.5-9.4-13.5-18.2-22.9-24.6-9.2-6.3-19.8-6.7-28.1-1.2-10.6,7.1-12.7,15.5-6.3,26.5,2.5,4.2,4.9,8.7,9,11.6,4.2,0,5.2-3.9,8.8-5.6-8.3-10.7,3.4-12.2,7.4-18.3,8.6,7.1,14.6,15.7,22.3,24.3-11.6,9-22.9,17.6-34.7,26.7Z"/>
  <path class="st3" d="M1681.9,1133.3c-3.1,7.8-5.8,14.5-8.5,21.2-2.3,5.8-7.4,3.9-11.2,3.2-8.8-1.5-12.8,1.9-15.9,10.3-4.2,10.9-6.3,19.9,5.4,27.4,4.8,3.1,5.4,7.5,2.2,12.8-3.1,5.1-5.3,10.7-7.7,15.7-15.6-15.1-31.2-29.9-46.5-45-16.9-16.8-17.2-20.2-5.9-41.6,1.5-2.8,2.9-4.1,6-4.1,26.9,0,53.9,0,82.2,0ZM1623.6,1169.6c2.4-5.1,5.1-8.9,4.3-13.9h-20.6c6.2,5.3,10.8,9.3,16.2,13.9Z"/>
  <path class="st3" d="M663.3,1427.4c-4.1,4.8-7.5,8.7-11.3,13.2-10.4-7.8-20.1-15.1-29.8-22.5-4,1.8-6,4.6-7.9,8,8.3,6.7,16.3,13.2,24.4,19.7-4.2,5.2-8,9.7-13.5,13.5-9.5-4.4-16.7-12.6-26-17.8-3.5,2-5.6,5.4-8.7,9.2,10.3,8,20.4,15.9,31,24.2-3.8,4.8-7,9.7-12.9,13.1-17.4-13.8-34.8-27.6-52.2-41.5,19.5-19.1,38.4-37.7,58-56.9,15.3,11.8,31.5,24.4,48.9,37.8Z"/>
  <path class="st3" d="M1544.3,662c20.6-20,40.3-39.1,60.7-58.9,3.8,7.3,10.7,14.8,10.8,22.4.1,8.1-10.9,12.4-15.6,20.4,1.7,3.1,3.9,6.4,5.5,9.9,4.2,9.6,10.7,14.7,21.7,12.2,8.5-1.9,13.9,1.6,16.5,9.9,1.2,3.7,4.7,6.4,5,11.6-28.8,0-57.3,0-85.9,0-3.1,0-4.8-1.5-6.2-4.1-4-7.7-8.1-15.3-12.5-23.5ZM1575.7,667.2h16.7c-1.4-4.6-3-8-6.8-11.3-3.1,3.5-6,6.8-9.9,11.3Z"/>
  <path class="st3" d="M913.3,1595.5c-1.3,6.3-2,11.2-5.3,16.3-20.3-3.9-40.8-7.8-62.4-11.9,6-26,11.8-51.5,17.8-77.8,21.4,2.9,41.9,7,62.3,11.7.9,5.2-1.3,9-2.6,13.6-12.3.7-24.2-3.3-36.1-3.8-3.1,4.1-2.9,8.4-3.1,12.8,5.2,3.6,11.4,3.7,17.1,4.9,13.4,2.9,13.5,2.7,11.8,18-7.6,1.5-15.1-.8-22.2-2.6-9.4-2.4-13.9.5-15.1,11.2,12.1,2.4,24.5,4.9,37.9,7.5Z"/>
  <path class="st3" d="M1575.5,717.5c5.4-2,10-3.7,15.1-5.6,3.9,8.7,4.4,18.3,10.6,25.7,6.7,8,22.1,10.6,31.7,5,10-5.9,12.6-14.6,7.4-26.6-2.4-5.7-5.5-11.1-8.4-16.8,23.6-2.8,23.2-4.2,31.8,17.6,6.7,17,6,33.5-8,47-15.2,14.6-47,14.2-62.1-1.1-12.1-12.3-17.1-27.9-18.1-45.2Z"/>
  <path class="st3" d="M1594,1198.1c-7.9,7.9-11.1,17.3-13.4,27.1-2.4,10.1,1.3,19,9.1,23.2,8,4.2,18.8,2.4,26-3.8,7.7-6.7,9.6-16.4,12.7-25.4,19.4,11.9,18.7,11.1,9.7,29.9-2,4.2-4.8,8-7.6,11.7-17.5,22.3-49.2,21.8-66.7-.8-9.3-12-7.9-25-3.9-38,3.4-10.8,8.5-20.9,16.4-30,5.8.6,10.9,3.7,17.6,6.3Z"/>
  <path class="st3" d="M1649.4,778.4c4.6,8.5,1.5,18.2,5.5,26.8,11.1-1.7,21.8-3.4,32.9-5.1,4.1,7.7,4.1,16,6.4,25.1-27.1,5.5-53.6,10.8-81,16.3-4.5-19.8-8.9-38.8-13.3-58.2,5.5-2.5,10.6-4.2,16.8-4.1,2.7,11.2,5.3,22,7.8,32.7,4.5.1,7.9-.5,11.9-2.4-1.4-8.9-2.7-17.6-4.1-26.6,5.5-3.1,11.4-3.2,17-4.5Z"/>
  <path class="st3" d="M1673.5,986.8h-13.3c-2.3-1.3-1.6-4.1-2.7-6-2.1-3.9-4.1-8.3-9.6-6.7-5.6,1.6-7.2,6.1-7.1,11.7.1,6.4,4.3,6.5,8.8,6.5,16.6,0,33.2,0,49.7,0,2.9,8.9,1.6,16.1,1.6,24.7-25.5-1.3-50.5-2.5-76.4-3.8,0-15.9-.7-31.1.2-46.3.7-10.3,12.7-17.7,24.8-17.1,14.9.8,23,7,23.9,18.9.5,5.6,0,11.3,0,18.1Z"/>
  <path class="st3" d="M700.5,1473.3c-4.8-2.9-9-5.5-13.2-8.1-2.5-1.6-5-3.6-8.2-1.6-3.3,2.1-3.9,5.4-3.2,8.8,1.5,7.8,3.3,15.6,5.1,23.4,2.1,9-.4,16.6-7.4,22.3-6.9,5.6-14.5,3.7-21.6.2-10.6-5.2-18.9-13.9-26.5-22.4-5.5-6.2,4-12.1,4.9-20.7,5.7,6,10.1,10.4,14.3,15,2.9,3.2,6.1,5.5,10.5,3.4,4.8-2.3,3.6-6.4,2.3-10.4-1.9-6.4-4-12.7-5.3-19.2-1.7-8.8.3-16.9,8.2-22,7.9-5.1,17.1-6.8,25.4-1.4,8,5.2,15,11.9,23,18.4-2.9,4.9-5.5,9.4-8.3,14.3Z"/>
  <path class="st3" d="M983,1558.9c-6-2.9-11.9-5.8-18.8-5.8-7.2,0-9.1,2.4-6,9.1,3.5,7.4,9.7,12.6,14.9,18.6,12.5,14.3,7.5,30.1-10.8,34.7-8.3,2.1-16.4,1.5-24.7,0-15.6-2.7-16.4-3.7-13.2-20.8,9.5,2,19,6,29.2,2.5,1.2-7.4-3.5-11.6-7.6-16.3-4.5-5.2-11.4-8.4-13.6-15.6-5-15.9,8.3-31.3,26.6-30.9,2.7,0,5.3.6,7.9,1.1,16,3.2,18.1,6.3,16.1,23.4Z"/>
  <path class="st3" d="M1607.1,1299.6c-5.8,7.8-10.6,14.5-15.8,21.6-21-14.5-41.5-28.7-62.7-43.3,3.8-7.2,7.5-14,11.9-22.3,22.3,14.8,44,29.1,66.6,44Z"/>
  <path class="st3" d="M1044.7,1544.4c-8.6,15.2-17.1,30.1-25.6,45-7.5,13.3-16,26.2-22.4,40-5.7,12.1-13.5,17-27.7,12.8,8-13.9,15.9-27.9,23.9-41.8,8.8-15.3,17.8-30.4,26.5-45.7,7.5-13.2,8.2-13.6,25.3-10.3Z"/>
  <path class="st3" d="M1663.6,905.6c-9.1.2-17.3-7.1-17.5-15.4-.1-8.7,8.4-18,16.6-18.1,8.3-.1,17.2,8.7,17.5,17.3.3,8.5-7.4,16-16.7,16.2Z"/>
  <path class="st3" d="M1395.6,1477.7c0,8.7-7.3,15.5-16.2,15.2s-16.1-7.8-16.2-16.9c0-8.1,6.6-15.5,13.8-15.3,10.2.3,18.7,8,18.6,17Z"/>
  <path class="st3" d="M842.4,1493.1c-4,13-11.5,15.2-19.9,6.2-2.5-2.8-4.8-5.7-8.7-5.9-3.9-.3-6.8-2.2-10-4.8,4.1-6.8,10.2-8.9,15.6-4.1,5,4.4,9,7,15.7,5.3,2-.5,5.2.6,7.3,3.3Z"/>
  <path class="st3" d="M718.5,480.5c-15.3-24.3-30.1-47.9-45.6-72.5,12-7.1,23.4-14.5,35.4-20.6,9.5-4.8,16.3,1.7,20.8,8.9,9,14.3,17.2,29.2,25.4,44.1,4.5,8.2,2.7,16.3-5.5,21.8-9.6,6.4-19.8,12-30.5,18.4ZM701.5,411.4c9.3,15.1,18.1,29.2,27.2,44,5.9-5.8,3.3-10.7,1.3-15-3.9-8.4-8.5-16.5-12.5-24.8-3.3-7.1-8.3-7.5-16-4.2Z"/>
  <path class="st3" d="M1187.8,416.3c-18.8-.3-30.3-15.3-25.8-33.8,2.7-11.3,5.1-22.8,8.5-33.9,6.3-20.4,26.4-27.1,43.7-15.1,8.3,5.7,11.5,13.9,9.4,23.5-2.9,13.3-6.2,26.6-10.1,39.7-3.6,12.6-13.7,19.8-25.8,19.6ZM1187.3,395.3c8.5-5.2,16.7-35.9,12.6-47.2-9.8,6.3-18.2,38.1-12.6,47.2Z"/>
  <path class="st3" d="M816.9,364.4c0-17.8,9-28.5,23.8-30.6,15.4-2.2,24.8,4.3,29,20.4,3,11.5,6,23.1,8.5,34.8,2.8,13.4-3.1,25.5-14.5,30.9-11.3,5.3-24.5,2.6-32.7-6.5-3.6-4-4.2-8.8-5.4-13.6-3-12.6-7.4-24.8-8.7-35.4ZM854,401.9c5.2-9.6-1.8-40.1-10.6-48.2-5.3,8.3,1.4,39.8,10.6,48.2Z"/>
  <path class="st3" d="M1090.3,353.2c7.7,9.4,10.2,20.2,6.1,32.3-3.1,9.5-9.8,13.7-19.7,12.4-9.8-1.2-19.7-2.2-30.6-3.5,1.4-27.7,2.7-54.8,4.1-82.3,13.2-1.4,25.8,0,38.2,1.3,7.8.9,13.1,15.4,9.5,25.4-1.8,4.9-4.9,9.4-7.6,14.4ZM1066.6,378c6.9-1.5,12-4,11.7-10.7-.3-6.4-4.8-8.8-11.3-7.4-1.3,5.6-.7,11.1-.3,18.1ZM1069.3,341.9c5.8-1.9,10-4.2,8.9-9.9-.8-4.2-4.3-5.6-8.7-4-1.4,4.2-.9,8.5-.2,13.9Z"/>
  <path class="st3" d="M1006,311.9v50c0,2.7-.2,5.3,0,8,.1,4.3,1.7,8.7,6.3,8.7,4.6,0,6.2-4.4,6.3-8.7.3-15.6.4-31.3.6-46.9,0-3.6,0-7.2,0-11h18.2c0,23.4.6,46.2-.3,69-.5,12.2-9.7,18.3-23.2,18.1-15.9-.3-26.3-7.9-27-22.2-.9-21.2-.2-42.5-.2-64.9,4.7-1.6,11.6.3,19.3-.2Z"/>
  <path class="st3" d="M872.5,326.5c7.7-1.2,14.2-2.2,22.1-3.4,3,17.4,5.8,34.3,8.7,51.2.2,1.3.3,2.6.4,4,.4,4.8,2.8,9.3,7.5,8.9,5.4-.5,5.6-5.8,4.9-10.3-2.5-16.5-5.1-32.9-7.6-49.4-.3-2.2-.4-4.5-.6-7.2,6-1.9,11.7-3.2,18.9-2.8,2.3,16.3,4.7,32.6,7,48.9.8,5.3,1.7,10.5,2.2,15.8,1.2,12.7-1.8,18.5-11.5,22.8-11.8,5.1-25.5,3.1-32.5-4.7-3.1-3.5-5.3-7.6-6.3-12.3-4.4-20.1-8.7-40.3-13.3-61.5Z"/>
  <path class="st3" d="M1149.4,404.5q-16.4-2.5-16.6-17.5c0-4.3.2-8.7,0-13-.2-3.7-2.1-6.5-6.2-6.4-3.9,0-4.6,3-5,6.2-.8,8.2-1.8,16.4-2.8,24.5-5,1.1-9.2.9-14.6-.1.8-26.8,6.2-53.2,8.8-81.2,12.8,0,25.4-.9,37.8.3,9.5,1,16.8,19,9.6,28.2-9.9,12.6-8.1,25.9-8.5,39.6-.2,6.2-1.6,12.4-2.6,19.3ZM1130.7,347.8c5.6-.4,10.4-1.3,9.9-7.5-.4-5.9-5.1-6.5-10-6.4-1.4,4.6-1.4,8.7,0,13.9Z"/>
  <path class="st3" d="M570.3,589.4c3.2-4.2-1.5-5.8-3-7.9-11.4-15.5-22.9-31-34.9-46-4.1-5.1-4.6-8.2.4-13.2,12.5-12.5,12.3-12.7,27.7-3.6,21.1,12.5,42.2,25.1,64,38-5.9,4.8-11.6,9.5-18.2,14.8-1.8-1-6-3.5-10.2-5.9-3.3,1.9-5.6,4-7,7.6,2.5,3.3,5,6.7,7.8,10.5-5.3,5.1-10.4,9.8-15.2,14.3-3.9.2-3.4-5.8-7.6-4.8v.2c.8-2.1.6-3.4-2-2.2l.2.2c0-.8,0-1.5.1-2.2-.7,0-1.5,0-2.2.1h.1ZM557.7,535.6c-.5.5-1.1,1-1.7,1.5,5.8,7.7,11.5,15.4,17.9,23.9,3.1-3.5,5.3-6.1,8.1-9.3-8.5-5.6-16.4-10.9-24.3-16.1Z"/>
  <path class="st3" d="M423.2,678.4q10.9-23.6,33.8-16.8c22.2,6.6,44.4,13,67.3,19.6-3.8,6.7-7.4,12.8-10.9,19-6.9.7-16.1-9.3-19.5,5.3,3.1,2.7,6.6,5.7,10.3,8.9-3.8,5.8-7.5,11.6-12,18.5-23.1-18.2-45.9-36.2-69-54.5ZM480.7,686.5c-8.9-3.1-18-6.2-27-9.4-.3.7-.7,1.3-1,2,7.5,6.1,15.1,12.2,22.6,18.3,3.5-3.1,5.1-6.1,5.4-10.9Z"/>
  <path class="st3" d="M562.2,609.5c.5,3.4,4.9,1.7,5.9,5.7-3.7,4.8-8,10.3-12.6,16.3-4.7-1.8-9.3-3.5-13.7-5.2-3.1,1.5-4.6,4-5.9,6.8.8,5.1,6.5,6.3,8.7,10.9-3.4,4.1-7.1,8.1-10.3,12.6-2.7,3.7-5.2,3.1-8.1.7v.2c-.8-1.7-1.4-4.1-4.1-2h.2c1.4-4.4-2.9-5.8-5-8-15.7-16.7-31.6-33-48.3-50.4,4.2-5.4,8.4-10.4,12.2-15.7,2.9-4,5.7-4,10.1-2,21.1,9.7,42.4,18.9,63.7,28.2,2.3,1,4.3,3.3,7.3,2.1,0,0-.2-.2-.2-.2ZM498.3,601c8,8,14.6,14.5,21.6,21.5,2-2.8,4-5.5,6.4-8.9-9.4-4.1-17.1-9.5-28-12.6Z"/>
  <path class="st3" d="M664.2,494.1c4.3,23.7,4,24.7-11.8,32.8-4.3-13.4-8.8-26.6-12.9-39.9-1.6-5.1-4.1-8.4-9.3-10.6-10.4-4.4-20.3-9.8-30.5-14.7,7.9-13.2,18.2-15.5,33.1-5.3-3-8.1-4.7-12.9-6.7-18.4,5.5-4.5,11.1-9.1,18.1-14.9,3.2,12,6.5,22.9,9,34,1.3,5.6,3.5,9.3,8.9,12.1,12.9,6.8,25.3,14.5,38.8,22.4-5.9,5-11.1,9.4-16.6,14.1-6.4-3.7-12.7-7.3-20.2-11.7Z"/>
  <path class="st3" d="M769.3,359.7c2.6,5.1,4.7,9.1,7.4,14.3-6.3,2.9-12.2,5.6-18.3,8.5.3,6.2,3.5,10.6,7,15.3,5.8-2.1,11.3-4.1,17.3-6.3,3.8,5.1,4.7,10.9,5.9,16.7-3.9,4.5-10.5,2.6-14.5,6.8.2,4.6,3,8.4,5,13,7.5-.4,13.2-6.2,20.5-6.9,4,2.7,4.5,7.2,7,12-13.1,5.8-25.9,11.5-39.6,17.5-11.7-24.6-22.9-48.1-34.5-72.4,12.1-6.1,23.9-12.1,36.7-18.5Z"/>
  <path class="st3" d="M970.9,398.4h-19c-1.8-21.3-3.6-42.4-5.4-63.1-4-3.1-8.3-.6-12.5-2.5-2.1-5.1-.3-10.6-1-16.7,15.3-2.5,30.1-2.3,45.1-2.8,2,6.6.9,12.8,1,19.5-3.1.5-5.9,1-8,1.4,0,21.7,0,42.8,0,64.3Z"/>
  <path class="st3" d="M574.2,593.3c2.3,10-1.9,15.3-11.9,16.2,0,0,.2.2.2.2,0-.3.2-.8,0-1-4-4-7.8-8.3-5.2-14.6,2.5-6,8.8-2.8,13-4.7h-.1c-.8,2.1.7,2.1,2.1,2,0,0-.2-.2-.2-.2,0,1.5.4,2.5,2.2,2.2v-.2Z"/>
  <path class="st3" d="M526.2,657.2c-2.7,1.7-.3,3.5,0,5,1.5,6.1.4,10.7-6.6,11.7-5.8.8-9.6-2.5-10.8-7.9-1.4-6.6,2-9.9,8.6-10.3,1.6,0,3.2-.2,4.8-.3h-.2c.5,2.4,1.6,3.8,4.2,2v-.2Z"/>
  <path class="st3" d="M622.2,530.1c6.8.4,9.5,4.6,9.8,10.4.3,6.1-4.5,8.2-9.2,7.8-5.3-.4-8.7-3.8-8.8-9.9-.1-6.1,3.2-8.1,8.2-8.4Z"/>
  <path class="st1" d="M1279.2,532c-8.9,6.2-12.4,18.1-23.3,22.1-3.8-5.6,1.9-10.2-.5-15.6-19.6,13.9-34.2,34.7-58.8,43-.4-9.8,2.9-17.8,6.4-25.4,34.7-76.6,89.3-134,165.6-170.1,5.3-2.5,11-4.6,16.7-6.1,5.4-1.5,9-.5,7.7,6.9-8,46.9-24.7,90.3-52.4,129.2-12,16.8-24.3,33.3-41.4,45.3-1.6,1.1-3.4,1.8-5.9,3.1-2-6.6.8-12.3,0-18.5-4.3-.2-6.4,4-10.6,4.9-5.2-5.2-.7-12.5-3.5-18.8Z"/>
  <path class="st1" d="M1090.2,723.3c-2.3-.1-4.5-.2-8.1-.4,6.2-10.9,14.4-19,21.9-29.2h-29c14.2-19.2,33.1-25.8,52.2-32.1-7.6,7.9-18.4,11.6-25.7,21.2h29c-6.1,7.5-10.9,13.5-16.2,20,9.2-.1,16.5-7.1,28.2-4.1-17.2,12.2-35.4,20-48.4,36.6h46.9c-5.1,8-13.8,9.8-18,17.4,5.6,1.2,11.6-.3,16.5,4.2-17.3,2-33.9,3.9-50.6,5.8,7.7-9.6,21.3-9,30.4-19.3-16.3-.2-30.9,4.6-46.4,6.1,2-7.7,6.9-12.2,11.1-17.3,2.3-2.8,6.8-4.2,6-9.1.7,0,1.5.1,2.2.2,0-.4,0-.8,0-1.2-.7.4-1.4.9-2.1,1.3Z"/>
  <path class="st1" d="M1193.1,638c-9.9,9.6-33.3,17.4-43.6,16.8,2.2-6.2,10.6-5.4,12.7-11.7-10.2-5-21.5,4-31.9-1.8,10.2-11.8,44.3-19.2,62.5-13.2-12.6,4.3-25.4,2.7-36.4,9.9h36.6Z"/>
  <path class="st1" d="M1401.4,1091.2c3.1,0,6.1-.1,9,0,4.4.2,9.5-5.4,13.1,1.5,4.2,8.1,6.8,16.5,4.4,25.7-.2.8-1.1,1.9-1.8,2.2-8.6,3.5-15.1-2.6-22.3-5.3-4.7-1.7-5.8-5.2-4.2-10.4,1.2-3.9-1-8.5,1.7-13.8Z"/>
  <path class="st1" d="M1413.1,1067.4c4.6,3.2,7.1,7.5,4.3,12.1-3,4.9-8.7,5.7-14.1,5.6-2.6,0-5.7-1.3-5.1-4.8,1.5-8.3,9.8-8.8,14.9-12.9Z"/>
  <path class="st2" d="M824.4,1540.7c.2,13.6-9.7,22.8-24.4,22.9-10,.1-18.4-8.5-18.6-19.1-.3-12.6,11.7-23.3,25.9-23.2,9.4,0,17,8.7,17.1,19.4Z"/>
  <path class="st2" d="M1166.6,1583.7c-2.3-13.5-4.6-26.4-6.8-39.3,22.9-4.1,29.1-.9,31.3,15.6,1.7,12.9-7,21.7-24.5,23.7Z"/>
  <path class="st2" d="M1093.4,1577.1c-6.6.5-11.5,1.3-16.8-.6,1.6-6.4,3.1-12.6,5.2-21.2,4.4,8.2,7.7,14.4,11.7,21.8Z"/>
  <path class="st2" d="M1623.6,1169.6c-5.4-4.7-10-8.6-16.2-13.9h20.6c.8,5-1.9,8.8-4.3,13.9Z"/>
  <path class="st2" d="M1575.7,667.2c3.9-4.4,6.8-7.8,9.9-11.3,3.8,3.3,5.4,6.7,6.8,11.3h-16.7Z"/>
  <path class="st2" d="M701.5,411.4c7.7-3.3,12.6-2.9,16,4.2,4,8.4,8.6,16.4,12.5,24.8,2,4.3,4.6,9.1-1.3,15-9.1-14.7-17.9-28.9-27.2-44Z"/>
  <path class="st2" d="M1187.3,395.3c-5.7-9.1,2.8-40.9,12.6-47.2,4.2,11.3-4,42-12.6,47.2Z"/>
  <path class="st2" d="M854,401.9c-9.3-8.4-15.9-40-10.6-48.2,8.8,8.2,15.9,38.7,10.6,48.2Z"/>
  <path class="st2" d="M1066.6,378c-.4-7-1-12.5.3-18.1,6.5-1.5,11,1,11.3,7.4.3,6.7-4.7,9.3-11.7,10.7Z"/>
  <path class="st2" d="M1069.3,341.9c-.8-5.4-1.2-9.6.2-13.9,4.4-1.6,7.8-.2,8.7,4,1.1,5.7-3,8-8.9,9.9Z"/>
  <path class="st2" d="M1130.7,347.8c-1.4-5.2-1.5-9.2,0-13.9,4.9-.1,9.6.5,10,6.4.4,6.2-4.4,7.1-10,7.5Z"/>
  <path class="st2" d="M557.7,535.6c7.9,5.2,15.8,10.5,24.3,16.1-2.8,3.2-5,5.8-8.1,9.3-6.3-8.5-12.1-16.2-17.9-23.9.5-.5,1.1-1,1.7-1.5Z"/>
  <path class="st2" d="M574.3,593.5c-1.7.3-2.2-.6-2.2-2.2,2.6-1.2,2.8,0,2.2,2.2Z"/>
  <path class="st2" d="M572.3,591.5c-1.5,0-2.9,0-2.1-2.1.7,0,1.5,0,2.2-.1,0,.8,0,1.5-.1,2.2Z"/>
  <path class="st2" d="M480.7,686.5c-.2,4.8-1.9,7.8-5.4,10.9-7.5-6.1-15.1-12.2-22.6-18.3.3-.7.7-1.3,1-2,9,3.1,18,6.3,27,9.4Z"/>
  <path class="st2" d="M498.3,601c11,3.1,18.7,8.5,28,12.6-2.4,3.4-4.5,6.2-6.4,8.9-7-7-13.6-13.5-21.6-21.5Z"/>
  <path class="st2" d="M526.3,657.4c-2.6,1.8-3.7.4-4.2-2,2.7-2,3.3.3,4.2,2Z"/>
  <path class="st2" d="M1090.2,723.3c.7-.4,1.4-.8,2.1-1.2,0,.4,0,.8,0,1.2-.7,0-1.5-.1-2.2-.2,0,0,0,.2,0,.2Z"/>
</svg>